<svg xmlns="http://www.w3.org/2000/svg" xmlns:xlink="http://www.w3.org/1999/xlink" viewBox="0 0 409.02 365"><defs><style>.cls-1{fill:none;}.cls-2{clip-path:url(#clip-path);}.cls-3{fill:#fff;}.cls-4{clip-path:url(#clip-path-2);}.cls-5{fill:#070606;}.cls-6{clip-path:url(#clip-path-3);}.cls-7{clip-path:url(#clip-path-4);}.cls-8{clip-path:url(#clip-path-5);}.cls-9{clip-path:url(#clip-path-6);}.cls-10{clip-path:url(#clip-path-7);}.cls-11{clip-path:url(#clip-path-8);}.cls-12{clip-path:url(#clip-path-9);}.cls-13{clip-path:url(#clip-path-10);}.cls-14{clip-path:url(#clip-path-11);}.cls-15{clip-path:url(#clip-path-12);}.cls-16{clip-path:url(#clip-path-13);}.cls-17{clip-path:url(#clip-path-14);}.cls-18{clip-path:url(#clip-path-15);}.cls-19{clip-path:url(#clip-path-16);}.cls-20{clip-path:url(#clip-path-17);}.cls-21{clip-path:url(#clip-path-18);}.cls-22{clip-path:url(#clip-path-19);}.cls-23{clip-path:url(#clip-path-20);}.cls-24{clip-path:url(#clip-path-21);}.cls-25{clip-path:url(#clip-path-22);}.cls-26{clip-path:url(#clip-path-23);}.cls-27{clip-path:url(#clip-path-24);}.cls-28{clip-path:url(#clip-path-25);}.cls-29{clip-path:url(#clip-path-26);}.cls-30{clip-path:url(#clip-path-27);}.cls-31{clip-path:url(#clip-path-28);}.cls-32{clip-path:url(#clip-path-29);}.cls-33{clip-path:url(#clip-path-30);}.cls-34{clip-path:url(#clip-path-31);}.cls-35{clip-path:url(#clip-path-32);}.cls-36{clip-path:url(#clip-path-33);}.cls-37{clip-path:url(#clip-path-34);}.cls-38{clip-path:url(#clip-path-35);}.cls-39{fill:#cfebce;}.cls-40{fill:#151f16;}.cls-41{fill:#fe150d;}.cls-42{fill:#171213;}.cls-43{fill:#e33029;}</style><clipPath id="clip-path"><polygon class="cls-1" points="191.68 270 221.02 270 221.02 271.43 191.68 270"/></clipPath><clipPath id="clip-path-2"><polygon class="cls-1" points="221.02 271.43 221.02 270 275.02 270 275.02 274.06 221.02 271.43"/></clipPath><clipPath id="clip-path-3"><polygon class="cls-1" points="275.02 274.06 275.02 270 329.02 270 329.02 276.69 275.02 274.06"/></clipPath><clipPath id="clip-path-4"><path class="cls-1" d="M329,276.69V270h49q-.39,4.51-1,9Z"/></clipPath><clipPath id="clip-path-5"><path class="cls-1" d="M20.19,261.65a5.26,5.26,0,0,0,.19-.6C24.29,246.38,25.25,231.12,27,216H59v47.55Zm-2.05.62c-.07-.43.1-.86.54-.69l1.51.07c-.26.67-.66,1.28-1.34,1.35H18.8c-.38,0-.61-.37-.67-.73Z"/></clipPath><clipPath id="clip-path-6"><polygon class="cls-1" points="59.02 263.54 59.02 216 113.02 216 113.02 266.17 59.02 263.54"/></clipPath><clipPath id="clip-path-7"><polygon class="cls-1" points="113.02 266.17 113.02 216 167.02 216 167.02 268.8 113.02 266.17"/></clipPath><clipPath id="clip-path-8"><polygon class="cls-1" points="191.68 270 167.02 268.8 167.02 216 221.02 216 221.02 270 191.68 270"/></clipPath><clipPath id="clip-path-9"><rect class="cls-1" x="221.02" y="216" width="54" height="54"/></clipPath><clipPath id="clip-path-10"><rect class="cls-1" x="275.02" y="216" width="54" height="54"/></clipPath><clipPath id="clip-path-11"><path class="cls-1" d="M329,270V216h48.46c.12,1.42.22,2.83.3,4.22.91,16.58,1.7,33.23.28,49.78Z"/></clipPath><clipPath id="clip-path-12"><path class="cls-1" d="M27,216a182.92,182.92,0,0,1,4.69-27c2.48-9.26,6.1-18.15,9.79-27H59v54Z"/></clipPath><clipPath id="clip-path-13"><rect class="cls-1" x="59.02" y="162" width="54" height="54"/></clipPath><clipPath id="clip-path-14"><rect class="cls-1" x="113.02" y="162" width="54" height="54"/></clipPath><clipPath id="clip-path-15"><rect class="cls-1" x="167.02" y="162" width="54" height="54"/></clipPath><clipPath id="clip-path-16"><rect class="cls-1" x="221.02" y="162" width="54" height="54"/></clipPath><clipPath id="clip-path-17"><rect class="cls-1" x="275.02" y="162" width="54" height="54"/></clipPath><clipPath id="clip-path-18"><path class="cls-1" d="M329,216V162h47.77a84.6,84.6,0,0,1,1.89,11.19c.7,6.92-1,11.83-1.88,18.4-1,7.86,0,16.34.69,24.41Z"/></clipPath><clipPath id="clip-path-19"><path class="cls-1" d="M41.42,162c3.8-9.12,7.66-18.23,10.42-27.71,2.52-8.64,4.11-17.6,6.43-26.29H59v54Z"/></clipPath><clipPath id="clip-path-20"><rect class="cls-1" x="59.02" y="108" width="54" height="54"/></clipPath><clipPath id="clip-path-21"><rect class="cls-1" x="113.02" y="108" width="54" height="54"/></clipPath><clipPath id="clip-path-22"><rect class="cls-1" x="167.02" y="108" width="54" height="54"/></clipPath><clipPath id="clip-path-23"><rect class="cls-1" x="221.02" y="108" width="54" height="54"/></clipPath><clipPath id="clip-path-24"><rect class="cls-1" x="275.02" y="108" width="54" height="54"/></clipPath><clipPath id="clip-path-25"><path class="cls-1" d="M329,162V108h11.12a92.8,92.8,0,0,1,36.65,54Z"/></clipPath><clipPath id="clip-path-26"><path class="cls-1" d="M58.27,108c.24-.92.49-1.83.75-2.74V108Z"/></clipPath><clipPath id="clip-path-27"><path class="cls-1" d="M59,108v-2.74a89.46,89.46,0,0,1,4.58-12.6c7.95-17.2,23-30.38,40.12-38.66H113v54Z"/></clipPath><clipPath id="clip-path-28"><rect class="cls-1" x="113.02" y="54" width="54" height="54"/></clipPath><clipPath id="clip-path-29"><path class="cls-1" d="M167,108V54H189.7A272.75,272.75,0,0,1,220,65.87l1.06.5V108Z"/></clipPath><clipPath id="clip-path-30"><path class="cls-1" d="M221,108V66.37c12.77,5.92,25.59,11.8,39,15.9C265,83.77,270,85,275,86.18V108Z"/></clipPath><clipPath id="clip-path-31"><path class="cls-1" d="M275,108V86.17c18.37,4.21,37.17,7.06,54,15.29V108Z"/></clipPath><clipPath id="clip-path-32"><path class="cls-1" d="M329,108v-6.54l1.21.6a82.73,82.73,0,0,1,9.91,5.94Z"/></clipPath><clipPath id="clip-path-33"><path class="cls-1" d="M103.72,54c1.12-.54,2.25-1.06,3.38-1.56,2-.86,3.92-1.66,5.93-2.4v4Z"/></clipPath><clipPath id="clip-path-34"><path class="cls-1" d="M113,54v-4a79.88,79.88,0,0,1,32.74-5.24A152.27,152.27,0,0,1,167,47.87V54Z"/></clipPath><clipPath id="clip-path-35"><path class="cls-1" d="M167,54V47.87A224.52,224.52,0,0,1,189.7,54Z"/></clipPath></defs><title>Asset 1</title><g id="Layer_2" data-name="Layer 2"><g id="Layer_1-2" data-name="Layer 1"><g id="Group_9826" data-name="Group 9826"><g id="Group_9757" data-name="Group 9757"><g class="cls-2"><g id="Group_9756" data-name="Group 9756"><path id="Path_23179" data-name="Path 23179" class="cls-3" d="M221,324H167V270h54v54"/></g></g></g><g id="Group_9759" data-name="Group 9759"><g class="cls-4"><g id="Group_9758" data-name="Group 9758"><path id="Path_23182" data-name="Path 23182" class="cls-3" d="M275,324H221V270h54v54"/><path id="Path_23183" data-name="Path 23183" class="cls-5" d="M225.35,274.61a1,1,0,0,1,1-.9,1,1,0,0,1,.9,1,1,1,0,0,1-1.93-.14Z"/><path id="Path_23184" data-name="Path 23184" class="cls-5" d="M244.71,274.61a1,1,0,1,1,1.93.14,1,1,0,0,1-1.93-.14Z"/><path id="Path_23185" data-name="Path 23185" class="cls-5" d="M262.17,274.61a1,1,0,0,1,1-.9,1,1,0,1,1-1,.9h0"/></g></g></g><g id="Group_9761" data-name="Group 9761"><g class="cls-6"><g id="Group_9760" data-name="Group 9760"><path id="Path_23188" data-name="Path 23188" class="cls-3" d="M329,324H275V270h54v54"/><path id="Path_23189" data-name="Path 23189" class="cls-5" d="M279.35,274.61a1,1,0,0,1,1-.9,1,1,0,0,1,.9,1,1,1,0,0,1-1.93-.14h0"/><path id="Path_23190" data-name="Path 23190" class="cls-5" d="M298.71,274.61a1,1,0,1,1,1.93.14,1,1,0,0,1-1.93-.14h0"/><path id="Path_23191" data-name="Path 23191" class="cls-5" d="M316.17,274.61a1,1,0,0,1,1-.9,1,1,0,1,1-1,.9h0"/></g></g></g><g id="Group_9763" data-name="Group 9763"><g class="cls-7"><g id="Group_9762" data-name="Group 9762"><path id="Path_23194" data-name="Path 23194" class="cls-3" d="M383,324H329V270h54v54"/><path id="Path_23195" data-name="Path 23195" class="cls-5" d="M333.35,274.61a1,1,0,0,1,1-.9,1,1,0,0,1,.9,1,1,1,0,0,1-1.93-.14h0"/><path id="Path_23196" data-name="Path 23196" class="cls-5" d="M352.71,274.61a1,1,0,1,1,1.93.14,1,1,0,0,1-1.93-.14h0"/><path id="Path_23197" data-name="Path 23197" class="cls-5" d="M370.17,274.61a1,1,0,0,1,1-.9,1,1,0,1,1-1,.9h0"/></g></g></g><g id="Group_9765" data-name="Group 9765"><g class="cls-8"><g id="Group_9764" data-name="Group 9764"><path id="Path_23200" data-name="Path 23200" class="cls-3" d="M59,270H5V216H59Z"/><path id="Path_23201" data-name="Path 23201" class="cls-5" d="M28.71,220.61a1,1,0,1,1,1.93.14,1,1,0,0,1-1.93-.14Z"/><path id="Path_23202" data-name="Path 23202" class="cls-5" d="M46.17,220.61a1,1,0,0,1,1-.9,1,1,0,1,1-1,.9Z"/><path id="Path_23203" data-name="Path 23203" class="cls-5" d="M28.71,238a1,1,0,0,1,1-.9,1,1,0,1,1-1,.9Z"/><path id="Path_23204" data-name="Path 23204" class="cls-5" d="M46.17,238a1,1,0,1,1,1.93.13,1,1,0,0,1-1.93-.13Z"/><path id="Path_23205" data-name="Path 23205" class="cls-5" d="M28.71,255.34a1,1,0,1,1,1.93.13,1,1,0,0,1-1.93-.13Z"/><path id="Path_23206" data-name="Path 23206" class="cls-5" d="M46.17,255.34a1,1,0,0,1,1-.9,1,1,0,1,1-1,.9Z"/></g></g></g><g id="Group_9767" data-name="Group 9767"><g class="cls-9"><g id="Group_9766" data-name="Group 9766"><path id="Path_23209" data-name="Path 23209" class="cls-3" d="M113,270H59V216h54Z"/><path id="Path_23210" data-name="Path 23210" class="cls-5" d="M63.35,220.61a1,1,0,0,1,1-.9,1,1,0,0,1,.9,1,1,1,0,0,1-1.93-.14Z"/><path id="Path_23211" data-name="Path 23211" class="cls-5" d="M82.71,220.61a1,1,0,1,1,1.93.14,1,1,0,0,1-1.93-.14Z"/><path id="Path_23212" data-name="Path 23212" class="cls-5" d="M100.17,220.61a1,1,0,0,1,1-.9,1,1,0,1,1-1,.9Z"/><path id="Path_23213" data-name="Path 23213" class="cls-5" d="M63.35,238a1,1,0,1,1,.9,1,1,1,0,0,1-.9-1Z"/><path id="Path_23214" data-name="Path 23214" class="cls-5" d="M82.71,238a1,1,0,0,1,1-.9,1,1,0,1,1-1,.9Z"/><path id="Path_23215" data-name="Path 23215" class="cls-5" d="M100.17,238a1,1,0,1,1,1.93.13,1,1,0,0,1-1.93-.13Z"/><path id="Path_23216" data-name="Path 23216" class="cls-5" d="M63.35,255.34a1,1,0,0,1,1-.9,1,1,0,1,1-1,.9Z"/><path id="Path_23217" data-name="Path 23217" class="cls-5" d="M82.71,255.34a1,1,0,0,1,1.93.13,1,1,0,1,1-1.93-.13Z"/><path id="Path_23218" data-name="Path 23218" class="cls-5" d="M100.17,255.34a1,1,0,0,1,1-.9,1,1,0,1,1-1,.9Z"/></g></g></g><g id="Group_9769" data-name="Group 9769"><g class="cls-10"><g id="Group_9768" data-name="Group 9768"><path id="Path_23221" data-name="Path 23221" class="cls-3" d="M167,270H113V216h54Z"/><path id="Path_23222" data-name="Path 23222" class="cls-5" d="M117.35,220.61a1,1,0,0,1,1-.9,1,1,0,0,1,.9,1,1,1,0,0,1-1.93-.14Z"/><path id="Path_23223" data-name="Path 23223" class="cls-5" d="M136.71,220.61a1,1,0,1,1,1.93.14,1,1,0,0,1-1.93-.14Z"/><path id="Path_23224" data-name="Path 23224" class="cls-5" d="M154.17,220.61a1,1,0,0,1,1-.9,1,1,0,1,1-1,.9Z"/><path id="Path_23225" data-name="Path 23225" class="cls-5" d="M117.35,238a1,1,0,1,1,.9,1,1,1,0,0,1-.9-1Z"/><path id="Path_23226" data-name="Path 23226" class="cls-5" d="M136.71,238a1,1,0,0,1,1-.9,1,1,0,1,1-1,.9Z"/><path id="Path_23227" data-name="Path 23227" class="cls-5" d="M154.17,238a1,1,0,1,1,1.93.13,1,1,0,0,1-1.93-.13Z"/><path id="Path_23228" data-name="Path 23228" class="cls-5" d="M117.35,255.34a1,1,0,0,1,1-.9,1,1,0,1,1-1,.9Z"/><path id="Path_23229" data-name="Path 23229" class="cls-5" d="M136.71,255.34a1,1,0,0,1,1.93.13,1,1,0,0,1-1.93-.13Z"/><path id="Path_23230" data-name="Path 23230" class="cls-5" d="M154.17,255.34a1,1,0,0,1,1-.9,1,1,0,1,1-1,.9Z"/></g></g></g><g id="Group_9771" data-name="Group 9771"><g class="cls-11"><g id="Group_9770" data-name="Group 9770"><path id="Path_23233" data-name="Path 23233" class="cls-3" d="M221,270H167V216h54v54"/><path id="Path_23234" data-name="Path 23234" class="cls-5" d="M171.35,220.61a1,1,0,0,1,1-.9,1,1,0,0,1,.9,1,1,1,0,0,1-1.93-.14Z"/><path id="Path_23235" data-name="Path 23235" class="cls-5" d="M190.71,220.61a1,1,0,1,1,1.93.14,1,1,0,0,1-1.93-.14Z"/><path id="Path_23236" data-name="Path 23236" class="cls-5" d="M208.17,220.61a1,1,0,0,1,1-.9,1,1,0,1,1-1,.9Z"/><path id="Path_23237" data-name="Path 23237" class="cls-5" d="M171.35,238a1,1,0,1,1,.9,1,1,1,0,0,1-.9-1Z"/><path id="Path_23238" data-name="Path 23238" class="cls-5" d="M190.71,238a1,1,0,0,1,1-.9,1,1,0,1,1-1,.9Z"/><path id="Path_23239" data-name="Path 23239" class="cls-5" d="M208.17,238a1,1,0,1,1,1.93.13,1,1,0,0,1-1.93-.13Z"/><path id="Path_23240" data-name="Path 23240" class="cls-5" d="M171.35,255.34a1,1,0,0,1,1-.9,1,1,0,1,1-1,.9Z"/><path id="Path_23241" data-name="Path 23241" class="cls-5" d="M190.71,255.34a1,1,0,0,1,1.93.13,1,1,0,0,1-1.93-.13Z"/><path id="Path_23242" data-name="Path 23242" class="cls-5" d="M208.17,255.34a1,1,0,0,1,1-.9,1,1,0,1,1-1,.9Z"/></g></g></g><g id="Group_9773" data-name="Group 9773"><g class="cls-12"><g id="Group_9772" data-name="Group 9772"><path id="Path_23245" data-name="Path 23245" class="cls-3" d="M275,270H221V216h54v54"/><path id="Path_23246" data-name="Path 23246" class="cls-5" d="M225.35,220.61a1,1,0,0,1,1-.9,1,1,0,0,1,.9,1,1,1,0,0,1-1.93-.14Z"/><path id="Path_23247" data-name="Path 23247" class="cls-5" d="M244.71,220.61a1,1,0,1,1,1.93.14,1,1,0,0,1-1.93-.14Z"/><path id="Path_23248" data-name="Path 23248" class="cls-5" d="M262.17,220.61a1,1,0,0,1,1-.9,1,1,0,1,1-1,.9Z"/><path id="Path_23249" data-name="Path 23249" class="cls-5" d="M225.35,238a1,1,0,1,1,.9,1,1,1,0,0,1-.9-1Z"/><path id="Path_23250" data-name="Path 23250" class="cls-5" d="M244.71,238a1,1,0,0,1,1-.9,1,1,0,1,1-1,.9Z"/><path id="Path_23251" data-name="Path 23251" class="cls-5" d="M262.17,238a1,1,0,0,1,1.93.13,1,1,0,1,1-1.93-.13Z"/><path id="Path_23252" data-name="Path 23252" class="cls-5" d="M225.35,255.34a1,1,0,0,1,1-.9,1,1,0,1,1-1,.9Z"/><path id="Path_23253" data-name="Path 23253" class="cls-5" d="M244.71,255.34a1,1,0,0,1,1.93.13,1,1,0,0,1-1.93-.13Z"/><path id="Path_23254" data-name="Path 23254" class="cls-5" d="M262.17,255.34a1,1,0,0,1,1-.9,1,1,0,1,1-1,.9Z"/></g></g></g><g id="Group_9775" data-name="Group 9775"><g class="cls-13"><g id="Group_9774" data-name="Group 9774"><path id="Path_23257" data-name="Path 23257" class="cls-3" d="M329,270H275V216h54v54"/><path id="Path_23258" data-name="Path 23258" class="cls-5" d="M279.35,220.61a1,1,0,0,1,1-.9,1,1,0,0,1,.9,1,1,1,0,0,1-1.93-.14Z"/><path id="Path_23259" data-name="Path 23259" class="cls-5" d="M298.71,220.61a1,1,0,1,1,1.93.14,1,1,0,0,1-1.93-.14Z"/><path id="Path_23260" data-name="Path 23260" class="cls-5" d="M316.17,220.61a1,1,0,0,1,1-.9,1,1,0,1,1-1,.9Z"/><path id="Path_23261" data-name="Path 23261" class="cls-5" d="M279.35,238a1,1,0,1,1,.9,1,1,1,0,0,1-.9-1Z"/><path id="Path_23262" data-name="Path 23262" class="cls-5" d="M298.71,238a1,1,0,0,1,1-.9,1,1,0,1,1-1,.9Z"/><path id="Path_23263" data-name="Path 23263" class="cls-5" d="M316.17,238a1,1,0,1,1,1.93.13,1,1,0,1,1-1.93-.13Z"/><path id="Path_23264" data-name="Path 23264" class="cls-5" d="M279.35,255.34a1,1,0,0,1,1-.9,1,1,0,1,1-1,.9Z"/><path id="Path_23265" data-name="Path 23265" class="cls-5" d="M298.71,255.34a1,1,0,0,1,1.93.13,1,1,0,0,1-1.93-.13Z"/><path id="Path_23266" data-name="Path 23266" class="cls-5" d="M316.17,255.34a1,1,0,0,1,1-.9,1,1,0,1,1-1,.9Z"/></g></g></g><g id="Group_9777" data-name="Group 9777"><g class="cls-14"><g id="Group_9776" data-name="Group 9776"><path id="Path_23269" data-name="Path 23269" class="cls-3" d="M383,270H329V216h54v54"/><path id="Path_23270" data-name="Path 23270" class="cls-5" d="M333.35,220.61a1,1,0,0,1,1-.9,1,1,0,0,1,.9,1,1,1,0,0,1-1.93-.14Z"/><path id="Path_23271" data-name="Path 23271" class="cls-5" d="M352.71,220.61a1,1,0,1,1,1.93.14,1,1,0,0,1-1.93-.14Z"/><path id="Path_23272" data-name="Path 23272" class="cls-5" d="M370.17,220.61a1,1,0,0,1,1-.9,1,1,0,1,1-1,.9Z"/><path id="Path_23273" data-name="Path 23273" class="cls-5" d="M333.35,238a1,1,0,1,1,.9,1,1,1,0,0,1-.9-1Z"/><path id="Path_23274" data-name="Path 23274" class="cls-5" d="M352.71,238a1,1,0,0,1,1-.9,1,1,0,1,1-1,.9Z"/><path id="Path_23275" data-name="Path 23275" class="cls-5" d="M370.17,238a1,1,0,1,1,1.93.13,1,1,0,1,1-1.93-.13Z"/><path id="Path_23276" data-name="Path 23276" class="cls-5" d="M333.35,255.34a1,1,0,0,1,1-.9,1,1,0,1,1-1,.9Z"/><path id="Path_23277" data-name="Path 23277" class="cls-5" d="M352.71,255.34a1,1,0,0,1,1.93.13,1,1,0,0,1-1.93-.13Z"/><path id="Path_23278" data-name="Path 23278" class="cls-5" d="M370.17,255.34a1,1,0,0,1,1-.9,1,1,0,1,1-1,.9Z"/></g></g></g><g id="Group_9779" data-name="Group 9779"><g class="cls-15"><g id="Group_9778" data-name="Group 9778"><path id="Path_23281" data-name="Path 23281" class="cls-3" d="M59,216H5V162H59Z"/><path id="Path_23282" data-name="Path 23282" class="cls-5" d="M28.71,166.61a1,1,0,1,1,1.93.14,1,1,0,0,1-1.93-.14Z"/><path id="Path_23283" data-name="Path 23283" class="cls-5" d="M46.17,166.61a1,1,0,0,1,1-.9,1,1,0,1,1-1,.9Z"/><path id="Path_23284" data-name="Path 23284" class="cls-5" d="M28.71,184a1,1,0,0,1,1-.9,1,1,0,1,1-1,.9Z"/><path id="Path_23285" data-name="Path 23285" class="cls-5" d="M46.17,184a1,1,0,1,1,1.93.13,1,1,0,0,1-1.93-.13Z"/><path id="Path_23286" data-name="Path 23286" class="cls-5" d="M28.71,201.34a1,1,0,1,1,1.93.13,1,1,0,0,1-1.93-.13Z"/><path id="Path_23287" data-name="Path 23287" class="cls-5" d="M46.17,201.34a1,1,0,0,1,1-.9,1,1,0,1,1-1,.9Z"/></g></g></g><g id="Group_9781" data-name="Group 9781"><g class="cls-16"><g id="Group_9780" data-name="Group 9780"><path id="Path_23290" data-name="Path 23290" class="cls-3" d="M113,216H59V162h54Z"/><path id="Path_23291" data-name="Path 23291" class="cls-5" d="M63.35,166.61a1,1,0,0,1,1-.9,1,1,0,0,1,.9,1,1,1,0,0,1-1.93-.14Z"/><path id="Path_23292" data-name="Path 23292" class="cls-5" d="M82.71,166.61a1,1,0,1,1,1.93.14,1,1,0,0,1-1.93-.14Z"/><path id="Path_23293" data-name="Path 23293" class="cls-5" d="M100.17,166.61a1,1,0,0,1,1-.9,1,1,0,1,1-1,.9Z"/><path id="Path_23294" data-name="Path 23294" class="cls-5" d="M63.35,184a1,1,0,1,1,.9,1,1,1,0,0,1-.9-1Z"/><path id="Path_23295" data-name="Path 23295" class="cls-5" d="M82.71,184a1,1,0,0,1,1-.9,1,1,0,1,1-1,.9Z"/><path id="Path_23296" data-name="Path 23296" class="cls-5" d="M100.17,184a1,1,0,1,1,1.93.13,1,1,0,0,1-1.93-.13Z"/><path id="Path_23297" data-name="Path 23297" class="cls-5" d="M63.35,201.34a1,1,0,0,1,1-.9,1,1,0,1,1-1,.9Z"/><path id="Path_23298" data-name="Path 23298" class="cls-5" d="M82.71,201.34a1,1,0,1,1,1.93.13,1,1,0,0,1-1.93-.13Z"/><path id="Path_23299" data-name="Path 23299" class="cls-5" d="M100.17,201.34a1,1,0,0,1,1-.9,1,1,0,1,1-1,.9Z"/></g></g></g><g id="Group_9783" data-name="Group 9783"><g class="cls-17"><g id="Group_9782" data-name="Group 9782"><path id="Path_23302" data-name="Path 23302" class="cls-3" d="M167,216H113V162h54Z"/><path id="Path_23303" data-name="Path 23303" class="cls-5" d="M117.35,166.61a1,1,0,0,1,1-.9,1,1,0,0,1,.9,1,1,1,0,0,1-1.93-.14Z"/><path id="Path_23304" data-name="Path 23304" class="cls-5" d="M136.71,166.61a1,1,0,1,1,1.93.14,1,1,0,0,1-1.93-.14Z"/><path id="Path_23305" data-name="Path 23305" class="cls-5" d="M154.17,166.61a1,1,0,0,1,1-.9,1,1,0,1,1-1,.9Z"/><path id="Path_23306" data-name="Path 23306" class="cls-5" d="M117.35,184a1,1,0,1,1,.9,1,1,1,0,0,1-.9-1Z"/><path id="Path_23307" data-name="Path 23307" class="cls-5" d="M136.71,184a1,1,0,0,1,1-.9,1,1,0,1,1-1,.9Z"/><path id="Path_23308" data-name="Path 23308" class="cls-5" d="M154.17,184a1,1,0,1,1,1.93.13,1,1,0,0,1-1.93-.13Z"/><path id="Path_23309" data-name="Path 23309" class="cls-5" d="M117.35,201.34a1,1,0,0,1,1-.9,1,1,0,1,1-1,.9Z"/><path id="Path_23310" data-name="Path 23310" class="cls-5" d="M136.71,201.34a1,1,0,0,1,1.93.13,1,1,0,0,1-1.93-.13Z"/><path id="Path_23311" data-name="Path 23311" class="cls-5" d="M154.17,201.34a1,1,0,0,1,1-.9,1,1,0,1,1-1,.9Z"/></g></g></g><g id="Group_9785" data-name="Group 9785"><g class="cls-18"><g id="Group_9784" data-name="Group 9784"><path id="Path_23314" data-name="Path 23314" class="cls-3" d="M221,216H167V162h54Z"/><path id="Path_23315" data-name="Path 23315" class="cls-5" d="M171.35,166.61a1,1,0,0,1,1-.9,1,1,0,0,1,.9,1,1,1,0,0,1-1.93-.14Z"/><path id="Path_23316" data-name="Path 23316" class="cls-5" d="M190.71,166.61a1,1,0,1,1,1.93.14,1,1,0,0,1-1.93-.14Z"/><path id="Path_23317" data-name="Path 23317" class="cls-5" d="M208.17,166.61a1,1,0,0,1,1-.9,1,1,0,1,1-1,.9Z"/><path id="Path_23318" data-name="Path 23318" class="cls-5" d="M171.35,184a1,1,0,1,1,.9,1,1,1,0,0,1-.9-1Z"/><path id="Path_23319" data-name="Path 23319" class="cls-5" d="M190.71,184a1,1,0,0,1,1-.9,1,1,0,1,1-1,.9Z"/><path id="Path_23320" data-name="Path 23320" class="cls-5" d="M208.17,184a1,1,0,1,1,1.93.13,1,1,0,0,1-1.93-.13Z"/><path id="Path_23321" data-name="Path 23321" class="cls-5" d="M171.35,201.34a1,1,0,0,1,1-.9,1,1,0,1,1-1,.9Z"/><path id="Path_23322" data-name="Path 23322" class="cls-5" d="M190.71,201.34a1,1,0,0,1,1.93.13,1,1,0,0,1-1.93-.13Z"/><path id="Path_23323" data-name="Path 23323" class="cls-5" d="M208.17,201.34a1,1,0,0,1,1-.9,1,1,0,1,1-1,.9Z"/></g></g></g><g id="Group_9787" data-name="Group 9787"><g class="cls-19"><g id="Group_9786" data-name="Group 9786"><path id="Path_23326" data-name="Path 23326" class="cls-3" d="M275,216H221V162h54Z"/><path id="Path_23327" data-name="Path 23327" class="cls-5" d="M225.35,166.61a1,1,0,0,1,1-.9,1,1,0,0,1,.9,1,1,1,0,0,1-1.93-.14Z"/><path id="Path_23328" data-name="Path 23328" class="cls-5" d="M244.71,166.61a1,1,0,1,1,1.93.14,1,1,0,0,1-1.93-.14Z"/><path id="Path_23329" data-name="Path 23329" class="cls-5" d="M262.17,166.61a1,1,0,0,1,1-.9,1,1,0,1,1-1,.9Z"/><path id="Path_23330" data-name="Path 23330" class="cls-5" d="M225.35,184a1,1,0,1,1,.9,1,1,1,0,0,1-.9-1Z"/><path id="Path_23331" data-name="Path 23331" class="cls-5" d="M244.71,184a1,1,0,0,1,1-.9,1,1,0,1,1-1,.9Z"/><path id="Path_23332" data-name="Path 23332" class="cls-5" d="M262.17,184a1,1,0,0,1,1.93.13,1,1,0,1,1-1.93-.13Z"/><path id="Path_23333" data-name="Path 23333" class="cls-5" d="M225.35,201.34a1,1,0,0,1,1-.9,1,1,0,1,1-1,.9Z"/><path id="Path_23334" data-name="Path 23334" class="cls-5" d="M244.71,201.34a1,1,0,0,1,1.93.13,1,1,0,0,1-1.93-.13Z"/><path id="Path_23335" data-name="Path 23335" class="cls-5" d="M262.17,201.34a1,1,0,0,1,1-.9,1,1,0,1,1-1,.9Z"/></g></g></g><g id="Group_9789" data-name="Group 9789"><g class="cls-20"><g id="Group_9788" data-name="Group 9788"><path id="Path_23338" data-name="Path 23338" class="cls-3" d="M329,216H275V162h54Z"/><path id="Path_23339" data-name="Path 23339" class="cls-5" d="M279.35,166.61a1,1,0,0,1,1-.9,1,1,0,0,1,.9,1,1,1,0,0,1-1.93-.14Z"/><path id="Path_23340" data-name="Path 23340" class="cls-5" d="M298.71,166.61a1,1,0,1,1,1.93.14,1,1,0,0,1-1.93-.14Z"/><path id="Path_23341" data-name="Path 23341" class="cls-5" d="M316.17,166.61a1,1,0,0,1,1-.9,1,1,0,1,1-1,.9Z"/><path id="Path_23342" data-name="Path 23342" class="cls-5" d="M279.35,184a1,1,0,1,1,.9,1,1,1,0,0,1-.9-1Z"/><path id="Path_23343" data-name="Path 23343" class="cls-5" d="M298.71,184a1,1,0,0,1,1-.9,1,1,0,1,1-1,.9Z"/><path id="Path_23344" data-name="Path 23344" class="cls-5" d="M316.17,184a1,1,0,0,1,1.93.13,1,1,0,1,1-1.93-.13Z"/><path id="Path_23345" data-name="Path 23345" class="cls-5" d="M279.35,201.34a1,1,0,0,1,1-.9,1,1,0,1,1-1,.9Z"/><path id="Path_23346" data-name="Path 23346" class="cls-5" d="M298.71,201.34a1,1,0,0,1,1.93.13,1,1,0,1,1-1.93-.13Z"/><path id="Path_23347" data-name="Path 23347" class="cls-5" d="M316.17,201.34a1,1,0,0,1,1-.9,1,1,0,1,1-1,.9Z"/></g></g></g><g id="Group_9791" data-name="Group 9791"><g class="cls-21"><g id="Group_9790" data-name="Group 9790"><path id="Path_23350" data-name="Path 23350" class="cls-3" d="M383,216H329V162h54Z"/><path id="Path_23351" data-name="Path 23351" class="cls-5" d="M333.35,166.61a1,1,0,0,1,1-.9,1,1,0,0,1,.9,1,1,1,0,0,1-1.93-.14Z"/><path id="Path_23352" data-name="Path 23352" class="cls-5" d="M352.71,166.61a1,1,0,1,1,1.93.14,1,1,0,0,1-1.93-.14Z"/><path id="Path_23353" data-name="Path 23353" class="cls-5" d="M370.17,166.61a1,1,0,0,1,1-.9,1,1,0,1,1-1,.9Z"/><path id="Path_23354" data-name="Path 23354" class="cls-5" d="M333.35,184a1,1,0,1,1,.9,1,1,1,0,0,1-.9-1Z"/><path id="Path_23355" data-name="Path 23355" class="cls-5" d="M352.71,184a1,1,0,0,1,1-.9,1,1,0,1,1-1,.9Z"/><path id="Path_23356" data-name="Path 23356" class="cls-5" d="M370.17,184a1,1,0,0,1,1.93.13,1,1,0,1,1-1.93-.13Z"/><path id="Path_23357" data-name="Path 23357" class="cls-5" d="M333.35,201.34a1,1,0,0,1,1-.9,1,1,0,1,1-1,.9Z"/><path id="Path_23358" data-name="Path 23358" class="cls-5" d="M352.71,201.34a1,1,0,0,1,1.93.13,1,1,0,1,1-1.93-.13Z"/><path id="Path_23359" data-name="Path 23359" class="cls-5" d="M370.17,201.34a1,1,0,0,1,1-.9,1,1,0,1,1-1,.9Z"/></g></g></g><g id="Group_9793" data-name="Group 9793"><g class="cls-22"><g id="Group_9792" data-name="Group 9792"><path id="Path_23362" data-name="Path 23362" class="cls-3" d="M59,162H5V108H59Z"/><path id="Path_23363" data-name="Path 23363" class="cls-5" d="M46.17,112.61a1,1,0,0,1,1-.9,1,1,0,1,1-1,.9Z"/><path id="Path_23364" data-name="Path 23364" class="cls-5" d="M46.17,130a1,1,0,1,1,1.93.13,1,1,0,0,1-1.93-.13Z"/><path id="Path_23365" data-name="Path 23365" class="cls-5" d="M46.17,147.34a1,1,0,0,1,1-.9,1,1,0,1,1-1,.9Z"/></g></g></g><g id="Group_9795" data-name="Group 9795"><g class="cls-23"><g id="Group_9794" data-name="Group 9794"><path id="Path_23368" data-name="Path 23368" class="cls-3" d="M113,162H59V108h54Z"/><path id="Path_23369" data-name="Path 23369" class="cls-5" d="M63.35,112.61a1,1,0,0,1,1-.9,1,1,0,0,1,.9,1,1,1,0,0,1-1.93-.14Z"/><path id="Path_23370" data-name="Path 23370" class="cls-5" d="M82.71,112.61a1,1,0,1,1,1.93.14,1,1,0,0,1-1.93-.14Z"/><path id="Path_23371" data-name="Path 23371" class="cls-5" d="M100.17,112.61a1,1,0,0,1,1-.9,1,1,0,1,1-1,.9Z"/><path id="Path_23372" data-name="Path 23372" class="cls-5" d="M63.35,130a1,1,0,1,1,.9,1,1,1,0,0,1-.9-1Z"/><path id="Path_23373" data-name="Path 23373" class="cls-5" d="M82.71,130a1,1,0,0,1,1-.9,1,1,0,1,1-1,.9Z"/><path id="Path_23374" data-name="Path 23374" class="cls-5" d="M100.17,130a1,1,0,0,1,1.93.13,1,1,0,1,1-1.93-.13Z"/><path id="Path_23375" data-name="Path 23375" class="cls-5" d="M63.35,147.34a1,1,0,0,1,1-.9,1,1,0,1,1-1,.9Z"/><path id="Path_23376" data-name="Path 23376" class="cls-5" d="M82.71,147.34a1,1,0,1,1,1.93.13,1,1,0,0,1-1.93-.13Z"/><path id="Path_23377" data-name="Path 23377" class="cls-5" d="M100.17,147.34a1,1,0,0,1,1-.9,1,1,0,1,1-1,.9Z"/></g></g></g><g id="Group_9797" data-name="Group 9797"><g class="cls-24"><g id="Group_9796" data-name="Group 9796"><path id="Path_23380" data-name="Path 23380" class="cls-3" d="M167,162H113V108h54Z"/><path id="Path_23381" data-name="Path 23381" class="cls-5" d="M117.35,112.61a1,1,0,0,1,1-.9,1,1,0,0,1,.9,1,1,1,0,0,1-1.93-.14Z"/><path id="Path_23382" data-name="Path 23382" class="cls-5" d="M136.71,112.61a1,1,0,1,1,1.93.14,1,1,0,0,1-1.93-.14Z"/><path id="Path_23383" data-name="Path 23383" class="cls-5" d="M154.17,112.61a1,1,0,0,1,1-.9,1,1,0,1,1-1,.9Z"/><path id="Path_23384" data-name="Path 23384" class="cls-5" d="M117.35,130a1,1,0,1,1,.9,1,1,1,0,0,1-.9-1Z"/><path id="Path_23385" data-name="Path 23385" class="cls-5" d="M136.71,130a1,1,0,0,1,1-.9,1,1,0,1,1-1,.9Z"/><path id="Path_23386" data-name="Path 23386" class="cls-5" d="M154.17,130a1,1,0,1,1,1.93.13,1,1,0,0,1-1.93-.13Z"/><path id="Path_23387" data-name="Path 23387" class="cls-5" d="M117.35,147.34a1,1,0,0,1,1-.9,1,1,0,1,1-1,.9Z"/><path id="Path_23388" data-name="Path 23388" class="cls-5" d="M136.71,147.34a1,1,0,0,1,1.93.13,1,1,0,0,1-1.93-.13Z"/><path id="Path_23389" data-name="Path 23389" class="cls-5" d="M154.17,147.34a1,1,0,0,1,1-.9,1,1,0,1,1-1,.9Z"/></g></g></g><g id="Group_9799" data-name="Group 9799"><g class="cls-25"><g id="Group_9798" data-name="Group 9798"><path id="Path_23392" data-name="Path 23392" class="cls-3" d="M221,162H167V108h54Z"/><path id="Path_23393" data-name="Path 23393" class="cls-5" d="M171.35,112.61a1,1,0,0,1,1-.9,1,1,0,0,1,.9,1,1,1,0,0,1-1.93-.14Z"/><path id="Path_23394" data-name="Path 23394" class="cls-5" d="M190.71,112.61a1,1,0,1,1,1.93.14,1,1,0,0,1-1.93-.14Z"/><path id="Path_23395" data-name="Path 23395" class="cls-5" d="M208.17,112.61a1,1,0,0,1,1-.9,1,1,0,1,1-1,.9Z"/><path id="Path_23396" data-name="Path 23396" class="cls-5" d="M171.35,130a1,1,0,1,1,.9,1,1,1,0,0,1-.9-1Z"/><path id="Path_23397" data-name="Path 23397" class="cls-5" d="M190.71,130a1,1,0,0,1,1-.9,1,1,0,1,1-1,.9Z"/><path id="Path_23398" data-name="Path 23398" class="cls-5" d="M208.17,130a1,1,0,1,1,1.93.13,1,1,0,0,1-1.93-.13Z"/><path id="Path_23399" data-name="Path 23399" class="cls-5" d="M171.35,147.34a1,1,0,0,1,1-.9,1,1,0,1,1-1,.9Z"/><path id="Path_23400" data-name="Path 23400" class="cls-5" d="M190.71,147.34a1,1,0,0,1,1.93.13,1,1,0,0,1-1.93-.13Z"/><path id="Path_23401" data-name="Path 23401" class="cls-5" d="M208.17,147.34a1,1,0,0,1,1-.9,1,1,0,1,1-1,.9Z"/></g></g></g><g id="Group_9801" data-name="Group 9801"><g class="cls-26"><g id="Group_9800" data-name="Group 9800"><path id="Path_23404" data-name="Path 23404" class="cls-3" d="M275,162H221V108h54Z"/><path id="Path_23405" data-name="Path 23405" class="cls-5" d="M225.35,112.61a1,1,0,0,1,1-.9,1,1,0,0,1,.9,1,1,1,0,0,1-1.93-.14Z"/><path id="Path_23406" data-name="Path 23406" class="cls-5" d="M244.71,112.61a1,1,0,1,1,1.93.14,1,1,0,0,1-1.93-.14Z"/><path id="Path_23407" data-name="Path 23407" class="cls-5" d="M262.17,112.61a1,1,0,0,1,1-.9,1,1,0,1,1-1,.9Z"/><path id="Path_23408" data-name="Path 23408" class="cls-5" d="M225.35,130a1,1,0,1,1,.9,1,1,1,0,0,1-.9-1Z"/><path id="Path_23409" data-name="Path 23409" class="cls-5" d="M244.71,130a1,1,0,0,1,1-.9,1,1,0,1,1-1,.9Z"/><path id="Path_23410" data-name="Path 23410" class="cls-5" d="M262.17,130a1,1,0,0,1,1.93.13,1,1,0,1,1-1.93-.13Z"/><path id="Path_23411" data-name="Path 23411" class="cls-5" d="M225.35,147.34a1,1,0,0,1,1-.9,1,1,0,1,1-1,.9Z"/><path id="Path_23412" data-name="Path 23412" class="cls-5" d="M244.71,147.34a1,1,0,0,1,1.93.13,1,1,0,1,1-1.93-.13Z"/><path id="Path_23413" data-name="Path 23413" class="cls-5" d="M262.17,147.34a1,1,0,0,1,1-.9,1,1,0,1,1-1,.9Z"/></g></g></g><g id="Group_9803" data-name="Group 9803"><g class="cls-27"><g id="Group_9802" data-name="Group 9802"><path id="Path_23416" data-name="Path 23416" class="cls-3" d="M329,162H275V108h54v54"/><path id="Path_23417" data-name="Path 23417" class="cls-5" d="M279.35,112.61a1,1,0,0,1,1-.9,1,1,0,0,1,.9,1,1,1,0,0,1-1.93-.14Z"/><path id="Path_23418" data-name="Path 23418" class="cls-5" d="M298.71,112.61a1,1,0,1,1,1.93.14,1,1,0,0,1-1.93-.14h0"/><path id="Path_23419" data-name="Path 23419" class="cls-5" d="M316.17,112.61a1,1,0,0,1,1-.9,1,1,0,1,1-1,.9Z"/><path id="Path_23420" data-name="Path 23420" class="cls-5" d="M279.35,130a1,1,0,1,1,.9,1,1,1,0,0,1-.9-1Z"/><path id="Path_23421" data-name="Path 23421" class="cls-5" d="M298.71,130a1,1,0,0,1,1-.9,1,1,0,1,1-1,.9h0"/><path id="Path_23422" data-name="Path 23422" class="cls-5" d="M316.17,130a1,1,0,0,1,1.93.13,1,1,0,1,1-1.93-.13Z"/><path id="Path_23423" data-name="Path 23423" class="cls-5" d="M279.35,147.34a1,1,0,0,1,1-.9,1,1,0,1,1-1,.9Z"/><path id="Path_23424" data-name="Path 23424" class="cls-5" d="M298.71,147.34a1,1,0,0,1,1.93.13,1,1,0,1,1-1.93-.13Z"/><path id="Path_23425" data-name="Path 23425" class="cls-5" d="M316.17,147.34a1,1,0,0,1,1-.9,1,1,0,1,1-1,.9h0"/></g></g></g><g id="Group_9805" data-name="Group 9805"><g class="cls-28"><g id="Group_9804" data-name="Group 9804"><path id="Path_23428" data-name="Path 23428" class="cls-3" d="M383,162H329V108h54v54"/><path id="Path_23429" data-name="Path 23429" class="cls-5" d="M333.35,112.61a1,1,0,0,1,1-.9,1,1,0,0,1,.9,1,1,1,0,0,1-1.93-.14Z"/><path id="Path_23430" data-name="Path 23430" class="cls-5" d="M352.71,112.61a1,1,0,1,1,1.93.14,1,1,0,0,1-1.93-.14Z"/><path id="Path_23431" data-name="Path 23431" class="cls-5" d="M370.17,112.61a1,1,0,0,1,1-.9,1,1,0,1,1-1,.9Z"/><path id="Path_23432" data-name="Path 23432" class="cls-5" d="M333.35,130a1,1,0,1,1,.9,1,1,1,0,0,1-.9-1h0"/><path id="Path_23433" data-name="Path 23433" class="cls-5" d="M352.71,130a1,1,0,0,1,1-.9,1,1,0,1,1-1,.9Z"/><path id="Path_23434" data-name="Path 23434" class="cls-5" d="M370.17,130a1,1,0,0,1,1.93.13,1,1,0,1,1-1.93-.13Z"/><path id="Path_23435" data-name="Path 23435" class="cls-5" d="M333.35,147.34a1,1,0,0,1,1-.9,1,1,0,1,1-1,.9Z"/><path id="Path_23436" data-name="Path 23436" class="cls-5" d="M352.71,147.34a1,1,0,0,1,1.93.13,1,1,0,1,1-1.93-.13Z"/><path id="Path_23437" data-name="Path 23437" class="cls-5" d="M370.17,147.34a1,1,0,0,1,1-.9,1,1,0,1,1-1,.9Z"/></g></g></g><g id="Group_9807" data-name="Group 9807"><g class="cls-29"><g id="Group_9806" data-name="Group 9806"><path id="Path_23440" data-name="Path 23440" class="cls-3" d="M59,108H5V54H59Z"/></g></g></g><g id="Group_9809" data-name="Group 9809"><g class="cls-30"><g id="Group_9808" data-name="Group 9808"><path id="Path_23443" data-name="Path 23443" class="cls-3" d="M113,108H59V54h54Z"/><path id="Path_23444" data-name="Path 23444" class="cls-5" d="M63.35,58.61a1,1,0,0,1,1-.9,1,1,0,0,1,.9,1,1,1,0,0,1-1.93-.14Z"/><path id="Path_23445" data-name="Path 23445" class="cls-5" d="M82.71,58.61a1,1,0,1,1,1.93.14,1,1,0,0,1-1.93-.14Z"/><path id="Path_23446" data-name="Path 23446" class="cls-5" d="M100.17,58.61a1,1,0,0,1,1-.9,1,1,0,1,1-1,.9Z"/><path id="Path_23447" data-name="Path 23447" class="cls-5" d="M63.35,76a1,1,0,1,1,.9,1,1,1,0,0,1-.9-1Z"/><path id="Path_23448" data-name="Path 23448" class="cls-5" d="M82.71,76a1,1,0,0,1,1-.9,1,1,0,1,1-1,.9Z"/><path id="Path_23449" data-name="Path 23449" class="cls-5" d="M100.17,76a1,1,0,0,1,1.93.13,1,1,0,1,1-1.93-.13Z"/><path id="Path_23450" data-name="Path 23450" class="cls-5" d="M63.35,93.34a1,1,0,0,1,1-.9,1,1,0,1,1-1,.9Z"/><path id="Path_23451" data-name="Path 23451" class="cls-5" d="M82.71,93.34a1,1,0,1,1,1.93.13,1,1,0,0,1-1.93-.13Z"/><path id="Path_23452" data-name="Path 23452" class="cls-5" d="M100.17,93.34a1,1,0,0,1,1-.9,1,1,0,1,1-1,.9Z"/></g></g></g><g id="Group_9811" data-name="Group 9811"><g class="cls-31"><g id="Group_9810" data-name="Group 9810"><path id="Path_23455" data-name="Path 23455" class="cls-3" d="M167,108H113V54h54Z"/><path id="Path_23456" data-name="Path 23456" class="cls-5" d="M117.35,58.61a1,1,0,0,1,1-.9,1,1,0,0,1,.9,1,1,1,0,0,1-1.93-.14Z"/><path id="Path_23457" data-name="Path 23457" class="cls-5" d="M136.71,58.61a1,1,0,1,1,1.93.14,1,1,0,0,1-1.93-.14Z"/><path id="Path_23458" data-name="Path 23458" class="cls-5" d="M154.17,58.61a1,1,0,0,1,1-.9,1,1,0,1,1-1,.9Z"/><path id="Path_23459" data-name="Path 23459" class="cls-5" d="M117.35,76a1,1,0,1,1,.9,1,1,1,0,0,1-.9-1Z"/><path id="Path_23460" data-name="Path 23460" class="cls-5" d="M136.71,76a1,1,0,0,1,1-.9,1,1,0,1,1-1,.9Z"/><path id="Path_23461" data-name="Path 23461" class="cls-5" d="M154.17,76a1,1,0,1,1,1.93.13,1,1,0,0,1-1.93-.13Z"/><path id="Path_23462" data-name="Path 23462" class="cls-5" d="M117.35,93.34a1,1,0,0,1,1-.9,1,1,0,1,1-1,.9Z"/><path id="Path_23463" data-name="Path 23463" class="cls-5" d="M136.71,93.34a1,1,0,1,1,1.93.13,1,1,0,0,1-1.93-.13Z"/><path id="Path_23464" data-name="Path 23464" class="cls-5" d="M154.17,93.34a1,1,0,0,1,1-.9,1,1,0,1,1-1,.9Z"/></g></g></g><g id="Group_9813" data-name="Group 9813"><g class="cls-32"><g id="Group_9812" data-name="Group 9812"><path id="Path_23467" data-name="Path 23467" class="cls-3" d="M221,108H167V54h54Z"/><path id="Path_23468" data-name="Path 23468" class="cls-5" d="M171.35,58.61a1,1,0,0,1,1-.9,1,1,0,0,1,.9,1,1,1,0,0,1-1.93-.14Z"/><path id="Path_23469" data-name="Path 23469" class="cls-5" d="M190.71,58.61a1,1,0,1,1,1.93.14,1,1,0,0,1-1.93-.14Z"/><path id="Path_23470" data-name="Path 23470" class="cls-5" d="M208.17,58.61a1,1,0,0,1,1-.9,1,1,0,1,1-1,.9Z"/><path id="Path_23471" data-name="Path 23471" class="cls-5" d="M171.35,76a1,1,0,1,1,.9,1,1,1,0,0,1-.9-1Z"/><path id="Path_23472" data-name="Path 23472" class="cls-5" d="M190.71,76a1,1,0,0,1,1-.9,1,1,0,1,1-1,.9Z"/><path id="Path_23473" data-name="Path 23473" class="cls-5" d="M208.17,76a1,1,0,0,1,1.93.13,1,1,0,1,1-1.93-.13Z"/><path id="Path_23474" data-name="Path 23474" class="cls-5" d="M171.35,93.34a1,1,0,0,1,1-.9,1,1,0,1,1-1,.9Z"/><path id="Path_23475" data-name="Path 23475" class="cls-5" d="M190.71,93.34a1,1,0,0,1,1.93.13,1,1,0,0,1-1.93-.13Z"/><path id="Path_23476" data-name="Path 23476" class="cls-5" d="M208.17,93.34a1,1,0,0,1,1-.9,1,1,0,1,1-1,.9Z"/></g></g></g><g id="Group_9815" data-name="Group 9815"><g class="cls-33"><g id="Group_9814" data-name="Group 9814"><path id="Path_23479" data-name="Path 23479" class="cls-3" d="M275,108H221V54h54Z"/><path id="Path_23480" data-name="Path 23480" class="cls-5" d="M225.35,76a1,1,0,1,1,.9,1,1,1,0,0,1-.9-1Z"/><path id="Path_23481" data-name="Path 23481" class="cls-5" d="M244.71,76a1,1,0,0,1,1-.9,1,1,0,1,1-1,.9Z"/><path id="Path_23482" data-name="Path 23482" class="cls-5" d="M262.17,76a1,1,0,0,1,1.93.13,1,1,0,1,1-1.93-.13Z"/><path id="Path_23483" data-name="Path 23483" class="cls-5" d="M225.35,93.34a1,1,0,0,1,1-.9,1,1,0,1,1-1,.9Z"/><path id="Path_23484" data-name="Path 23484" class="cls-5" d="M244.71,93.34a1,1,0,0,1,1.93.13,1,1,0,1,1-1.93-.13Z"/><path id="Path_23485" data-name="Path 23485" class="cls-5" d="M262.17,93.34a1,1,0,0,1,1-.9,1,1,0,1,1-1,.9Z"/></g></g></g><g id="Group_9817" data-name="Group 9817"><g class="cls-34"><g id="Group_9816" data-name="Group 9816"><path id="Path_23488" data-name="Path 23488" class="cls-3" d="M329,108H275V54h54Z"/><path id="Path_23489" data-name="Path 23489" class="cls-5" d="M279.35,93.34a1,1,0,0,1,1-.9,1,1,0,1,1-1,.9Z"/><path id="Path_23490" data-name="Path 23490" class="cls-5" d="M298.71,93.34a1,1,0,0,1,1.93.13,1,1,0,1,1-1.93-.13Z"/><path id="Path_23491" data-name="Path 23491" class="cls-5" d="M316.17,93.34a1,1,0,0,1,1-.9,1,1,0,1,1-1,.9Z"/></g></g></g><g id="Group_9819" data-name="Group 9819"><g class="cls-35"><g id="Group_9818" data-name="Group 9818"><path id="Path_23494" data-name="Path 23494" class="cls-3" d="M383,108H329V54h54Z"/></g></g></g><g id="Group_9821" data-name="Group 9821"><g class="cls-36"><g id="Group_9820" data-name="Group 9820"><path id="Path_23497" data-name="Path 23497" class="cls-3" d="M113,54H59V0h54Z"/></g></g></g><g id="Group_9823" data-name="Group 9823"><g class="cls-37"><g id="Group_9822" data-name="Group 9822"><path id="Path_23500" data-name="Path 23500" class="cls-3" d="M167,54H113V0h54Z"/></g></g></g><g id="Group_9825" data-name="Group 9825"><g class="cls-38"><g id="Group_9824" data-name="Group 9824"><path id="Path_23503" data-name="Path 23503" class="cls-3" d="M221,54H167V0h54Z"/></g></g></g><path id="Path_23506" data-name="Path 23506" class="cls-39" d="M400.26,287.09H8.77a8.77,8.77,0,1,1,0-17.53H182.66l9,.44L221,271.43h0l54,2.63h0l4.42.21,1.79.09,17.64.86,1.55.07,28.6,1.4h0l48,2.33q.62-4.5,1-9l0-.44h22.16a8.77,8.77,0,1,1,0,17.53"/><path id="Path_23507" data-name="Path 23507" class="cls-39" d="M221,271.43,191.67,270H221v1.43"/><path id="Path_23508" data-name="Path 23508" class="cls-39" d="M275,274.06l-54-2.63V270h54v4.06"/><path id="Path_23509" data-name="Path 23509" class="cls-39" d="M329,276.69l-28.6-1.4a1,1,0,0,0-.13-1.36,1,1,0,0,0-.55-.22h-.06a1,1,0,0,0-1,1,.94.94,0,0,0,.17.54l-17.64-.86a1,1,0,0,0-.85-.64h-.07a1,1,0,0,0-.87.56l-4.42-.22V270h54v6.69m-11.89-3a1,1,0,0,0-1,1,1,1,0,0,0,.91,1h.06a1,1,0,0,0,.07-1.93h-.07"/><path id="Path_23510" data-name="Path 23510" class="cls-40" d="M281.23,274.36l-1.79-.09a1,1,0,0,1,.88-.56h.06a1,1,0,0,1,.85.65"/><path id="Path_23511" data-name="Path 23511" class="cls-40" d="M300.42,275.29l-1.55-.07a1,1,0,0,1,.27-1.34.93.93,0,0,1,.53-.17h.07a1,1,0,0,1,.9,1,.9.9,0,0,1-.22.54"/><path id="Path_23512" data-name="Path 23512" class="cls-40" d="M317.14,275.65h-.07a1,1,0,0,1,.07-1.94h.06a1,1,0,0,1-.06,1.94"/><path id="Path_23513" data-name="Path 23513" class="cls-39" d="M377.06,279l-48-2.33V270h49c-.25,3-.59,6-1,9m-5.92-5.31a1,1,0,0,0-1,1,1,1,0,0,0,.9,1h.07a1,1,0,0,0,.07-1.93h-.07m-17.46,0a1,1,0,0,0-1,1,1,1,0,0,0,.9,1h.07a1,1,0,0,0,1-1,1,1,0,0,0-.91-1h-.06m-19.36,0a1,1,0,0,0-1,1,1,1,0,0,0,.91,1h.06a1,1,0,0,0,.07-1.93h-.07"/><path id="Path_23514" data-name="Path 23514" class="cls-40" d="M334.32,275.65h-.07a1,1,0,0,1,.07-1.94h.06a1,1,0,0,1-.06,1.94"/><path id="Path_23515" data-name="Path 23515" class="cls-40" d="M353.67,275.65h-.06a1,1,0,0,1,.06-1.94h.07a1,1,0,0,1-.07,1.94"/><path id="Path_23516" data-name="Path 23516" class="cls-40" d="M371.14,275.65h-.07a1,1,0,0,1,.07-1.94h.06a1,1,0,0,1-.06,1.94"/><path id="Path_23517" data-name="Path 23517" class="cls-39" d="M221,270H191.67l-9-.44H221V270"/><path id="Path_23518" data-name="Path 23518" class="cls-39" d="M275,270H221v-.44h54V270"/><path id="Path_23519" data-name="Path 23519" class="cls-39" d="M329,270H275v-.44h54V270"/><path id="Path_23520" data-name="Path 23520" class="cls-39" d="M378.06,270H329v-.44H378.1c0,.15,0,.29,0,.44"/><path id="Path_23521" data-name="Path 23521" class="cls-41" d="M15.25,274V165.86H75.36v16.47H33v28.89h36.5v16.15H33V257.2h42.4V274Z"/><path id="Path_23522" data-name="Path 23522" class="cls-41" d="M137.18,196.93q0-7.6-3.88-11.26T122.12,182h-15.7v30.91H122q7,0,11.1-4t4.12-12Zm-.77,77-16.16-45H106.42v45H88.72V165.86h34.79a38.87,38.87,0,0,1,12.43,1.94,25.87,25.87,0,0,1,16.31,15.54,36.62,36.62,0,0,1,2.33,13.59,34.59,34.59,0,0,1-4.35,17.71A27.73,27.73,0,0,1,137.33,226l18.49,48Z"/><path id="Path_23523" data-name="Path 23523" class="cls-41" d="M219.2,196.93q0-7.6-3.89-11.26T204.13,182H188.44v30.91H204q7,0,11.1-4t4.12-12Zm-.78,77-16.15-45H188.44v45H170.73V165.86h34.79A38.87,38.87,0,0,1,218,167.8a25.82,25.82,0,0,1,16.31,15.54,36.22,36.22,0,0,1,2.33,13.59,34.59,34.59,0,0,1-4.35,17.71A27.71,27.71,0,0,1,219.35,226l18.48,48Z"/><path id="Path_23524" data-name="Path 23524" class="cls-41" d="M298.1,198.2a19.07,19.07,0,0,0-.7-4.75,16.25,16.25,0,0,0-2.4-5.21,15.33,15.33,0,0,0-4.58-4.28,13.72,13.72,0,0,0-7.38-1.79,15.75,15.75,0,0,0-7.54,1.63,14.35,14.35,0,0,0-4.81,4,15.64,15.64,0,0,0-2.56,5.21,19.74,19.74,0,0,0-.78,5.29l.15,41.41a22.83,22.83,0,0,0,3.58,13.07q3.57,5.29,12.11,5.29A14.93,14.93,0,0,0,293.68,254q4.43-4.12,4.42-11.29V198.2Zm18,43a38.31,38.31,0,0,1-2.4,14,30.42,30.42,0,0,1-6.84,10.64,29.81,29.81,0,0,1-10.48,6.76,40.68,40.68,0,0,1-28.59-.55,27.57,27.57,0,0,1-10.32-7.76,31.88,31.88,0,0,1-5.83-11.34,48.44,48.44,0,0,1-1.86-13.59V198.48a40,40,0,0,1,1.78-11.65,30.13,30.13,0,0,1,16-18.64q6.3-3.1,15.46-3.1A34.08,34.08,0,0,1,297.8,168a31.39,31.39,0,0,1,10.33,7.69,30.54,30.54,0,0,1,6.05,10.72,38.4,38.4,0,0,1,1.94,12V241.2Z"/><path id="Path_23525" data-name="Path 23525" class="cls-41" d="M381.36,196.93q0-7.6-3.88-11.26T366.29,182H350.61v30.91h15.53q7,0,11.11-4t4.11-12Zm-.78,77-16.15-45H350.61v45H332.9V165.86h34.79a38.87,38.87,0,0,1,12.43,1.94,25.82,25.82,0,0,1,16.31,15.54,36.62,36.62,0,0,1,2.33,13.59,34.59,34.59,0,0,1-4.35,17.71A27.71,27.71,0,0,1,381.52,226L400,274Z"/><path id="Path_23526" data-name="Path 23526" class="cls-42" d="M134.84,50.41V72.52h3V50.41"/><path id="Path_23527" data-name="Path 23527" class="cls-43" d="M178.36,56.6h-84V17.68h84V56.6Z"/><path id="Path_23528" data-name="Path 23528" class="cls-3" d="M125.56,43.26v3.5h-3.81v-3.5H113V39.89l6.73-17.29h4l-6.62,17h4.58V33.54h3.81v6.11h1.77v3.61Z"/><path id="Path_23529" data-name="Path 23529" class="cls-3" d="M138.86,28.51a2.4,2.4,0,0,0-4.79-.31,1.6,1.6,0,0,0,0,.31V40.86a2.35,2.35,0,0,0,.66,1.81,2.73,2.73,0,0,0,3.47,0,2.43,2.43,0,0,0,.66-1.81V28.51Zm3.82,12.39a6.42,6.42,0,0,1-.5,2.56,5.6,5.6,0,0,1-1.37,1.89,5.86,5.86,0,0,1-2,1.19,7.26,7.26,0,0,1-4.74,0,5.64,5.64,0,0,1-2-1.19,5.79,5.79,0,0,1-1.35-1.89,6.09,6.09,0,0,1-.5-2.56V28.51a6.57,6.57,0,0,1,.5-2.59A5.68,5.68,0,0,1,132.12,24a5.82,5.82,0,0,1,2-1.18,7,7,0,0,1,2.36-.4,7.22,7.22,0,0,1,2.39.4,5.68,5.68,0,0,1,2,1.18,6,6,0,0,1,1.35,1.91,6.57,6.57,0,0,1,.5,2.59Z"/><path id="Path_23530" data-name="Path 23530" class="cls-3" d="M157.84,43.26v3.5H154v-3.5h-8.71V39.89l6.74-17.29h4l-6.63,17H154V33.54h3.82v6.11h1.77v3.61Z"/><path id="Path_23531" data-name="Path 23531" class="cls-3" d="M294.25,158.73a9.5,9.5,0,0,1,1.74,3.48c.74,2.12,1.44,4.25,2.14,6.38s1.41,4.41,1,6.64a3.11,3.11,0,0,1-1.33,2.25,2.55,2.55,0,0,1-1.72.19,4.94,4.94,0,0,1-3.17-3.13c-.6-1.42-.84-3-1.39-4.41-1-2.53-2.92-5.12-5.73-5.42-1.44-.16-3.3-.3-4.3-1.51s-1.1-4,.32-4.92a4.06,4.06,0,0,1,1.58-.57,20,20,0,0,1,5.35,0c1.55.13,3.24-.17,4.71.49a2.51,2.51,0,0,1,.78.55Z"/><path id="Path_23532" data-name="Path 23532" class="cls-5" d="M294.25,158.73l-.36.35a9.27,9.27,0,0,1,1.63,3.3c.74,2.11,1.43,4.24,2.13,6.38a17.19,17.19,0,0,1,1.11,5.16,7.29,7.29,0,0,1-.1,1.23,3.83,3.83,0,0,1-.38,1.14,1.83,1.83,0,0,1-.7.76,1.69,1.69,0,0,1-.83.19,3.07,3.07,0,0,1-.53-.05,3.47,3.47,0,0,1-1.68-1,6.52,6.52,0,0,1-1.15-1.82c-.56-1.35-.8-2.89-1.38-4.4a11,11,0,0,0-2.28-3.71,6.23,6.23,0,0,0-3.85-2,15.48,15.48,0,0,1-2.25-.35,3.28,3.28,0,0,1-1.73-1,3.43,3.43,0,0,1-.64-2.1,2.45,2.45,0,0,1,.86-2.09,3.63,3.63,0,0,1,1.39-.5,12,12,0,0,1,2.16-.19c1,0,2,.1,3.06.18.4,0,.79,0,1.17,0h.64a6.67,6.67,0,0,1,2.73.4,2.19,2.19,0,0,1,.63.45l.36-.35.35-.35a3,3,0,0,0-.93-.66,7.48,7.48,0,0,0-3.14-.49h-.64c-.38,0-.74,0-1.1,0-1-.08-2.08-.18-3.14-.18a13.13,13.13,0,0,0-2.34.2,4.8,4.8,0,0,0-1.76.65,3.43,3.43,0,0,0-1.3,2.92,3.81,3.81,0,0,0,3.11,4.05,16.18,16.18,0,0,0,2.4.37,5.27,5.27,0,0,1,3.24,1.73,10.24,10.24,0,0,1,2.07,3.38c.53,1.37.77,2.92,1.39,4.43a7.1,7.1,0,0,0,1.35,2.11,4.23,4.23,0,0,0,2.18,1.3,3.2,3.2,0,0,0,.75.09,2.89,2.89,0,0,0,1.32-.32,2.8,2.8,0,0,0,1.1-1.16,5.2,5.2,0,0,0,.48-1.44,9.33,9.33,0,0,0,.11-1.4,18.05,18.05,0,0,0-1.15-5.48c-.7-2.13-1.4-4.27-2.14-6.4a10,10,0,0,0-1.86-3.67l-.36.36Z"/><path id="Path_23533" data-name="Path 23533" class="cls-3" d="M141.18,80.09c.28-1.26.55-2.53.8-3.8.54-2.68,2-5.46-.07-7.83-1.85-2.1-5.68-1.37-7.88-.1a6.1,6.1,0,0,0-3.11,6.25,5,5,0,0,0,4.57,3.84q-.86,2.8-1.59,5.65c-.68,2.71,1,3.67,3.4,3.15a4,4,0,0,0,1.73-.66,4.11,4.11,0,0,0,1.2-2.41c.34-1.36.65-2.72,1-4.09Z"/><path id="Path_23534" data-name="Path 23534" class="cls-5" d="M141.18,80.09l.49.11c.28-1.27.55-2.54.8-3.81a26.66,26.66,0,0,0,1-5,4.67,4.67,0,0,0-1.2-3.24,4.88,4.88,0,0,0-3.79-1.5,9.88,9.88,0,0,0-4.71,1.29,6.82,6.82,0,0,0-3.47,5.67,5.25,5.25,0,0,0,.11,1.12,5.53,5.53,0,0,0,5,4.23l0-.5L135,78.3q-.87,2.82-1.6,5.68a5.23,5.23,0,0,0-.17,1.25,2.53,2.53,0,0,0,.83,2,3.05,3.05,0,0,0,2,.65,6.12,6.12,0,0,0,1.28-.14,3.62,3.62,0,0,0,3.31-3.45c.33-1.36.65-2.73.95-4.1l-.49-.1-.49-.11c-.3,1.36-.61,2.72-.94,4.08a3.69,3.69,0,0,1-1,2.14,3.64,3.64,0,0,1-1.52.56,4.81,4.81,0,0,1-1.07.12,2.11,2.11,0,0,1-1.4-.4,1.54,1.54,0,0,1-.48-1.25,4.31,4.31,0,0,1,.14-1c.48-1.88,1-3.76,1.58-5.62l.2-.62-.65,0a4.53,4.53,0,0,1-4.11-3.44,4,4,0,0,1-.1-.91,5.82,5.82,0,0,1,3-4.8,8.9,8.9,0,0,1,4.21-1.16,3.93,3.93,0,0,1,3,1.16,3.71,3.71,0,0,1,1,2.58,27.22,27.22,0,0,1-1,4.81c-.26,1.27-.52,2.53-.8,3.79l.48.11Z"/><path id="Path_23535" data-name="Path 23535" class="cls-5" d="M285.75,155.47l-1.09-.23c-11.44-2.11-23.89-5.62-35.58-4.54-2.51.23-5,.71-7.52.86-8.52.54-16.68-2.48-24.87-4.27-3.34-.72-6.67-1.11-10-1.8-4.07-.85-8.27,0-12.37-.52-3.59-.47-7.09-2-10.68-1.57-4.64.58-8.74,3.46-9.95,8.06a14.71,14.71,0,0,0,.22,7.07c.5,2.17,1.37,4.48,3.31,5.59,4.05,2.31,11.7.81,16.19.9,6.08.1,12.16.3,18.23.5,12,.4,24,.82,35.94.52,12.34-.32,24.68,0,37,.41q.63-5.47,1.16-11Z"/><path id="Path_23536" data-name="Path 23536" class="cls-3" d="M83.15,179.5a16.11,16.11,0,0,0-3.38,7,8.5,8.5,0,0,0-.12,4.53c.55,1.83,2.25,3.52,4.29,3.11a3.11,3.11,0,0,0,2.3-3,2.65,2.65,0,0,0-.91-1.89,14.49,14.49,0,0,1,.28-1.85,1.24,1.24,0,0,1,.28-.63c.58-.58.76.33.72.73s-.46,1.53,0,1.79c.34.13.61-.31.7-.66a22.19,22.19,0,0,0,.53-3.89c.1-1.2.19-2.4.28-3.59a4.66,4.66,0,0,0,0-1.18,2.53,2.53,0,0,0-2.61-2,4.45,4.45,0,0,0-2.4,1.48Z"/><path id="Path_23537" data-name="Path 23537" class="cls-5" d="M83.15,179.5l-.36-.34a16.39,16.39,0,0,0-3.5,7.2,10.78,10.78,0,0,0-.4,2.77,6.85,6.85,0,0,0,.28,2,5.45,5.45,0,0,0,1.5,2.43,3.93,3.93,0,0,0,2.65,1.11,3.53,3.53,0,0,0,.72-.08A3.31,3.31,0,0,0,86,193.38a3.49,3.49,0,0,0,.78-2.14v-.09a3.13,3.13,0,0,0-1.08-2.26l-.33.38.5,0a15.49,15.49,0,0,1,.28-1.79.8.8,0,0,1,.14-.38h0l.07-.06-.08-.15v.17l.08,0-.08-.15v-.08l-.18.18.18.07v-.25l-.18.18,0,0L86,187h0l0,0L86,187a1,1,0,0,1,.07.38v.06a4.19,4.19,0,0,1-.1.5,4.17,4.17,0,0,0-.1.78,1.6,1.6,0,0,0,.09.53.9.9,0,0,0,.44.48h0a.73.73,0,0,0,.3.06.82.82,0,0,0,.47-.15,1.37,1.37,0,0,0,.4-.43,2.55,2.55,0,0,0,.2-.48,23.23,23.23,0,0,0,.54-4c.1-1.2.19-2.4.28-3.59,0-.21,0-.44,0-.68a3.18,3.18,0,0,0-.06-.62,2.94,2.94,0,0,0-1-1.69,2.85,2.85,0,0,0-1.84-.72,1.56,1.56,0,0,0-.31,0h0a4.91,4.91,0,0,0-2.71,1.64l.37.34.37.34a4,4,0,0,1,2.1-1.33h.17A1.89,1.89,0,0,1,87,179a2,2,0,0,1,.68,1.1,2.28,2.28,0,0,1,0,.45c0,.18,0,.39,0,.6l-.27,3.58a22.24,22.24,0,0,1-.52,3.81.9.9,0,0,1-.13.28l0,0,.07.11v-.13l-.07,0,.07.11v0l.06-.15h-.06V189l.06-.15-.18.47.22-.45,0,.1.07-.07,0,0,0,.1.07-.07,0,0,.06,0h0l-.05,0,.06,0a.26.26,0,0,1,0-.15,2.24,2.24,0,0,1,.08-.57c0-.21.1-.41.12-.61v-.17a2.15,2.15,0,0,0-.12-.7,1.2,1.2,0,0,0-.23-.37.75.75,0,0,0-.53-.22,1,1,0,0,0-.7.33h0a1.71,1.71,0,0,0-.41.88,15.17,15.17,0,0,0-.29,1.91l0,.25.2.17a2.15,2.15,0,0,1,.73,1.53v.06a2.54,2.54,0,0,1-.57,1.51,2.34,2.34,0,0,1-1.32.88,2.38,2.38,0,0,1-.53.05,2.84,2.84,0,0,1-2-.83,4.46,4.46,0,0,1-1.22-2,5.71,5.71,0,0,1-.24-1.74,9.77,9.77,0,0,1,.36-2.52,15.59,15.59,0,0,1,3.26-6.77l-.36-.35Z"/><path id="Path_23538" data-name="Path 23538" class="cls-39" d="M303.85,134.46l-.2,0-2.56-.9a.63.63,0,0,1-.38-.79h0l.41-1.09a.63.63,0,0,0-.23-.74c-.15-.09-.29-.19-.43-.29a1,1,0,0,0-.22-1.35,1,1,0,0,0-.5-.18h-.06a1,1,0,0,0-.68.28c-.28-.28-.54-.57-.78-.86a.68.68,0,0,0-.53-.26.54.54,0,0,0-.22,0l-1.14.54a.92.92,0,0,1-.41.1.44.44,0,0,1-.44-.25l-1.21-2.55a.68.68,0,0,1,.39-.82l1.14-.54a.62.62,0,0,0,.33-.71,9.62,9.62,0,0,1-.2-3.74.61.61,0,0,0-.39-.65l-1.33-.51a.62.62,0,0,1-.36-.78l.92-2.61a.6.6,0,0,1,.78-.37h0l1.22.45a.6.6,0,0,0,.72-.24,11,11,0,0,1,1.71-2.07,1,1,0,0,0,.4.12h.07a1,1,0,0,0,.07-1.93h-.07l-.31-.66a.93.93,0,0,1,.28-1.07l2.55-1.21a.24.24,0,0,1,.12,0c.25,0,.45.38.57.65l.58,1.21a.66.66,0,0,0,.62.3.52.52,0,0,0,.17,0,13.6,13.6,0,0,1,2.78-.3,8.48,8.48,0,0,1,1,0h.06a.61.61,0,0,0,.57-.4l.49-1.3a.61.61,0,0,1,.57-.4.52.52,0,0,1,.21,0l2.65,1a.62.62,0,0,1,.37.78l-.44,1.3a.62.62,0,0,0,.25.72,9.46,9.46,0,0,1,2.76,2.51.63.63,0,0,0,.51.25.7.7,0,0,0,.25,0l.9-.43a.41.41,0,0,1,.18,0c.18,0,.28.18.39.41l1.21,2.56c.15.3.2.46-.11.6l-.9.43a.65.65,0,0,0-.31.72,12.06,12.06,0,0,1,.18,3.6.6.6,0,0,0,.43.64l1,.33a.62.62,0,0,1,.4.77v0l-.94,2.6a.63.63,0,0,1-.59.41.51.51,0,0,1-.2,0l-1.18-.4a.64.64,0,0,0-.2,0,.66.66,0,0,0-.54.28,12.23,12.23,0,0,1-2.6,2.82.75.75,0,0,0-.27.79l.55,1.17c.15.3.19.46-.12.6l-2.55,1.21a1.23,1.23,0,0,1-.42.1.46.46,0,0,1-.43-.25l-.56-1.17a.59.59,0,0,0-.53-.36H309a10.68,10.68,0,0,1-2.18.22,11.94,11.94,0,0,1-1.35-.08h-.08a.59.59,0,0,0-.59.42l-.35,1.08a.63.63,0,0,1-.59.42m2.84-18.81a5.93,5.93,0,1,0,5.93,5.93,5.93,5.93,0,0,0-5.93-5.93"/><path id="Path_23539" data-name="Path 23539" class="cls-40" d="M299.67,113.65h-.06a.93.93,0,0,1-.4-.12,7.45,7.45,0,0,1,.6-.52.58.58,0,0,0,.13-.73l-.26-.57h.07a1,1,0,0,1-.07,1.94"/><path id="Path_23540" data-name="Path 23540" class="cls-40" d="M300.46,130.61a11.68,11.68,0,0,1-1.46-1.26,1,1,0,0,1,.67-.27h.07a1,1,0,0,1,.9,1,1,1,0,0,1-.18.5"/><path id="Path_23541" data-name="Path 23541" class="cls-39" d="M329,157.81l-1.69-.59a.83.83,0,0,1-.5-1.07h0l.55-1.47a.85.85,0,0,0-.31-1,16.15,16.15,0,0,1-3.6-3.25,1,1,0,0,0-.73-.35.8.8,0,0,0-.3.06l-1.52.72a1.4,1.4,0,0,1-.56.14.61.61,0,0,1-.6-.34l-1.63-3.44a.89.89,0,0,1,.53-1.11l1.53-.73a.84.84,0,0,0,.44-1,13,13,0,0,1-.27-5,.82.82,0,0,0-.52-.87l-1.8-.7a.83.83,0,0,1-.49-1l1.24-3.53a.83.83,0,0,1,.78-.55.93.93,0,0,1,.29.05l1.65.62a.87.87,0,0,0,.28,0,.82.82,0,0,0,.69-.39,14.83,14.83,0,0,1,3.12-3.49.77.77,0,0,0,.18-1l-.78-1.65a1.29,1.29,0,0,1,.38-1.45l3.45-1.63a.42.42,0,0,1,.16,0h0v11.91a8,8,0,0,0,0,10.84v11.31"/><path id="Path_23542" data-name="Path 23542" class="cls-39" d="M331.08,158.48a.86.86,0,0,1-.28,0l-1.78-.63v-11.3a8,8,0,1,0,.47-11.31c-.16.15-.32.31-.47.47V123.76c.33,0,.58.51.75.86l.78,1.64a1.09,1.09,0,0,0,1.06.39,18.17,18.17,0,0,1,3.75-.41,12.39,12.39,0,0,1,1.36.07h.08a.83.83,0,0,0,.77-.54l.66-1.75a.83.83,0,0,1,1.06-.49l3.57,1.29a.84.84,0,0,1,.5,1.05l-.6,1.76a.85.85,0,0,0,.35,1,13,13,0,0,1,3.73,3.38.86.86,0,0,0,.68.34.77.77,0,0,0,.34-.07l1.22-.58a.72.72,0,0,1,.25-.07c.24,0,.37.24.52.56l1.64,3.45c.2.41.26.62-.15.82l-1.22.57a.9.9,0,0,0-.42,1,16.57,16.57,0,0,1,.25,4.87.83.83,0,0,0,.57.87l1.4.44a.84.84,0,0,1,.55,1l0,0-1.26,3.51a.84.84,0,0,1-.79.56.87.87,0,0,1-.28-.05l-1.59-.54a.84.84,0,0,0-.27,0,.89.89,0,0,0-.73.38,16.52,16.52,0,0,1-3.51,3.81,1,1,0,0,0-.37,1.06l.74,1.58c.2.41.26.62-.15.81L340.79,158a1.4,1.4,0,0,1-.57.13.6.6,0,0,1-.58-.33l-.75-1.57a.79.79,0,0,0-.72-.5.44.44,0,0,0-.16,0,14.62,14.62,0,0,1-2.95.3,15.74,15.74,0,0,1-1.82-.11h-.1a.83.83,0,0,0-.8.57l-.48,1.46a.83.83,0,0,1-.79.57m3.24-29.4a1,1,0,0,0-1,1,1,1,0,0,0,.91,1h.07a1,1,0,0,0,1-1,1,1,0,0,0-.91-1h-.07"/><path id="Path_23543" data-name="Path 23543" class="cls-40" d="M334.32,131h-.07a1,1,0,0,1,.07-1.93h.06a1,1,0,0,1-.06,1.93"/><path id="Path_23544" data-name="Path 23544" class="cls-39" d="M48.33,348c-2.14,0-4.29-.18-6.39-.38-4.34-.4-9.25-1.1-11.77-4.66-1.31-1.85-1.78-4.27-3.39-5.88A9,9,0,0,0,22.24,335c-.56-.13-1.13-.23-1.69-.32-2.79-.45-5.63-.64-8.23-1.7-3.13-1.28-5.92-4.41-5.27-7.73.56-2.86,3.51-4.74,6.41-5.08a12.59,12.59,0,0,1,1.37-.08,30.16,30.16,0,0,1,7.24,1.3A108,108,0,0,0,36.67,324c7.14.82,14.88,1.12,20.47,5.63,3.7,3,6.41,7.78,11.09,8.66a29.12,29.12,0,0,1,2.92.48,2.7,2.7,0,0,1,2,2c.28,2-4.68,2.25-6.09,2.63-4.09,1.12-8,2.62-12,3.77a24.57,24.57,0,0,1-6.72.84"/><path id="Path_23545" data-name="Path 23545" class="cls-5" d="M14.6,316.79l.12-.07a2.31,2.31,0,0,1,.56-.19l.11,0v0a3.18,3.18,0,0,1,1.23,0h0A2.5,2.5,0,0,1,18.42,319a2.55,2.55,0,0,1-2,2.33h0l.38-.14a2.58,2.58,0,0,1-1.71.11,2.5,2.5,0,0,1-.5-4.55Zm-6,.37a7.91,7.91,0,0,0,6,9.43,7.6,7.6,0,0,0,6-1L64,335l2.44-11-43.55-9.4a9.31,9.31,0,0,0-4.9-3.37,7.91,7.91,0,0,0-9.39,6Z"/><path id="Path_23546" data-name="Path 23546" class="cls-3" d="M21,322.7l43.45,9.38.21-1-43.45-9.38"/><path id="Path_23547" data-name="Path 23547" class="cls-3" d="M22,318.37l43.46,9.38.21-1L22.16,317.4"/><path id="Path_23548" data-name="Path 23548" class="cls-3" d="M58.88,328.86a10.57,10.57,0,0,0,1.41,8l.36.53a10.63,10.63,0,0,0,13.42,3.23l1.44-.74-8.05-5.56L71.82,328l7.92,5.47.1-1.71a10.61,10.61,0,0,0-21-2.9Z"/><path id="Path_23549" data-name="Path 23549" class="cls-5" d="M58.88,328.86l-.49-.11a11.66,11.66,0,0,0-.26,2.43,11,11,0,0,0,1.74,5.95h0c.12.19.25.38.38.56h0a11.12,11.12,0,0,0,14,3.38L76.49,340l-8.34-5.75,3.79-5.5,8.25,5.69.15-2.6c0-.22,0-.44,0-.66a11.11,11.11,0,0,0-22-2.38l.48.11.49.11a10.11,10.11,0,0,1,20,2.16c0,.2,0,.4,0,.6l0,.83-7.6-5.25-4.93,7.14,7.78,5.37-.69.35h0a10.11,10.11,0,0,1-12.79-3.07h0c-.12-.16-.23-.33-.34-.5h0a10.06,10.06,0,0,1-1.59-5.41,9.6,9.6,0,0,1,.25-2.21l-.49-.11Z"/><path id="Path_23550" data-name="Path 23550" class="cls-39" d="M105.47,323.12a140.81,140.81,0,0,1-15.5-.83c-5.44-.62-12-2.57-13.15-7.92-1-4.63,3-9.14,7.56-10.5a18.69,18.69,0,0,1,5.26-.7,64.46,64.46,0,0,1,8.87.94c6.93,1,56.45,1.68,55.06,11.47-.71,4.94-24.36,6-28.94,6.47a183.16,183.16,0,0,1-19.16,1.07"/><path id="Path_23551" data-name="Path 23551" class="cls-5" d="M131.61,306.6l-.8,3.15-37.53-6.58.81-3.15,37.53,6.58Z"/><path id="Path_23552" data-name="Path 23552" class="cls-3" d="M158.82,307.34l.22.3a6.25,6.25,0,0,1,1.07,4.72,6.52,6.52,0,0,1-7.57,5.15L116,311.32l1.87-12.05,36.81,5.64a6.64,6.64,0,0,1,4.14,2.43Z"/><path id="Path_23553" data-name="Path 23553" class="cls-5" d="M158.82,307.34l-.39.31a2.83,2.83,0,0,1,.2.28h0a5.68,5.68,0,0,1,1,4.34,6,6,0,0,1-5.93,4.83,6.23,6.23,0,0,1-1.06-.09l-36.06-6.1,1.72-11.07,36.32,5.56.08-.5-.09.49a6.21,6.21,0,0,1,3.84,2.26l.39-.31.39-.31a7.13,7.13,0,0,0-4.45-2.62h0l-37.3-5.71-2,13,37,6.27a7.09,7.09,0,0,0,1.22.1,7,7,0,0,0,6.92-5.65,6.7,6.7,0,0,0-1.15-5.1h0a3.71,3.71,0,0,0-.23-.32l-.4.31Z"/><path id="Path_23554" data-name="Path 23554" class="cls-3" d="M100.74,295.4l4.83,6.89-.93,2.79-6.25,4.23-14.21-6,1.46-7.95,15.1,0Z"/><path id="Path_23555" data-name="Path 23555" class="cls-5" d="M100.74,295.4l-.41.29,4.69,6.68-.8,2.4-5.89,4L84.74,303l1.32-7.14,14.68,0v-.5l-.41.29.41-.29v-.5l-15.52,0-1.61,8.75,14.83,6.25,6.62-4.46,1.06-3.2-5.12-7.3h-.26v.5Z"/><path id="Path_23556" data-name="Path 23556" class="cls-5" d="M126.42,305.32l33.68,5.39.16-1-33.68-5.4"/><path id="Path_23557" data-name="Path 23557" class="cls-5" d="M125.69,309.49l33.68,5.39.16-1-33.68-5.4"/><path id="Path_23558" data-name="Path 23558" class="cls-5" d="M119.44,311.92l2.38-12.21-1-.19-2.38,12.21"/><line id="Line_34" data-name="Line 34" class="cls-1" x1="88.63" y1="302.98" x2="96.57" y2="306.02"/><path id="Path_23559" data-name="Path 23559" class="cls-5" d="M88.46,303.45l7.93,3,.36-.94-7.94-3"/><path id="Path_23560" data-name="Path 23560" class="cls-3" d="M118,148c-3.77-.53-7.66.63-11.25,1.2l-4.42.87a24.28,24.28,0,0,0-5.49,1.44c-2.61,1.23-4.48,3.63-6,6.11a76.35,76.35,0,0,0-3.95,8c-2,4.4-3.71,8.83-5.53,13.25a.53.53,0,0,0,.27.68c2.68,1.24,5.3,2.59,7.89,4a.21.21,0,0,0,.29-.08s0,0,0,0c.7-2.22,9.72-17,11.85-18a25.71,25.71,0,0,1,4-1,52.11,52.11,0,0,0,14.72-6.89,4.71,4.71,0,0,0,1.7-1.95c1.7-3.74-.2-7-4.08-7.52Z"/><path id="Path_23561" data-name="Path 23561" class="cls-5" d="M118,148l.07-.5a14.44,14.44,0,0,0-2.08-.14c-3.22,0-6.4.88-9.32,1.34h0l-4.42.87h0a24.61,24.61,0,0,0-5.6,1.48c-2.76,1.31-4.68,3.79-6.19,6.31a74.38,74.38,0,0,0-4,8c-2,4.4-3.73,8.85-5.54,13.26a1,1,0,0,0-.08.39,1,1,0,0,0,.6.93h0c2.66,1.23,5.28,2.58,7.87,4a.67.67,0,0,0,.34.09.72.72,0,0,0,.68-.5,8.94,8.94,0,0,1,.59-1.3c1.1-2.13,3.43-6.07,5.72-9.57,1.14-1.75,2.27-3.39,3.22-4.64.48-.62.91-1.15,1.27-1.54a3.42,3.42,0,0,1,.78-.69,7.14,7.14,0,0,1,1.82-.51c.69-.13,1.41-.23,2.06-.42a52.89,52.89,0,0,0,14.87-7,5.22,5.22,0,0,0,1.87-2.16,7,7,0,0,0,.67-2.88,5.12,5.12,0,0,0-1.4-3.56,6.26,6.26,0,0,0-3.74-1.78l-.06.5-.07.49a5.34,5.34,0,0,1,3.15,1.49,4.07,4.07,0,0,1,1.12,2.87,6,6,0,0,1-.58,2.46,4.29,4.29,0,0,1-1.52,1.75,51.92,51.92,0,0,1-14.58,6.82c-.56.16-1.26.27-2,.4a8.28,8.28,0,0,0-2.08.6,4.5,4.5,0,0,0-1.24,1.1,81.14,81.14,0,0,0-6.39,9.2c-1.11,1.79-2.14,3.54-2.93,5-.4.71-.74,1.34-1,1.86a8.87,8.87,0,0,0-.54,1.22l.28.09v-.29a.29.29,0,0,0-.28.2l.28.08h0l.13-.24-.13,0v.27l.13-.24c-2.6-1.4-5.23-2.75-7.92-4h0l0,0h0c1.82-4.42,3.56-8.85,5.52-13.23a78.4,78.4,0,0,1,3.92-7.9c1.47-2.44,3.29-4.75,5.76-5.91a23.75,23.75,0,0,1,5.37-1.41l-.1-.49.1.49,4.42-.86-.1-.49.08.49c3-.48,6.13-1.33,9.17-1.33a14,14,0,0,1,1.94.13l.07-.5Z"/><path id="Path_23562" data-name="Path 23562" class="cls-3" d="M232.33,201a42.53,42.53,0,0,1-2.15-3.85,6.54,6.54,0,0,0-1.35-2.17,6.24,6.24,0,0,0-3.48-1.2,14.69,14.69,0,0,0-5.45,0,4.15,4.15,0,0,0-2,1c-1.49,1.53-.07,4.23,1.4,5.27s3.49,1.35,5,2.62a13.89,13.89,0,0,1,3.3,4.86l2.49,5.15a1.34,1.34,0,0,0,.69.79,1.11,1.11,0,0,0,.6,0c2.12-.48,3.37-2.8,3.45-5,.1-2.89-1.16-5.18-2.52-7.48Z"/><path id="Path_23563" data-name="Path 23563" class="cls-5" d="M232.33,201l.43-.26a40.13,40.13,0,0,1-2.12-3.8,7,7,0,0,0-1.47-2.32,6.66,6.66,0,0,0-3.76-1.34,26.08,26.08,0,0,0-3.31-.28,9.54,9.54,0,0,0-2.32.26,4.66,4.66,0,0,0-2.23,1.16,2.74,2.74,0,0,0-.77,2,4.66,4.66,0,0,0,.7,2.32,5.7,5.7,0,0,0,1.54,1.74,13.45,13.45,0,0,0,2.63,1.31,8.94,8.94,0,0,1,2.37,1.29,13.5,13.5,0,0,1,3.16,4.69l2.49,5.15h0a2.84,2.84,0,0,0,.33.56,1.39,1.39,0,0,0,.66.49h0a1.34,1.34,0,0,0,.4.06,1.82,1.82,0,0,0,.46-.06h0a4.55,4.55,0,0,0,2.8-2.07,6.7,6.7,0,0,0,1-3.37v-.33c0-2.9-1.27-5.2-2.6-7.42l-.43.25-.43.26c1.32,2.21,2.46,4.32,2.46,6.91v.3a5.82,5.82,0,0,1-.88,2.87,3.53,3.53,0,0,1-2.18,1.63h0l-.24,0-.09,0h0a.39.39,0,0,1-.17-.14,2.5,2.5,0,0,1-.23-.39h0l-2.49-5.14a14.1,14.1,0,0,0-3.42-5,9.76,9.76,0,0,0-2.63-1.44,12.2,12.2,0,0,1-2.43-1.2,4.8,4.8,0,0,1-1.26-1.43,3.73,3.73,0,0,1-.56-1.81,1.77,1.77,0,0,1,.49-1.27,3.62,3.62,0,0,1,1.76-.9,8.56,8.56,0,0,1,2.08-.23,26.08,26.08,0,0,1,3.18.28,5.8,5.8,0,0,1,3.21,1.08,5.86,5.86,0,0,1,1.23,2,42.59,42.59,0,0,0,2.18,3.9l.43-.26Z"/><path id="Path_23564" data-name="Path 23564" class="cls-3" d="M101.42,162.56a12.46,12.46,0,0,0,4.72,2.77,5.19,5.19,0,0,0,5.43-1.35c1.14-1.41,1.55-3.79,3.34-4.06a3.5,3.5,0,0,1,1.57.24c2.5.82,5,2.21,7.61,1.83a7.28,7.28,0,0,0,4.31-2.49,6.43,6.43,0,0,0,1.76-5.36c-.75-3.84-5.72-4.65-8.87-4.84-4.28-.25-8.65-.2-12.83-1.14-3.09-.7-5.72-.56-8.16,2A8.46,8.46,0,0,0,99,159.43,10.54,10.54,0,0,0,101.42,162.56Z"/><path id="Path_23565" data-name="Path 23565" class="cls-5" d="M101.42,162.56l-.33.37a12.91,12.91,0,0,0,4.91,2.88,6.39,6.39,0,0,0,1.84.26,5.17,5.17,0,0,0,4.11-1.78,18.68,18.68,0,0,0,1.48-2.52,3.72,3.72,0,0,1,.7-.93,1.53,1.53,0,0,1,.85-.42l.23,0a3.85,3.85,0,0,1,1.11.23c2.16.71,4.4,1.92,6.86,1.93a6.37,6.37,0,0,0,1-.08,7.8,7.8,0,0,0,4.61-2.65,7.37,7.37,0,0,0,2-4.75,5.07,5.07,0,0,0-.1-1,5,5,0,0,0-1.4-2.61,8.59,8.59,0,0,0-3.84-2,21,21,0,0,0-4.1-.62c-4.3-.25-8.65-.21-12.75-1.13a13.22,13.22,0,0,0-2.94-.37,7.49,7.49,0,0,0-5.69,2.5,8.51,8.51,0,0,0-2.26,5.9,9.25,9.25,0,0,0,.88,3.94,11,11,0,0,0,2.53,3.29l.34-.37.33-.37a10.31,10.31,0,0,1-2.3-3,8.2,8.2,0,0,1-.77-3.51,7.48,7.48,0,0,1,2-5.21,6.5,6.5,0,0,1,5-2.2,12.5,12.5,0,0,1,2.72.34c4.25,1,8.65.9,12.9,1.16a17,17,0,0,1,5.18,1,6.29,6.29,0,0,1,2.11,1.33,4,4,0,0,1,1.13,2.09,4.78,4.78,0,0,1,.08.84,6.37,6.37,0,0,1-1.73,4.09,6.81,6.81,0,0,1-4,2.33,5.93,5.93,0,0,1-.84.06c-2.11,0-4.28-1.12-6.55-1.88a4.53,4.53,0,0,0-1.41-.28,2.34,2.34,0,0,0-.38,0,2.56,2.56,0,0,0-1.38.67,6.44,6.44,0,0,0-1.25,1.81,10.66,10.66,0,0,1-1,1.76,4.25,4.25,0,0,1-3.33,1.41,6,6,0,0,1-1.57-.23,12,12,0,0,1-4.52-2.66l-.34.37Z"/><path id="Path_23566" data-name="Path 23566" class="cls-3" d="M125.45,138.83c-5.11.52-6.73,3.92-9.37,7.78-2.18,3.2-4.23,7.94-1.41,11.3,2.27,2.71,5.26,3.92,8.23,5.63,2.5,1.44,4.53,2.56,7.72,2.43,7.75-.31,15.58.55,23.42.51,5,0,9.82,0,14.64-1.51,4.22-1.33,5.75-5.43,6.86-9.5s1.72-10.12-1.18-13.77a7.93,7.93,0,0,0-1.3-1.29,10.34,10.34,0,0,0-2.43-1.3,8.63,8.63,0,0,0-5.14-.86c-.39.09-.76.23-1.15.35a55.81,55.81,0,0,1-10.57,1.9,60.94,60.94,0,0,1-12.45-.38c-5.2-.53-10.64-1.81-15.87-1.28Z"/><path id="Path_23567" data-name="Path 23567" class="cls-5" d="M125.45,138.83l0-.5a9.14,9.14,0,0,0-5.92,2.79,36.82,36.82,0,0,0-3.81,5.21c-1.45,2.13-2.87,4.92-2.88,7.69a6.38,6.38,0,0,0,1.49,4.2c2.38,2.82,5.45,4.06,8.37,5.75,2.36,1.36,4.43,2.51,7.47,2.51a4.61,4.61,0,0,0,.52,0c1.2,0,2.39-.06,3.6-.06,6.34,0,12.75.57,19.2.57h.6c5,0,9.88,0,14.8-1.53a8.63,8.63,0,0,0,4.86-3.94,22.45,22.45,0,0,0,2.32-5.91,26.18,26.18,0,0,0,.95-6.65,12,12,0,0,0-2.22-7.56,8.13,8.13,0,0,0-1.38-1.37,10.82,10.82,0,0,0-2.55-1.37,11.12,11.12,0,0,0-4.15-1,5.55,5.55,0,0,0-1.29.15c-.43.1-.82.24-1.18.35A55.79,55.79,0,0,1,153.72,140a37,37,0,0,1-3.79.19,84.45,84.45,0,0,1-8.56-.57c-4.3-.43-8.81-1.4-13.29-1.41-.89,0-1.79.05-2.68.13l0,.5,0,.5q1.29-.12,2.58-.12c4.33,0,8.82.95,13.19,1.4a83.38,83.38,0,0,0,8.66.57,38.82,38.82,0,0,0,3.89-.19,56.87,56.87,0,0,0,10.67-1.92c.4-.12.77-.26,1.11-.34a4.81,4.81,0,0,1,1.07-.12,10.34,10.34,0,0,1,3.77,1,9.67,9.67,0,0,1,2.31,1.23A6.93,6.93,0,0,1,174,142a11.09,11.09,0,0,1,2,6.94,25.09,25.09,0,0,1-.91,6.39,22.24,22.24,0,0,1-2.2,5.65,7.71,7.71,0,0,1-4.32,3.51c-4.73,1.49-9.48,1.45-14.5,1.48h-.6c-6.39,0-12.81-.58-19.21-.58-1.21,0-2.42,0-3.63.07h-.48c-2.77,0-4.59-1-7-2.37-3-1.73-5.93-2.93-8.1-5.52a5.36,5.36,0,0,1-1.26-3.57c0-2.4,1.31-5.09,2.7-7.12a37.68,37.68,0,0,1,3.7-5.08,8.14,8.14,0,0,1,5.31-2.49l0-.5Z"/><path id="Path_23568" data-name="Path 23568" class="cls-5" d="M221.42,198.48c.24-1.35.7-5-.21-5.9s-2.08-.93-3.19-1.18c-1.44-.33-2.87-.83-4.29-1.24l-8.83-2.57a135.53,135.53,0,0,1-13.94-5c-6.22-2.59-12.7-5.51-19.41-4.83a42.34,42.34,0,0,0-4.61,1.1,12.83,12.83,0,0,0-5,2.06,5.92,5.92,0,0,0-1.8,7c2.28,6,8.47,6.34,13.82,7.76a49.3,49.3,0,0,0,8.57,1.13q14.37,1.23,28.64,3.38c2.41.36,4.81.75,7.21,1.15.66.11,1.5.37,2.28.44.28-1.06.54-2.13.72-3.21Z"/><path id="Path_23569" data-name="Path 23569" class="cls-5" d="M164,192.3a2.48,2.48,0,0,0,1.27,0c5.08-1.3,9.5-5.83,12.55-9.85,4.9-6.46,7.87-14,12.47-20.63,1.41-2,3.31-3.42,4.48-5.59a21.35,21.35,0,0,0,2.28-13.33c-1.56-8.35-11.23-10.81-18.59-9.58-4.82.81-9.12,3.62-13.92,4.51a3.69,3.69,0,0,0-1.72.59,1.27,1.27,0,0,0-.36.65c0,5.85.05,11.7,0,17.55-.06,3.65.36,8.31-.13,11.3-.3,1.84-1.75,3.88-2.33,5.7a20.77,20.77,0,0,0-.28,13.22c.61,1.76,2.21,4.89,4.31,5.45Z"/><path id="Path_23570" data-name="Path 23570" class="cls-42" d="M137.91,154.63c.1.19.19.38.28.57"/><path id="Path_23571" data-name="Path 23571" class="cls-3" d="M136.38,148.44a55.2,55.2,0,0,0,7.55-21.8,69.48,69.48,0,0,0-.06-11.54c-.68-11.28-.85-22.74-2.08-34-1.16.58-9.55,1.36-9.51,1.08q-2.31,18.75-4.6,37.5a43.19,43.19,0,0,1-1.69,8.73,53,53,0,0,1-4.09,8.27c-2.54,4.58-8.44,12.68-7.3,18"/><path id="Path_23572" data-name="Path 23572" class="cls-5" d="M136.81,148.71a54.89,54.89,0,0,0,4.46-9.19,52.85,52.85,0,0,0,3.15-12.82,42.28,42.28,0,0,0,.23-4.64c0-2.34-.14-4.67-.28-7-.68-11.27-.85-22.73-2.08-34l-.08-.71-.64.32a2.21,2.21,0,0,1-.5.15,56.79,56.79,0,0,1-8.33.94h-.3l-.06.3.14-.27-.08,0-.06.3.14-.27-.21.41.34-.31-.13-.1-.21.41.34-.3-.36.32h.49a.46.46,0,0,0-.13-.32l-.36.32h0l.48.1v-.1h-.49l.48.1-.49-.1-.5-.06q-2.31,18.75-4.6,37.5a43,43,0,0,1-1.67,8.63,51.9,51.9,0,0,1-4.06,8.18c-1.14,2.06-3,4.9-4.59,7.89s-2.9,6.12-2.91,8.9a7.26,7.26,0,0,0,.16,1.54l1-.21a6.66,6.66,0,0,1-.13-1.33c0-2.46,1.23-5.51,2.79-8.44s3.41-5.75,4.59-7.87a53,53,0,0,0,4.13-8.34,43.62,43.62,0,0,0,1.71-8.83q2.29-18.75,4.6-37.5l-1-.16v.1a.51.51,0,0,0,.2.4.58.58,0,0,0,.25.12,2.19,2.19,0,0,0,.51,0c.93,0,2.94-.16,4.88-.38,1-.12,1.9-.24,2.67-.38.39-.06.73-.13,1-.2a3.68,3.68,0,0,0,.71-.23l-.23-.45-.5.06c1.23,11.2,1.4,22.65,2.08,34,.14,2.31.28,4.62.28,6.92a42.67,42.67,0,0,1-.22,4.53,51.82,51.82,0,0,1-3.1,12.58,52.85,52.85,0,0,1-4.37,9l.85.52Z"/><path id="Path_23573" data-name="Path 23573" class="cls-42" d="M157.34,143.09v.42"/><path id="Path_23574" data-name="Path 23574" class="cls-3" d="M163.15,167.26a94.94,94.94,0,0,1,11.34-16.95l-.77-.64a95.7,95.7,0,0,0-11.46,17.13Z"/><path id="Path_23575" data-name="Path 23575" class="cls-5" d="M138.83,152.67c-.2-1.62-.52-3.17-.68-4.81a12.62,12.62,0,0,0-.4-2.37l-.08-.21c-1.58,3.27-4.43,5.78-7.33,7.92l8.14,4.57c.77.43.42-4.51.35-5.1Z"/><path id="Path_23576" data-name="Path 23576" class="cls-5" d="M110.05,154.13a2.72,2.72,0,0,1-.75,1.5c4.75,2.4,5.6,12.12,5.13,16.71-.31,3.1-1.21,6.12-1.47,9.22-.38,4.61.8,9.5,4,12.88a14.64,14.64,0,0,0,15.51,3.37,17.11,17.11,0,0,0,10.31-12.41c2.83-13.49-10.32-25.39-18.71-34.09-3.3-3.43-7.5-5.85-12.41-5.65a24,24,0,0,0-4.38.67c-3.68.85-7,2.18-8.93,5.55-1.15,2-3.19,3.58-3.8,5.84a4.83,4.83,0,0,0,1.33,4.75,4.22,4.22,0,0,0,4.83.54c3.29-1.95,2.22-9.19,6.66-9a.89.89,0,0,1,.56-1,2.68,2.68,0,0,1,1.19-.15,1.26,1.26,0,0,1,.54.09c.38.17.43.74.43,1.11Z"/><path id="Path_23577" data-name="Path 23577" class="cls-3" d="M107.55,164.26a3.16,3.16,0,0,1,.64-3.06"/><path id="Path_23578" data-name="Path 23578" class="cls-5" d="M108,164.11a2.72,2.72,0,0,1-.12-.8,2.69,2.69,0,0,1,.66-1.78l-.75-.67a3.72,3.72,0,0,0-.74,3.55l1-.31Z"/><path id="Path_23579" data-name="Path 23579" class="cls-3" d="M195.56,151.21c-1.85,4.74-5.57,8.71-7.46,13.7l.93.36c1.78-4.75,5.5-8.73,7.46-13.69l-.93-.37Z"/><path id="Path_23580" data-name="Path 23580" class="cls-39" d="M336,321.21a9.58,9.58,0,0,1-4-.73,4.25,4.25,0,0,1-2.22-6.15c2.22-4,10.17-5.82,13.74-6.72a47,47,0,0,1,11.63-1.46,44.17,44.17,0,0,1,7.71.65,3.19,3.19,0,0,1,2.26,1.09c.64,1,.08,2.3-.75,3.12-3.29,3.25-8.34,5-12.58,6.65a44.94,44.94,0,0,1-15,3.54H336"/><path id="Path_23581" data-name="Path 23581" class="cls-5" d="M356.55,265.51a4.35,4.35,0,0,1,.06-.52c.31-1.87,1.78-3.29,2.79-4.9a10.74,10.74,0,0,0,1.62-5.22c.14-3.45,0-7.88,1.53-11.08,1.34-2.88,4.53-4.44,6.16-7.15a16.77,16.77,0,0,0,1.58-5,17.53,17.53,0,0,1,3.48-7.49,23.76,23.76,0,0,1,5-4.06,24.71,24.71,0,0,1,5.51-3.05c2.6-.92,5.5-1.23,6.7,1.46,1,2.17.49,5.24-.54,7.28a22.46,22.46,0,0,1-3.65,4.7,68.58,68.58,0,0,0-6.32,8.18,6.26,6.26,0,0,0-1.18,2.61,11.24,11.24,0,0,0,.28,2.77c.6,4.7-1.34,8.5-5,11.36-2.87,2.26-4.66,3.54-5.38,7.46-.45,2.42-.64,5-2,7.05a23.63,23.63,0,0,1-1.92,2.32,18.34,18.34,0,0,0-4.26,10.16c-.16,1.85-.55,6-3.54,5.2-3.65-1-3.21-11.7-2.14-14.24a16.2,16.2,0,0,0,1.36-3.21c.29-1.54-.3-3.12-.22-4.67Z"/><path id="Path_23582" data-name="Path 23582" class="cls-3" d="M341.08,273.29a12.7,12.7,0,0,1,.65-4.24c.58-1.78,1.52-3.56,1.24-5.41-.47-3.05-4-4.72-5.09-7.61-1.5-4,2-7.94,2.82-12.1.67-3.52-.68-7.08-1.6-10.55-.39-1.5-2.62-10,1.81-8.67a2.86,2.86,0,0,1,1.49,1.53c2.15,4.09,2.69,9.27,6.12,12.63,1.4,1.38,3.22,2.3,4.55,3.74a10.64,10.64,0,0,1,2.25,8.78c-.84,5.39-6.16,9-4,14.52a46.62,46.62,0,0,0,3.63,6.42c2.58,4.41,7.8,22.11-2.72,16-5.57-3.24-11-8.52-11.12-15Z"/><path id="Path_23583" data-name="Path 23583" class="cls-5" d="M341.08,273.29l.5,0V273a12.49,12.49,0,0,1,.63-3.83c.48-1.5,1.3-3.1,1.31-4.86a4.9,4.9,0,0,0-.06-.77,8,8,0,0,0-2.43-4.14,11.76,11.76,0,0,1-2.68-3.58A5.2,5.2,0,0,1,338,254a12.62,12.62,0,0,1,1.31-4.77,25.63,25.63,0,0,0,1.87-5.18,11.18,11.18,0,0,0,.19-2.08c0-3-1.06-5.9-1.79-8.7a24.26,24.26,0,0,1-.89-5.55,4.67,4.67,0,0,1,.34-2,1.16,1.16,0,0,1,.4-.48,1,1,0,0,1,.61-.17,2.54,2.54,0,0,1,.72.13,1.47,1.47,0,0,1,.65.45,4.92,4.92,0,0,1,.54.83,57.68,57.68,0,0,1,2.55,6.53,16.64,16.64,0,0,0,3.66,6.23c1.49,1.44,3.29,2.36,4.53,3.72a9.5,9.5,0,0,1,2.28,6.46,12.07,12.07,0,0,1-.15,1.9,18.43,18.43,0,0,1-2.47,5.93,12.81,12.81,0,0,0-2.07,6.09,7.91,7.91,0,0,0,.53,2.76,46.1,46.1,0,0,0,3.68,6.49,29.85,29.85,0,0,1,2.27,5.7,27.13,27.13,0,0,1,1.25,7.09,5.79,5.79,0,0,1-.54,2.78,1.75,1.75,0,0,1-.65.7,1.89,1.89,0,0,1-1,.24,7.21,7.21,0,0,1-3.38-1.2,27.54,27.54,0,0,1-7.46-6.17,13.83,13.83,0,0,1-3.41-8.45h-.5l-.5,0a14.77,14.77,0,0,0,3.63,9.05,28.51,28.51,0,0,0,7.73,6.4,8.2,8.2,0,0,0,3.89,1.34,2.8,2.8,0,0,0,1.5-.39,3.11,3.11,0,0,0,1.32-1.76,8,8,0,0,0,.36-2.57,27.87,27.87,0,0,0-1.29-7.37,30.71,30.71,0,0,0-2.37-5.93,46.15,46.15,0,0,1-3.6-6.34,6.83,6.83,0,0,1-.47-2.4c0-1.93.9-3.71,1.94-5.6a19.31,19.31,0,0,0,2.59-6.26,14.18,14.18,0,0,0,.16-2.06,10.47,10.47,0,0,0-2.54-7.13c-1.42-1.53-3.24-2.46-4.56-3.77a15.48,15.48,0,0,1-3.43-5.86,57.09,57.09,0,0,0-2.6-6.64,5.35,5.35,0,0,0-.67-1,2.64,2.64,0,0,0-1.11-.75,3.89,3.89,0,0,0-1-.17,2.07,2.07,0,0,0-1.16.34,2.47,2.47,0,0,0-.95,1.41,6.75,6.75,0,0,0-.23,1.89,25.33,25.33,0,0,0,.92,5.81c.75,2.85,1.76,5.69,1.76,8.44a10.89,10.89,0,0,1-.17,1.89,25.78,25.78,0,0,1-1.81,5A13.66,13.66,0,0,0,337,254a6.28,6.28,0,0,0,.4,2.23,12.87,12.87,0,0,0,2.88,3.91,7.11,7.11,0,0,1,2.18,3.6,4.18,4.18,0,0,1,0,.61c0,1.44-.74,3-1.27,4.56a13.48,13.48,0,0,0-.67,4.13v.27h.49Z"/><path id="Path_23584" data-name="Path 23584" class="cls-3" d="M361.82,273.66l.18-.35c1.31-2.5,3.05-4.75,4.4-7.23,1.1-2,1.93-4.17,3.14-6.1a9.7,9.7,0,0,1,5.11-4.37,5.29,5.29,0,0,1,4.6.85c.35.33.61.73.95,1.08a10.72,10.72,0,0,0,2.15,1.43c3.8,2.3,5.42,6.61,6.8,10.6,1.52,4.35,3.35,8.06,4,12.64a3.61,3.61,0,0,1-.49,3,2.36,2.36,0,0,1-2.45.45,6.43,6.43,0,0,1-2.16-1.47,9.69,9.69,0,0,1-2.18-2.63c-.43-.87-.62-1.84-1.11-2.68a10.46,10.46,0,0,0-2.41-2.47c-2.54-2.2-4.11-4.83-5.92-7.58-1.84.75-3.63,3.13-5.61,4.19-1.73.92-4.62,1.25-5.58,3.17s-.51,4.63-1.19,6.7c-1.52,4.6-5.07,3.95-4.58-1a23.83,23.83,0,0,1,2.4-8.25Z"/><path id="Path_23585" data-name="Path 23585" class="cls-5" d="M361.82,273.66l.45.22.18-.34c1.27-2.45,3-4.7,4.4-7.22,1.11-2.05,1.94-4.2,3.12-6.08a9.25,9.25,0,0,1,4.83-4.16,4.92,4.92,0,0,1,4.11.73c.29.28.55.68.93,1.07a10.37,10.37,0,0,0,2.26,1.51,11.91,11.91,0,0,1,4.12,4.48,36.06,36.06,0,0,1,2.46,5.85c1.53,4.4,3.34,8.07,3.93,12.55a6.92,6.92,0,0,1,.09,1.11,2,2,0,0,1-.44,1.46,1.61,1.61,0,0,1-1.18.44,2.36,2.36,0,0,1-.75-.12,5.77,5.77,0,0,1-2-1.37,9.16,9.16,0,0,1-2.07-2.48c-.4-.78-.59-1.77-1.13-2.7a10.69,10.69,0,0,0-2.51-2.6c-2.47-2.13-4-4.72-5.83-7.48l-.23-.35-.38.16a11,11,0,0,0-2.89,2.07,16,16,0,0,1-2.77,2.14c-.78.42-1.93.74-3,1.19a5,5,0,0,0-2.76,2.2,9.44,9.44,0,0,0-.75,3.47,14.2,14.2,0,0,1-.47,3.3,5.64,5.64,0,0,1-1.18,2.16,1.6,1.6,0,0,1-1.12.61,1,1,0,0,1-.88-.57,4.19,4.19,0,0,1-.47-2.11c0-.26,0-.54.05-.84a23.22,23.22,0,0,1,2.34-8.07l-.44-.23-.45-.22a24.31,24.31,0,0,0-2.45,8.42c0,.31,0,.62,0,.94a5,5,0,0,0,.61,2.64,2.06,2.06,0,0,0,1.73,1,2.59,2.59,0,0,0,1.85-.92,6.61,6.61,0,0,0,1.4-2.54,15.06,15.06,0,0,0,.52-3.53,8.63,8.63,0,0,1,.64-3.1,4,4,0,0,1,2.25-1.72c1-.43,2.18-.73,3.12-1.23a16.79,16.79,0,0,0,3-2.28,10.19,10.19,0,0,1,2.61-1.89l-.19-.47-.42.28c1.81,2.73,3.39,5.43,6,7.69a10.22,10.22,0,0,1,2.3,2.34c.43.74.63,1.7,1.1,2.65a10,10,0,0,0,2.28,2.77,6.68,6.68,0,0,0,2.34,1.58,3.21,3.21,0,0,0,1.07.18,2.59,2.59,0,0,0,1.9-.76,3,3,0,0,0,.72-2.15,10.36,10.36,0,0,0-.1-1.24c-.63-4.68-2.49-8.42-4-12.74a36.1,36.1,0,0,0-2.54-6,12.79,12.79,0,0,0-4.47-4.85,9.8,9.8,0,0,1-2.06-1.36c-.3-.29-.56-.7-1-1.09a5.35,5.35,0,0,0-3.54-1.17,5.09,5.09,0,0,0-1.55.21,10.21,10.21,0,0,0-5.38,4.58c-1.25,2-2.09,4.16-3.16,6.13-1.32,2.44-3.07,4.69-4.41,7.24l-.18.36.45.22Z"/><path id="Path_23586" data-name="Path 23586" class="cls-5" d="M373,282.46h-34v4.24h2.72l4,22.65H366.3l4-22.65H373Z"/><path id="Path_23587" data-name="Path 23587" class="cls-3" d="M340.82,287.56h30.43v-1H340.82"/><path id="Path_23588" data-name="Path 23588" class="cls-5" d="M341.53,253.23a.83.83,0,1,1-.83-.83.83.83,0,0,1,.83.83Z"/><path id="Path_23589" data-name="Path 23589" class="cls-5" d="M349,256.55a.83.83,0,1,1-.83-.83.83.83,0,0,1,.83.83Z"/><path id="Path_23590" data-name="Path 23590" class="cls-5" d="M347.33,265.66a.83.83,0,1,1-.83-.83.83.83,0,0,1,.83.83Z"/><path id="Path_23591" data-name="Path 23591" class="cls-5" d="M352.3,247.43a.83.83,0,1,1-.82-.83A.83.83,0,0,1,352.3,247.43Z"/><path id="Path_23592" data-name="Path 23592" class="cls-5" d="M342.36,230.85a.83.83,0,1,1-1.65,0,.82.82,0,0,1,.82-.82A.83.83,0,0,1,342.36,230.85Z"/><path id="Path_23593" data-name="Path 23593" class="cls-5" d="M354,275.6a.83.83,0,1,1-.83-.83.83.83,0,0,1,.83.83Z"/><path id="Path_23594" data-name="Path 23594" class="cls-5" d="M346.5,274a.83.83,0,1,1-.83-.83A.82.82,0,0,1,346.5,274Z"/><path id="Path_23595" data-name="Path 23595" class="cls-5" d="M345.67,243.29a.83.83,0,1,1-.82-.83.82.82,0,0,1,.82.83Z"/><path id="Path_23596" data-name="Path 23596" class="cls-39" d="M208.72,365h-1a118.74,118.74,0,0,1-22.08-2.5c-5.63-1.12-11.2-2.54-16.72-4.08-5.2-1.44-10.66-3.18-14.15-7.28-10.5-12.31,6.61-25,15.67-30.32,6.61-3.87,14.35-8.34,22.22-8.34a20.35,20.35,0,0,1,2.82.2c5,.72,9.73,2.77,14.34,4.87,15.37,7,30.73,14.87,47.47,17.13,3.5.48,32.59,1.25,31.25,6a4.22,4.22,0,0,1-1.59,2c-6.11,4.95-13.73,7.59-21.19,10.1C247.25,359,228.24,365,208.72,365"/><path id="Path_23597" data-name="Path 23597" class="cls-5" d="M196,325.43c-2.44,4.47,1.37,7.69,4.55,10.68a10,10,0,0,0,2.91,2.07c1.9.82,4.06.62,6.11.4a446.93,446.93,0,0,0,44.31-6.75c3.42-.73,6.8-1.63,10.2-2.4a91.4,91.4,0,0,0,13.27-4.62,42.44,42.44,0,0,0,11.83-7.12l.18-.16a4.13,4.13,0,0,0,1.57-1.56c1.82-2.08,3.08-4.67,2-7.1-1.21-2.79-4.74-3.58-7.77-3.82-9.05-.72-18.12.25-27.07,1.6-6,.9-12,2.19-18.07,2.94s-12,.07-18.17.21A30.69,30.69,0,0,0,196,325.43Z"/><path id="Path_23598" data-name="Path 23598" class="cls-3" d="M222.28,303.4c-3.74-1.48-7.6-.09-9.66-4.35a42.12,42.12,0,0,1-1.65-4.86,20.7,20.7,0,0,0-10.15-11.71c3.69-3.48,8.63-5.21,13.12-7.55a50.93,50.93,0,0,0,11.34-8c3.12-2.92,7.95-9.21,5.36-13.77-2.08-3.66-7.24-2.52-10.58-1.67-4.64,1.19-8.7,1.41-12.9,4.15-4,2.64-7.36,6.2-10.62,9.76-5.09,5.54-16.19,16.4-8.93,24.19a84.21,84.21,0,0,0,13.3,12.08,26.54,26.54,0,0,0,4.4,2.58c3.08,1.36,4.27,3.87,7.36,5.25a22.67,22.67,0,0,0,8.12,2.13c2.09.1,5.48-.38,5.68-2.9s-2.22-4.52-4.19-5.29Z"/><path id="Path_23599" data-name="Path 23599" class="cls-5" d="M222.28,303.4l.19-.46a31.91,31.91,0,0,0-5.54-1.16,6.09,6.09,0,0,1-2.18-.87,5.24,5.24,0,0,1-1.68-2.08,43,43,0,0,1-1.63-4.8A21.24,21.24,0,0,0,201,282l-.22.45.34.36c3.58-3.38,8.47-5.11,13-7.46a51.73,51.73,0,0,0,11.44-8.12,25.55,25.55,0,0,0,4.07-4.91,12.36,12.36,0,0,0,2.19-6.34,6.21,6.21,0,0,0-.8-3.13,5.11,5.11,0,0,0-2.45-2.21,7.78,7.78,0,0,0-3.16-.58,23,23,0,0,0-5.53.88c-4.58,1.18-8.73,1.4-13,4.21-4.1,2.68-7.46,6.28-10.72,9.84A97.24,97.24,0,0,0,189,273.3c-2.37,3.25-4.29,6.84-4.3,10.38a8.85,8.85,0,0,0,2.53,6.21A84.29,84.29,0,0,0,200.62,302a27.23,27.23,0,0,0,4.48,2.63,12.87,12.87,0,0,1,3.54,2.53,14.25,14.25,0,0,0,3.81,2.72,23.29,23.29,0,0,0,8.31,2.17h.54a9,9,0,0,0,3.49-.62,4,4,0,0,0,1.46-1,2.88,2.88,0,0,0,.71-1.72c0-.1,0-.2,0-.3a5.14,5.14,0,0,0-1.52-3.42,8.38,8.38,0,0,0-3-2.07l-.19.46-.18.47a7.49,7.49,0,0,1,2.63,1.82,4.16,4.16,0,0,1,1.25,2.74v.22a1.88,1.88,0,0,1-.47,1.15,3.58,3.58,0,0,1-1.82,1,9,9,0,0,1-2.37.29h-.49a22.18,22.18,0,0,1-7.95-2.08,13.31,13.31,0,0,1-3.54-2.55,13.86,13.86,0,0,0-3.82-2.7,25.65,25.65,0,0,1-4.31-2.54,83.22,83.22,0,0,1-13.22-12,7.83,7.83,0,0,1-2.26-5.52c0-3.17,1.78-6.62,4.1-9.79a93.87,93.87,0,0,1,7.09-8.2c3.25-3.55,6.56-7.09,10.53-9.68s8-2.88,12.74-4.08a22,22,0,0,1,5.28-.85,7.08,7.08,0,0,1,2.77.5,4.08,4.08,0,0,1,2,1.79,5.06,5.06,0,0,1,.67,2.63,11.42,11.42,0,0,1-2,5.81,24.92,24.92,0,0,1-3.91,4.71,50.21,50.21,0,0,1-11.22,8c-4.45,2.32-9.44,4.06-13.23,7.63l-.52.49.63.32a20.26,20.26,0,0,1,9.9,11.42,41.87,41.87,0,0,0,1.67,4.92,6.2,6.2,0,0,0,2,2.46A8.86,8.86,0,0,0,218,303a17.52,17.52,0,0,1,4.05.87l.19-.46Z"/><path id="Path_23600" data-name="Path 23600" class="cls-3" d="M274.67,296.59c-1.83,2.42-4.88,4-7.79,3.32-3.08-.73-5.12-3.6-6.77-6.3A52.83,52.83,0,0,1,253.69,280c-1.45-5.35-2.13-13.86,3.18-17.41,3.77-2.53,9.95-1.1,12.87,2.13,6.3,7,10.47,22.19,5.6,30.85a8.61,8.61,0,0,1-.68,1Z"/><path id="Path_23601" data-name="Path 23601" class="cls-5" d="M274.67,296.59l-.4-.3a7.88,7.88,0,0,1-6,3.28,5.53,5.53,0,0,1-1.28-.15,7.6,7.6,0,0,1-3.68-2.26,22.45,22.45,0,0,1-2.78-3.8,52.56,52.56,0,0,1-6.36-13.49,28.88,28.88,0,0,1-1-7.29,15.62,15.62,0,0,1,.88-5.5,8.27,8.27,0,0,1,3.11-4.07,7.79,7.79,0,0,1,4.37-1.21,11,11,0,0,1,7.85,3.26c4.28,4.72,7.61,13.49,7.6,21.19a18.73,18.73,0,0,1-2.06,9.08,10.15,10.15,0,0,1-.64,1l.4.3.4.3a9.69,9.69,0,0,0,.71-1.09,19.51,19.51,0,0,0,2.19-9.57c0-8-3.37-16.87-7.86-21.85a12,12,0,0,0-8.59-3.6,8.83,8.83,0,0,0-4.92,1.38,9.31,9.31,0,0,0-3.5,4.56,16.65,16.65,0,0,0-.94,5.85,29.21,29.21,0,0,0,1.06,7.55,53.7,53.7,0,0,0,6.47,13.75,23,23,0,0,0,2.91,4,8.53,8.53,0,0,0,4.17,2.54,6.33,6.33,0,0,0,1.5.17,8.86,8.86,0,0,0,6.8-3.66l-.4-.3Z"/><path id="Path_23602" data-name="Path 23602" class="cls-5" d="M265,253.86c-4.68-4.94-10.23-8.57-17.5-8.4-2,0-3.91.37-5.87.44-6.88.24-13.69-1.47-20.32,1.18a97.58,97.58,0,0,0-19.84,11.24c-.5.36,11.6,17,12.89,18.46,5-3.67,3.81,13.62,3.73,16-.2,5.82-.35,11.7.85,17.44a2.05,2.05,0,0,1,1.11-.94c.6-.13,1,.58,1.49.71a17.79,17.79,0,0,0,3.86,0c2.23,0,4.45,0,6.68,0a117.54,117.54,0,0,0,15.35-.78,51.37,51.37,0,0,1,7.93-.71c1.4-4.83.91-10.64,1-15.44.15-4.62-.22-9.14.13-13.74A142.6,142.6,0,0,0,275.82,273c.38-.15-3-7.82-3.36-8.56a41.9,41.9,0,0,0-5.23-8.11c-.71-.86-1.44-1.69-2.2-2.49Z"/><path id="Path_23603" data-name="Path 23603" class="cls-3" d="M228.55,340.07c-1,.95-21,5.34-21,5.34l-.94-10.17,18.61-6.67Z"/><path id="Path_23604" data-name="Path 23604" class="cls-5" d="M228.55,340.07l-.35-.36.13.13-.11-.14h0l.13.13-.11-.14h0a2.28,2.28,0,0,1-.45.2c-.84.32-2.56.81-4.62,1.34-3.1.8-7,1.72-10.15,2.44l-3.92.88-1.57.35.11.49.5-.05-.91-9.78,17.75-6.35,3.14,11,.48-.14-.36-.35.36.35.48-.14-3.43-12-19.49,7,1,11.12.56-.12s5-1.1,10.13-2.32c2.56-.61,5.15-1.25,7.17-1.8,1-.27,1.88-.52,2.53-.74.33-.11.6-.21.82-.3l.29-.14.26-.18.21-.21-.08-.28-.49.13Z"/><path id="Path_23605" data-name="Path 23605" class="cls-5" d="M279.17,327.92a51,51,0,0,1,7.19-3.63c2.67-1,5.62-1.62,7.68-3.59s2.86-5.25,3.44-8.21a22.76,22.76,0,0,0-.27-10.22,13.52,13.52,0,0,0-9.74-9.57,12.8,12.8,0,0,0-8.5,1c-1.92,1-3.57,2.41-5.46,3.42a44.73,44.73,0,0,1-5,2c-5.07,2-9.74,4.93-14.37,7.73s-8.8,6.34-13.3,9.37c-1.77,1.2-20.41,10.25-20.41,10.26,2.42,5.38,4.53,10.91,6.74,16.4,12.06-1.63,23.67-5.42,35.39-8.57,2.33-.63,4.49-1.56,6.82-2.09a29.6,29.6,0,0,0,7.44-3l2.34-1.31Z"/><path id="Path_23606" data-name="Path 23606" class="cls-5" d="M206.92,346.48c-3.68.73-7.39-.06-11.37-.49-3.1-.34-6.28.24-9.36-.24-4.12-.63-7.32-3.55-7.62-7.66-.17-2.32-.25-4.9,1.27-6.65a6.15,6.15,0,0,1,5.21-1.74,24.23,24.23,0,0,1,5.48,1.52,80.61,80.61,0,0,0,9.42,2.49c2.58.55,4.79,1.82,7.34.56a.57.57,0,0,1,.44-.09c.15.05.22.23.28.38.91,2.56,1.73,5.14,2.45,7.76.38,1.36,1,2.15-.11,3A9.26,9.26,0,0,1,206.92,346.48Z"/><path id="Path_23607" data-name="Path 23607" class="cls-3" d="M246.79,340.07c1,.95,21,5.34,21,5.34l.94-10.17-18.62-6.67Z"/><path id="Path_23608" data-name="Path 23608" class="cls-5" d="M246.79,340.07l-.35.35.25.18a9.91,9.91,0,0,0,1.57.59c2.51.78,7.35,1.95,11.56,2.94s7.82,1.77,7.82,1.77l.55.12,1-11.12-19.48-7-3.51,12.29.21.21.35-.35.48.13,3.14-11,17.74,6.35-.9,9.78.5.05.11-.49-3.14-.7c-2.83-.64-7.11-1.62-10.75-2.53-1.83-.46-3.5-.89-4.75-1.26-.62-.18-1.14-.35-1.51-.48l-.44-.18-.12-.06h0l-.08.11.1-.1v0l-.08.11.1-.1-.36.36.48.14-.48-.14Z"/><path id="Path_23609" data-name="Path 23609" class="cls-5" d="M195.49,329.11a68.71,68.71,0,0,1-11.13-5.29,11.55,11.55,0,0,1-3.22-2.6,12.79,12.79,0,0,1-2-5.5c-1.36-7.19-3.3-12.67,1.92-18.78,4.24-5,11-6.9,16.82-3.31,3.75,2.33,6.27,6.56,10.43,8,2.25.8,4.81.64,7,1.64q3,1.65,5.87,3.6c4.64,2.81,8.8,6.34,13.29,9.38,1.78,1.2,20.42,10.25,20.42,10.25-2.42,5.38-4.53,10.92-6.74,16.4-12.06-1.63-23.67-5.42-35.39-8.57-5.8-1.56-11.66-3.14-17.28-5.26Z"/><path id="Path_23610" data-name="Path 23610" class="cls-5" d="M268.42,346.48c3.69.73,7.39-.06,11.37-.49,3.1-.34,6.29.24,9.37-.24,3.9-.6,8.34-4.47,8.52-8.6a9.22,9.22,0,0,0-.77-3.77,8.13,8.13,0,0,0-1-1.78,5.77,5.77,0,0,0-4-2c-2.34-.22-4.68.54-6.89,1.19a52,52,0,0,0-6.59,2A17.28,17.28,0,0,1,269.4,334a5.83,5.83,0,0,0-2.39,0c-1.73.51-1.55,3.12-1.69,4.54a20.68,20.68,0,0,1-1.17,6.38,13.68,13.68,0,0,0,4.27,1.63Z"/><path id="Path_23611" data-name="Path 23611" class="cls-3" d="M259.5,262.85v-.08l-.15-2.53a4.52,4.52,0,0,1,2.26-4.53c.75-.67,7-6.81,7.52-6.46,2,1.49,3.17.16,4.6-1.37a2.48,2.48,0,0,0,.86-1.65c0-.65-.78-1.24-1.3-.87,1.14-1.26,2.25-2.54,3.32-3.86.95-1.16,1.89-1.87,1.24-3.4a11.25,11.25,0,0,0-5.61-5.5c-1.9-.93-4.95-2.23-7.11-2.07-2.39.17-3.62,2.19-5.41,3.41a.44.44,0,0,1-.26.1.5.5,0,0,1-.29-.17,2,2,0,0,0-2.47,0,4.78,4.78,0,0,0-1.46,2.21,3.11,3.11,0,0,0-.29,1.67,1.2,1.2,0,0,0,1.18,1c-.45.07-1.19,3.47-1.31,3.91-.61,2.16-1.94,3.37-3.45,5-1.37,1.51-3,3.14-5,3-.9,0-2-.34-2.54.4a1.76,1.76,0,0,0-.25.87c-.36,4.45,2.5,8.4,6.09,10.74,1.88,1.22,10.05,4.57,9.88,0Z"/><path id="Path_23612" data-name="Path 23612" class="cls-5" d="M259.5,262.85l.5,0v-.09h0l-.15-2.53c0-.23,0-.45,0-.65a4.91,4.91,0,0,1,0-.55,3.3,3.3,0,0,1,.74-1.54,11,11,0,0,1,1.35-1.38c.38-.35,2-2,3.71-3.49.84-.77,1.67-1.51,2.34-2.06.33-.27.62-.49.84-.64l.25-.15.05,0-.07-.21v.22h.07l-.07-.21v-.2l-.24.33a.38.38,0,0,0,.24.09v-.42l-.24.33.3-.4-.3.4a3.19,3.19,0,0,0,1.93.76,3,3,0,0,0,1.83-.72,13.9,13.9,0,0,0,1.51-1.46,5.3,5.3,0,0,0,.66-.84,2.05,2.05,0,0,0,.34-1.13v0a1.49,1.49,0,0,0-.44-1,1.41,1.41,0,0,0-1-.45,1.1,1.1,0,0,0-.66.21l.3.4.37.34q1.71-1.9,3.33-3.88c.35-.43.72-.81,1-1.24a2.59,2.59,0,0,0,.54-1.54,3,3,0,0,0-.25-1.14,11.82,11.82,0,0,0-5.85-5.75,31.68,31.68,0,0,0-3.3-1.4,11.81,11.81,0,0,0-3.66-.74l-.41,0a5.64,5.64,0,0,0-3.21,1.42c-.87.71-1.62,1.51-2.45,2.08h0l-.05,0,.08.18v-.19h-.08l.08.18v-.19h0v0l0,.5,0-.5,0,.25.1-.23-.08,0,0,.25.1-.23-.05.13.07-.12h0l-.05.13.07-.12,0,0-.06-.06h0a2.15,2.15,0,0,0-1.46-.54,2.86,2.86,0,0,0-1.65.55,5.33,5.33,0,0,0-1.63,2.43,4.16,4.16,0,0,0-.35,1.51,2.18,2.18,0,0,0,0,.44,1.81,1.81,0,0,0,.52,1,1.53,1.53,0,0,0,1.06.47h.14l-.05-.5-.08-.5a.67.67,0,0,0-.35.19,1.42,1.42,0,0,0-.28.41,12.68,12.68,0,0,0-.69,2.08c-.2.75-.35,1.45-.4,1.59a7.36,7.36,0,0,1-1.29,2.54c-.58.75-1.28,1.46-2,2.31a14.42,14.42,0,0,1-2.13,2,4.18,4.18,0,0,1-2.38.88h-.14c-.38,0-.85-.1-1.34-.1a2.52,2.52,0,0,0-.86.12,1.59,1.59,0,0,0-.77.58,2.21,2.21,0,0,0-.33,1.11h0a7.26,7.26,0,0,0,0,.8,10.94,10.94,0,0,0,1.88,6,15.15,15.15,0,0,0,4.47,4.41,17,17,0,0,0,3.23,1.51,13.62,13.62,0,0,0,4.31.92,3.58,3.58,0,0,0,2.16-.58A2.46,2.46,0,0,0,260,263v-.16h0l-.5,0-.5,0V263a1.45,1.45,0,0,1-.54,1.29,2.71,2.71,0,0,1-1.57.39,12.6,12.6,0,0,1-4-.86,16.22,16.22,0,0,1-3-1.4,14.43,14.43,0,0,1-4.19-4.12,10.06,10.06,0,0,1-1.71-5.45c0-.23,0-.47,0-.71h0a1.37,1.37,0,0,1,.16-.63.56.56,0,0,1,.29-.21,1.77,1.77,0,0,1,.52-.07c.37,0,.84.08,1.3.1h.18a5,5,0,0,0,3-1.07,14.56,14.56,0,0,0,2.29-2.15c.74-.82,1.46-1.55,2.09-2.37a8.41,8.41,0,0,0,1.47-2.87c0-.14.1-.42.2-.8.14-.57.33-1.33.53-1.94a6.61,6.61,0,0,1,.28-.74l.09-.16h0l-.24-.22,0,.31a.37.37,0,0,0,.19-.09l-.24-.22,0,.31-.13-1h0a.53.53,0,0,1-.35-.17.89.89,0,0,1-.24-.46l0-.25a3.25,3.25,0,0,1,.29-1.14,4.33,4.33,0,0,1,1.29-2,1.72,1.72,0,0,1,1.05-.35,1.1,1.1,0,0,1,.78.27h0l.18.15a.86.86,0,0,0,.41.16h.05a1,1,0,0,0,.53-.19h0c.95-.66,1.72-1.48,2.52-2.13a4.56,4.56,0,0,1,2.64-1.2h.34a10.79,10.79,0,0,1,3.33.68A29.9,29.9,0,0,1,272,233a10.8,10.8,0,0,1,5.37,5.25,1.92,1.92,0,0,1,.18.75,1.69,1.69,0,0,1-.36,1c-.25.34-.61.72-1,1.18-1.07,1.31-2.18,2.59-3.31,3.84l-3.24,3.59,3.91-2.85.06,0a.48.48,0,0,1,.28.15.54.54,0,0,1,.16.35h0a1.07,1.07,0,0,1-.2.62,4.22,4.22,0,0,1-.53.67,13.54,13.54,0,0,1-1.38,1.35,2.06,2.06,0,0,1-1.23.51,2.17,2.17,0,0,1-1.32-.55h0a.63.63,0,0,0-.35-.11.93.93,0,0,0-.43.12,5.11,5.11,0,0,0-.73.48c-1,.74-2.48,2.1-3.83,3.35l-2.81,2.66a12.35,12.35,0,0,0-1.47,1.51,4,4,0,0,0-1,2.7c0,.25,0,.48,0,.71l.15,2.53.5,0-.5,0v.09h0l.5,0Z"/><path id="Path_23613" data-name="Path 23613" class="cls-41" d="M258.25,315.32H207a1.66,1.66,0,0,1-1.66-1.66V282.77a1.66,1.66,0,0,1,1.66-1.66h51.21a1.66,1.66,0,0,1,1.66,1.66v30.89a1.66,1.66,0,0,1-1.66,1.66Z"/><path id="Path_23614" data-name="Path 23614" class="cls-5" d="M235.85,297.15a3.21,3.21,0,1,1-3.2-3.21h0a3.2,3.2,0,0,1,3.2,3.2Z"/><path id="Path_23615" data-name="Path 23615" class="cls-5" d="M276.7,239.23a5.42,5.42,0,0,1-1,1.76c-1.87,2.47-4.58,5.59-7.3,7.13l-.31.16c-.74-2.53-1.66-5.05-4-6.55a9.94,9.94,0,0,0-6.81-1.2c.84-3.52,3.53-8.92,7.65-9a7.38,7.38,0,0,1,4.22,1.56c1.25.87,2.37,1.93,3.65,2.76,1.44.94,4.45,1.1,3.86,3.35ZM262.58,247a7.19,7.19,0,0,1-2.66-1.08c-.54-.42.09-1.29.6-.86a6.37,6.37,0,0,0,2.33.93C263.43,246.19,263.16,247.17,262.58,247Zm20.15-15a4.89,4.89,0,0,0-.26-1,3.71,3.71,0,0,0-1.7-2,5.4,5.4,0,0,0-2-.49,19.71,19.71,0,0,0-2.43,0,18.31,18.31,0,0,1-2.34.09,12.26,12.26,0,0,1-3.51-.95,13,13,0,0,0-3.51-1c-2.53-.2-4.31,1.73-5.83,3.5a36.76,36.76,0,0,0-4.23,6.59c-2.4,4.45-3.13,10,1.38,13.42,5.92,4.53,13-1.65,17.4-5.43a24.32,24.32,0,0,0,2.75-2.2,16.65,16.65,0,0,0,2.22-3.35,24.36,24.36,0,0,0,1.61-3.57,7.91,7.91,0,0,0,.47-3.64Z"/><path id="Path_23616" data-name="Path 23616" class="cls-3" d="M267.92,251c.13-.31.26-.61.4-.91,1.11-2.31,3.57-3.28,5.49-4.92,1.18-1,2.39-1.81,3.62-2.75.59-.45,1.07-1.13,1.69-1.51a1.13,1.13,0,0,1,1.3,0,1.49,1.49,0,0,1,.37,1c.15,2.39-1.18,4.23-2.34,6.15-1,1.68-2.61,2.73-3.67,4.36s-.88,3.67-.67,5.57q.54,4.78,1.06,9.57A61.38,61.38,0,0,0,277,276c1.1,4.44,1,9.61,1.11,14.16s-2.93,10.05-7.68,11c-9.55,1.93-7.47-11.55-7.72-17-.2-4.31.82-8.71,1.8-12.86,1-4.34,1.12-8.83,1.76-13.23A30.71,30.71,0,0,1,267.92,251Z"/><path id="Path_23617" data-name="Path 23617" class="cls-5" d="M267.92,251l.47.19c.12-.3.25-.6.39-.89a7,7,0,0,1,2.28-2.52c1-.71,2.07-1.37,3.07-2.23,1.16-1,2.35-1.78,3.6-2.73.67-.53,1.16-1.19,1.65-1.48a.9.9,0,0,1,.42-.13.47.47,0,0,1,.28.09,1,1,0,0,1,.21.67c0,.12,0,.23,0,.35a6.39,6.39,0,0,1-.71,2.81c-.43.9-1,1.77-1.56,2.69-.93,1.56-2.52,2.61-3.67,4.34a6.47,6.47,0,0,0-.9,3.59,22.6,22.6,0,0,0,.16,2.32c.35,3.19.71,6.38,1.06,9.57a61.08,61.08,0,0,0,1.8,8.45c1.08,4.35,1,9.49,1.1,14.05v.19a12.12,12.12,0,0,1-2,6.47,8.5,8.5,0,0,1-5.29,3.85,8.84,8.84,0,0,1-1.63.18,4.4,4.4,0,0,1-2.9-.94,7.2,7.2,0,0,1-2.15-4.22,29.32,29.32,0,0,1-.46-5.92c0-1.57.05-3.08.05-4.35,0-.45,0-.87,0-1.25s0-.73,0-1.09A51.35,51.35,0,0,1,265,271.43c1-4.42,1.13-8.92,1.76-13.28a30.2,30.2,0,0,1,1.67-7l-.47-.19-.46-.19a31.25,31.25,0,0,0-1.73,7.2c-.63,4.44-.74,8.91-1.75,13.19a52.8,52.8,0,0,0-1.84,11.86c0,.38,0,.76,0,1.13s0,.77,0,1.2c0,1.25-.05,2.77-.05,4.36a23.7,23.7,0,0,0,1,8,6.66,6.66,0,0,0,2,2.93,5.43,5.43,0,0,0,3.53,1.17,10.36,10.36,0,0,0,1.84-.2,9.48,9.48,0,0,0,5.91-4.28,13.05,13.05,0,0,0,2.17-7v-.2c-.08-4.54,0-9.74-1.12-14.27a60.72,60.72,0,0,1-1.79-8.32L274.62,258a20.51,20.51,0,0,1-.15-2.21,5.39,5.39,0,0,1,.74-3c1-1.52,2.58-2.58,3.68-4.37.54-.9,1.14-1.8,1.61-2.78a7.46,7.46,0,0,0,.81-3.24c0-.14,0-.28,0-.42a1.92,1.92,0,0,0-.54-1.34,1.43,1.43,0,0,0-.95-.35,1.83,1.83,0,0,0-.94.27,18.11,18.11,0,0,0-1.73,1.54c-1.22.93-2.43,1.73-3.65,2.77-.91.79-2,1.43-3,2.18a7.93,7.93,0,0,0-2.59,2.9c-.15.31-.29.63-.42.94l.46.19Z"/><path id="Path_23618" data-name="Path 23618" class="cls-3" d="M267.88,296.32a5.23,5.23,0,0,1-.06,1.12,2.1,2.1,0,0,1-1.58,1.8,2.85,2.85,0,0,1-2.32-1.2,14.18,14.18,0,0,1-3.65-9.75,5.11,5.11,0,0,1,.71-2.93,2.11,2.11,0,0,1,2.67-.77,3.14,3.14,0,0,1,1.11,1.7l2.43,6.55a12.16,12.16,0,0,1,.7,3.48Z"/><path id="Path_23619" data-name="Path 23619" class="cls-5" d="M271.26,297.15a2.32,2.32,0,0,1-1.51.45c-.4-.05-.46.58-.09.69a1.85,1.85,0,0,0,2.11-.63c.23-.3-.21-.7-.51-.51Z"/><path id="Path_23620" data-name="Path 23620" class="cls-5" d="M189,284.85a1.73,1.73,0,0,1-.58-1.51.82.82,0,0,0-.56-1,.79.79,0,0,0-1,.55,3.38,3.38,0,0,0,1,3c.73.7,1.85-.42,1.11-1.11Z"/><path id="Path_23621" data-name="Path 23621" class="cls-3" d="M218.9,337.35q7.5,1.83,15.12,3l.16-1q-7.58-1.2-15-3l-.23,1Z"/><path id="Path_23622" data-name="Path 23622" class="cls-3" d="M253,332.31c.68-1.57,1.39-3.14,2.14-4.68l.2-.42-.41-.23c-6.48-3.64-12.8-7.51-19.23-11.26l-.5.86c6.42,3.74,12.75,7.62,19.25,11.27l.24-.44-.45-.22c-.76,1.56-1.47,3.14-2.16,4.73l.92.39Z"/><path id="Path_23623" data-name="Path 23623" class="cls-3" d="M210.84,333.05a97.11,97.11,0,0,1-13.8-4.4l-.37.93A100.3,100.3,0,0,0,210.6,334l.24-1Z"/></g></g></g></svg>