<svg xmlns="http://www.w3.org/2000/svg" width="522.537" height="405" viewBox="0 0 522.537 405">
  <g id="Group_9625" data-name="Group 9625" transform="translate(-8633.909 -11547)">
    <g id="Group_9622" data-name="Group 9622" transform="translate(-8658 -274)">
      <g id="Group_1831" data-name="Group 1831" transform="translate(17100.629 11777.8)">
        <g id="Group_1815" data-name="Group 1815">
          <rect id="Rectangle_1091" data-name="Rectangle 1091" width="119.58" height="214.818" transform="translate(540.722 49.062)" fill="#ebebeb"/>
        </g>
        <g id="Group_1816" data-name="Group 1816">
          <rect id="Rectangle_1092" data-name="Rectangle 1092" width="108.792" height="202.189" transform="translate(545.5 55.291)" fill="#fafafa"/>
        </g>
        <g id="Group_1817" data-name="Group 1817">
          <path id="Path_11756" data-name="Path 11756" d="M654.292,57.673,545.5,196.061V55.291H654.292Z" fill="#f5f5f5"/>
        </g>
        <g id="Group_1818" data-name="Group 1818">
          <rect id="Rectangle_1093" data-name="Rectangle 1093" width="111.154" height="2.153" transform="translate(545.5 113.455)" fill="#ebebeb"/>
        </g>
        <g id="Group_1819" data-name="Group 1819">
          <rect id="Rectangle_1094" data-name="Rectangle 1094" width="111.154" height="2.153" transform="translate(545.5 161.604)" fill="#ebebeb"/>
        </g>
        <g id="Group_1820" data-name="Group 1820">
          <rect id="Rectangle_1095" data-name="Rectangle 1095" width="111.154" height="2.153" transform="translate(545.5 209.753)" fill="#ebebeb"/>
        </g>
        <g id="Group_1821" data-name="Group 1821">
          <rect id="Rectangle_1096" data-name="Rectangle 1096" width="148.682" height="5.497" transform="translate(597.147 263.213) rotate(-90)" fill="#ebebeb"/>
        </g>
        <g id="Group_1822" data-name="Group 1822">
          <rect id="Rectangle_1097" data-name="Rectangle 1097" width="2.49" height="59.24" transform="translate(566.448 55.291)" fill="#ebebeb"/>
        </g>
        <g id="Group_1823" data-name="Group 1823">
          <rect id="Rectangle_1098" data-name="Rectangle 1098" width="2.49" height="59.24" transform="translate(587.925 55.291)" fill="#ebebeb"/>
        </g>
        <g id="Group_1824" data-name="Group 1824">
          <rect id="Rectangle_1099" data-name="Rectangle 1099" width="2.49" height="59.24" transform="translate(609.401 55.291)" fill="#ebebeb"/>
        </g>
        <g id="Group_1825" data-name="Group 1825">
          <rect id="Rectangle_1100" data-name="Rectangle 1100" width="2.49" height="59.24" transform="translate(630.878 55.291)" fill="#ebebeb"/>
        </g>
        <g id="Group_1826" data-name="Group 1826">
          <rect id="Rectangle_1101" data-name="Rectangle 1101" width="5.058" height="219.791" transform="translate(535.664 45.418)" fill="#f5f5f5"/>
        </g>
        <g id="Group_1827" data-name="Group 1827">
          <path id="Path_11757" data-name="Path 11757" d="M665.36,265.816l-5.058-1.936V45.418h5.058Z" fill="#e0e0e0"/>
        </g>
        <g id="Group_1828" data-name="Group 1828">
          <rect id="Rectangle_1102" data-name="Rectangle 1102" width="129.696" height="5.861" transform="translate(535.664 43.201)" fill="#e0e0e0"/>
        </g>
        <g id="Group_1829" data-name="Group 1829">
          <rect id="Rectangle_1103" data-name="Rectangle 1103" width="136.708" height="5.461" transform="translate(532.076 266.539)" fill="#e0e0e0"/>
        </g>
        <g id="Group_1830" data-name="Group 1830">
          <path id="Path_11758" data-name="Path 11758" d="M660.3,263.879l8.482,2.659H532.076l8.646-2.659Z" fill="#ebebeb"/>
        </g>
      </g>
      <g id="Group_1839" data-name="Group 1839" transform="translate(17100.629 11777.8)">
        <g id="Group_1835" data-name="Group 1835">
          <path id="Path_11759" data-name="Path 11759" d="M688.444,350.753c4.835-2.495,10.528-2.819,15.9-1.932,2.883.477,5.89,1.34,7.852,3.506s2.334,5.978.081,7.839a7.522,7.522,0,0,1-4.951,1.256c-4.2-.049-8.865-.789-12.222,1.74-1.915,1.442-3.19,3.84-5.48,4.55a5.414,5.414,0,0,1-5.956-2.65,9.254,9.254,0,0,1-.674-6.829A10.424,10.424,0,0,1,688.444,350.753Z" fill="#ebebeb"/>
          <path id="Path_11760" data-name="Path 11760" d="M677.367,329.369c2.956,4.223,8.7,2.825,11.366.248s3.791-6.313,4.816-9.876c2.342-8.139,4.7-16.677,2.962-24.966a13.867,13.867,0,0,0-3.189-6.787,7.245,7.245,0,0,0-6.867-2.285c-2.9.765-4.7,3.6-6,6.3a59.522,59.522,0,0,0-5.881,25.54c-.014,4.114.471,8.428,2.792,11.824" fill="#ebebeb"/>
          <path id="Path_11761" data-name="Path 11761" d="M669.248,335.428c3.21-3.81,3.819-9.366,2.39-14.139s-4.655-8.833-8.374-12.148a45.1,45.1,0,0,0-15-8.848,15.986,15.986,0,0,0-6.744-1.145,7.077,7.077,0,0,0-5.66,3.424c-1.578,3.01-.065,6.661,1.572,9.639a114.258,114.258,0,0,0,9.849,15c2.952,3.806,6.334,7.56,10.833,9.28s9.173,1.518,11.558-1.6" fill="#ebebeb"/>
          <g id="Group_1832" data-name="Group 1832">
            <path id="Path_11762" data-name="Path 11762" d="M677.166,393.066a9.174,9.174,0,0,0,.268-1.918c.136-1.4.306-3.151.509-5.237a75.732,75.732,0,0,1,1.178-7.681,59.244,59.244,0,0,1,2.792-9.065,33.412,33.412,0,0,1,4.629-8.2,17.28,17.28,0,0,1,5.852-4.865,16.34,16.34,0,0,1,4.929-1.535,9.155,9.155,0,0,0,1.91-.277,9.083,9.083,0,0,0-1.944-.03,14.944,14.944,0,0,0-5.139,1.338,17.244,17.244,0,0,0-6.173,4.907,32.663,32.663,0,0,0-4.8,8.368,55.4,55.4,0,0,0-2.771,9.213,64.762,64.762,0,0,0-1.022,7.778c-.166,2.224-.229,4.024-.259,5.269A8.986,8.986,0,0,0,677.166,393.066Z" fill="#e0e0e0"/>
          </g>
          <g id="Group_1833" data-name="Group 1833">
            <path id="Path_11763" data-name="Path 11763" d="M677.527,389.037a3.836,3.836,0,0,0,.052-.89c0-.669,0-1.512-.007-2.546-.006-2.21-.005-5.407.113-9.355.2-7.9.876-16.4,2.189-28.377,1.244-11.267,2.913-24.379,4.674-32.9.378-1.939.758-3.684,1.116-5.211.342-1.532.634-2.852.915-3.92.242-1.006.438-1.825.6-2.475a3.866,3.866,0,0,0,.156-.878,3.714,3.714,0,0,0-.31.835c-.194.64-.438,1.448-.739,2.439-.328,1.058-.664,2.37-1.047,3.895-.4,1.521-.82,3.262-1.234,5.2a288.923,288.923,0,0,0-4.913,30.531c-1.316,12.006-1.909,22.938-1.962,30.855-.046,3.958.038,7.162.139,9.373.063,1.034.114,1.876.155,2.545A3.756,3.756,0,0,0,677.527,389.037Z" fill="#e0e0e0"/>
          </g>
          <g id="Group_1834" data-name="Group 1834">
            <path id="Path_11764" data-name="Path 11764" d="M677.58,367.952a16.978,16.978,0,0,0-.019-2.66c-.1-1.709-.332-4.179-.814-7.2a94.763,94.763,0,0,0-2.344-10.5,85.971,85.971,0,0,0-4.389-12.423,66.172,66.172,0,0,0-12.893-20.074,32.479,32.479,0,0,0-3.033-2.819c-.465-.394-.876-.786-1.295-1.1l-1.177-.811a16.777,16.777,0,0,0-2.239-1.433c-.127.172,3.173,2.114,7.339,6.547a69.728,69.728,0,0,1,12.571,20,98.34,98.34,0,0,1,4.415,12.308c1.151,3.857,1.915,7.4,2.493,10.394.549,2.995.867,5.441,1.059,7.134A17.21,17.21,0,0,0,677.58,367.952Z" fill="#e0e0e0"/>
          </g>
        </g>
        <path id="Path_11765" data-name="Path 11765" d="M657.2,405.147l2.113,28.946H696.5l2.113-28.946Z" fill="#e0e0e0"/>
        <rect id="Rectangle_1104" data-name="Rectangle 1104" width="49.44" height="11.409" transform="translate(653.608 393.737)" fill="#e0e0e0"/>
        <path id="Path_11766" data-name="Path 11766" d="M653.608,432.985v3.163h48.623v-3.163Z" fill="#ebebeb"/>
        <path id="Path_11767" data-name="Path 11767" d="M658.208,441.713l-2.277-5.566H700.46l-2.657,5.566Z" fill="#e0e0e0"/>
        <g id="Group_1836" data-name="Group 1836">
          <path id="Path_11768" data-name="Path 11768" d="M697.921,414.607a1.257,1.257,0,0,1-.173.265l-.556.738-2.166,2.772-.1.123-.093-.129-5.322-7.361h.306l-5.239,7.42-.165.232-.183-.218-6.215-7.394.359,0-.342.429-5.557,6.966-.185.232-.171-.242-5.242-7.417.3.014-6.457,7.356-.114.131-.088-.147-2.021-3.4-.519-.9a1.434,1.434,0,0,1-.158-.322,1.413,1.413,0,0,1,.216.287l.574.87c.517.811,1.229,1.93,2.122,3.334l-.2-.016,6.353-7.446.16-.187.145.2,5.289,7.384-.356-.01,5.544-6.976.342-.43.176-.222.182.218,6.2,7.408-.348.013,5.292-7.382.155-.216.151.216,5.21,7.441-.189-.006,2.253-2.7.6-.7C697.837,414.677,697.912,414.6,697.921,414.607Z" fill="#f5f5f5"/>
        </g>
        <g id="Group_1837" data-name="Group 1837">
          <path id="Path_11769" data-name="Path 11769" d="M699.129,404.955c0,.128-9.318.232-20.809.232s-20.811-.1-20.811-.232,9.316-.231,20.811-.231S699.129,404.828,699.129,404.955Z" fill="#f5f5f5"/>
        </g>
        <g id="Group_1838" data-name="Group 1838">
          <path id="Path_11770" data-name="Path 11770" d="M701.007,436.459c0,.128-10.126.232-22.615.232s-22.617-.1-22.617-.232,10.124-.231,22.617-.231S701.007,436.331,701.007,436.459Z" fill="#f5f5f5"/>
        </g>
      </g>
      <g id="Floor" transform="translate(17249.537 11778.32)">
        <g id="Group_1878" data-name="Group 1878" transform="translate(42.372 440.105)">
          <path id="Path_11786" data-name="Path 11786" d="M560.561,440.65c0-.3-116.01-.545-259.082-.545-143.122,0-259.107.244-259.107.545s115.985.543,259.107.543C444.551,441.193,560.561,440.949,560.561,440.65Z" transform="translate(-42.372 -440.105)" fill="#263238"/>
        </g>
      </g>
      <g id="Character_3" data-name="Character 3" transform="translate(17100.629 11777.8)">
        <g id="Group_2307" data-name="Group 2307">
          <g id="Group_2133" data-name="Group 2133">
            <g id="Group_2129" data-name="Group 2129">
              <g id="Group_2123" data-name="Group 2123">
                <g id="Group_2122" data-name="Group 2122">
                  <g id="Group_2117" data-name="Group 2117">
                    <rect id="Rectangle_1106" data-name="Rectangle 1106" width="7.314" height="87.635" transform="translate(573.66 425.769) rotate(180)" fill="#455a64"/>
                  </g>
                  <g id="Group_2119" data-name="Group 2119">
                    <g id="Group_2118" data-name="Group 2118">
                      <path id="Path_11871" data-name="Path 11871" d="M518.25,342.1H622.863a11.355,11.355,0,0,0-11.355-11.355H529.6A11.355,11.355,0,0,0,518.25,342.1Z" fill="#263238"/>
                    </g>
                  </g>
                  <g id="Group_2121" data-name="Group 2121">
                    <g id="Group_2120" data-name="Group 2120">
                      <path id="Path_11872" data-name="Path 11872" d="M562.9,342.325a76.406,76.406,0,0,0,12.835,0,76.682,76.682,0,0,0-12.835,0Z" fill="#263238"/>
                    </g>
                  </g>
                </g>
              </g>
              <g id="Group_2124" data-name="Group 2124">
                <path id="Path_11873" data-name="Path 11873" d="M538.008,433.709h1.035a31.123,31.123,0,1,1,62.246,0h1.034a32.158,32.158,0,1,0-64.315,0Z" fill="#455a64"/>
              </g>
              <g id="Group_2125" data-name="Group 2125">
                <path id="Path_11874" data-name="Path 11874" d="M596.985,435.306a4.822,4.822,0,1,0,4.821-4.822A4.82,4.82,0,0,0,596.985,435.306Z" fill="#263238"/>
              </g>
              <g id="Group_2126" data-name="Group 2126">
                <path id="Path_11875" data-name="Path 11875" d="M533.463,434.641a4.822,4.822,0,1,0,4.822-4.822A4.821,4.821,0,0,0,533.463,434.641Z" fill="#455a64"/>
              </g>
              <g id="Group_2128" data-name="Group 2128">
                <g id="Group_2127" data-name="Group 2127">
                  <path id="Path_11876" data-name="Path 11876" d="M538.319,425.769c0,.149,13.993.27,31.251.27s31.254-.121,31.254-.27-13.99-.269-31.254-.269S538.319,425.62,538.319,425.769Z" fill="#455a64"/>
                </g>
              </g>
            </g>
            <g id="Group_2130" data-name="Group 2130">
              <path id="Path_11877" data-name="Path 11877" d="M625.935,251.377v64.512a15.319,15.319,0,0,1-15.319,15.319h-49.71l6.752-79.831a6.828,6.828,0,0,1,6.828-6.828h44.622A6.828,6.828,0,0,1,625.935,251.377Z" fill="#263238"/>
            </g>
            <g id="Group_2131" data-name="Group 2131">
              <path id="Path_11878" data-name="Path 11878" d="M608.364,330.745a.718.718,0,0,1,.114-.189l.365-.528c.33-.457.8-1.143,1.367-2.049a33.94,33.94,0,0,0,3.7-8.216,33.441,33.441,0,0,0,1.232-6.1,62.6,62.6,0,0,0,.2-7.164c-.006-5.074-.013-10.643-.021-16.49.03-11.68.057-22.251.077-29.962.034-3.8.062-6.885.082-9.079l.049-2.469a5.277,5.277,0,0,1,.053-.86,5.371,5.371,0,0,1,.052.86q.018.916.049,2.469c.02,2.194.048,5.283.083,9.079.02,7.711.046,18.282.076,29.962-.007,5.847-.014,11.416-.02,16.49a61.324,61.324,0,0,1-.247,7.212,33.016,33.016,0,0,1-1.309,6.16,32.328,32.328,0,0,1-3.885,8.219c-.6.9-1.1,1.564-1.453,2A4.41,4.41,0,0,1,608.364,330.745Z" fill="#455a64"/>
            </g>
            <g id="Group_2132" data-name="Group 2132">
              <path id="Path_11879" data-name="Path 11879" d="M581.3,330.78a9.2,9.2,0,0,1,1.58-.09l4.307-.052c3.638-.021,8.664-.015,14.215.025,2.775.027,5.424.03,7.823.092a25.31,25.31,0,0,1,6.382.7,9.884,9.884,0,0,1,3.838,2.01,6.541,6.541,0,0,1,.834.835c.176.2.261.316.248.328-.045.043-.405-.4-1.21-1.005a10.357,10.357,0,0,0-3.806-1.813,26.485,26.485,0,0,0-6.3-.572l-7.824-.051c-5.546-.039-10.568-.1-14.2-.177l-4.306-.114A9.234,9.234,0,0,1,581.3,330.78Z" fill="#455a64"/>
            </g>
          </g>
          <path id="Path_11880" data-name="Path 11880" d="M605.662,266.336c-1.17-9.667-2.726-17.908-2.726-17.908H581.982s2.6,12.264,2.021,15.108c-.507,2.478-41.113,4.12-51.694,4.285-.629-.474-1.545.322-2.36-.387a8.471,8.471,0,0,1-1.8-2.221,13.2,13.2,0,0,1-1.448-3.279,1.082,1.082,0,0,0-2.008-.46c-.423.907.053,3.923,2.064,6.837s-3.26,1.4-5.19.884-7.975-1.826-8.6-1.343c-.914.708-.341,1.845,1.6,2.315,1.963.475,7.659,2.3,7.346,3.331s-10.1-1.75-10.1-1.75-2-.938-2.4.242c-.723,2.13,9.9,4.285,10.912,4.465.706.124.405,1.258-.346,1.084-.773-.181-9.7-2.993-10.46-.832-.58,1.658,8.719,1.856,10.258,3.495s-7.038-.886-7.529.721c-.183.6,3.385.876,8.513,1.6a131.566,131.566,0,0,0,15.854.564c11.9.652,53.94,1.521,62.914.886C609.991,283.231,606.064,269.656,605.662,266.336Z" fill="#ffbe9d"/>
          <g id="Group_2139" data-name="Group 2139">
            <g id="Group_2138" data-name="Group 2138">
              <path id="Path_11881" data-name="Path 11881" d="M480.7,216.186s-5.771-5.882-6.89-6.116-11.928-5.657-11.928-5.657a1.852,1.852,0,0,0,.317,2.753c1.6,1.27,5.382,3.562,5.382,3.562l-2.671,5.218s2.563,8.556,3.028,8.381.9-1.68.9-1.68l-.8-2.7,5.233,4.368,2.273-.262Z" fill="#ffb29d"/>
              <g id="Group_2134" data-name="Group 2134">
                <path id="Path_11882" data-name="Path 11882" d="M476.249,213.365a26.033,26.033,0,0,1-3.642-1.771l.045.018-2.852-.767.317-.215a3.619,3.619,0,0,0,.762,2.395,9.073,9.073,0,0,0,2.911,2.423l.19.1-.072.19a6.4,6.4,0,0,0-.119,3.989c.276.97.589,1.483.54,1.513a3.279,3.279,0,0,1-.814-1.424,6.3,6.3,0,0,1-.054-4.241l.118.295a9.054,9.054,0,0,1-3.122-2.544,4.054,4.054,0,0,1-.837-2.75l.031-.3.285.085,2.83.841.027.008.018.011A25.9,25.9,0,0,1,476.249,213.365Z" fill="#eb9078"/>
              </g>
              <g id="Group_2136" data-name="Group 2136">
                <path id="Path_11883" data-name="Path 11883" d="M466.59,216.092a30.871,30.871,0,0,0,2.242,6.555,5.063,5.063,0,0,0,1.021-2.091" fill="#ffb29d"/>
                <g id="Group_2135" data-name="Group 2135">
                  <path id="Path_11884" data-name="Path 11884" d="M469.853,220.556a3.246,3.246,0,0,1-.847,2.236l-.211.279-.167-.327a22.156,22.156,0,0,1-.943-2.115,12.608,12.608,0,0,1-1.1-4.537c.146-.032.661,1.978,1.581,4.35.3.778.6,1.5.866,2.109l-.378-.049A14.05,14.05,0,0,0,469.853,220.556Z" fill="#eb9078"/>
                </g>
              </g>
              <g id="Group_2137" data-name="Group 2137">
                <path id="Path_11885" data-name="Path 11885" d="M469.975,212.156a8.83,8.83,0,0,1,1.03,2.222,10.936,10.936,0,0,1,.619,2.613,6.712,6.712,0,0,1-.465,3.292,4.968,4.968,0,0,1-.752,1.224l-.259.307-.17-.362a26.322,26.322,0,0,1-1.68-4.688,6.68,6.68,0,0,1-.33-1.978c.144-.037.776,2.914,2.474,6.446l-.428-.055a4.7,4.7,0,0,0,.668-1.1,8.318,8.318,0,0,0-.028-5.584A15.978,15.978,0,0,1,469.975,212.156Z" fill="#eb9078"/>
              </g>
            </g>
            <path id="Path_11886" data-name="Path 11886" d="M480.7,216.186l40.988,27.747-11.963,14.949-34.179-34.826Z" fill="#ffb29d"/>
          </g>
          <g id="Group_2193" data-name="Group 2193">
            <g id="Group_2192" data-name="Group 2192">
              <g id="Group_2144" data-name="Group 2144">
                <g id="Group_2141" data-name="Group 2141">
                  <g id="Group_2140" data-name="Group 2140">
                    <path id="Path_11887" data-name="Path 11887" d="M524.233,434.948l-.207-10.076,18.871-.508.458,14.738-1.168.106c-5.2.43-26.467,1.816-29.977.855C508.3,438.99,524.233,434.948,524.233,434.948Z" fill="#e8505b"/>
                  </g>
                </g>
                <g id="Group_2143" data-name="Group 2143" opacity="0.5">
                  <g id="Group_2142" data-name="Group 2142">
                    <path id="Path_11888" data-name="Path 11888" d="M536.509,439.138a6.553,6.553,0,0,1,2.3-4.089,6.358,6.358,0,0,1,4.374-1.49l.146,5.274Z" fill="#fff"/>
                  </g>
                </g>
              </g>
              <g id="Group_2146" data-name="Group 2146" opacity="0.4">
                <g id="Group_2145" data-name="Group 2145">
                  <path id="Path_11889" data-name="Path 11889" d="M516.453,437.2s-5.576,1.772-4.85,2.679,22.272.314,31.752-.779l-.041-.421-25.126.906S517.553,437.218,516.453,437.2Z" fill="#fff"/>
                </g>
              </g>
              <g id="Group_2149" data-name="Group 2149">
                <g id="Group_2148" data-name="Group 2148">
                  <g id="Group_2147" data-name="Group 2147">
                    <path id="Path_11890" data-name="Path 11890" d="M543.61,438.661a1.726,1.726,0,0,1-.324.044l-.93.082-3.426.242c-2.893.184-6.9.385-11.318.511s-8.432.15-11.331.129l-3.434-.048-.933-.029a1.667,1.667,0,0,1-.325-.026,1.788,1.788,0,0,1,.325-.02l.934-.014,3.433-.025c2.9-.021,6.9-.072,11.324-.2s8.421-.3,11.316-.443l3.429-.17.933-.039A1.78,1.78,0,0,1,543.61,438.661Z" fill="#263238"/>
                  </g>
                </g>
              </g>
              <g id="Group_2152" data-name="Group 2152">
                <g id="Group_2151" data-name="Group 2151">
                  <g id="Group_2150" data-name="Group 2150">
                    <path id="Path_11891" data-name="Path 11891" d="M518.2,439.88a4.979,4.979,0,0,0-1.891-2.9,3.046,3.046,0,0,1,1.891,2.9Z" fill="#263238"/>
                  </g>
                </g>
              </g>
              <g id="Group_2155" data-name="Group 2155">
                <g id="Group_2154" data-name="Group 2154">
                  <g id="Group_2153" data-name="Group 2153">
                    <path id="Path_11892" data-name="Path 11892" d="M523.692,436.9c-.053.036-.328-.281-.615-.707s-.478-.8-.425-.836.327.282.615.708S523.744,436.866,523.692,436.9Z" fill="#263238"/>
                  </g>
                </g>
              </g>
              <g id="Group_2158" data-name="Group 2158">
                <g id="Group_2157" data-name="Group 2157">
                  <g id="Group_2156" data-name="Group 2156">
                    <path id="Path_11893" data-name="Path 11893" d="M525.2,436.051c-.041.049-.344-.142-.677-.425s-.57-.552-.529-.6.344.142.677.426S525.238,436,525.2,436.051Z" fill="#263238"/>
                  </g>
                </g>
              </g>
              <g id="Group_2161" data-name="Group 2161">
                <g id="Group_2160" data-name="Group 2160">
                  <g id="Group_2159" data-name="Group 2159">
                    <path id="Path_11894" data-name="Path 11894" d="M526.114,434.244a4.32,4.32,0,1,1-.99-.076A2.232,2.232,0,0,1,526.114,434.244Z" fill="#263238"/>
                  </g>
                </g>
              </g>
              <g id="Group_2164" data-name="Group 2164">
                <g id="Group_2163" data-name="Group 2163">
                  <g id="Group_2162" data-name="Group 2162">
                    <path id="Path_11895" data-name="Path 11895" d="M526.411,432.979a2.777,2.777,0,0,1-2.228.229,6.185,6.185,0,0,1,1.115-.107A6.025,6.025,0,0,1,526.411,432.979Z" fill="#263238"/>
                  </g>
                </g>
              </g>
              <g id="Group_2167" data-name="Group 2167">
                <g id="Group_2166" data-name="Group 2166">
                  <g id="Group_2165" data-name="Group 2165">
                    <path id="Path_11896" data-name="Path 11896" d="M523.006,435.273a3.525,3.525,0,0,1-1.213.026,7.152,7.152,0,0,1-1.3-.249,3.523,3.523,0,0,1-.748-.285.651.651,0,0,1-.31-.368.478.478,0,0,1,.17-.49,2.225,2.225,0,0,1,2.768.575,2.166,2.166,0,0,1,.418.8.665.665,0,0,1,.04.327,3.423,3.423,0,0,0-.58-1.019,2.187,2.187,0,0,0-1.055-.645,1.879,1.879,0,0,0-1.442.138c-.189.148-.108.373.11.494a3.564,3.564,0,0,0,.69.273,8.32,8.32,0,0,0,1.257.29C522.543,435.247,523.006,435.236,523.006,435.273Z" fill="#263238"/>
                  </g>
                </g>
              </g>
              <g id="Group_2170" data-name="Group 2170">
                <g id="Group_2169" data-name="Group 2169">
                  <g id="Group_2168" data-name="Group 2168">
                    <path id="Path_11897" data-name="Path 11897" d="M522.694,435.342a1.2,1.2,0,0,1-.163-.838,1.974,1.974,0,0,1,.307-.895,1.214,1.214,0,0,1,.992-.646.482.482,0,0,1,.389.549,1.321,1.321,0,0,1-.191.548,3.683,3.683,0,0,1-.552.749,1.738,1.738,0,0,1-.681.51c-.022-.029.236-.224.56-.617a4.255,4.255,0,0,0,.487-.742c.16-.261.261-.724-.045-.771-.3-.021-.606.29-.784.537a1.991,1.991,0,0,0-.322.8A4.4,4.4,0,0,0,522.694,435.342Z" fill="#263238"/>
                  </g>
                </g>
              </g>
              <g id="Group_2173" data-name="Group 2173">
                <g id="Group_2172" data-name="Group 2172">
                  <g id="Group_2171" data-name="Group 2171">
                    <path id="Path_11898" data-name="Path 11898" d="M543.083,433.508c0,.043-.542-.036-1.393.088a5.913,5.913,0,0,0-4.834,4.076c-.266.816-.278,1.361-.321,1.357a1.078,1.078,0,0,1-.011-.381,4.923,4.923,0,0,1,.178-1.023,5.736,5.736,0,0,1,4.968-4.19,5.078,5.078,0,0,1,1.039,0A1.128,1.128,0,0,1,543.083,433.508Z" fill="#263238"/>
                  </g>
                </g>
              </g>
              <g id="Group_2176" data-name="Group 2176">
                <g id="Group_2175" data-name="Group 2175">
                  <g id="Group_2174" data-name="Group 2174">
                    <path id="Path_11899" data-name="Path 11899" d="M540.911,425.71a65.687,65.687,0,0,1,.311,7.752,65.745,65.745,0,0,1-.311-7.752Z" fill="#263238"/>
                  </g>
                </g>
              </g>
              <g id="Group_2179" data-name="Group 2179">
                <g id="Group_2178" data-name="Group 2178">
                  <g id="Group_2177" data-name="Group 2177">
                    <path id="Path_11900" data-name="Path 11900" d="M534.084,437.363a15.514,15.514,0,0,1-5.513.2c0-.066,1.239-.025,2.757-.083S534.075,437.3,534.084,437.363Z" fill="#263238"/>
                  </g>
                </g>
              </g>
              <g id="Group_2182" data-name="Group 2182">
                <g id="Group_2181" data-name="Group 2181">
                  <g id="Group_2180" data-name="Group 2180">
                    <path id="Path_11901" data-name="Path 11901" d="M537.782,437.256c.047.045-.093.264-.211.55s-.18.539-.246.536-.105-.3.034-.625S537.74,437.211,537.782,437.256Z" fill="#263238"/>
                  </g>
                </g>
              </g>
              <g id="Group_2185" data-name="Group 2185">
                <g id="Group_2184" data-name="Group 2184">
                  <g id="Group_2183" data-name="Group 2183">
                    <path id="Path_11902" data-name="Path 11902" d="M539.128,435.483c.047.043-.07.243-.26.446s-.381.333-.427.29.07-.243.26-.446S539.082,435.44,539.128,435.483Z" fill="#263238"/>
                  </g>
                </g>
              </g>
              <g id="Group_2188" data-name="Group 2188">
                <g id="Group_2187" data-name="Group 2187">
                  <g id="Group_2186" data-name="Group 2186">
                    <path id="Path_11903" data-name="Path 11903" d="M541.1,434.636c-.011.064-.262.068-.537.174s-.47.258-.521.217.1-.307.442-.432S541.119,434.577,541.1,434.636Z" fill="#263238"/>
                  </g>
                </g>
              </g>
              <g id="Group_2191" data-name="Group 2191">
                <g id="Group_2190" data-name="Group 2190">
                  <g id="Group_2189" data-name="Group 2189">
                    <path id="Path_11904" data-name="Path 11904" d="M542.51,434.222c.025.059-.081.159-.236.224s-.3.07-.325.012.082-.158.237-.223S542.486,434.164,542.51,434.222Z" fill="#263238"/>
                  </g>
                </g>
              </g>
            </g>
          </g>
          <g id="Group_2247" data-name="Group 2247">
            <g id="Group_2246" data-name="Group 2246">
              <g id="Group_2198" data-name="Group 2198">
                <g id="Group_2195" data-name="Group 2195">
                  <g id="Group_2194" data-name="Group 2194">
                    <path id="Path_11905" data-name="Path 11905" d="M478.659,381.041l4.374-9.079,17.059,8.086-6.26,13.35-1.09-.433c-4.831-1.97-24.424-10.357-27.119-12.8C462.618,377.435,478.659,381.041,478.659,381.041Z" fill="#e8505b"/>
                  </g>
                </g>
                <g id="Group_2197" data-name="Group 2197" opacity="0.5">
                  <g id="Group_2196" data-name="Group 2196">
                    <path id="Path_11906" data-name="Path 11906" d="M487.711,390.332a6.548,6.548,0,0,1,3.9-2.605,6.368,6.368,0,0,1,4.575.65l-2.257,4.769Z" fill="#fff"/>
                  </g>
                </g>
              </g>
              <g id="Group_2200" data-name="Group 2200" opacity="0.4">
                <g id="Group_2199" data-name="Group 2199">
                  <path id="Path_11907" data-name="Path 11907" d="M470.7,379.532s-5.774-.943-5.537.194,19.719,10.357,28.668,13.672l.154-.394L471.17,382.443S471.675,380.044,470.7,379.532Z" fill="#fff"/>
                </g>
              </g>
              <g id="Group_2203" data-name="Group 2203">
                <g id="Group_2202" data-name="Group 2202">
                  <g id="Group_2201" data-name="Group 2201">
                    <path id="Path_11908" data-name="Path 11908" d="M494.259,393.12a1.562,1.562,0,0,1-.309-.107c-.26-.1-.545-.218-.866-.348l-3.165-1.334c-2.664-1.145-6.323-2.777-10.325-4.666s-7.586-3.681-10.163-5.011l-3.04-1.6-.819-.448a1.891,1.891,0,0,1-.279-.17,1.669,1.669,0,0,1,.3.129l.839.41,3.072,1.531c2.594,1.293,6.189,3.059,10.188,4.949s7.646,3.542,10.292,4.725l3.135,1.4.849.388A1.871,1.871,0,0,1,494.259,393.12Z" fill="#263238"/>
                  </g>
                </g>
              </g>
              <g id="Group_2206" data-name="Group 2206">
                <g id="Group_2205" data-name="Group 2205">
                  <g id="Group_2204" data-name="Group 2204">
                    <path id="Path_11909" data-name="Path 11909" d="M471.049,382.71a4.992,4.992,0,0,0-.374-3.442,3.049,3.049,0,0,1,.374,3.442Z" fill="#263238"/>
                  </g>
                </g>
              </g>
              <g id="Group_2209" data-name="Group 2209">
                <g id="Group_2208" data-name="Group 2208">
                  <g id="Group_2207" data-name="Group 2207">
                    <path id="Path_11910" data-name="Path 11910" d="M477.292,382.539a2.022,2.022,0,0,1-.228-.91.473.473,0,1,1,.228.91Z" fill="#263238"/>
                  </g>
                </g>
              </g>
              <g id="Group_2212" data-name="Group 2212">
                <g id="Group_2211" data-name="Group 2211">
                  <g id="Group_2210" data-name="Group 2210">
                    <path id="Path_11911" data-name="Path 11911" d="M479.02,382.462c-.059.024-.243-.283-.412-.686s-.259-.75-.2-.774.242.282.411.686S479.078,382.438,479.02,382.462Z" fill="#263238"/>
                  </g>
                </g>
              </g>
              <g id="Group_2215" data-name="Group 2215">
                <g id="Group_2214" data-name="Group 2214">
                  <g id="Group_2213" data-name="Group 2213">
                    <path id="Path_11912" data-name="Path 11912" d="M480.655,381.265a2.243,2.243,0,0,1-.944-.308c-.495-.227-.874-.458-.848-.516a2.242,2.242,0,0,1,.944.308C480.3,380.977,480.682,381.208,480.655,381.265Z" fill="#263238"/>
                  </g>
                </g>
              </g>
              <g id="Group_2218" data-name="Group 2218">
                <g id="Group_2217" data-name="Group 2217">
                  <g id="Group_2216" data-name="Group 2216">
                    <path id="Path_11913" data-name="Path 11913" d="M481.493,380.271a2.774,2.774,0,0,1-2.092-.8,5.992,5.992,0,0,1,1.043.408A6.16,6.16,0,0,1,481.493,380.271Z" fill="#263238"/>
                  </g>
                </g>
              </g>
              <g id="Group_2221" data-name="Group 2221">
                <g id="Group_2220" data-name="Group 2220">
                  <g id="Group_2219" data-name="Group 2219">
                    <path id="Path_11914" data-name="Path 11914" d="M477.418,380.776a3.482,3.482,0,0,1-1.093-.526,7.091,7.091,0,0,1-1.046-.809,3.6,3.6,0,0,1-.538-.592.658.658,0,0,1-.11-.469.479.479,0,0,1,.374-.36,2.226,2.226,0,0,1,2.208,1.765,2.164,2.164,0,0,1,.011.9c-.044.209-.1.314-.111.31a3.451,3.451,0,0,0-.057-1.172,2.187,2.187,0,0,0-.649-1.052,1.881,1.881,0,0,0-1.349-.529c-.235.046-.264.283-.125.49a3.582,3.582,0,0,0,.492.555,8.32,8.32,0,0,0,.99.828C477.017,380.544,477.434,380.743,477.418,380.776Z" fill="#263238"/>
                  </g>
                </g>
              </g>
              <g id="Group_2224" data-name="Group 2224">
                <g id="Group_2223" data-name="Group 2223">
                  <g id="Group_2222" data-name="Group 2222">
                    <path id="Path_11915" data-name="Path 11915" d="M477.108,380.7a1.2,1.2,0,0,1,.234-.821,1.981,1.981,0,0,1,.679-.659,1.214,1.214,0,0,1,1.177-.127.482.482,0,0,1,.1.666,1.323,1.323,0,0,1-.418.4,3.7,3.7,0,0,1-.832.418,1.756,1.756,0,0,1-.837.147c-.007-.036.311-.093.778-.3a4.3,4.3,0,0,0,.77-.441c.261-.161.56-.528.309-.708a1.086,1.086,0,0,0-.942.123,1.986,1.986,0,0,0-.648.567A4.475,4.475,0,0,0,477.108,380.7Z" fill="#263238"/>
                  </g>
                </g>
              </g>
              <g id="Group_2227" data-name="Group 2227">
                <g id="Group_2226" data-name="Group 2226">
                  <g id="Group_2225" data-name="Group 2225">
                    <path id="Path_11916" data-name="Path 11916" d="M496.12,388.287c-.022.037-.467-.278-1.281-.552a5.915,5.915,0,0,0-6.155,1.447c-.607.608-.865,1.088-.9,1.065a1.1,1.1,0,0,1,.162-.345,5.028,5.028,0,0,1,.622-.832,5.737,5.737,0,0,1,6.327-1.487,4.95,4.95,0,0,1,.927.468C496.025,388.186,496.128,388.275,496.12,388.287Z" fill="#263238"/>
                  </g>
                </g>
              </g>
              <g id="Group_2230" data-name="Group 2230">
                <g id="Group_2229" data-name="Group 2229">
                  <g id="Group_2228" data-name="Group 2228">
                    <path id="Path_11917" data-name="Path 11917" d="M497.712,380.349a65.75,65.75,0,0,1-3.23,7.054,65.75,65.75,0,0,1,3.23-7.054Z" fill="#263238"/>
                  </g>
                </g>
              </g>
              <g id="Group_2233" data-name="Group 2233">
                <g id="Group_2232" data-name="Group 2232">
                  <g id="Group_2231" data-name="Group 2231">
                    <path id="Path_11918" data-name="Path 11918" d="M486.351,387.653a15.515,15.515,0,0,1-5.009-2.313c.034-.057,1.116.538,2.5,1.173S486.373,387.59,486.351,387.653Z" fill="#263238"/>
                  </g>
                </g>
              </g>
              <g id="Group_2236" data-name="Group 2236">
                <g id="Group_2235" data-name="Group 2235">
                  <g id="Group_2234" data-name="Group 2234">
                    <path id="Path_11919" data-name="Path 11919" d="M489.7,389.23c.021.062-.2.193-.438.395s-.4.4-.462.368.04-.312.314-.542S489.68,389.172,489.7,389.23Z" fill="#263238"/>
                  </g>
                </g>
              </g>
              <g id="Group_2239" data-name="Group 2239">
                <g id="Group_2238" data-name="Group 2238">
                  <g id="Group_2237" data-name="Group 2237">
                    <path id="Path_11920" data-name="Path 11920" d="M491.7,388.258c.022.06-.172.185-.434.281s-.49.124-.512.065.173-.185.434-.28S491.678,388.2,491.7,388.258Z" fill="#263238"/>
                  </g>
                </g>
              </g>
              <g id="Group_2242" data-name="Group 2242">
                <g id="Group_2241" data-name="Group 2241">
                  <g id="Group_2240" data-name="Group 2240">
                    <path id="Path_11921" data-name="Path 11921" d="M493.843,388.395c-.04.052-.265-.057-.558-.087s-.536.017-.562-.043.227-.228.588-.184S493.885,388.351,493.843,388.395Z" fill="#263238"/>
                  </g>
                </g>
              </g>
              <g id="Group_2245" data-name="Group 2245">
                <g id="Group_2244" data-name="Group 2244">
                  <g id="Group_2243" data-name="Group 2243">
                    <path id="Path_11922" data-name="Path 11922" d="M495.287,388.665c0,.063-.145.1-.312.092s-.3-.073-.3-.136.144-.1.311-.092S495.291,388.6,495.287,388.665Z" fill="#263238"/>
                  </g>
                </g>
              </g>
            </g>
          </g>
          <g id="Group_2248" data-name="Group 2248">
            <path id="Path_11923" data-name="Path 11923" d="M603.4,248.1a205.209,205.209,0,0,1-21.868.077A204.514,204.514,0,0,1,603.4,248.1Z" fill="#263238"/>
          </g>
          <g id="Group_2252" data-name="Group 2252">
            <g id="Group_2249" data-name="Group 2249">
              <path id="Path_11924" data-name="Path 11924" d="M603.107,249.156l-4.013-20.126c-2.957-16.474-26.05-17.608-26.05-17.608l-18.124-.293s-13.435-1.806-21.728,7.542c-8.582,9.675-19.124,21.11-19.124,21.11l8.054,20.253L541.188,244.3a19.5,19.5,0,0,0-2.557,9.154c0,5.365,5.6,7.839,5.6,7.839l1.716,16.332-5.691,26.368,59.182-2.373a58.839,58.839,0,0,0-8.725-24.869l1.1-27.594Z" fill="#2a3e50"/>
            </g>
            <g id="Group_2250" data-name="Group 2250">
              <path id="Path_11925" data-name="Path 11925" d="M539.074,249.727a15.285,15.285,0,0,1,.711-2.72c.25-.831.554-1.819.933-2.906.191-.544.4-1.111.642-1.694.132-.315.3-.584.381-.845a2.638,2.638,0,0,0,.107-.868,12.865,12.865,0,0,0-.281-1.858q-.17-.912-.329-1.768c-.187-1.075-.362-2.079-.523-3a13.471,13.471,0,0,1-.336-2.793,13.487,13.487,0,0,1,.741,2.713c.2.915.415,1.91.646,2.976q.176.855.362,1.762a12.3,12.3,0,0,1,.3,1.953,3.16,3.16,0,0,1-.14,1.065c-.119.352-.3.626-.406.885-.242.567-.46,1.124-.662,1.656-.376,1.022-.726,1.976-1.048,2.852A12.047,12.047,0,0,1,539.074,249.727Z" fill="#263238"/>
            </g>
            <g id="Group_2251" data-name="Group 2251" opacity="0.2">
              <path id="Path_11926" data-name="Path 11926" d="M578.392,232.051c.734,11.225,1.172,21.567,1.388,32.814A8.483,8.483,0,0,0,584,263.536C584.583,258.743,580.949,244.145,578.392,232.051Z"/>
            </g>
          </g>
          <g id="Group_2259" data-name="Group 2259">
            <g id="Group_2257" data-name="Group 2257">
              <path id="Path_11927" data-name="Path 11927" d="M599.615,298.974s-77.39-16.212-84.883-12.662-42.045,88.956-42.045,88.956l27.819,11.969,29.941-72.571s54.181,19.79,63.646,17.824S599.615,298.974,599.615,298.974Z" fill="#455a64"/>
              <path id="Path_11928" data-name="Path 11928" d="M565.026,303.527c-1.183.394-45.95,18.8-49.1,24.712s4.6,104.141,4.6,104.141h25.462l-1.577-87.3,49.691-12.591Z" fill="#455a64"/>
              <g id="Group_2253" data-name="Group 2253">
                <path id="Path_11929" data-name="Path 11929" d="M594.353,332.689a3.506,3.506,0,0,1-.734-.09l-2.083-.369c-1.806-.333-4.414-.846-7.627-1.529-6.426-1.357-15.273-3.408-24.913-6.172-4.817-1.395-9.37-2.849-13.48-4.262-4.094-1.457-7.764-2.82-10.787-4.114-1.523-.616-2.879-1.227-4.067-1.767s-2.212-1.006-3.031-1.424l-1.889-.952a3.521,3.521,0,0,1-.641-.368,3.56,3.56,0,0,1,.692.262l1.934.852c.832.386,1.862.831,3.066,1.331s2.562,1.094,4.092,1.684c3.035,1.242,6.712,2.562,10.806,3.988,4.111,1.381,8.658,2.817,13.467,4.21,9.622,2.758,18.441,4.87,24.84,6.329l7.584,1.709,2.06.477A3.487,3.487,0,0,1,594.353,332.689Z" fill="#263238"/>
              </g>
              <g id="Group_2254" data-name="Group 2254">
                <path id="Path_11930" data-name="Path 11930" d="M515.932,350.8a7.3,7.3,0,0,1-.236-1.47c-.112-1.067-.255-2.417-.425-4.028-.162-1.743-.35-3.761-.556-5.98a27.272,27.272,0,0,1-.011-7.407,11.546,11.546,0,0,1,3.716-6.4,19.529,19.529,0,0,1,5.093-3.275,40.1,40.1,0,0,1,3.78-1.489,7.032,7.032,0,0,1,1.43-.417c.043.1-1.968.8-5.031,2.278a20.137,20.137,0,0,0-4.905,3.3,11.194,11.194,0,0,0-3.51,6.117,28.188,28.188,0,0,0-.026,7.252c.16,2.224.306,4.245.431,5.991.1,1.617.177,2.973.241,4.043A7.3,7.3,0,0,1,515.932,350.8Z" fill="#263238"/>
              </g>
              <g id="Group_2255" data-name="Group 2255">
                <path id="Path_11931" data-name="Path 11931" d="M538.267,342.365a18.726,18.726,0,0,1,6.027,2.652,18.724,18.724,0,0,1-6.027-2.652Z" fill="#263238"/>
              </g>
              <g id="Group_2256" data-name="Group 2256">
                <path id="Path_11932" data-name="Path 11932" d="M540.512,339.68c.157-.067.863,1.345,2.027,2.874s2.319,2.6,2.212,2.736a9.2,9.2,0,0,1-4.239-5.61Z" fill="#263238"/>
              </g>
            </g>
            <g id="Group_2258" data-name="Group 2258">
              <path id="Path_11933" data-name="Path 11933" d="M550.286,343.71c.019.014-.075.211-.392.4a3.012,3.012,0,0,1-1.476.349,17.129,17.129,0,0,0-2.116.054,1.48,1.48,0,0,0-1.265,1.621c-.029,3.73-.151,6.8-.317,6.795a38.774,38.774,0,0,1-.266-6.828,2.381,2.381,0,0,1,.481-1.447,1.977,1.977,0,0,1,1.28-.672,12.315,12.315,0,0,1,2.207.064A3.612,3.612,0,0,0,550.286,343.71Z" fill="#263238"/>
            </g>
          </g>
          <path id="Path_11934" data-name="Path 11934" d="M544.18,285.8l52.753,4.237-2.253-5.9-49.985-.725Z" opacity="0.2"/>
          <g id="Group_2303" data-name="Group 2303">
            <path id="Path_11935" data-name="Path 11935" d="M545.539,163.962c-3.865,1.25-8.361,3.822-6.133,15.927.98,5.326,2.224,10.758,5.8,14.828a2.545,2.545,0,0,0,2.07,1.143,2.6,2.6,0,0,0,1.43-.968c4.06-4.424,7.517-9.648,8.613-15.552s-.547-12.559-5.2-16.361" fill="#263238"/>
            <g id="Group_2289" data-name="Group 2289">
              <g id="Group_2288" data-name="Group 2288">
                <g id="Group_2287" data-name="Group 2287">
                  <path id="Path_11936" data-name="Path 11936" d="M552.96,216.545c-.127-5.57-.365-11.548-.365-11.548s-8.475-1.07-8.84-9.719-.453-23.8-.453-23.8l16.547-12.258,11.625,15.991.285,41.052a9.4,9.4,0,0,1-9.4,9.466h0A9.4,9.4,0,0,1,552.96,216.545Z" fill="#ffb29d"/>
                  <path id="Path_11937" data-name="Path 11937" d="M552.595,205a20.648,20.648,0,0,0,11.223-3.674s-2.638,6.3-11.076,5.8Z" fill="#eb9078"/>
                  <path id="Path_11938" data-name="Path 11938" d="M553.36,194.919a1.017,1.017,0,0,1,1.033-1.436,1.6,1.6,0,0,1,1.621-1.416,1.811,1.811,0,0,1,1.638,1.473,2.087,2.087,0,0,1-.924,2.05,2.474,2.474,0,0,1-2.281.167,1.8,1.8,0,0,1-1.15-1.359" fill="#eb9078"/>
                  <g id="Group_2286" data-name="Group 2286">
                    <g id="Group_2285" data-name="Group 2285">
                      <g id="Group_2280" data-name="Group 2280">
                        <g id="Group_2279" data-name="Group 2279">
                          <g id="Group_2278" data-name="Group 2278">
                            <g id="Group_2265" data-name="Group 2265">
                              <g id="Group_2261" data-name="Group 2261">
                                <g id="Group_2260" data-name="Group 2260">
                                  <path id="Path_11939" data-name="Path 11939" d="M545.362,182.325a1.187,1.187,0,0,0,1.145,1.2,1.134,1.134,0,0,0,1.223-1.07,1.188,1.188,0,0,0-1.143-1.2A1.136,1.136,0,0,0,545.362,182.325Z" fill="#263238"/>
                                </g>
                              </g>
                              <g id="Group_2264" data-name="Group 2264">
                                <g id="Group_2263" data-name="Group 2263">
                                  <g id="Group_2262" data-name="Group 2262">
                                    <path id="Path_11940" data-name="Path 11940" d="M545.1,180.99c.147.155,1.046-.51,2.324-.507,1.276-.015,2.214.642,2.352.486.068-.069-.082-.349-.49-.646a3.259,3.259,0,0,0-1.883-.581,3.132,3.132,0,0,0-1.85.6C545.163,180.641,545.03,180.921,545.1,180.99Z" fill="#263238"/>
                                  </g>
                                </g>
                              </g>
                            </g>
                            <g id="Group_2271" data-name="Group 2271">
                              <g id="Group_2267" data-name="Group 2267">
                                <g id="Group_2266" data-name="Group 2266">
                                  <path id="Path_11941" data-name="Path 11941" d="M557.873,182.625a1.188,1.188,0,0,0,1.145,1.2,1.136,1.136,0,0,0,1.224-1.07,1.189,1.189,0,0,0-1.144-1.2A1.136,1.136,0,0,0,557.873,182.625Z" fill="#263238"/>
                                </g>
                              </g>
                              <g id="Group_2270" data-name="Group 2270">
                                <g id="Group_2269" data-name="Group 2269">
                                  <g id="Group_2268" data-name="Group 2268">
                                    <path id="Path_11942" data-name="Path 11942" d="M557.66,181.229c.148.155,1.048-.511,2.325-.507,1.276-.015,2.214.642,2.352.485.068-.069-.08-.348-.49-.646a3.259,3.259,0,0,0-1.883-.58,3.125,3.125,0,0,0-1.85.6C557.722,180.88,557.588,181.16,557.66,181.229Z" fill="#263238"/>
                                  </g>
                                </g>
                              </g>
                            </g>
                            <g id="Group_2274" data-name="Group 2274">
                              <g id="Group_2273" data-name="Group 2273">
                                <g id="Group_2272" data-name="Group 2272">
                                  <path id="Path_11943" data-name="Path 11943" d="M553.024,190.7a8.469,8.469,0,0,0-2.075-.374c-.326-.034-.635-.1-.69-.321a1.66,1.66,0,0,1,.218-.967q.459-1.185.965-2.484a42.707,42.707,0,0,0,2.166-6.5,42.7,42.7,0,0,0-2.684,6.308l-.925,2.5a1.893,1.893,0,0,0-.169,1.28.819.819,0,0,0,.537.477,2.17,2.17,0,0,0,.554.077A8.273,8.273,0,0,0,553.024,190.7Z" fill="#263238"/>
                                </g>
                              </g>
                            </g>
                            <g id="Group_2277" data-name="Group 2277">
                              <g id="Group_2276" data-name="Group 2276">
                                <g id="Group_2275" data-name="Group 2275">
                                  <path id="Path_11944" data-name="Path 11944" d="M556.784,191.587c-.208-.012-.211,1.375-1.4,2.359s-2.663.832-2.674,1.025c-.019.087.33.27.953.287a3.456,3.456,0,0,0,2.233-.778,3.006,3.006,0,0,0,1.082-1.978C557.033,191.922,556.879,191.579,556.784,191.587Z" fill="#263238"/>
                                </g>
                              </g>
                            </g>
                          </g>
                        </g>
                      </g>
                      <g id="Group_2282" data-name="Group 2282">
                        <g id="Group_2281" data-name="Group 2281">
                          <path id="Path_11945" data-name="Path 11945" d="M557.086,178.376c.126.348,1.4.183,2.9.364,1.5.15,2.711.589,2.91.278.089-.149-.122-.476-.611-.813a5.078,5.078,0,0,0-4.426-.488C557.309,177.939,557.032,178.212,557.086,178.376Z" fill="#263238"/>
                        </g>
                      </g>
                      <g id="Group_2284" data-name="Group 2284">
                        <g id="Group_2283" data-name="Group 2283">
                          <path id="Path_11946" data-name="Path 11946" d="M545.572,177.293c.225.29,1.1-.011,2.163-.025,1.058-.051,1.955.195,2.161-.109.091-.147-.051-.438-.442-.712a3.132,3.132,0,0,0-3.484.107C545.6,176.853,545.473,177.151,545.572,177.293Z" fill="#263238"/>
                        </g>
                      </g>
                    </g>
                  </g>
                </g>
                <path id="Path_11947" data-name="Path 11947" d="M563.789,177.678a6.647,6.647,0,0,0,4.211-1.5c.765,2.042.751,4.3,1.451,6.369s2.351,10.576,4.507,10.251c1.98-.3,3.385-8.881,3.89-10.818,1.395-5.352-.353-11.249-3.911-15.483-4.223-5.026-11.263-9.311-17.811-8.847a14.717,14.717,0,0,0-8.115,2.857s-3.533,2.725-3.238,6.2c.411,4.844,7.473,7.962,12.331,7.815l.691.673A8.4,8.4,0,0,0,563.789,177.678Z" fill="#263238"/>
                <path id="Path_11948" data-name="Path 11948" d="M543.254,176.092a7.178,7.178,0,0,0,2.412-3.876,21.29,21.29,0,0,0,.562-4.6c.022-.448-.043-1.026-.476-1.144s-.769.317-.972.7a14.91,14.91,0,0,0-1.529,9.368c.092-.086-.289.243-.2.157" fill="#263238"/>
              </g>
            </g>
            <path id="Path_11949" data-name="Path 11949" d="M574.573,211.99a10.248,10.248,0,0,0,3.379-8.834c-.309-2.487-1.543-4.852-1.423-7.355.1-1.974,1.023-3.8,1.657-5.668a19.63,19.63,0,0,0,.756-9.546c-.427-2.516-1.456-5.083-3.527-6.573s-5.353-1.456-6.882.587l-.746.232a20.755,20.755,0,0,0,2.646,22.108,11.324,11.324,0,0,0,.189,15.21,12.417,12.417,0,0,0-1.566,12.424c.023.051.053.1.077.151a10.945,10.945,0,0,0-.373,14.608,10.852,10.852,0,0,0-3.684,6.33,5.9,5.9,0,0,0,3.06,6.111,7.015,7.015,0,0,0,1.889,11.806,21.636,21.636,0,0,1,3.562-2.91,3.663,3.663,0,0,1-1.64-1.582,4.617,4.617,0,0,0,2.771.873l-1.194-5.441a7.143,7.143,0,0,0-1.046-2.8c-.042-.057-.093-.109-.14-.164a6.492,6.492,0,0,0,3.109-3.368c1.08-2.792.338-6-1.105-8.625,1.523-3.13,2.968-6.426,3-9.906a10.619,10.619,0,0,0-1.01-4.582,13.091,13.091,0,0,0,2.15-6.99A6.7,6.7,0,0,0,574.573,211.99Z" fill="#263238"/>
            <g id="Group_2290" data-name="Group 2290">
              <path id="Path_11950" data-name="Path 11950" d="M573.469,239.278a3.7,3.7,0,0,1-4.665.07c.07-.136,1.056.3,2.338.273C572.423,239.614,573.4,239.144,573.469,239.278Z" fill="#455a64"/>
            </g>
            <g id="Group_2291" data-name="Group 2291">
              <path id="Path_11951" data-name="Path 11951" d="M575.717,226.887a16.368,16.368,0,0,0-7.843,10.185,5,5,0,0,1,.3-1.955,12.976,12.976,0,0,1,5.732-7.442A5.036,5.036,0,0,1,575.717,226.887Z" fill="#455a64"/>
            </g>
            <g id="Group_2292" data-name="Group 2292">
              <path id="Path_11952" data-name="Path 11952" d="M574.719,225.191a3.647,3.647,0,0,1-4.565.009c.07-.135,1.032.292,2.283.278C573.688,225.487,574.649,225.056,574.719,225.191Z" fill="#455a64"/>
            </g>
            <g id="Group_2293" data-name="Group 2293">
              <path id="Path_11953" data-name="Path 11953" d="M576.281,223.5a13.33,13.33,0,0,0-4.807-9.683,3.719,3.719,0,0,1,1.416.9,10.309,10.309,0,0,1,3.533,7.117A3.735,3.735,0,0,1,576.281,223.5Z" fill="#455a64"/>
            </g>
            <g id="Group_2294" data-name="Group 2294">
              <path id="Path_11954" data-name="Path 11954" d="M574.985,210.588c.116.075-.413.9-1.5,1.323s-2.031.175-2,.042c.015-.15.868-.15,1.807-.527C574.245,211.066,574.872,210.488,574.985,210.588Z" fill="#455a64"/>
            </g>
            <g id="Group_2295" data-name="Group 2295">
              <path id="Path_11955" data-name="Path 11955" d="M571.889,211.169a3.593,3.593,0,0,1-1.1-1.843,7.954,7.954,0,0,1,.236-5.165,13.784,13.784,0,0,1,2.816-4.336,7.063,7.063,0,0,1,1.572-1.441,11.168,11.168,0,0,1-1.293,1.681,16.3,16.3,0,0,0-2.608,4.281,8.346,8.346,0,0,0-.369,4.878A18.467,18.467,0,0,0,571.889,211.169Z" fill="#455a64"/>
            </g>
            <g id="Group_2296" data-name="Group 2296">
              <path id="Path_11956" data-name="Path 11956" d="M575.485,197.172a4.2,4.2,0,0,1-4.666-.952c.088-.125,1.014.441,2.289.691C574.379,197.18,575.453,197.023,575.485,197.172Z" fill="#455a64"/>
            </g>
            <g id="Group_2297" data-name="Group 2297">
              <path id="Path_11957" data-name="Path 11957" d="M579.483,183.417a5.478,5.478,0,0,1-2.306.167,11.13,11.13,0,0,1-9.031-5.94,5.485,5.485,0,0,1-.76-2.184c.083-.028.36.808,1.081,2a11.964,11.964,0,0,0,8.749,5.755C578.6,183.407,579.477,183.33,579.483,183.417Z" fill="#455a64"/>
            </g>
            <g id="Group_2298" data-name="Group 2298">
              <path id="Path_11958" data-name="Path 11958" d="M578.712,188.564c.015.02-.19.225-.667.428a4.032,4.032,0,0,1-2.158.195,10.322,10.322,0,0,1-5.875-3.821,13.1,13.1,0,0,1-2.843-6.426,10.87,10.87,0,0,1-.1-2.139,2.3,2.3,0,0,1,.124-.777c.1,0-.005,1.119.34,2.855a13.92,13.92,0,0,0,2.884,6.158,10.644,10.644,0,0,0,5.536,3.788A4.711,4.711,0,0,0,578.712,188.564Z" fill="#455a64"/>
            </g>
            <g id="Group_2299" data-name="Group 2299">
              <path id="Path_11959" data-name="Path 11959" d="M576.864,172.726a3.968,3.968,0,0,1-.976.477,10.872,10.872,0,0,1-2.93.666,12.218,12.218,0,0,1-4.522-.437,11.913,11.913,0,0,1-4.949-2.811l.261.058a13.17,13.17,0,0,1-3.526.692,13.321,13.321,0,0,1-6.807-1.4,13.067,13.067,0,0,1-4.369-3.632,12.689,12.689,0,0,1-1.869-3.339,8.828,8.828,0,0,1-.3-.994c-.055-.232-.075-.355-.057-.36a17.177,17.177,0,0,0,2.518,4.463,12.92,12.92,0,0,0,10.858,4.747,12.963,12.963,0,0,0,3.389-.655l.149-.049.112.108a11.744,11.744,0,0,0,4.721,2.75,12.392,12.392,0,0,0,4.371.533A16.987,16.987,0,0,0,576.864,172.726Z" fill="#455a64"/>
            </g>
            <g id="Group_2300" data-name="Group 2300">
              <path id="Path_11960" data-name="Path 11960" d="M573,165.761a4.116,4.116,0,0,1-1.036.171c-.67.077-1.64.171-2.84.276l-4.217.342a27.638,27.638,0,0,1-5.217.048,17.661,17.661,0,0,1-8.735-3.525,15.578,15.578,0,0,1-2.112-1.948,3.669,3.669,0,0,1-.636-.839c.072-.069,1.023,1.1,2.966,2.491a18.488,18.488,0,0,0,8.574,3.3,29.8,29.8,0,0,0,5.128-.01l4.224-.23c1.2-.058,2.177-.1,2.851-.111A4.084,4.084,0,0,1,573,165.761Z" fill="#455a64"/>
            </g>
            <g id="Group_2301" data-name="Group 2301">
              <path id="Path_11961" data-name="Path 11961" d="M573.448,250.567a4.032,4.032,0,0,1-5.169.315,8.187,8.187,0,0,0,5.169-.315Z" fill="#455a64"/>
            </g>
            <g id="Group_2302" data-name="Group 2302">
              <path id="Path_11962" data-name="Path 11962" d="M571.441,252.1a9.591,9.591,0,0,1,.136-1.568,10.2,10.2,0,0,0-2.111-6.971c-.587-.758-1.037-1.164-.983-1.23.034-.047.577.263,1.264.992a8.818,8.818,0,0,1,2.2,7.251A3.319,3.319,0,0,1,571.441,252.1Z" fill="#455a64"/>
            </g>
          </g>
          <path id="Path_11963" data-name="Path 11963" d="M605.662,266.336c-1.17-9.667-2.726-17.908-2.726-17.908H581.982s2.6,12.264,2.021,15.108c-.507,2.478-41.113,4.12-51.694,4.285-.629-.474-1.545.322-2.36-.387a8.471,8.471,0,0,1-1.8-2.221,13.2,13.2,0,0,1-1.448-3.279,1.082,1.082,0,0,0-2.008-.46c-.423.907.053,3.923,2.064,6.837s-3.26,1.4-5.19.884-7.975-1.826-8.6-1.343c-.914.708-.341,1.845,1.6,2.315,1.963.475,7.659,2.3,7.346,3.331s-10.1-1.75-10.1-1.75-2-.938-2.4.242c-.723,2.13,9.9,4.285,10.912,4.465.706.124.405,1.258-.346,1.084-.773-.181-9.7-2.993-10.46-.832-.58,1.658,8.719,1.856,10.258,3.495s-7.038-.886-7.529.721c-.183.6,3.385.876,8.513,1.6a131.566,131.566,0,0,0,15.854.564c11.9.652,53.94,1.521,62.914.886C609.991,283.231,606.064,269.656,605.662,266.336Z" fill="#ffb29d"/>
          <g id="Group_2306" data-name="Group 2306">
            <g id="Group_2304" data-name="Group 2304">
              <path id="Path_11964" data-name="Path 11964" d="M466.683,227.959l17.243,50.389h78.08l-.575-2.6-31.573-.976-14.545-46.845Z" fill="#e0e0e0"/>
            </g>
            <g id="Group_2305" data-name="Group 2305">
              <path id="Path_11965" data-name="Path 11965" d="M501.283,251.627c.515,2.064-.369,4.086-1.976,4.516s-3.326-.9-3.841-2.96.369-4.087,1.975-4.517S500.767,249.562,501.283,251.627Z" fill="#fff"/>
            </g>
          </g>
        </g>
      </g>
      <g id="Desk" transform="translate(17100.629 11777.8)">
        <path id="Path_11966" data-name="Path 11966" d="M159.691,278.338v6.535H324.028V432.11h37.144V284.873H525.133v-6.535Z" transform="translate(82.19)" fill="#263238"/>
      </g>
      <path id="Path_11967" data-name="Path 11967" d="M353.457,435.674l-1.009-50.431,19.321-3.2-3.034,53.41Z" transform="translate(17100.629 11777.8)" fill="#eb996e"/>
      <g id="Group_2358" data-name="Group 2358" transform="translate(17100.629 11777.8)">
        <g id="Group_2357" data-name="Group 2357">
          <g id="Group_2312" data-name="Group 2312">
            <g id="Group_2309" data-name="Group 2309">
              <g id="Group_2308" data-name="Group 2308">
                <path id="Path_11968" data-name="Path 11968" d="M369.554,435.9l-.052-1.781-16.766.415.108,5.871,1.036.043c4.612.152,23.459.447,26.517-.555C383.807,438.775,369.554,435.9,369.554,435.9Z" fill="#ff9f30"/>
              </g>
            </g>
            <g id="Group_2311" data-name="Group 2311" opacity="0.4">
              <g id="Group_2310" data-name="Group 2310">
                <path id="Path_11969" data-name="Path 11969" d="M358.893,440.139a5.789,5.789,0,0,0-2.21-3.51,5.623,5.623,0,0,0-3.929-1.126l.1,4.665Z" fill="#fff"/>
              </g>
            </g>
          </g>
          <g id="Group_2314" data-name="Group 2314" opacity="0.4">
            <g id="Group_2313" data-name="Group 2313">
              <path id="Path_11970" data-name="Path 11970" d="M376.524,437.553s5,1.322,4.4,2.154-19.659,1.251-28.081.7l.018-.374,22.233-.3S375.553,437.615,376.524,437.553Z" fill="#fff"/>
            </g>
          </g>
          <g id="Group_2317" data-name="Group 2317">
            <g id="Group_2316" data-name="Group 2316">
              <g id="Group_2315" data-name="Group 2315">
                <path id="Path_11971" data-name="Path 11971" d="M352.6,440.029a1.547,1.547,0,0,0,.288.024l.825.032,3.036.064c2.565.036,6.108.039,10.021-.044s7.454-.236,10.014-.38l3.031-.193.823-.066a1.579,1.579,0,0,0,.286-.037,1.545,1.545,0,0,0-.288,0l-.825.028-3.034.129c-2.561.108-6.1.238-10.012.321s-7.451.1-10.015.1h-3.036l-.826.007A1.461,1.461,0,0,0,352.6,440.029Z" fill="#263238"/>
              </g>
            </g>
          </g>
          <g id="Group_2320" data-name="Group 2320">
            <g id="Group_2319" data-name="Group 2319">
              <g id="Group_2318" data-name="Group 2318">
                <path id="Path_11972" data-name="Path 11972" d="M375.1,439.994a4.415,4.415,0,0,1,1.543-2.644,2.7,2.7,0,0,0-1.543,2.644Z" fill="#263238"/>
              </g>
            </g>
          </g>
          <g id="Group_2323" data-name="Group 2323">
            <g id="Group_2322" data-name="Group 2322">
              <g id="Group_2321" data-name="Group 2321">
                <path id="Path_11973" data-name="Path 11973" d="M370.117,437.6c.048.029.277-.263.512-.652s.387-.728.339-.757-.277.263-.512.652S370.069,437.575,370.117,437.6Z" fill="#263238"/>
              </g>
            </g>
          </g>
          <g id="Group_2326" data-name="Group 2326">
            <g id="Group_2325" data-name="Group 2325">
              <g id="Group_2324" data-name="Group 2324">
                <path id="Path_11974" data-name="Path 11974" d="M368.75,436.919c.038.041.3-.141.579-.406s.48-.512.442-.553-.3.141-.58.406S368.712,436.878,368.75,436.919Z" fill="#263238"/>
              </g>
            </g>
          </g>
          <g id="Group_2329" data-name="Group 2329">
            <g id="Group_2328" data-name="Group 2328">
              <g id="Group_2327" data-name="Group 2327">
                <path id="Path_11975" data-name="Path 11975" d="M367.861,435.362a3.816,3.816,0,1,0,.871-.11A1.962,1.962,0,0,0,367.861,435.362Z" fill="#263238"/>
              </g>
            </g>
          </g>
          <g id="Group_2332" data-name="Group 2332">
            <g id="Group_2331" data-name="Group 2331">
              <g id="Group_2330" data-name="Group 2330">
                <path id="Path_11976" data-name="Path 11976" d="M367.543,434.258a2.455,2.455,0,0,0,1.979.105,5.478,5.478,0,0,0-.99-.046A5.331,5.331,0,0,0,367.543,434.258Z" fill="#263238"/>
              </g>
            </g>
          </g>
          <g id="Group_2335" data-name="Group 2335">
            <g id="Group_2334" data-name="Group 2334">
              <g id="Group_2333" data-name="Group 2333">
                <path id="Path_11977" data-name="Path 11977" d="M370.651,436.135a3.088,3.088,0,0,0,1.073-.03,6.3,6.3,0,0,0,1.136-.277,3.14,3.14,0,0,0,.648-.283.587.587,0,0,0,.258-.339.423.423,0,0,0-.172-.426,1.969,1.969,0,0,0-2.42.629,1.906,1.906,0,0,0-.334.723.592.592,0,0,0-.021.291,3.024,3.024,0,0,1,.468-.926,1.928,1.928,0,0,1,.9-.615,1.659,1.659,0,0,1,1.28.059c.173.122.111.324-.075.441a3.2,3.2,0,0,1-.6.271,7.436,7.436,0,0,1-1.1.311C371.059,436.092,370.65,436.1,370.651,436.135Z" fill="#263238"/>
              </g>
            </g>
          </g>
          <g id="Group_2338" data-name="Group 2338">
            <g id="Group_2337" data-name="Group 2337">
              <g id="Group_2336" data-name="Group 2336">
                <path id="Path_11978" data-name="Path 11978" d="M370.93,436.182a1.05,1.05,0,0,0,.107-.747,1.762,1.762,0,0,0-.309-.777,1.076,1.076,0,0,0-.9-.527.426.426,0,0,0-.32.5,1.16,1.16,0,0,0,.193.475,3.212,3.212,0,0,0,.52.638,1.555,1.555,0,0,0,.624.421c.018-.027-.218-.188-.521-.521a3.694,3.694,0,0,1-.464-.634c-.152-.223-.261-.628.006-.683.268-.031.548.23.717.44a1.756,1.756,0,0,1,.319.691A3.946,3.946,0,0,1,370.93,436.182Z" fill="#263238"/>
              </g>
            </g>
          </g>
          <g id="Group_2341" data-name="Group 2341">
            <g id="Group_2340" data-name="Group 2340">
              <g id="Group_2339" data-name="Group 2339">
                <path id="Path_11979" data-name="Path 11979" d="M352.841,435.454c0,.038.477-.056,1.233.017a5.226,5.226,0,0,1,4.448,3.388c.271.71.306,1.191.343,1.185a.944.944,0,0,0-.006-.337,4.423,4.423,0,0,0-.2-.9,5.077,5.077,0,0,0-4.572-3.483,4.3,4.3,0,0,0-.918.044A.953.953,0,0,0,352.841,435.454Z" fill="#263238"/>
              </g>
            </g>
          </g>
          <g id="Group_2344" data-name="Group 2344">
            <g id="Group_2343" data-name="Group 2343">
              <g id="Group_2342" data-name="Group 2342">
                <path id="Path_11980" data-name="Path 11980" d="M360.958,438.466a13.724,13.724,0,0,0,4.878-.061c-.007-.058-1.1.032-2.439.047S360.963,438.407,360.958,438.466Z" fill="#263238"/>
              </g>
            </g>
          </g>
          <g id="Group_2347" data-name="Group 2347">
            <g id="Group_2346" data-name="Group 2346">
              <g id="Group_2345" data-name="Group 2345">
                <path id="Path_11981" data-name="Path 11981" d="M357.686,438.533c-.04.041.094.229.211.476s.183.468.24.463.08-.265-.057-.55S357.721,438.492,357.686,438.533Z" fill="#263238"/>
              </g>
            </g>
          </g>
          <g id="Group_2350" data-name="Group 2350">
            <g id="Group_2349" data-name="Group 2349">
              <g id="Group_2348" data-name="Group 2348">
                <path id="Path_11982" data-name="Path 11982" d="M356.42,437.025c-.039.041.072.212.249.383s.351.278.39.238-.073-.212-.249-.383S356.459,436.985,356.42,437.025Z" fill="#263238"/>
              </g>
            </g>
          </g>
          <g id="Group_2353" data-name="Group 2353">
            <g id="Group_2352" data-name="Group 2352">
              <g id="Group_2351" data-name="Group 2351">
                <path id="Path_11983" data-name="Path 11983" d="M354.64,436.363c.013.057.235.05.482.131s.427.207.469.168-.1-.266-.408-.361S354.622,436.312,354.64,436.363Z" fill="#263238"/>
              </g>
            </g>
          </g>
          <g id="Group_2356" data-name="Group 2356">
            <g id="Group_2355" data-name="Group 2355">
              <g id="Group_2354" data-name="Group 2354">
                <path id="Path_11984" data-name="Path 11984" d="M353.377,436.06c-.019.052.079.136.218.187s.269.049.288,0-.079-.136-.219-.186S353.4,436.007,353.377,436.06Z" fill="#263238"/>
              </g>
            </g>
          </g>
        </g>
      </g>
      <path id="Path_11985" data-name="Path 11985" d="M374.715,435.349l-1.322-51.127,19.412-2.178-2.526,53.185Z" transform="translate(17100.629 11777.8)" fill="#ffbe9d"/>
      <path id="Path_11986" data-name="Path 11986" d="M322.941,291.98c18.926.123,37.878.247,56.726,1.968,7.519.686,15.652,1.93,20.883,7.375,4.9,5.1,6.037,12.625,6.939,19.636l8.256,64.135A295.713,295.713,0,0,1,337.2,382.6q.276-23.834.551-47.668l.415-7.464-29.145-1.9Z" transform="translate(17100.629 11777.8)" fill="#ff9f30"/>
      <g id="Group_2359" data-name="Group 2359" transform="translate(17100.629 11777.8)">
        <path id="Path_11987" data-name="Path 11987" d="M387.289,316.812a48.106,48.106,0,0,1,4.237-9.064,48.271,48.271,0,0,1-4.237,9.064Z" fill="#fafafa"/>
      </g>
      <g id="Group_2360" data-name="Group 2360" transform="translate(17100.629 11777.8)">
        <path id="Path_11988" data-name="Path 11988" d="M396.7,338.264a35.942,35.942,0,0,1-5.266-6.853,36.049,36.049,0,0,1,5.266,6.853Z" fill="#fafafa"/>
      </g>
      <g id="Group_2361" data-name="Group 2361" transform="translate(17100.629 11777.8)">
        <path id="Path_11989" data-name="Path 11989" d="M393.327,350.9a30.142,30.142,0,0,1-5.746,5.43,30.142,30.142,0,0,1,5.746-5.43Z" fill="#fafafa"/>
      </g>
      <g id="Group_2362" data-name="Group 2362" transform="translate(17100.629 11777.8)">
        <path id="Path_11990" data-name="Path 11990" d="M407.362,363.614a35.585,35.585,0,0,1-2.085-8.337,35.621,35.621,0,0,1,2.085,8.337Z" fill="#fafafa"/>
      </g>
      <g id="Group_2363" data-name="Group 2363" transform="translate(17100.629 11777.8)">
        <path id="Path_11991" data-name="Path 11991" d="M395.593,377.076a26.6,26.6,0,0,1-2.5-7,26.63,26.63,0,0,1,2.5,7Z" fill="#fafafa"/>
      </g>
      <g id="Group_2364" data-name="Group 2364" transform="translate(17100.629 11777.8)">
        <path id="Path_11992" data-name="Path 11992" d="M380.686,342.354a37.1,37.1,0,0,1-2.013,8.544,37.1,37.1,0,0,1,2.013-8.544Z" fill="#fafafa"/>
      </g>
      <g id="Group_2369" data-name="Group 2369" transform="translate(17100.629 11777.8)">
        <g id="Group_2366" data-name="Group 2366">
          <g id="Group_2365" data-name="Group 2365">
            <rect id="Rectangle_1107" data-name="Rectangle 1107" width="77.013" height="3.746" transform="translate(438.642 276.291) rotate(180)" fill="#263238"/>
          </g>
        </g>
        <g id="Group_2368" data-name="Group 2368">
          <g id="Group_2367" data-name="Group 2367">
            <path id="Path_11993" data-name="Path 11993" d="M450.577,276.291l14.446-54.134H404.89l-13.081,54.134Z" fill="#263238"/>
          </g>
        </g>
      </g>
      <g id="Group_2371" data-name="Group 2371" transform="translate(17100.629 11777.8)">
        <g id="Group_2370" data-name="Group 2370">
          <path id="Path_11994" data-name="Path 11994" d="M395.412,272.193h53.72l12.5-47.534h-54Z" fill="#e8505b"/>
        </g>
      </g>
      <g id="Group_2383" data-name="Group 2383" transform="translate(17100.629 11777.8)">
        <g id="Group_2382" data-name="Group 2382">
          <path id="Path_12000" data-name="Path 12000" d="M419.088,241.111a47.965,47.965,0,0,1-9.975,0,47.968,47.968,0,0,1,9.975,0Z" fill="#e8505b"/>
        </g>
      </g>
      <g id="Group_2393" data-name="Group 2393" transform="translate(17100.629 11777.8)">
        <g id="Group_2392" data-name="Group 2392">
          <path id="Path_12005" data-name="Path 12005" d="M409.432,253.95c0,.144-.784.261-1.751.261s-1.751-.117-1.751-.261.784-.26,1.751-.26S409.432,253.807,409.432,253.95Z" fill="#e8505b"/>
        </g>
      </g>
      <g id="Group_2407" data-name="Group 2407" transform="translate(17100.629 11777.8)">
        <g id="Group_2406" data-name="Group 2406">
          <path id="Path_12012" data-name="Path 12012" d="M432.139,261.272a28.975,28.975,0,0,1-7.746,0,28.865,28.865,0,0,1,7.746,0Z" fill="#e8505b"/>
        </g>
      </g>
      <g id="Group_2413" data-name="Group 2413" transform="translate(17100.629 11777.8)">
        <g id="Group_2412" data-name="Group 2412">
          <path id="Path_12015" data-name="Path 12015" d="M416.435,230.076a16.5,16.5,0,0,1-5.836,0,16.442,16.442,0,0,1,5.836,0Z" fill="#e8505b"/>
        </g>
      </g>
      <g id="Group_2414" data-name="Group 2414" transform="translate(17100.629 11777.8)">
        <path id="Path_12016" data-name="Path 12016" d="M460.737,228.076H406.731l.908-3.417h54Z" fill="#ebebeb"/>
      </g>
      <g id="Group_2415" data-name="Group 2415" transform="translate(17100.629 11777.8)">
        <circle id="Ellipse_74" data-name="Ellipse 74" cx="0.59" cy="0.59" r="0.59" transform="translate(409.324 225.796)" fill="#fafafa"/>
      </g>
      <g id="Group_2426" data-name="Group 2426" transform="translate(17100.629 11777.8)">
        <g id="Group_2419" data-name="Group 2419">
          <path id="Path_12017" data-name="Path 12017" d="M349.951,248.012l7.711,23.219c2.082,6.271,7.561,7.344,14.169,7.344h42.893v-9.623l-39.187-5.6L366.2,239.5Z" fill="#ffbe9d"/>
        </g>
        <g id="Group_2425" data-name="Group 2425">
          <g id="Group_2420" data-name="Group 2420">
            <path id="Path_12018" data-name="Path 12018" d="M419.439,266.953l3.4-1.61s3.667-7.091,4.511-6.807,1.088,2.371-.385,5.628l4.522-1.292s9.8,4.53,9.369,5.14a2.264,2.264,0,0,1-3.372.963c-2.135-1.092-4.932-2.373-4.932-2.373l-5.282,1.508,6.811.864,6.4,5.829a3.137,3.137,0,0,1-3.918-.1l-16.636,3.574-5.211.3v-9.623Z" fill="#ffbe9d"/>
          </g>
          <g id="Group_2422" data-name="Group 2422">
            <g id="Group_2421" data-name="Group 2421">
              <path id="Path_12019" data-name="Path 12019" d="M436.571,274.706c-.071.046-.38-.446-.979-1.1a5.085,5.085,0,0,0-1.211-.936,4.954,4.954,0,0,0-1.8-.469,24.891,24.891,0,0,1-4.992-.852,24.7,24.7,0,0,1,5.056.335,4.891,4.891,0,0,1,1.973.571,4.653,4.653,0,0,1,1.25,1.111A2.959,2.959,0,0,1,436.571,274.706Z" fill="#eb996e"/>
            </g>
          </g>
          <g id="Group_2424" data-name="Group 2424">
            <g id="Group_2423" data-name="Group 2423">
              <path id="Path_12020" data-name="Path 12020" d="M433.969,275.374c-.063,0-.115-.344-.582-.444s-1.233-.176-2.021-.258a16.442,16.442,0,0,1-2.925-.3,5.863,5.863,0,0,1,2.976-.221,8.891,8.891,0,0,1,2.094.429.835.835,0,0,1,.505.523C434.059,275.285,434,275.379,433.969,275.374Z" fill="#eb996e"/>
            </g>
          </g>
        </g>
      </g>
      <g id="Group_2436" data-name="Group 2436" transform="translate(17100.629 11777.8)">
        <g id="Group_2435" data-name="Group 2435">
          <g id="Group_2433" data-name="Group 2433">
            <g id="Group_2432" data-name="Group 2432">
              <g id="Group_2431" data-name="Group 2431">
                <g id="Group_2428" data-name="Group 2428">
                  <g id="Group_2427" data-name="Group 2427">
                    <path id="Path_12021" data-name="Path 12021" d="M318.866,162.577l-2.329,47.176,20.2,1.9,1.117-11.449s7.124,1.76,9.288-4.832c1.382-4.21,2.612-37.188,2.612-37.188Z" fill="#ffbe9d"/>
                  </g>
                </g>
                <g id="Group_2430" data-name="Group 2430">
                  <g id="Group_2429" data-name="Group 2429">
                    <path id="Path_12022" data-name="Path 12022" d="M351.5,163.7c.559,4.415-5.614,6.971-5.614,6.971L344.8,181.11a20.609,20.609,0,0,0-2.9-.025c.52-4.9-5.791-3.945-6.434-.6-.618,3.213,3.042,5.358,3.042,5.358-2.526,3.876-3.55,5.921-7.135,9.553-3.88,3.931-5.966,4.249-9.971,4.131l-4.413-.2s-1.571-3.769-2.723-12.675c-.554-4.283-3.9-9.9-2.946-16.86,2.7-19.791,21.667-17.7,21.667-17.7C342.827,152.359,350.2,153.451,351.5,163.7Z" fill="#263238"/>
                  </g>
                </g>
              </g>
            </g>
          </g>
          <g id="Group_2434" data-name="Group 2434">
            <path id="Path_12023" data-name="Path 12023" d="M336.962,152.656c4.285.111,8.723.448,12.484,2.5s6.786,7.55,6.013,11.765c-.713.128-1.484.417-2.2.545-.294-.526-.655-2.488-.95-3.015.009.841-.258,2.733-.25,3.574-1.255.35-2.235-.35-3.491,0a27.388,27.388,0,0,0-3.333-9.11" fill="#263238"/>
          </g>
        </g>
      </g>
      <g id="Group_2445" data-name="Group 2445" transform="translate(17100.629 11777.8)">
        <g id="Group_2444" data-name="Group 2444">
          <g id="Group_2441" data-name="Group 2441">
            <g id="Group_2440" data-name="Group 2440">
              <g id="Group_2439" data-name="Group 2439">
                <g id="Group_2438" data-name="Group 2438">
                  <g id="Group_2437" data-name="Group 2437">
                    <path id="Path_12024" data-name="Path 12024" d="M351.532,251.835l3.887,12.642,23.237-5.439c-.753-2.339-7.2-17.117-13.824-33.654a28.433,28.433,0,0,0-21.7-17.493,124.132,124.132,0,0,0-20.045-1.965c-11.74.129-26.947,5.063-29.269,16.571-1.772,8.785,2.172,23.136,2.172,41.98l-2.778,39.566,58.322,1.978L345.624,271.3Z" fill="#ff9f30"/>
                  </g>
                </g>
              </g>
            </g>
          </g>
          <g id="Group_2443" data-name="Group 2443" opacity="0.2">
            <g id="Group_2442" data-name="Group 2442">
              <path id="Path_12025" data-name="Path 12025" d="M291.741,259.706c7.321,1.5,14.837-.012,22.3-.455,4.523-.268,9.54-.757,13.117,2.023,2.837,2.2,3.979,5.91,4.8,9.408,1.775,7.581,2.991,23.261,3.84,37.893a27.544,27.544,0,0,0,15.225,23.061c2.335,1.163,8.479,1.2,8.52,1.985l-59.8,2.451Z"/>
            </g>
          </g>
        </g>
      </g>
      <g id="Group_2463" data-name="Group 2463" transform="translate(17100.629 11777.8)">
        <g id="Group_2457" data-name="Group 2457">
          <g id="Group_2454" data-name="Group 2454">
            <g id="Group_2446" data-name="Group 2446">
              <rect id="Rectangle_1108" data-name="Rectangle 1108" width="7.314" height="87.635" transform="translate(327.046 338.645)" fill="#455a64"/>
            </g>
            <g id="Group_2449" data-name="Group 2449">
              <g id="Group_2447" data-name="Group 2447">
                <path id="Path_12026" data-name="Path 12026" d="M265.674,253.581v64.511a15.319,15.319,0,0,0,15.319,15.32h42.958V253.581a6.828,6.828,0,0,0-6.828-6.828H272.5A6.828,6.828,0,0,0,265.674,253.581Z" fill="#455a64"/>
              </g>
              <g id="Group_2448" data-name="Group 2448">
                <path id="Path_12027" data-name="Path 12027" d="M381.768,338.645H277.155A11.355,11.355,0,0,1,288.51,327.29h81.9a11.355,11.355,0,0,1,11.355,11.355Z" fill="#455a64"/>
              </g>
            </g>
            <g id="Group_2451" data-name="Group 2451">
              <g id="Group_2450" data-name="Group 2450">
                <path id="Path_12028" data-name="Path 12028" d="M323.951,325.783a1.732,1.732,0,0,1,.029.494,6,6,0,0,1-.17,1.409,7.718,7.718,0,0,1-6.125,5.825,30.44,30.44,0,0,1-4.133.155l-9.4.031c-6.67.007-12.709-.016-17.079-.06l-5.176-.081-1.407-.049a1.68,1.68,0,0,1-.49-.054,1.771,1.771,0,0,1,.49-.054l1.407-.052,5.176-.091c4.37-.054,10.409-.09,17.079-.1l9.4.012a32.008,32.008,0,0,0,4.056-.1,7.32,7.32,0,0,0,3.17-1.342,7.616,7.616,0,0,0,2.829-4.094C323.921,326.469,323.89,325.78,323.951,325.783Z" fill="#263238"/>
              </g>
            </g>
            <g id="Group_2453" data-name="Group 2453">
              <g id="Group_2452" data-name="Group 2452">
                <path id="Path_12029" data-name="Path 12029" d="M337.121,338.87a76.682,76.682,0,0,1-12.835,0,76.405,76.405,0,0,1,12.835,0Z" fill="#263238"/>
              </g>
            </g>
          </g>
          <g id="Group_2456" data-name="Group 2456">
            <g id="Group_2455" data-name="Group 2455">
              <path id="Path_12030" data-name="Path 12030" d="M368.95,333.976a17.514,17.514,0,0,1-.649-3.072c-.348-1.989-.817-4.87-1.373-8.434-.6-3.564-.941-7.87-2.9-12.148a29.724,29.724,0,0,0-3.886-6.2,27.783,27.783,0,0,0-5.832-5.253,26.022,26.022,0,0,0-7.07-3.408,26.512,26.512,0,0,0-7.211-1.244c-4.736-.11-9.055-.09-12.654-.157-3.607-.049-6.526-.107-8.543-.171a17.475,17.475,0,0,1-3.132-.21,17.545,17.545,0,0,1,3.132-.209c2.017-.065,4.936-.123,8.543-.172,3.613-.03,7.886-.129,12.686-.073a27,27,0,0,1,7.494,1.228,26.635,26.635,0,0,1,7.357,3.522,28.3,28.3,0,0,1,6.044,5.475,30.042,30.042,0,0,1,3.979,6.472c.238.558.436,1.125.651,1.676l.311.823c.079.28.156.559.234.836l.453,1.635q.148.822.293,1.618c.37,2.118.561,4.065.811,5.858.459,3.577.813,6.475,1.033,8.482A17.657,17.657,0,0,1,368.95,333.976Z" fill="#455a64"/>
            </g>
          </g>
        </g>
        <g id="Group_2458" data-name="Group 2458">
          <path id="Path_12031" data-name="Path 12031" d="M362.7,434.22h-1.035a31.123,31.123,0,1,0-62.246,0h-1.034a32.158,32.158,0,1,1,64.315,0Z" fill="#455a64"/>
        </g>
        <g id="Group_2459" data-name="Group 2459">
          <path id="Path_12032" data-name="Path 12032" d="M303.721,435.816a4.822,4.822,0,1,1-4.821-4.821A4.821,4.821,0,0,1,303.721,435.816Z" fill="#263238"/>
        </g>
        <g id="Group_2460" data-name="Group 2460">
          <path id="Path_12033" data-name="Path 12033" d="M367.243,435.151a4.822,4.822,0,1,1-4.822-4.821A4.822,4.822,0,0,1,367.243,435.151Z" fill="#263238"/>
        </g>
        <g id="Group_2462" data-name="Group 2462">
          <g id="Group_2461" data-name="Group 2461">
            <path id="Path_12034" data-name="Path 12034" d="M362.387,426.28c0,.149-13.993.269-31.251.269s-31.254-.12-31.254-.269,13.99-.27,31.254-.27S362.387,426.131,362.387,426.28Z" fill="#455a64"/>
          </g>
        </g>
      </g>
      <path id="Path_12035" data-name="Path 12035" d="M317.7,199.425a68.964,68.964,0,0,0,11.929-.385,25.92,25.92,0,0,0,12.2-5.577c2.023-1.852,2.531-2.826,2.647-6.707l.324-5.646-5.68-15.522-14.527-1.2-13.444,6.148-1.226,20.351A8.058,8.058,0,0,0,317.7,199.425Z" transform="translate(17100.629 11777.8)" fill="#263238"/>
      <path id="Path_12036" data-name="Path 12036" d="M343.354,189.1c-.037,2.315-2.1,4.033-4.041,5.291s-4.134,2.627-4.707,4.87c-1.114,4.365,4.549,7.66,5.088,12.133.393,3.259-1.994,6.094-3.509,9.006a18.428,18.428,0,0,0-.461,15.8c-6.114.532-12.262,1.061-18.4,1.294l-4.25-8.322-3.159,8.438a102.242,102.242,0,0,1-16.1-1.317c3.164-2.5,3.407-7.146,3.2-11.174s-.968-11.157,1.708-14.175c1.846-2.082,4.733-2.987,6.636-5.018,2.754-2.942,1.442-4.108.085-7.3a22.074,22.074,0,0,1-1.379-11.94c.634-3.991,3.123-7.39,5.13-10.9s2.125-6,3.237-10.859" transform="translate(17100.629 11777.8)" fill="#263238"/>
      <path id="Path_12037" data-name="Path 12037" d="M311.309,164.39a14.059,14.059,0,0,1-10.748,7.221,8.561,8.561,0,0,0,7.121,1.036,16.914,16.914,0,0,1-6.91,4.017c.867,2.237,3.527,3.2,5.921,3.364a16.608,16.608,0,0,0,11.809-3.91,15.128,15.128,0,0,0,3.6-16.41" transform="translate(17100.629 11777.8)" fill="#263238"/>
      <path id="Path_12038" data-name="Path 12038" d="M315.641,163.408A5.476,5.476,0,0,0,320.664,160a9.3,9.3,0,0,0,.12-6.324,7.019,7.019,0,0,0-3.354-4.541c-2.113-.995-4.688-.213-6.561,1.183a9.935,9.935,0,0,0-4.032,6.88,7.911,7.911,0,0,0,3.184,7.157,6.6,6.6,0,0,0,7.662-.137" transform="translate(17100.629 11777.8)" fill="#263238"/>
      <g id="Group_2464" data-name="Group 2464" transform="translate(17100.629 11777.8)">
        <path id="Path_12039" data-name="Path 12039" d="M303.28,178.958a20.25,20.25,0,0,0,4.91.692,15.324,15.324,0,0,0,5.246-.979,13.862,13.862,0,0,0,8.64-9.192,15.33,15.33,0,0,0,.653-5.3,20.272,20.272,0,0,0-.994-4.857c.016-.008.077.1.178.3a8.2,8.2,0,0,1,.4.921,13.29,13.29,0,0,1,.785,3.61,15.026,15.026,0,0,1-.56,5.458,14.017,14.017,0,0,1-8.935,9.505,15.018,15.018,0,0,1-5.412.9,13.3,13.3,0,0,1-3.652-.56,8.16,8.16,0,0,1-.944-.341C303.381,179.029,303.274,178.975,303.28,178.958Z" fill="#455a64"/>
      </g>
      <g id="Group_2465" data-name="Group 2465" transform="translate(17100.629 11777.8)">
        <path id="Path_12040" data-name="Path 12040" d="M311.293,174.559a14.151,14.151,0,0,0,6.834-8.927,4,4,0,0,1-.212,1.725A10.96,10.96,0,0,1,312.9,173.9,3.98,3.98,0,0,1,311.293,174.559Z" fill="#455a64"/>
      </g>
      <g id="Group_2466" data-name="Group 2466" transform="translate(17100.629 11777.8)">
        <path id="Path_12041" data-name="Path 12041" d="M307.894,155.05a2.006,2.006,0,0,1,.39-.785,5.7,5.7,0,0,1,1.761-1.627,6.628,6.628,0,0,1,3.44-.934,7.11,7.11,0,0,1,4.116,1.443,8.142,8.142,0,0,1,2.675,3.442,9.309,9.309,0,0,1,.677,3.488,9.558,9.558,0,0,1-.294,2.366,2.352,2.352,0,0,1-.3.819,22.462,22.462,0,0,0,.23-3.176,9.542,9.542,0,0,0-.751-3.31,7.932,7.932,0,0,0-2.543-3.211,6.83,6.83,0,0,0-3.816-1.382,6.533,6.533,0,0,0-3.248.775A7.832,7.832,0,0,0,307.894,155.05Z" fill="#455a64"/>
      </g>
      <g id="Group_2467" data-name="Group 2467" transform="translate(17100.629 11777.8)">
        <path id="Path_12042" data-name="Path 12042" d="M322.857,162.4c.081-.044.777,1.367,2.106,3.5a16.825,16.825,0,0,0,2.757,3.387,9.812,9.812,0,0,0,4.667,2.384,30.9,30.9,0,0,0,5.354.54,23.181,23.181,0,0,0,4.391-.119,9.708,9.708,0,0,0,3.761-1.38,2.94,2.94,0,0,1-.856.706,8.174,8.174,0,0,1-2.844,1.038,21.345,21.345,0,0,1-4.468.234,28.787,28.787,0,0,1-5.453-.511,10.053,10.053,0,0,1-4.878-2.539,15.965,15.965,0,0,1-2.744-3.547c-.643-1.1-1.088-2.025-1.386-2.667A4.369,4.369,0,0,1,322.857,162.4Z" fill="#455a64"/>
      </g>
      <g id="Group_2468" data-name="Group 2468" transform="translate(17100.629 11777.8)">
        <path id="Path_12043" data-name="Path 12043" d="M322.857,162.4a6.835,6.835,0,0,1,.55,1.132c.336.734.834,1.791,1.493,3.076s1.467,2.8,2.4,4.468a31.583,31.583,0,0,0,3.37,5.162,16.867,16.867,0,0,0,4.643,3.954,12.973,12.973,0,0,0,4.713,1.57,13.4,13.4,0,0,0,4.6-.3c.006.017-.1.067-.294.148a7.36,7.36,0,0,1-.9.29,10.336,10.336,0,0,1-3.45.232,12.808,12.808,0,0,1-4.9-1.516,16.721,16.721,0,0,1-4.81-4.04,30.03,30.03,0,0,1-3.391-5.264c-.915-1.684-1.7-3.224-2.313-4.538s-1.069-2.4-1.349-3.161A5.087,5.087,0,0,1,322.857,162.4Z" fill="#455a64"/>
      </g>
      <g id="Group_2469" data-name="Group 2469" transform="translate(17100.629 11777.8)">
        <path id="Path_12044" data-name="Path 12044" d="M320.836,160.946a6.254,6.254,0,0,1,1.063-.951,24.894,24.894,0,0,1,3.236-2.166,21.845,21.845,0,0,1,5.374-2.146,17.391,17.391,0,0,1,7.085-.286,14.084,14.084,0,0,1,6.489,2.857,12.489,12.489,0,0,1,3.523,4.6,10.626,10.626,0,0,1,.9,3.8,7.256,7.256,0,0,1-.032,1.062c-.025.242-.047.367-.065.365a12.906,12.906,0,0,0-1.143-5.074,12.5,12.5,0,0,0-3.488-4.379,13.909,13.909,0,0,0-6.277-2.718,17.41,17.41,0,0,0-6.885.24,22.765,22.765,0,0,0-5.311,2,32.157,32.157,0,0,0-3.291,2.005A9.311,9.311,0,0,1,320.836,160.946Z" fill="#455a64"/>
      </g>
      <g id="Group_2470" data-name="Group 2470" transform="translate(17100.629 11777.8)">
        <path id="Path_12045" data-name="Path 12045" d="M333.541,152.193a18.078,18.078,0,0,0-11.2,6.25,5.1,5.1,0,0,1,1.092-1.627,13.878,13.878,0,0,1,8.151-4.548A5.12,5.12,0,0,1,333.541,152.193Z" fill="#455a64"/>
      </g>
      <g id="Group_2471" data-name="Group 2471" transform="translate(17100.629 11777.8)">
        <path id="Path_12046" data-name="Path 12046" d="M312.37,165.547a14.423,14.423,0,0,0,2.616.239,7.082,7.082,0,0,0,6.752-8.62,14.539,14.539,0,0,0-.859-2.482c.024-.017.2.171.457.567a6.3,6.3,0,0,1,.761,1.836,7.2,7.2,0,0,1-7.1,9.068,6.343,6.343,0,0,1-1.966-.3C312.585,165.7,312.359,165.575,312.37,165.547Z" fill="#e8505b"/>
      </g>
      <g id="Group_2472" data-name="Group 2472" transform="translate(17100.629 11777.8)">
        <path id="Path_12047" data-name="Path 12047" d="M321.738,236.62a4.257,4.257,0,0,1-.334-.689c-.2-.459-.492-1.138-.849-2.021a39.381,39.381,0,0,1-2.363-7.717,20.557,20.557,0,0,1-.255-5.592,14.454,14.454,0,0,1,1.953-6.127c1.155-1.946,2.914-3.686,3.382-6.03.486-2.347-.5-4.8-1.752-7.017-.623-1.129-1.315-2.2-1.947-3.31a28.43,28.43,0,0,1-1.658-3.378,13.759,13.759,0,0,1-1.115-7.014,12.973,12.973,0,0,1,2.73-5.815,20.667,20.667,0,0,0,2.837-4.707,17.613,17.613,0,0,0,1.042-4.411c.156-1.334.187-2.5.209-3.444.009-.91.016-1.638.022-2.188a4.138,4.138,0,0,1,.032-.764,4.273,4.273,0,0,1,.073.762c.026.5.064,1.238.076,2.191a31.821,31.821,0,0,1-.123,3.474,17.489,17.489,0,0,1-.987,4.512,20.725,20.725,0,0,1-2.828,4.825,12.6,12.6,0,0,0-2.607,5.632,13.338,13.338,0,0,0,1.112,6.755,28.1,28.1,0,0,0,1.635,3.314c.621,1.086,1.321,2.169,1.953,3.313a17.55,17.55,0,0,1,1.568,3.562,7.909,7.909,0,0,1,.229,3.808,9.236,9.236,0,0,1-1.524,3.342c-.662.988-1.372,1.893-1.949,2.837a14.138,14.138,0,0,0-1.934,5.922,20.521,20.521,0,0,0,.189,5.487,42.789,42.789,0,0,0,2.189,7.706l.758,2.054A4.134,4.134,0,0,1,321.738,236.62Z" fill="#455a64"/>
      </g>
      <g id="Group_2473" data-name="Group 2473" transform="translate(17100.629 11777.8)">
        <path id="Path_12048" data-name="Path 12048" d="M313.963,179.085a3.2,3.2,0,0,1-.353.548l-1.07,1.526a24.366,24.366,0,0,0-3.179,6,12.841,12.841,0,0,0-.677,4.589,9.5,9.5,0,0,0,.454,2.53,14.889,14.889,0,0,0,1.145,2.5c.879,1.658,2.088,3.435,2.183,5.656a6.212,6.212,0,0,1-.788,3.175,11.853,11.853,0,0,1-2.013,2.659,54.063,54.063,0,0,0-4.583,4.488,9.474,9.474,0,0,0-1.9,5.445,26.637,26.637,0,0,0,.366,5.368,42.025,42.025,0,0,1,.505,4.73,10.88,10.88,0,0,1-1.662,6.628,6.228,6.228,0,0,1-1.279,1.378,3.512,3.512,0,0,1-.4.283c-.093.059-.143.085-.148.078a9.234,9.234,0,0,0,1.656-1.852,10.934,10.934,0,0,0,1.463-6.5,43.864,43.864,0,0,0-.564-4.68,26.533,26.533,0,0,1-.418-5.459,9.925,9.925,0,0,1,1.975-5.728,52.133,52.133,0,0,1,4.615-4.541c1.506-1.53,2.749-3.43,2.664-5.455s-1.209-3.762-2.1-5.443a15.279,15.279,0,0,1-1.158-2.59,9.882,9.882,0,0,1-.449-2.653,13.036,13.036,0,0,1,.759-4.723,23.021,23.021,0,0,1,3.363-6c.486-.65.879-1.142,1.151-1.471A2.963,2.963,0,0,1,313.963,179.085Z" fill="#263238"/>
      </g>
      <g id="Group_2474" data-name="Group 2474" transform="translate(17100.629 11777.8)">
        <path id="Path_12049" data-name="Path 12049" d="M332.749,236.014c-.005.008-.063-.021-.174-.084a4.92,4.92,0,0,1-.478-.3,6.113,6.113,0,0,1-1.485-1.6,10.551,10.551,0,0,1-1.133-7.791,37.957,37.957,0,0,1,1.6-5.279,27.832,27.832,0,0,0,1.61-6.031,19.429,19.429,0,0,0-.383-6.833,21.267,21.267,0,0,0-2.987-6.728,23.633,23.633,0,0,1-3.315-6.757,21.877,21.877,0,0,1-.478-7c.342-4.456,1.2-8.379,1.1-11.729A16.958,16.958,0,0,0,325,168.233a18.15,18.15,0,0,0-1.614-2.4,8.505,8.505,0,0,1,1.793,2.31,16.621,16.621,0,0,1,1.813,7.737c.147,3.4-.677,7.366-.986,11.766a21.614,21.614,0,0,0,.493,6.843,23.338,23.338,0,0,0,3.265,6.611,21.632,21.632,0,0,1,3.039,6.885,19.752,19.752,0,0,1,.363,7.01,27.82,27.82,0,0,1-1.68,6.117,38.741,38.741,0,0,0-1.648,5.208,10.5,10.5,0,0,0,.944,7.608A7.513,7.513,0,0,0,332.749,236.014Z" fill="#455a64"/>
      </g>
      <g id="Group_2525" data-name="Group 2525" transform="translate(17100.629 11777.8)">
        <g id="Group_2524" data-name="Group 2524">
          <g id="Group_2479" data-name="Group 2479">
            <g id="Group_2476" data-name="Group 2476">
              <g id="Group_2475" data-name="Group 2475">
                <path id="Path_12050" data-name="Path 12050" d="M391.1,435.879l-.051-1.781-16.766.415.108,5.871,1.036.043c4.612.152,23.459.447,26.516-.555C405.355,438.753,391.1,435.879,391.1,435.879Z" fill="#ff9f30"/>
              </g>
            </g>
            <g id="Group_2478" data-name="Group 2478" opacity="0.4">
              <g id="Group_2477" data-name="Group 2477">
                <path id="Path_12051" data-name="Path 12051" d="M380.44,440.116a5.785,5.785,0,0,0-2.21-3.51,5.625,5.625,0,0,0-3.928-1.126l.1,4.665Z" fill="#fff"/>
              </g>
            </g>
          </g>
          <g id="Group_2481" data-name="Group 2481" opacity="0.4">
            <g id="Group_2480" data-name="Group 2480">
              <path id="Path_12052" data-name="Path 12052" d="M398.071,437.53s5,1.322,4.4,2.154-19.659,1.251-28.081.7l.018-.374,22.233-.3S397.1,437.593,398.071,437.53Z" fill="#fff"/>
            </g>
          </g>
          <g id="Group_2484" data-name="Group 2484">
            <g id="Group_2483" data-name="Group 2483">
              <g id="Group_2482" data-name="Group 2482">
                <path id="Path_12053" data-name="Path 12053" d="M374.148,440.006a1.588,1.588,0,0,0,.287.025l.826.031,3.036.064c2.564.036,6.108.039,10.02-.043s7.454-.237,10.015-.381l3.031-.193.823-.066a1.6,1.6,0,0,0,.286-.037,1.556,1.556,0,0,0-.289,0l-.825.029-3.033.128c-2.561.108-6.1.238-10.012.321s-7.451.1-10.015.1h-3.036l-.826.006A1.563,1.563,0,0,0,374.148,440.006Z" fill="#263238"/>
              </g>
            </g>
          </g>
          <g id="Group_2487" data-name="Group 2487">
            <g id="Group_2486" data-name="Group 2486">
              <g id="Group_2485" data-name="Group 2485">
                <path id="Path_12054" data-name="Path 12054" d="M396.644,439.972a4.408,4.408,0,0,1,1.544-2.645,2.7,2.7,0,0,0-1.544,2.645Z" fill="#263238"/>
              </g>
            </g>
          </g>
          <g id="Group_2490" data-name="Group 2490">
            <g id="Group_2489" data-name="Group 2489">
              <g id="Group_2488" data-name="Group 2488">
                <path id="Path_12055" data-name="Path 12055" d="M391.665,437.581c.047.029.277-.263.512-.652s.387-.728.339-.756-.277.262-.512.651S391.617,437.552,391.665,437.581Z" fill="#263238"/>
              </g>
            </g>
          </g>
          <g id="Group_2493" data-name="Group 2493">
            <g id="Group_2492" data-name="Group 2492">
              <g id="Group_2491" data-name="Group 2491">
                <path id="Path_12056" data-name="Path 12056" d="M390.3,436.9c.039.041.3-.141.58-.4s.48-.513.441-.553-.3.14-.579.4S390.259,436.855,390.3,436.9Z" fill="#263238"/>
              </g>
            </g>
          </g>
          <g id="Group_2496" data-name="Group 2496">
            <g id="Group_2495" data-name="Group 2495">
              <g id="Group_2494" data-name="Group 2494">
                <path id="Path_12057" data-name="Path 12057" d="M389.408,435.339a3.82,3.82,0,1,0,.872-.11A1.991,1.991,0,0,0,389.408,435.339Z" fill="#263238"/>
              </g>
            </g>
          </g>
          <g id="Group_2499" data-name="Group 2499">
            <g id="Group_2498" data-name="Group 2498">
              <g id="Group_2497" data-name="Group 2497">
                <path id="Path_12058" data-name="Path 12058" d="M389.091,434.235a2.453,2.453,0,0,0,1.978.105,5.455,5.455,0,0,0-.989-.046A5.334,5.334,0,0,0,389.091,434.235Z" fill="#263238"/>
              </g>
            </g>
          </g>
          <g id="Group_2502" data-name="Group 2502">
            <g id="Group_2501" data-name="Group 2501">
              <g id="Group_2500" data-name="Group 2500">
                <path id="Path_12059" data-name="Path 12059" d="M392.2,436.113a3.1,3.1,0,0,0,1.072-.031,6.359,6.359,0,0,0,1.137-.276,3.194,3.194,0,0,0,.647-.284.578.578,0,0,0,.259-.339.424.424,0,0,0-.172-.425,1.967,1.967,0,0,0-2.42.628,1.9,1.9,0,0,0-.334.724.6.6,0,0,0-.022.29,3.016,3.016,0,0,1,.469-.926,1.935,1.935,0,0,1,.9-.615,1.659,1.659,0,0,1,1.28.059c.173.122.111.324-.076.441a3.222,3.222,0,0,1-.6.271,7.483,7.483,0,0,1-1.1.312C392.607,436.069,392.2,436.079,392.2,436.113Z" fill="#263238"/>
              </g>
            </g>
          </g>
          <g id="Group_2505" data-name="Group 2505">
            <g id="Group_2504" data-name="Group 2504">
              <g id="Group_2503" data-name="Group 2503">
                <path id="Path_12060" data-name="Path 12060" d="M392.478,436.16a1.06,1.06,0,0,0,.107-.748,1.753,1.753,0,0,0-.31-.777,1.074,1.074,0,0,0-.9-.527.427.427,0,0,0-.32.5,1.184,1.184,0,0,0,.193.476,3.27,3.27,0,0,0,.521.637,1.536,1.536,0,0,0,.623.421c.019-.026-.218-.188-.521-.521a3.777,3.777,0,0,1-.463-.633c-.152-.224-.262-.629.006-.683.268-.032.548.229.717.439a1.781,1.781,0,0,1,.318.691A3.914,3.914,0,0,1,392.478,436.16Z" fill="#263238"/>
              </g>
            </g>
          </g>
          <g id="Group_2508" data-name="Group 2508">
            <g id="Group_2507" data-name="Group 2507">
              <g id="Group_2506" data-name="Group 2506">
                <path id="Path_12061" data-name="Path 12061" d="M374.388,435.431c.005.038.477-.055,1.234.017a5.233,5.233,0,0,1,4.448,3.389c.27.71.306,1.19.343,1.184a.965.965,0,0,0-.007-.337,4.408,4.408,0,0,0-.2-.9,5.077,5.077,0,0,0-4.573-3.483,4.429,4.429,0,0,0-.917.044A.975.975,0,0,0,374.388,435.431Z" fill="#263238"/>
              </g>
            </g>
          </g>
          <g id="Group_2511" data-name="Group 2511">
            <g id="Group_2510" data-name="Group 2510">
              <g id="Group_2509" data-name="Group 2509">
                <path id="Path_12062" data-name="Path 12062" d="M382.505,438.443a13.727,13.727,0,0,0,4.879-.061c-.007-.058-1.1.032-2.439.047S382.51,438.384,382.505,438.443Z" fill="#263238"/>
              </g>
            </g>
          </g>
          <g id="Group_2514" data-name="Group 2514">
            <g id="Group_2513" data-name="Group 2513">
              <g id="Group_2512" data-name="Group 2512">
                <path id="Path_12063" data-name="Path 12063" d="M379.234,438.51c-.04.042.094.229.211.477s.182.468.24.463.08-.266-.058-.551S379.269,438.469,379.234,438.51Z" fill="#263238"/>
              </g>
            </g>
          </g>
          <g id="Group_2517" data-name="Group 2517">
            <g id="Group_2516" data-name="Group 2516">
              <g id="Group_2515" data-name="Group 2515">
                <path id="Path_12064" data-name="Path 12064" d="M377.967,437c-.039.04.073.211.249.382s.352.278.391.238-.073-.211-.25-.383S378.006,436.963,377.967,437Z" fill="#263238"/>
              </g>
            </g>
          </g>
          <g id="Group_2520" data-name="Group 2520">
            <g id="Group_2519" data-name="Group 2519">
              <g id="Group_2518" data-name="Group 2518">
                <path id="Path_12065" data-name="Path 12065" d="M376.188,436.34c.013.057.235.05.481.131s.427.208.47.169-.1-.267-.409-.362S376.17,436.289,376.188,436.34Z" fill="#263238"/>
              </g>
            </g>
          </g>
          <g id="Group_2523" data-name="Group 2523">
            <g id="Group_2522" data-name="Group 2522">
              <g id="Group_2521" data-name="Group 2521">
                <path id="Path_12066" data-name="Path 12066" d="M374.925,436.037c-.019.053.079.136.218.187s.268.049.288,0-.079-.136-.219-.187S374.944,435.985,374.925,436.037Z" fill="#263238"/>
              </g>
            </g>
          </g>
        </g>
      </g>
      <g id="Group_2526" data-name="Group 2526" transform="translate(17100.629 11777.8)">
        <path id="Path_12067" data-name="Path 12067" d="M367.569,378.9c-.144-.01.356-8.954,1.117-19.976s1.494-19.952,1.637-19.942-.357,8.953-1.117,19.978S367.712,378.909,367.569,378.9Z" fill="#263238"/>
      </g>
      <g id="Group_2527" data-name="Group 2527" transform="translate(17100.629 11777.8)">
        <path id="Path_12068" data-name="Path 12068" d="M377.214,381.176a10.04,10.04,0,0,1-.17-1.649c-.077-1.153-.178-2.67-.3-4.5-.248-3.8-.619-9.048-1.138-14.834s-1.091-11.018-1.525-14.8c-.207-1.825-.378-3.335-.508-4.483a10.252,10.252,0,0,1-.127-1.652,9.943,9.943,0,0,1,.328,1.625c.178,1.051.409,2.576.672,4.464.528,3.775,1.157,9.006,1.679,14.8s.832,11.053.986,14.861c.078,1.9.123,3.447.134,4.513A10.156,10.156,0,0,1,377.214,381.176Z" fill="#263238"/>
      </g>
      <g id="Group_2528" data-name="Group 2528" transform="translate(17100.629 11777.8)" opacity="0.2">
        <path id="Path_12069" data-name="Path 12069" d="M381.248,338.082a46.08,46.08,0,0,1-31.178,23.1c-2.715.539-5.7.787-8.1-.6-3.27-1.9-4.285-6.165-4.24-9.946s.01-8.941-.015-12.55Z" fill="#432d14"/>
      </g>
      <g id="Group_2529" data-name="Group 2529" transform="translate(17100.629 11777.8)">
        <path id="Path_12070" data-name="Path 12070" d="M323.122,274.14c-.019-.143,4.986-.916,11.177-1.727s11.226-1.353,11.245-1.21-4.985.915-11.178,1.727S323.141,274.283,323.122,274.14Z" fill="#263238"/>
      </g>
      <g id="Group_2530" data-name="Group 2530" transform="translate(17100.629 11777.8)">
        <path id="Path_12071" data-name="Path 12071" d="M338.391,272.288a8.022,8.022,0,0,1-1.694-1.139l-1.75-1.352a2.19,2.19,0,0,1-.848-1.16,1.563,1.563,0,0,1,.548-1.495,1.826,1.826,0,0,1,1.5-.462,2.3,2.3,0,0,1,1.262.682,3.33,3.33,0,0,1,.89,2.127,4.653,4.653,0,0,1-.228,2.049c-.1,0,.005-.8-.138-2.008a3.1,3.1,0,0,0-.862-1.828,1.483,1.483,0,0,0-2.081-.171,1.069,1.069,0,0,0-.4.995,1.783,1.783,0,0,0,.659.9l1.673,1.433A8.02,8.02,0,0,1,338.391,272.288Z" fill="#263238"/>
      </g>
      <g id="Group_2531" data-name="Group 2531" transform="translate(17100.629 11777.8)">
        <path id="Path_12072" data-name="Path 12072" d="M337.722,272.337a3.419,3.419,0,0,1,.472-1.672,7.533,7.533,0,0,1,1.032-1.6,7.16,7.16,0,0,1,.8-.816,1.831,1.831,0,0,1,1.277-.436.794.794,0,0,1,.66.506.971.971,0,0,1-.06.76,4.328,4.328,0,0,1-.706.932,8,8,0,0,1-1.447,1.229,3.505,3.505,0,0,1-1.582.713,16.289,16.289,0,0,1,1.365-1.012,9.56,9.56,0,0,0,1.307-1.251,4.385,4.385,0,0,0,.6-.822c.133-.284.043-.51-.2-.539-.63-.051-1.2.563-1.647,1.051a8.939,8.939,0,0,0-1.068,1.455C338,271.733,337.8,272.36,337.722,272.337Z" fill="#263238"/>
      </g>
      <g id="Group_2532" data-name="Group 2532" transform="translate(17100.629 11777.8)">
        <path id="Path_12073" data-name="Path 12073" d="M369.261,382.745a53.664,53.664,0,0,1,3.843-9.833,53.586,53.586,0,0,1-3.843,9.833Z" fill="#fafafa"/>
      </g>
      <g id="Group_2533" data-name="Group 2533" transform="translate(17100.629 11777.8)">
        <path id="Path_12074" data-name="Path 12074" d="M351.612,377.512a21.577,21.577,0,0,1-7.522-6.522c.115-.1,1.648,1.518,3.721,3.308S351.7,377.385,351.612,377.512Z" fill="#fafafa"/>
      </g>
      <g id="Group_2534" data-name="Group 2534" transform="translate(17100.629 11777.8)">
        <path id="Path_12075" data-name="Path 12075" d="M357.127,354.535a28.8,28.8,0,0,1-4.477-6.3,28.8,28.8,0,0,1,4.477,6.3Z" fill="#fafafa"/>
      </g>
      <g id="Group_2535" data-name="Group 2535" transform="translate(17100.629 11777.8)">
        <path id="Path_12076" data-name="Path 12076" d="M348.249,322.679a41.9,41.9,0,0,1-5.8-7.3,41.772,41.772,0,0,1,5.8,7.3Z" fill="#fafafa"/>
      </g>
      <g id="Group_2536" data-name="Group 2536" transform="translate(17100.629 11777.8)">
        <path id="Path_12077" data-name="Path 12077" d="M369.844,318.636a41.529,41.529,0,0,1-9.285.371,41.534,41.534,0,0,1,9.285-.371Z" fill="#fafafa"/>
      </g>
      <g id="Group_2537" data-name="Group 2537" transform="translate(17100.629 11777.8)">
        <path id="Path_12078" data-name="Path 12078" d="M374.836,305.7a25.1,25.1,0,0,1-3.523-6.3,25.1,25.1,0,0,1,3.523,6.3Z" fill="#fafafa"/>
      </g>
      <g id="Group_2538" data-name="Group 2538" transform="translate(17100.629 11777.8)">
        <path id="Path_12079" data-name="Path 12079" d="M352.384,302.912a27.453,27.453,0,0,1-6.83,3.2,27.456,27.456,0,0,1,6.83-3.2Z" fill="#fafafa"/>
      </g>
      <g id="Group_2539" data-name="Group 2539" transform="translate(17100.629 11777.8)">
        <path id="Path_12080" data-name="Path 12080" d="M339.726,303.912a146.875,146.875,0,0,1-8.552-6.408,33.974,33.974,0,0,1,8.552,6.408Z" fill="#fafafa"/>
      </g>
      <g id="Group_2540" data-name="Group 2540" transform="translate(17100.629 11777.8)">
        <path id="Path_12081" data-name="Path 12081" d="M338.581,279.669c.048.147-2.245.964-4.9,2.325s-4.674,2.722-4.765,2.6a22.2,22.2,0,0,1,9.667-4.922Z" fill="#fafafa"/>
      </g>
      <g id="Group_2541" data-name="Group 2541" transform="translate(17100.629 11777.8)">
        <path id="Path_12082" data-name="Path 12082" d="M334.269,261.819A37.7,37.7,0,0,1,328,255.571a37.7,37.7,0,0,1,6.267,6.248Z" fill="#fafafa"/>
      </g>
      <g id="Group_2542" data-name="Group 2542" transform="translate(17100.629 11777.8)">
        <path id="Path_12083" data-name="Path 12083" d="M346.939,248.622a22.591,22.591,0,0,1-5.678,3.8,22.519,22.519,0,0,1,5.678-3.8Z" fill="#fafafa"/>
      </g>
      <g id="Group_2543" data-name="Group 2543" transform="translate(17100.629 11777.8)">
        <path id="Path_12084" data-name="Path 12084" d="M336.715,246.292a31.494,31.494,0,0,1-5.183-6.2,31.494,31.494,0,0,1,5.183,6.2Z" fill="#fafafa"/>
      </g>
      <g id="Group_2544" data-name="Group 2544" transform="translate(17100.629 11777.8)">
        <path id="Path_12085" data-name="Path 12085" d="M352.6,227.169a33.039,33.039,0,0,1-3.942,2.243,33.062,33.062,0,0,1-3.992,2.154,22.12,22.12,0,0,1,7.934-4.4Z" fill="#fafafa"/>
      </g>
      <g id="Group_2545" data-name="Group 2545" transform="translate(17100.629 11777.8)">
        <path id="Path_12086" data-name="Path 12086" d="M360.971,239.125a28.8,28.8,0,0,1,2.288-7.386,28.8,28.8,0,0,1-2.288,7.386Z" fill="#fafafa"/>
      </g>
      <g id="Group_2546" data-name="Group 2546" transform="translate(17100.629 11777.8)">
        <path id="Path_12087" data-name="Path 12087" d="M364.745,252.726a15.073,15.073,0,0,1-7.025-4.515c.1-.113,1.543,1.081,3.475,2.316S364.8,252.586,364.745,252.726Z" fill="#fafafa"/>
      </g>
      <g id="Group_2547" data-name="Group 2547" transform="translate(17100.629 11777.8)">
        <path id="Path_12088" data-name="Path 12088" d="M341.889,220.219a42.28,42.28,0,0,1,4.866-8,42.2,42.2,0,0,1-4.866,8Z" fill="#fafafa"/>
      </g>
      <g id="Group_2548" data-name="Group 2548" transform="translate(17100.629 11777.8)">
        <path id="Path_12089" data-name="Path 12089" d="M319.055,242.185a58.163,58.163,0,0,1-10.8-2.08,58.123,58.123,0,0,1,10.8,2.08Z" fill="#fafafa"/>
      </g>
      <line id="Line_27" data-name="Line 27" x2="41" y2="1" transform="translate(17510.5 12015.5)" fill="none" stroke="#fff" stroke-width="1"/>
      <line id="Line_28" data-name="Line 28" x2="41" y2="1" transform="translate(17521.5 12224.5)" fill="none" stroke="#707070" stroke-width="1"/>
      <line id="Line_29" data-name="Line 29" x2="41" y2="1" transform="translate(17521.5 12224.5)" fill="none" stroke="#707070" stroke-width="1"/>
      <line id="Line_30" data-name="Line 30" x2="41" y2="1" transform="translate(17521.5 12224.5)" fill="none" stroke="#707070" stroke-width="1"/>
      <line id="Line_31" data-name="Line 31" x2="41" y2="1" transform="translate(17508.5 12021.5)" fill="none" stroke="#fff" stroke-width="1"/>
      <line id="Line_32" data-name="Line 32" x2="41" y2="1" transform="translate(17506.5 12027.5)" fill="none" stroke="#fff" stroke-width="1"/>
      <line id="Line_33" data-name="Line 33" x2="41" y2="1" transform="translate(17503.5 12034.5)" fill="none" stroke="#fff" stroke-width="1"/>
    </g>
  </g>
</svg>
