<svg id="content" xmlns="http://www.w3.org/2000/svg" width="72" height="72" viewBox="0 0 72 72">
  <path id="Path_22041" data-name="Path 22041" d="M62.25.75H6.75a6,6,0,0,0-6,6v4.5h67.5V6.75A6,6,0,0,0,62.25.75Z" transform="translate(1.5 1.5)" fill="#607d8b"/>
  <path id="Path_22042" data-name="Path 22042" d="M43.82,21.055,21.53,43.315l-9,1.59,1.59-9.03,22.26-22.26c1.17-1.17,2.55-1.71,3.72-.54l3.72,3.72a3.024,3.024,0,0,1,0,4.26Z" transform="translate(25.06 24.845)" fill="#39b54a"/>
  <path id="Path_22043" data-name="Path 22043" d="M42.43,25H6.25A2.251,2.251,0,0,1,4,22.75V9.25A2.251,2.251,0,0,1,6.25,7h43.5A2.251,2.251,0,0,1,52,9.25V16a2.25,2.25,0,0,1-4.5,0V11.5H8.5v9H42.43a2.25,2.25,0,1,1,0,4.5Z" transform="translate(8 14)" fill="#103857"/>
  <path id="Path_22044" data-name="Path 22044" d="M33.36,18.99H6.3a2.25,2.25,0,0,1,0-4.5H33.36a2.25,2.25,0,0,1,0,4.5Z" transform="translate(8.1 28.98)" fill="#103857"/>
  <path id="Path_22045" data-name="Path 22045" d="M24.42,21.99H6.3a2.25,2.25,0,1,1,0-4.5H24.42a2.25,2.25,0,0,1,0,4.5Z" transform="translate(8.1 34.98)" fill="#103857"/>
  <path id="Path_22046" data-name="Path 22046" d="M14.026,48.652a2.251,2.251,0,0,1-2.214-2.643l1.59-9.015a2.279,2.279,0,0,1,.624-1.2L36.3,13.522a6.031,6.031,0,0,1,2.988-1.755A4.173,4.173,0,0,1,43.2,12.994L46.906,16.7a5.258,5.258,0,0,1,0,7.425L24.634,46.4a2.238,2.238,0,0,1-1.2.624l-9.015,1.59a2.481,2.481,0,0,1-.393.033Zm9.018-3.84h.03ZM17.71,38.476,16.8,43.627l5.151-.909L43.723,20.944a.755.755,0,0,0,0-1.062L40.039,16.2c-.03.057-.255.2-.558.5Z" transform="translate(23.555 23.348)" fill="#103857"/>
  <path id="Path_22047" data-name="Path 22047" d="M29.49,66H8.25A8.257,8.257,0,0,1,0,57.75V8.25A8.257,8.257,0,0,1,8.25,0h55.5A8.257,8.257,0,0,1,72,8.25V30.12a2.25,2.25,0,1,1-4.5,0V8.25A3.755,3.755,0,0,0,63.75,4.5H8.25A3.755,3.755,0,0,0,4.5,8.25v49.5A3.755,3.755,0,0,0,8.25,61.5H29.49a2.25,2.25,0,1,1,0,4.5Z" fill="#103857"/>
  <path id="Path_22048" data-name="Path 22048" d="M69.75,8H2.25a2.25,2.25,0,1,1,0-4.5h67.5a2.25,2.25,0,0,1,0,4.5Z" transform="translate(0 7)" fill="#103857"/>
</svg>
