<svg xmlns="http://www.w3.org/2000/svg" width="72" height="73.505" viewBox="0 0 72 73.505">
  <g id="mail-e_mail-letter-computer-laptop" data-name="mail-e mail-letter-computer-laptop" transform="translate(-2.614 -2)">
    <path id="Path_22049" data-name="Path 22049" d="M70.706,65.952H6.07a2.45,2.45,0,0,1-2.364-3.1L10.211,39H66.565L73.07,62.852a2.45,2.45,0,0,1-2.364,3.1Z" transform="translate(0.226 8.328)" fill="#c6c5ca"/>
    <path id="Path_22050" data-name="Path 22050" d="M60.041,65.952h-4.9a2.45,2.45,0,0,0,2.364-3.1L51,39h4.9l6.505,23.852a2.45,2.45,0,0,1-2.364,3.1Z" transform="translate(10.891 8.328)" fill="#acabb1"/>
    <path id="Path_22051" data-name="Path 22051" d="M62.9,9a2.458,2.458,0,0,1,2.45,2.45v34.3H9V11.45A2.458,2.458,0,0,1,11.45,9Z" transform="translate(1.437 1.576)" fill="#ffffb0"/>
    <path id="Path_22052" data-name="Path 22052" d="M56.35,11.45v34.3h-4.9V11.45A2.458,2.458,0,0,0,49,9h4.9a2.458,2.458,0,0,1,2.45,2.45Z" transform="translate(10.44 1.576)" fill="#eaeaa4"/>
    <path id="Path_22053" data-name="Path 22053" d="M43.826,53l1.225,4.9H23L24.225,53Z" transform="translate(4.588 11.479)" fill="#898890"/>
    <path id="Path_22054" data-name="Path 22054" d="M42.125,57.9h-4.9L36,53h4.9Z" transform="translate(7.514 11.479)" fill="#787680"/>
    <path id="Path_22055" data-name="Path 22055" d="M52.507,10.35v19.6L33.42,16.476,52.507,3Z" transform="translate(6.934 0.225)" fill="#607d8b"/>
    <path id="Path_22056" data-name="Path 22056" d="M49.9,3V29.952L45,26.5V6.455Z" transform="translate(9.54 0.225)" fill="#607d8b"/>
    <path id="Path_22057" data-name="Path 22057" d="M56.653,3,37.566,16.476,35.826,17.7l-1.74-1.225L15,3Z" transform="translate(2.788 0.225)" fill="#607d8b"/>
    <path id="Path_22058" data-name="Path 22058" d="M56.653,27.476H15L34.087,14l1.74,1.225L37.566,14Z" transform="translate(2.788 2.701)" fill="#607d8b"/>
    <path id="Path_22059" data-name="Path 22059" d="M15,3,34.087,16.476,15,29.952V3Z" transform="translate(2.788 0.225)" fill="#607d8b"/>
    <path id="Path_22060" data-name="Path 22060" d="M74.484,70.862,68.016,47.169V13.026A3.686,3.686,0,0,0,64.341,9.35H60.665V3.225A1.225,1.225,0,0,0,59.44,2H17.788a1.225,1.225,0,0,0-1.225,1.225V9.35H12.887a3.686,3.686,0,0,0-3.675,3.675V47.169L2.744,70.862A3.675,3.675,0,0,0,6.3,75.5H70.932a3.675,3.675,0,0,0,3.553-4.643ZM42.473,16.7,58.215,5.589V27.812ZM55.581,28.952H21.647L36.874,18.2l1.029.735a1.254,1.254,0,0,0,1.421,0l1.029-.735Zm0-24.5L38.614,16.431,21.647,4.45ZM19.013,5.589,34.755,16.7,19.013,27.812Zm-7.35,7.436A1.225,1.225,0,0,1,12.887,11.8h3.675V30.177A1.225,1.225,0,0,0,17.788,31.4H59.44a1.225,1.225,0,0,0,1.225-1.225V11.8h3.675a1.225,1.225,0,0,1,1.225,1.225V46.1h-53.9ZM71.912,72.577a1.213,1.213,0,0,1-.98.478H6.3a1.213,1.213,0,0,1-.98-.478,1.225,1.225,0,0,1-.208-1.066l6.26-22.958H65.86l6.26,22.958A1.225,1.225,0,0,1,71.912,72.577Z" transform="translate(0)" fill="#103857"/>
    <path id="Path_22061" data-name="Path 22061" d="M45.24,52.929A1.225,1.225,0,0,0,44.051,52H24.45a1.225,1.225,0,0,0-1.188.929l-1.225,4.9a1.225,1.225,0,0,0,1.188,1.522H45.276a1.225,1.225,0,0,0,1.188-1.522ZM24.794,56.9l.613-2.45H43.095l.613,2.45Z" transform="translate(4.363 11.254)"/>
    <path id="Path_22062" data-name="Path 22062" d="M27,34H39.251v2.45H27Z" transform="translate(5.489 7.202)"/>
    <path id="Path_22063" data-name="Path 22063" d="M12,42h4.9v2.45H12Z" transform="translate(2.113 9.003)"/>
    <path id="Path_22064" data-name="Path 22064" d="M18,42h4.9v2.45H18Z" transform="translate(3.463 9.003)"/>
    <path id="Path_22065" data-name="Path 22065" d="M24,42h4.9v2.45H24Z" transform="translate(4.813 9.003)"/>
    <path id="Path_22066" data-name="Path 22066" d="M36,42h4.9v2.45H36Z" transform="translate(7.514 9.003)"/>
    <path id="Path_22067" data-name="Path 22067" d="M42,42h4.9v2.45H42Z" transform="translate(8.865 9.003)"/>
    <path id="Path_22068" data-name="Path 22068" d="M48,42h4.9v2.45H48Z" transform="translate(10.215 9.003)"/>
    <path id="Path_22069" data-name="Path 22069" d="M30,42h4.9v2.45H30Z" transform="translate(6.164 9.003)"/>
    <path id="Path_22070" data-name="Path 22070" d="M12,46h4.9v2.45H12Z" transform="translate(2.113 9.903)"/>
    <path id="Path_22071" data-name="Path 22071" d="M18,46h4.9v2.45H18Z" transform="translate(3.463 9.903)"/>
    <path id="Path_22072" data-name="Path 22072" d="M24,46h4.9v2.45H24Z" transform="translate(4.813 9.903)"/>
    <path id="Path_22073" data-name="Path 22073" d="M36,46h4.9v2.45H36Z" transform="translate(7.514 9.903)"/>
    <path id="Path_22074" data-name="Path 22074" d="M42,46h4.9v2.45H42Z" transform="translate(8.865 9.903)"/>
    <path id="Path_22075" data-name="Path 22075" d="M48,46h4.9v2.45H48Z" transform="translate(10.215 9.903)"/>
    <path id="Path_22076" data-name="Path 22076" d="M30,46h4.9v2.45H30Z" transform="translate(6.164 9.903)"/>
  </g>
</svg>
