<svg xmlns="http://www.w3.org/2000/svg" xmlns:xlink="http://www.w3.org/1999/xlink" width="552.918" height="390.201" viewBox="0 0 552.918 390.201">
  <defs>
    <clipPath id="clip-path">
      <rect id="Rectangle_1188" data-name="Rectangle 1188" width="552.919" height="346.219" fill="none"/>
    </clipPath>
  </defs>
  <g id="Group_4611" data-name="Group 4611" transform="translate(-15878 -13953.96)">
    <g id="Group_4609" data-name="Group 4609">
      <g id="Group_4607" data-name="Group 4607" transform="translate(-895 -1098.04)">
        <path id="Path_15523" data-name="Path 15523" d="M750.161,406.332H455.932a12.061,12.061,0,0,1-12.06-12.061v-186.4a12.061,12.061,0,0,1,12.06-12.061H750.161a12.061,12.061,0,0,1,12.06,12.061v186.4a12.062,12.062,0,0,1-12.06,12.061" transform="translate(16440.693 14947.252)" fill="#283d47"/>
        <g id="Group_4598" data-name="Group 4598" transform="translate(16773 15052)">
          <g id="Group_4597" data-name="Group 4597" transform="translate(0 0)" clip-path="url(#clip-path)">
            <path id="Path_15444" data-name="Path 15444" d="M536.109,479.063a45.61,45.61,0,0,0-22.225-22.827c-9.828-4.6-31.764-2.465-31.764-2.465l-57.638-.119c1.178,5.063,4.935,18.063,7.741,22.439s6.95,8.062,11.951,9.478c6.12,1.731,12.6-.061,18.95-.47,11.171-.721,22.1,2.885,32.858,5.987s22.166,5.743,33.046,3.107c3.089-.748,6.324-2.125,7.825-4.927,1.667-3.115.668-6.964-.744-10.2" transform="translate(-328.971 -149.052)" fill="#dad9d1"/>
          </g>
        </g>
        <path id="Path_15445" data-name="Path 15445" d="M340.274,237.609s-6.556-.472-5.953,14.235a170.309,170.309,0,0,0,2.1,22.541s-.193,3.261-2.719,2.62-7.276-3.813-9.623-1.441c-2.433,2.46-1.568,6.234,1.66,10.678s9.943,14.443,10.546,15.35c.593.889.831,2.558-.96,2.4s-13.874-4.256-15.475,1.594,9.427,16.756,10.61,17.972,1.246,1.983.767,2.718-4.412-1.025-7.9-2.049-7.7-1.6-8.345,1.852,4.217,13.557,22.406,24.178l8.75,4.369,8.283-5.283c17.035-12.387,20.857-22.925,19.875-26.3s-5.124-2.375-8.489-1.008-7.1,3.511-7.652,2.828-.565-1.454.491-2.782,10.936-13.281,8.759-18.942-13.792-.377-15.557-.039-1.7-1.345-1.195-2.289c.51-.962,6.191-11.581,8.958-16.327s3.25-8.586.583-10.791c-2.572-2.126-6.982,1.507-9.43,2.4s-2.967-2.336-2.967-2.336a170.327,170.327,0,0,0-.161-22.638c-.87-14.694-7.5-13.508-7.5-13.508" transform="translate(16462.881 14940.063)" fill="#e8e7e1"/>
        <path id="Path_15446" data-name="Path 15446" d="M346.165,253.524s.017.1.035.307.04.517.07.9c.055.81.134,1.977.236,3.473.2,3.016.459,7.383.757,12.78.6,10.794,1.3,25.712,2.02,42.188s1.384,31.4,1.923,42.2c.274,5.386.5,9.75.65,12.784.075,1.5.132,2.666.173,3.476.016.387.027.686.036.9s0,.309,0,.309-.017-.1-.035-.306c-.017-.219-.041-.517-.07-.9-.055-.809-.134-1.976-.236-3.472-.2-3.016-.459-7.382-.757-12.78-.6-10.794-1.3-25.712-2.021-42.194S347.565,281.8,347.026,271c-.274-5.386-.5-9.75-.65-12.785-.075-1.5-.132-2.666-.173-3.476-.016-.386-.027-.686-.036-.9s0-.309,0-.309Z" transform="translate(16457.506 14937.32)" fill="#dad9d1"/>
        <path id="Path_15447" data-name="Path 15447" d="M333.8,289.144a2.842,2.842,0,0,1,.544.454c.337.306.81.763,1.388,1.333,1.155,1.144,2.708,2.766,4.388,4.587l4.28,4.684,1.3,1.412a2.885,2.885,0,0,1,.456.541,2.934,2.934,0,0,1-.548-.45c-.336-.307-.809-.764-1.382-1.341-1.143-1.156-2.675-2.8-4.354-4.619l-4.312-4.65-1.311-1.407a2.809,2.809,0,0,1-.452-.545Z" transform="translate(16459.635 14931.191)" fill="#dad9d1"/>
        <path id="Path_15448" data-name="Path 15448" d="M349.773,301.447c-.066-.065,3.134-3.416,7.147-7.484s7.32-7.315,7.386-7.249-3.134,3.416-7.147,7.485-7.32,7.315-7.385,7.248Z" transform="translate(16456.885 14931.609)" fill="#dad9d1"/>
        <path id="Path_15449" data-name="Path 15449" d="M349.729,333.149a3.067,3.067,0,0,1,.61-.387l1.711-.961c1.444-.811,3.435-1.938,5.587-3.261s4.066-2.578,5.442-3.5l1.633-1.089a2.96,2.96,0,0,1,.622-.368,2.963,2.963,0,0,1-.546.474c-.364.287-.9.693-1.574,1.178-1.344.974-3.24,2.268-5.4,3.591s-4.174,2.425-5.65,3.184c-.739.378-1.341.676-1.763.868a2.918,2.918,0,0,1-.67.272Z" transform="translate(16456.893 14925.266)" fill="#dad9d1"/>
        <path id="Path_15450" data-name="Path 15450" d="M332.22,324.419a2.58,2.58,0,0,1,.605.284c.378.2.92.5,1.586.882,1.332.757,3.16,1.822,5.17,3.017s3.818,2.293,5.12,3.1c.651.406,1.174.738,1.532.974a2.522,2.522,0,0,1,.539.4,2.619,2.619,0,0,1-.605-.285c-.378-.2-.921-.5-1.586-.881-1.332-.758-3.161-1.823-5.17-3.018s-3.818-2.293-5.12-3.1c-.65-.4-1.174-.738-1.532-.974a2.553,2.553,0,0,1-.538-.4Z" transform="translate(16459.906 14925.121)" fill="#dad9d1"/>
        <path id="Path_15451" data-name="Path 15451" d="M328.746,351.454a4.091,4.091,0,0,1,.77.373l2.037,1.123c1.712.962,4.066,2.31,6.656,3.816s4.924,2.888,6.607,3.9l1.983,1.215a4.151,4.151,0,0,1,.7.485,4.2,4.2,0,0,1-.77-.373l-2.036-1.123c-1.712-.961-4.067-2.31-6.656-3.818s-4.924-2.886-6.606-3.9l-1.984-1.215a4.22,4.22,0,0,1-.7-.485Z" transform="translate(16460.504 14920.469)" fill="#dad9d1"/>
        <path id="Path_15452" data-name="Path 15452" d="M350.947,361.532a4.94,4.94,0,0,1,.761-.51l2.127-1.295c1.795-1.094,4.27-2.612,6.955-4.364s5.082-3.394,6.806-4.6l2.045-1.421a4.915,4.915,0,0,1,.773-.49,4.718,4.718,0,0,1-.7.6c-.461.365-1.138.883-1.984,1.508-1.691,1.253-4.068,2.932-6.762,4.683s-5.189,3.245-7.017,4.289c-.915.519-1.66.931-2.182,1.2a4.794,4.794,0,0,1-.826.4Z" transform="translate(16456.684 14920.916)" fill="#dad9d1"/>
        <path id="Path_15453" data-name="Path 15453" d="M361.8,382.408H337.592l7.9,59.81H353.9l7.9-59.81Z" transform="translate(16458.98 14915.143)" fill="#dad9d1"/>
        <path id="Path_15454" data-name="Path 15454" d="M339.11,390.775c-.01.006.026.084.129.213a1.536,1.536,0,0,0,.584.418,2.935,2.935,0,0,0,2.557-.314c.978-.54,1.829-1.6,3.139-2.066a6.861,6.861,0,0,1,4.451.088,19.109,19.109,0,0,1,4.146,2.009,28.545,28.545,0,0,0,3.37,1.808,9.252,9.252,0,0,0,2.486.719,4.522,4.522,0,0,0,.7.048c.161,0,.244-.007.245-.02a12.654,12.654,0,0,1-3.321-1,33.284,33.284,0,0,1-3.3-1.865,18.334,18.334,0,0,0-4.216-2.074,7.1,7.1,0,0,0-4.7-.051,6.2,6.2,0,0,0-1.768,1.094,13.885,13.885,0,0,1-1.385,1.074,2.848,2.848,0,0,1-2.358.409,2.41,2.41,0,0,1-.767-.487Z" transform="translate(16458.721 14914.127)" fill="#f3f2ee"/>
        <path id="Path_15455" data-name="Path 15455" d="M340.176,403.681c.032.021.191-.246.57-.642a5.36,5.36,0,0,1,1.933-1.226,8.64,8.64,0,0,1,3.366-.508,35.449,35.449,0,0,1,4.212.575,14.527,14.527,0,0,0,4.313.179,11.891,11.891,0,0,0,3.394-.969,10.873,10.873,0,0,0,2.041-1.214,2.854,2.854,0,0,0,.646-.582,21.534,21.534,0,0,1-2.8,1.539,12.412,12.412,0,0,1-3.326.864,14.863,14.863,0,0,1-4.207-.208,31.731,31.731,0,0,0-4.264-.547,8.542,8.542,0,0,0-3.482.612,5.089,5.089,0,0,0-1.942,1.382,3.425,3.425,0,0,0-.367.537c-.07.13-.1.2-.089.208Z" transform="translate(16458.537 14912.237)" fill="#f3f2ee"/>
        <path id="Path_15456" data-name="Path 15456" d="M359.788,411.369a2.032,2.032,0,0,0-.667-.346,7.144,7.144,0,0,0-2.006-.431,12.822,12.822,0,0,0-3.033.173c-1.129.184-2.339.5-3.61.765a15.267,15.267,0,0,1-3.606.407,7.871,7.871,0,0,1-2.862-.619,6.615,6.615,0,0,1-2.171-1.616,1.884,1.884,0,0,0,.41.633,5.132,5.132,0,0,0,1.643,1.237,7.739,7.739,0,0,0,2.964.729,14.538,14.538,0,0,0,3.7-.384c1.285-.273,2.486-.594,3.591-.792a13.86,13.86,0,0,1,2.956-.253,11.044,11.044,0,0,1,2.689.5Z" transform="translate(16458.252 14910.446)" fill="#f3f2ee"/>
        <path id="Path_15457" data-name="Path 15457" d="M342.76,421.443a3.935,3.935,0,0,1,2.35-.237,11.314,11.314,0,0,1,2.459.917,9.344,9.344,0,0,0,3.192.88,9.574,9.574,0,0,0,5.79-1.342,8.25,8.25,0,0,0,1.441-1.109c.294-.314.446-.494.426-.512a21.5,21.5,0,0,1-2.008,1.379,9.915,9.915,0,0,1-5.616,1.19c-2.292-.13-4.051-1.5-5.64-1.678a3.6,3.6,0,0,0-1.826.158,1.2,1.2,0,0,0-.57.354Z" transform="translate(16458.092 14908.667)" fill="#f3f2ee"/>
        <path id="Path_15458" data-name="Path 15458" d="M344.389,434.906a4.646,4.646,0,0,0,2.018-.4c1.217-.406,2.723-1.34,4.482-2.039a7.3,7.3,0,0,1,2.571-.538,4.748,4.748,0,0,1,2.069.472,4.573,4.573,0,0,1,1.5,1.291,1.1,1.1,0,0,0-.23-.511,3.323,3.323,0,0,0-1.133-1.027,4.748,4.748,0,0,0-2.195-.59,7.215,7.215,0,0,0-2.718.534c-1.823.727-3.281,1.686-4.443,2.147-1.148.5-1.926.6-1.917.662Z" transform="translate(16457.813 14906.684)" fill="#f3f2ee"/>
        <path id="Path_15459" data-name="Path 15459" d="M345.822,442.049a5.644,5.644,0,0,0,1.533.5,28.175,28.175,0,0,0,7.715.758,5.729,5.729,0,0,0,1.6-.189c-.007-.12-2.454-.016-5.447-.316s-5.373-.866-5.4-.751Z" transform="translate(16457.564 14904.882)" fill="#f3f2ee"/>
        <path id="Path_15460" data-name="Path 15460" d="M886.786,309.935l-73.62,16.824-11.341-49.622,73.62-16.825,11.341,49.623Z" transform="translate(16379.097 14936.152)" fill="#f3f2ee"/>
        <path id="Path_15461" data-name="Path 15461" d="M875.9,260.968a5.379,5.379,0,0,1-.535.817l-1.639,2.264-6.136,8.259-20.5,27.158-.168.224-.254-.122-.611-.3-31.021-15.062-9.367-4.635-2.531-1.292a5.306,5.306,0,0,1-.862-.493,5.377,5.377,0,0,1,.922.368l2.587,1.176,9.461,4.438,31.108,14.881.612.295-.422.1c8.063-10.55,15.341-20.075,20.659-27.034,2.63-3.39,4.774-6.151,6.309-8.129l1.74-2.187a5.242,5.242,0,0,1,.644-.734Z" transform="translate(16379.019 14936.04)" fill="#dad9d1"/>
        <path id="Path_15462" data-name="Path 15462" d="M815.971,333.8c-.168-.086,3.813-8.153,8.892-18.016s9.335-17.792,9.5-17.7-3.813,8.151-8.893,18.017-9.334,17.79-9.5,17.7Z" transform="translate(16376.663 14929.653)" fill="#dad9d1"/>
        <path id="Path_15463" data-name="Path 15463" d="M867.576,290.575c.12-.147,7.134,5.356,15.663,12.288s15.352,12.675,15.233,12.821-7.131-5.354-15.665-12.29-15.35-12.672-15.231-12.82Z" transform="translate(16367.782 14930.945)" fill="#dad9d1"/>
        <path id="Path_15464" data-name="Path 15464" d="M529.876,136.643l-43.384-10.019,6.753-29.242L536.629,107.4l-6.753,29.242Z" transform="translate(16433.359 14964.189)" fill="#f3f2ee"/>
        <path id="Path_15465" data-name="Path 15465" d="M538.1,107.864a3.175,3.175,0,0,1-.493.3l-1.452.779-5.381,2.8-17.861,9.134-.147.075-.1-.13-.249-.315-12.58-15.972-3.775-4.869-1.011-1.336a3.057,3.057,0,0,1-.33-.484,3.278,3.278,0,0,1,.394.433l1.07,1.289c.944,1.165,2.261,2.793,3.877,4.79l12.673,15.9.249.315-.25-.055,17.915-9.026,5.438-2.688,1.487-.712a2.964,2.964,0,0,1,.53-.224Z" transform="translate(16431.943 14964.109)" fill="#dad9d1"/>
        <path id="Path_15466" data-name="Path 15466" d="M486.562,130.21c-.067-.089,4.121-3.344,9.353-7.269s9.529-7.036,9.6-6.946-4.12,3.343-9.354,7.27-9.529,7.035-9.6,6.945Z" transform="translate(16433.348 14960.987)" fill="#dad9d1"/>
        <path id="Path_15467" data-name="Path 15467" d="M526.969,119.575c.1-.047,2.407,4.677,5.148,10.549S537,140.8,536.9,140.845s-2.406-4.675-5.148-10.549-4.882-10.673-4.781-10.721Z" transform="translate(16426.395 14960.37)" fill="#dad9d1"/>
        <path id="Path_15468" data-name="Path 15468" d="M829.4,127.562l-31.7,13.622-9.182-21.366,31.7-13.622,9.182,21.366Z" transform="translate(16381.386 14962.673)" fill="#f3f2ee"/>
        <path id="Path_15469" data-name="Path 15469" d="M820.473,106.454a2.361,2.361,0,0,1-.173.411c-.139.291-.322.673-.551,1.152-.506,1.026-1.211,2.458-2.077,4.217-1.795,3.576-4.253,8.47-6.974,13.893l-.057.114-.125-.034-.3-.082-15.18-4.215-4.591-1.312-1.244-.372a2.391,2.391,0,0,1-.427-.151,2.529,2.529,0,0,1,.445.089l1.259.315,4.617,1.216,15.206,4.126.3.083-.181.08c2.755-5.405,5.241-10.285,7.058-13.85.9-1.739,1.638-3.157,2.166-4.172l.6-1.126a2.355,2.355,0,0,1,.229-.383Z" transform="translate(16381.342 14962.628)" fill="#dad9d1"/>
        <path id="Path_15470" data-name="Path 15470" d="M799.863,145.063c-.083-.025,1.042-3.978,2.513-8.828s2.73-8.764,2.813-8.739-1.042,3.977-2.514,8.829-2.73,8.763-2.812,8.738Z" transform="translate(16379.435 14959.008)" fill="#dad9d1"/>
        <path id="Path_15471" data-name="Path 15471" d="M818.884,121.7c.041-.076,3.646,1.82,8.051,4.233s7.942,4.431,7.9,4.507-3.646-1.819-8.052-4.233-7.942-4.431-7.9-4.507Z" transform="translate(16376.161 14960.005)" fill="#dad9d1"/>
        <path id="Path_15472" data-name="Path 15472" d="M873.95,366.444a26.216,26.216,0,0,0-11.217-3.861c-1.831-.188-3.834-.135-5.305.975a1.091,1.091,0,0,0-.546.969,1.183,1.183,0,0,0,.518.663,16.037,16.037,0,0,0,16.549,1.253" transform="translate(16369.624 14918.568)" fill="#f9354b"/>
        <path id="Path_15473" data-name="Path 15473" d="M874.675,363.226a54.649,54.649,0,0,1-7.244-6.374,18.33,18.33,0,0,1-4.543-8.4,3.394,3.394,0,0,1,.359-2.812c5.774,4.511,10.311,10.343,11.428,17.585" transform="translate(16368.611 14921.469)" fill="#f9354b"/>
        <path id="Path_15474" data-name="Path 15474" d="M877.352,363.6a26.21,26.21,0,0,1,.134-9.512,12.857,12.857,0,0,1,5.066-7.848c1,2.331.57,5.019-.134,7.457a36.209,36.209,0,0,1-5.023,10.576" transform="translate(16366.163 14921.365)" fill="#f9354b"/>
        <path id="Path_15475" data-name="Path 15475" d="M881.326,379.463a16.568,16.568,0,0,0-8.995,4.553,17.018,17.018,0,0,0-5.146,8.832c3.37-.208,6.23-2.585,8.3-5.251s3.51-5.589,5.789-8.082" transform="translate(16367.849 14915.649)" fill="#f9354b"/>
        <path id="Path_15476" data-name="Path 15476" d="M885.429,377.061a22.184,22.184,0,0,1,2.562-20.985,26.712,26.712,0,0,1-2.562,20.985" transform="translate(16364.976 14919.674)" fill="#f9354b"/>
        <path id="Path_15477" data-name="Path 15477" d="M891.548,392.173A16.039,16.039,0,0,0,876.21,401c-.19.38-.358.863-.1,1.2a1.14,1.14,0,0,0,1.018.3c3.022-.2,5.7-2.014,7.912-4.086s4.136-4.463,6.58-6.254" transform="translate(16366.336 14913.467)" fill="#f9354b"/>
        <path id="Path_15478" data-name="Path 15478" d="M894.229,387.176a28.561,28.561,0,0,1-.285-15.957c.561-2.054,1.506-4.217,3.405-5.18a.67.67,0,0,1,.521-.091.685.685,0,0,1,.329.382,9.6,9.6,0,0,1,.8,4.578,28.774,28.774,0,0,1-.717,4.636c-.6,2.832-.917,5.876-2.471,8.32a16.748,16.748,0,0,0-.988,1.827c-.294.621-.3.839-.566,1.333" transform="translate(16363.416 14917.979)" fill="#f9354b"/>
        <path id="Path_15479" data-name="Path 15479" d="M918.295,391.5a20.582,20.582,0,0,1,3.606-16.919c.258-.336.6-.7,1.025-.658.647.06.816.923.786,1.572a30.564,30.564,0,0,1-5.418,16" transform="translate(16359.148 14916.603)" fill="#f9354b"/>
        <path id="Path_15480" data-name="Path 15480" d="M920.566,395.415a24.61,24.61,0,0,0,20.193-4.107,16.345,16.345,0,0,0-10.932-1.341,15.59,15.59,0,0,0-9.261,5.449" transform="translate(16358.663 14913.91)" fill="#f9354b"/>
        <path id="Path_15481" data-name="Path 15481" d="M922.384,389.94a23.338,23.338,0,0,1,18.327-10.6,11.288,11.288,0,0,1-5.994,6.628,33.278,33.278,0,0,1-8.8,2.573c-1.171.227-2.777.477-3.535,1.4" transform="translate(16358.351 14915.67)" fill="#f9354b"/>
        <path id="Path_15482" data-name="Path 15482" d="M918.318,365.932a53.224,53.224,0,0,0,2.345-10.733,17.883,17.883,0,0,0-2.138-10.616,23.369,23.369,0,0,0-.313,21.718" transform="translate(16359.503 14921.651)" fill="#f9354b"/>
        <path id="Path_15483" data-name="Path 15483" d="M933.286,360.087c4.147-7.538,12.608-13.558,21.17-14.4-3.3,8.224-12.31,14.579-21.17,14.4" transform="translate(16356.475 14921.462)" fill="#f9354b"/>
        <path id="Path_15484" data-name="Path 15484" d="M930.135,364.607c6.185.943,11.454,4.893,17.234,7.287a7.721,7.721,0,0,0,3.9.746,3.05,3.05,0,0,0,1.91-5.4,8.353,8.353,0,0,0-2.831-1.716c-6.295-2.621-13.046-2.687-19.677-1.1" transform="translate(16357.017 14918.418)" fill="#f9354b"/>
        <path id="Path_15485" data-name="Path 15485" d="M925.812,370.042c1.4.4,1.879,1.126,2.987,2.07a32.241,32.241,0,0,0,13.069,6.714c.5.123,1.155.173,1.4-.278.215-.394-.058-.871-.339-1.222a17.99,17.99,0,0,0-7.891-5.357c-3.015-1.123-5.629-2.477-9.229-2.187" transform="translate(16357.761 14917.321)" fill="#f9354b"/>
        <path id="Path_15486" data-name="Path 15486" d="M920.934,338.32a24.732,24.732,0,0,0,18.962,6.451,1.3,1.3,0,0,0,.864-.31c.477-.519-.1-1.321-.652-1.754-5.575-4.347-12.329-6.148-19.174-4.387" transform="translate(16358.6 14922.844)" fill="#f9354b"/>
        <path id="Path_15487" data-name="Path 15487" d="M926.718,335.272a26.427,26.427,0,0,1,23.661-3.9,18.783,18.783,0,0,1-11.275,4.949,35.67,35.67,0,0,1-12.386-1.046" transform="translate(16357.604 14924.14)" fill="#f9354b"/>
        <path id="Path_15488" data-name="Path 15488" d="M923.755,318.322c-.548-5.564-.192-9.957-.579-15.548-.031-.447-.127-.984-.545-1.145-.581-.224-1.066.491-1.258,1.085a17.825,17.825,0,0,0,2.372,15.485" transform="translate(16358.665 14929.05)" fill="#f9354b"/>
        <path id="Path_15489" data-name="Path 15489" d="M923.935,318.907a32.734,32.734,0,0,0,9.218-8.959c1.821-2.491,3.355-5.476,2.941-8.533a8.816,8.816,0,0,0-6.648,3.3,18.549,18.549,0,0,0-3.39,6.819c-.738,2.448-1.254,4.964-2.12,7.371" transform="translate(16358.084 14929.079)" fill="#f9354b"/>
        <path id="Path_15490" data-name="Path 15490" d="M934.849,316.607a74.345,74.345,0,0,0,22.685-13.377c-2.71-1.091-5.812-.438-8.521.656a26.872,26.872,0,0,0-14.282,12.66" transform="translate(16356.226 14928.863)" fill="#f9354b"/>
        <path id="Path_15491" data-name="Path 15491" d="M927.011,324.855a46.113,46.113,0,0,0,12.6.062,53.514,53.514,0,0,0,11.759-3.907,1.381,1.381,0,0,0,.8-.607.919.919,0,0,0-.286-1.006,2.43,2.43,0,0,0-1-.47,21.768,21.768,0,0,0-12.708.759,58.968,58.968,0,0,0-11.157,5.169" transform="translate(16357.555 14926.175)" fill="#f9354b"/>
        <path id="Path_15492" data-name="Path 15492" d="M897.694,334.855a22.283,22.283,0,0,1-.2-18.44c1.738,2.647,1.95,6.018,1.632,9.168s-1.277,6.393-1.338,9.559" transform="translate(16362.96 14926.498)" fill="#f9354b"/>
        <path id="Path_15493" data-name="Path 15493" d="M880.372,331.734a25.723,25.723,0,0,0-19.112,8.142,17.866,17.866,0,0,0,10.466-1.94,53.258,53.258,0,0,0,8.968-6" transform="translate(16368.869 14923.863)" fill="#f9354b"/>
        <path id="Path_15494" data-name="Path 15494" d="M871.339,328.565c-3.489-.282-6.847-.715-10.2.314a12.237,12.237,0,0,0-7.776,6.594,18.43,18.43,0,0,0,9.564-1.806,54.985,54.985,0,0,0,8.414-5.1" transform="translate(16370.228 14924.465)" fill="#f9354b"/>
        <path id="Path_15495" data-name="Path 15495" d="M884.547,327.665c-3.139-2.057-6.363-4.152-10.019-5s-7.891-.222-10.439,2.533c2.958,1.736,6.548,1.941,9.98,1.938s7.636-.041,10.871,1.1" transform="translate(16368.382 14925.484)" fill="#f9354b"/>
        <path id="Path_15496" data-name="Path 15496" d="M887.556,324.417c-5.367-5.27-7.4-14.737-5.242-21.942a33.444,33.444,0,0,1,5.242,21.942" transform="translate(16365.392 14928.897)" fill="#f9354b"/>
        <path id="Path_15497" data-name="Path 15497" d="M906.646,307.344c1.012-2.354,1.725-4.823,2.632-7.219a20.754,20.754,0,0,1,3.753-6.654,9.88,9.88,0,0,1,6.647-3.444,26.772,26.772,0,0,1-12.9,17.354" transform="translate(16361.059 14931.039)" fill="#f9354b"/>
        <path id="Path_15498" data-name="Path 15498" d="M900.535,312.735c-1.674-2.306-3.61-5.435-5.881-7.157a9.842,9.842,0,0,0-8-2.1,18.635,18.635,0,0,0,13.882,9.258" transform="translate(16364.499 14928.759)" fill="#f9354b"/>
        <path id="Path_15499" data-name="Path 15499" d="M903.475,307.581a39.873,39.873,0,0,1-2.648-8.575,13.372,13.372,0,0,1,1.343-8.718c2.946,5.569,3.9,11.547,1.456,17.356" transform="translate(16362.094 14930.994)" fill="#f9354b"/>
        <path id="Path_15500" data-name="Path 15500" d="M906.679,287.835c1.668-5.521,6.724-9.585,12.181-11.45a4.544,4.544,0,0,1,2.135-.32,1.853,1.853,0,0,1,1.574,1.314c.2.939-.576,1.781-1.306,2.4a41.476,41.476,0,0,1-14.584,8.052" transform="translate(16361.053 14933.447)" fill="#f9354b"/>
        <path id="Path_15501" data-name="Path 15501" d="M906.733,280.978a39.577,39.577,0,0,1,1.592-10.543c1.158-3.373,3.39-6.536,6.635-8.013.552,3.595-1.033,7.171-2.947,10.265s-4.219,6.013-5.367,9.464" transform="translate(16361.059 14935.789)" fill="#f9354b"/>
        <path id="Path_15502" data-name="Path 15502" d="M904.495,283.772c-1.379-4.023-1.522-9.134-3.931-12.638-1.684-2.45-4.381-4.12-5.832-6.714a10.215,10.215,0,0,0,.339,7.623,22.067,22.067,0,0,0,4.457,6.38c1.783,1.9,3.309,3.337,4.967,5.35" transform="translate(16363.21 14935.445)" fill="#f9354b"/>
        <path id="Path_15503" data-name="Path 15503" d="M906.636,405.985c-.108,0-.2-26.839-.208-59.938s.074-59.946.18-59.946.2,26.833.208,59.945-.074,59.939-.18,59.939Z" transform="translate(16361.097 14931.715)" fill="#0d161d"/>
        <path id="Path_15504" data-name="Path 15504" d="M930.125,333.8a5.749,5.749,0,0,1-1.009.379l-2.776.936c-2.342.8-5.559,1.954-9.05,3.384-3.457,1.483-6.717,2.687-8.573,4.3a6.3,6.3,0,0,0-1.723,2.279c-.267.63-.314,1.015-.349,1.009a.783.783,0,0,1,.011-.281,4.344,4.344,0,0,1,.2-.783,6.057,6.057,0,0,1,1.682-2.429,15.068,15.068,0,0,1,3.72-2.311c1.488-.695,3.137-1.419,4.888-2.138,3.5-1.436,6.743-2.553,9.111-3.286,1.184-.369,2.149-.641,2.82-.82a5.617,5.617,0,0,1,1.051-.234Z" transform="translate(16361.061 14923.508)" fill="#0d161d"/>
        <path id="Path_15505" data-name="Path 15505" d="M938.2,310.988a1.6,1.6,0,0,1-.283.3l-.861.809c-.8.727-1.888,1.716-3.215,2.92l-10.7,9.529c-4.178,3.718-7.787,7.272-10.289,9.947-1.253,1.335-2.239,2.442-2.913,3.215l-.777.888a1.575,1.575,0,0,1-.291.294,1.69,1.69,0,0,1,.23-.344c.163-.216.4-.536.723-.936.638-.8,1.6-1.941,2.827-3.3a135.759,135.759,0,0,1,10.231-10.05c4.193-3.709,8.007-7.042,10.779-9.444l3.3-2.828.91-.754a1.7,1.7,0,0,1,.335-.243Z" transform="translate(16360.677 14927.433)" fill="#0d161d"/>
        <path id="Path_15506" data-name="Path 15506" d="M920.654,330c-.109-.049.763-2.064,1.633-4.612s1.291-4.7,1.4-4.68a15.755,15.755,0,0,1-1.035,4.8,31.372,31.372,0,0,1-1.3,3.226,5.007,5.007,0,0,1-.7,1.262Z" transform="translate(16358.649 14925.759)" fill="#0d161d"/>
        <path id="Path_15507" data-name="Path 15507" d="M903.475,347.481a4.783,4.783,0,0,1-.643-.747l-1.649-2.115c-1.385-1.79-3.3-4.261-5.446-6.966s-4.121-5.131-5.55-6.887l-1.685-2.086a4.812,4.812,0,0,1-.581-.8,4.811,4.811,0,0,1,.7.7c.43.466,1.038,1.152,1.78,2.008,1.484,1.711,3.493,4.113,5.644,6.821s4.031,5.209,5.361,7.044c.666.917,1.2,1.665,1.552,2.19a4.748,4.748,0,0,1,.522.836Z" transform="translate(16364.281 14924.524)" fill="#0d161d"/>
        <path id="Path_15508" data-name="Path 15508" d="M899.941,341.894a9.458,9.458,0,0,1-2.153-4.033,11.536,11.536,0,0,1-.489-4.067l.171.013c-.077.311-.132.474-.163.47s-.032-.178-.007-.5l.171.014a18.491,18.491,0,0,0,.688,3.956,30.218,30.218,0,0,0,1.782,4.144Z" transform="translate(16362.672 14923.51)" fill="#0d161d"/>
        <path id="Path_15509" data-name="Path 15509" d="M890.063,333.15a6.909,6.909,0,0,0-1.505-.874,10.045,10.045,0,0,0-4.176-.332,25.771,25.771,0,0,0-4.205.679,12.614,12.614,0,0,1-1.73.415,6.019,6.019,0,0,1,1.657-.679,19.113,19.113,0,0,1,4.25-.8,9.1,9.1,0,0,1,4.308.464,2.66,2.66,0,0,1,1.4,1.128Z" transform="translate(16365.911 14923.902)" fill="#0d161d"/>
        <path id="Path_15510" data-name="Path 15510" d="M887.184,330.535c-.029.06-.875-.351-2.3-.839a23.2,23.2,0,0,0-11.613-.885c-1.485.266-2.384.544-2.4.48a2.167,2.167,0,0,1,.61-.261,14.24,14.24,0,0,1,1.74-.488,20.482,20.482,0,0,1,11.761.9,14.4,14.4,0,0,1,1.647.747,2.153,2.153,0,0,1,.564.35Z" transform="translate(16367.217 14924.493)" fill="#0d161d"/>
        <path id="Path_15511" data-name="Path 15511" d="M906.023,318.263a95.14,95.14,0,0,1-2.985-11.771,94.835,94.835,0,0,1,2.985,11.771Z" transform="translate(16361.682 14928.206)" fill="#0d161d"/>
        <path id="Path_15512" data-name="Path 15512" d="M905.819,319.394a28.347,28.347,0,0,0-1.863-3.5,15.4,15.4,0,0,0-2.742-2.829,2.544,2.544,0,0,1,1.057.546,8.511,8.511,0,0,1,2,2.061,7.764,7.764,0,0,1,1.547,3.718Z" transform="translate(16361.994 14927.075)" fill="#0d161d"/>
        <path id="Path_15513" data-name="Path 15513" d="M901.569,405.479c-.042.007-.122-.645-.424-1.784a25.421,25.421,0,0,0-1.793-4.648,64.316,64.316,0,0,0-9.516-13.406c-2.124-2.427-4.186-4.717-5.935-6.91a48.531,48.531,0,0,1-4.245-6.12,29.489,29.489,0,0,1-2.142-4.543c-.2-.56-.342-1-.421-1.3a2.135,2.135,0,0,1-.109-.464c.035-.01.229.615.671,1.709a33.227,33.227,0,0,0,2.238,4.458,51.422,51.422,0,0,0,4.286,6.036c1.756,2.17,3.82,4.447,5.949,6.878a60.919,60.919,0,0,1,9.47,13.542,23.139,23.139,0,0,1,1.693,4.73,12.93,12.93,0,0,1,.238,1.346,2.193,2.193,0,0,1,.04.474Z" transform="translate(16366.163 14917.913)" fill="#0d161d"/>
        <path id="Path_15514" data-name="Path 15514" d="M927.872,384.707a9.977,9.977,0,0,1-1.111.623,24.216,24.216,0,0,0-2.881,1.9,33.186,33.186,0,0,0-3.784,3.451c-1.329,1.4-2.7,3.034-4.092,4.779-2.791,3.5-5.4,6.6-6.965,9.076-.794,1.227-1.372,2.262-1.749,2.987a9.711,9.711,0,0,1-.611,1.119,1.027,1.027,0,0,1,.1-.315c.083-.2.195-.5.373-.871a28.632,28.632,0,0,1,1.653-3.067,100.155,100.155,0,0,1,6.895-9.172c1.4-1.749,2.784-3.382,4.137-4.783a30.8,30.8,0,0,1,3.877-3.423,20.215,20.215,0,0,1,2.976-1.818c.368-.185.667-.3.867-.384a1.036,1.036,0,0,1,.314-.106Z" transform="translate(16361.054 14914.747)" fill="#0d161d"/>
        <path id="Path_15515" data-name="Path 15515" d="M929.734,394.081a16.226,16.226,0,0,1-2.348.341,30.94,30.94,0,0,0-5.569,1.1,16.719,16.719,0,0,0-4.985,2.616c-1.149.888-1.691,1.623-1.744,1.58a1.806,1.806,0,0,1,.348-.541,8.828,8.828,0,0,1,1.224-1.252,15.063,15.063,0,0,1,5.039-2.773,25.106,25.106,0,0,1,5.66-1,12.909,12.909,0,0,1,2.376-.069Z" transform="translate(16359.606 14913.139)" fill="#0d161d"/>
        <path id="Path_15516" data-name="Path 15516" d="M915.914,398.208c-.122-.069.936-1.685,1.756-3.859.771-2.194.951-4.117,1.09-4.095a3.762,3.762,0,0,1-.039,1.259,13.509,13.509,0,0,1-.685,2.968,14.349,14.349,0,0,1-1.363,2.721,3.762,3.762,0,0,1-.759,1.005Z" transform="translate(16359.466 14913.792)" fill="#0d161d"/>
        <path id="Path_15517" data-name="Path 15517" d="M934.738,359.524a1.791,1.791,0,0,1-.376.2l-1.1.5c-.483.207-1.069.469-1.729.818s-1.438.695-2.244,1.179l-1.281.729c-.444.254-.884.558-1.351.85-.945.574-1.89,1.278-2.9,2a49.756,49.756,0,0,0-11.168,11.556c-.685,1.034-1.359,2-1.9,2.966-.276.477-.565.926-.8,1.379s-.465.888-.684,1.3c-.456.823-.782,1.608-1.1,2.283s-.569,1.267-.758,1.758c-.189.454-.341.824-.464,1.119a1.785,1.785,0,0,1-.186.383,1.747,1.747,0,0,1,.113-.408c.105-.3.237-.684.4-1.148.17-.5.393-1.106.7-1.789s.612-1.484,1.055-2.319q.319-.636.666-1.325c.234-.459.517-.916.79-1.4.531-.977,1.2-1.96,1.881-3.007a47.954,47.954,0,0,1,11.249-11.64c1.024-.719,1.983-1.418,2.941-1.984.474-.289.921-.587,1.371-.838l1.3-.71c.82-.471,1.606-.809,2.281-1.133s1.272-.575,1.765-.762l1.133-.436a1.758,1.758,0,0,1,.406-.127Z" transform="translate(16361.052 14919.08)" fill="#0d161d"/>
        <path id="Path_15518" data-name="Path 15518" d="M920.307,372.516a2.7,2.7,0,0,1,.922-1.373,5.822,5.822,0,0,1,3.716-1.427,10.178,10.178,0,0,1,3.911.764,5.534,5.534,0,0,1,1.479.719,9.2,9.2,0,0,1-1.568-.46,11.806,11.806,0,0,0-3.808-.635,6.053,6.053,0,0,0-3.55,1.246,11.006,11.006,0,0,0-1.1,1.165Z" transform="translate(16358.709 14917.326)" fill="#0d161d"/>
        <path id="Path_15519" data-name="Path 15519" d="M917.279,374.764a9.919,9.919,0,0,0,.818-7.017,2.262,2.262,0,0,1,.435,1,7.1,7.1,0,0,1-.6,5.144c-.328.593-.618.9-.654.873Z" transform="translate(16359.23 14917.665)" fill="#0d161d"/>
        <path id="Path_15520" data-name="Path 15520" d="M884.289,418.266c.579,10.257,3.669,20.688,8.423,31.235h20.674c4.533-10.442,7.411-20.858,7.922-31.235Z" transform="translate(16364.906 14908.972)" fill="#283d47"/>
        <path id="Path_15521" data-name="Path 15521" d="M918.637,438.273c0,.107-6.806.195-15.2.195s-15.2-.088-15.2-.195,6.8-.194,15.2-.194,15.2.086,15.2.194Z" transform="translate(16364.228 14905.563)" fill="#fafaf8"/>
        <path id="Path_15522" data-name="Path 15522" d="M918.474,442.76c0,.108-6.381.195-14.251.195s-14.253-.087-14.253-.195,6.38-.193,14.253-.193,14.251.087,14.251.193Z" transform="translate(16363.929 14904.79)" fill="#fafaf8"/>
        <path id="Path_15524" data-name="Path 15524" d="M759.016,452.086H443.579a14.736,14.736,0,0,1-14.735-14.735v-3.685H773.752v3.685a14.735,14.735,0,0,1-14.735,14.735" transform="translate(16443.279 14906.322)" fill="#283d47"/>
        <path id="Path_15525" data-name="Path 15525" d="M754.562,383.695H454.194V205.913H754.562V383.695" transform="translate(16438.916 14945.514)" fill="#0d161d"/>
        <path id="Path_15526" data-name="Path 15526" d="M598.225,431.281l4.28,6.808H662.73l3.975-6.808Z" transform="translate(16414.131 14906.732)" fill="#0d161d"/>
        <path id="Path_15527" data-name="Path 15527" d="M747.569,384.377H464.376a2.711,2.711,0,0,1-2.71-2.711V215.892a2.71,2.71,0,0,1,2.71-2.71H747.569a2.71,2.71,0,0,1,2.71,2.71V381.667a2.71,2.71,0,0,1-2.71,2.71" transform="translate(16437.631 14944.263)" fill="#e8e7e1"/>
        <path id="Path_15528" data-name="Path 15528" d="M749.906,387.286H461.293l.309-158.651h288.3V387.286" transform="translate(16437.695 14941.604)" fill="#fafaf8"/>
        <path id="Path_15529" data-name="Path 15529" d="M489.3,220.689a2.3,2.3,0,1,1-2.306-2.3,2.306,2.306,0,0,1,2.306,2.3Z" transform="translate(16433.668 14943.367)" fill="#0d161d"/>
        <path id="Path_15530" data-name="Path 15530" d="M472.425,220.689a2.3,2.3,0,1,1-2.3-2.3,2.3,2.3,0,0,1,2.3,2.3Z" transform="translate(16436.572 14943.367)" fill="#0d161d"/>
        <path id="Path_15531" data-name="Path 15531" d="M480.525,220.689a2.305,2.305,0,1,1-2.3-2.3,2.3,2.3,0,0,1,2.3,2.3Z" transform="translate(16435.18 14943.367)" fill="#0d161d"/>
        <path id="Path_15532" data-name="Path 15532" d="M759.485,431.238c0,.114-70.658.206-157.8.206-87.172,0-157.815-.092-157.815-.206s70.643-.206,157.815-.206c87.14,0,157.8.092,157.8.206" transform="translate(16440.693 14906.775)" fill="#0d161d"/>
        <path id="Path_15533" data-name="Path 15533" d="M573.142,303.264l117.419-1.1L694,381.992l-121.588-.874.729-77.853" transform="translate(16418.574 14928.95)" fill="#f9354b"/>
        <path id="Path_15534" data-name="Path 15534" d="M573.294,293.825l55.478-45.083a6.384,6.384,0,0,1,8.061.009l53.879,43.977-117.419,1.1" transform="translate(16418.422 14938.39)" fill="#f9354b"/>
        <path id="Path_15535" data-name="Path 15535" d="M573.294,293.825l55.478-45.083a6.383,6.383,0,0,1,8.061.009l53.879,43.977-117.419,1.1" transform="translate(16418.422 14938.39)" fill="#ba1927"/>
        <path id="Path_15536" data-name="Path 15536" d="M572.413,388.083c-.147-.137,9.232-10.42,20.946-22.966s21.332-22.608,21.479-22.471-9.23,10.419-20.947,22.967-21.331,22.606-21.478,22.47" transform="translate(16418.574 14921.984)" fill="#0d161d"/>
        <path id="Path_15537" data-name="Path 15537" d="M710.866,389.163c-.15.134-9.326-9.9-20.491-22.416s-20.1-22.769-19.951-22.9,9.323,9.9,20.494,22.419,20.1,22.766,19.949,22.9Z" transform="translate(16401.709 14921.778)" fill="#0d161d"/>
        <path id="Path_15538" data-name="Path 15538" d="M631.849,349.392,614.8,335.962c.137-.173.2-.269.189-.281h0a1.131,1.131,0,0,0-.27.215l-41.422-32.631,117.419-1.1-58.864,47.225" transform="translate(16418.422 14928.95)" fill="#730b16"/>
        <path id="Path_15539" data-name="Path 15539" d="M623.41,342.927l-.085-.067a1.131,1.131,0,0,1,.27-.215h0c.014.012-.051.108-.189.281" transform="translate(16409.813 14921.984)" fill="#04060a"/>
        <path id="Path_15540" data-name="Path 15540" d="M580.394,300.827l-.26-36.674,102.815-1.429,1.239,38.584-51.17,40.681-52.624-41.163Z" transform="translate(16417.244 14935.737)" fill="#fafaf8"/>
        <path id="Path_15541" data-name="Path 15541" d="M580.365,300.781s.339.245.974.732,1.58,1.218,2.8,2.162l10.642,8.263L633.1,341.8h-.219L684.027,301.1l-.08.174c-.237-7.362-.486-15.083-.739-22.942-.17-5.29-.337-10.517-.5-15.643l.218.208-102.817,1.353.137-.139c.053,11.53.094,20.687.123,26.973.007,3.138.012,5.556.016,7.2q0,1.219,0,1.861c0,.419-.012.637-.012.637s-.014-.207-.022-.62-.017-1.041-.031-1.847c-.02-1.642-.049-4.054-.086-7.184-.06-6.3-.149-15.47-.259-27.022v-.137l.137,0,102.814-1.505.211,0,.006.211c.166,5.124.334,10.352.5,15.642.252,7.859.5,15.58.734,22.942l0,.108-.084.066L633.1,342.082l-.109.087-.109-.086-38.266-30.034-10.566-8.325-2.758-2.187c-.62-.5-.926-.756-.926-.756Z" transform="translate(16417.273 14935.782)" fill="#0d161d"/>
        <path id="Path_15542" data-name="Path 15542" d="M670.141,285.052c0,.119-15.723.344-35.115.5s-35.12.19-35.121.071,15.719-.344,35.118-.5,35.118-.19,35.119-.07Z" transform="translate(16413.842 14931.907)" fill="#0d161d"/>
        <path id="Path_15543" data-name="Path 15543" d="M670.166,297.564c0,.119-15.722.344-35.115.5s-35.12.19-35.122.07,15.72-.344,35.119-.5,35.117-.19,35.118-.071Z" transform="translate(16413.838 14929.755)" fill="#0d161d"/>
        <path id="Path_15544" data-name="Path 15544" d="M670.2,311.985c0,.119-15.722.344-35.115.5s-35.12.19-35.121.07,15.719-.344,35.118-.5,35.117-.19,35.118-.071Z" transform="translate(16413.834 14927.273)" fill="#0d161d"/>
        <path id="Path_15545" data-name="Path 15545" d="M670.9,326.406c0,.118-15,.338-33.5.488s-33.507.176-33.508.058,15-.338,33.5-.488,33.5-.176,33.5-.057Z" transform="translate(16413.156 14924.792)" fill="#0d161d"/>
        <path id="Path_15546" data-name="Path 15546" d="M660.541,339.092a1.561,1.561,0,0,1-.411.047l-1.181.05-4.343.108-14.329.26c-5.6.105-10.669.138-14.336.135l-4.345-.03-1.181-.03a1.5,1.5,0,0,1-.412-.04,1.512,1.512,0,0,1,.411-.047l1.181-.051,4.343-.108,14.331-.26c5.6-.105,10.666-.137,14.334-.134l4.345.029,1.182.03a1.484,1.484,0,0,1,.412.041Z" transform="translate(16410.385 14922.613)" fill="#0d161d"/>
        <g id="Group_4600" data-name="Group 4600" transform="translate(16773 15052)">
          <g id="Group_4599" data-name="Group 4599" transform="translate(0 0)" clip-path="url(#clip-path)">
            <path id="Path_15547" data-name="Path 15547" d="M649.892,351.27a129.843,129.843,0,0,1-14.975.031,130.34,130.34,0,0,1,14.975-.031Z" transform="translate(-365.183 -131.465)" fill="#0d161d"/>
            <path id="Path_15548" data-name="Path 15548" d="M862.018,455.016c0,.12-123.807.216-276.5.216-152.741,0-276.522-.1-276.522-.216s123.781-.215,276.522-.215c152.688,0,276.5.1,276.5.215Z" transform="translate(-309.099 -149.315)" fill="#0d161d"/>
          </g>
        </g>
        <path id="Path_15549" data-name="Path 15549" d="M669.667,262.333c.118.012.169.484.113,1.052s-.2,1.02-.317,1.009-.169-.482-.112-1.052.2-1.022.316-1.009Z" transform="translate(16401.896 14935.805)" fill="#0d161d"/>
        <path id="Path_15550" data-name="Path 15550" d="M670.929,252.593a9.73,9.73,0,0,1-.614,4.024,9.732,9.732,0,0,1,.614-4.024Z" transform="translate(16401.738 14937.48)" fill="#0d161d"/>
        <path id="Path_15551" data-name="Path 15551" d="M672.841,242.961a9.7,9.7,0,0,1-.882,3.973,9.7,9.7,0,0,1,.882-3.973Z" transform="translate(16401.451 14939.139)" fill="#0d161d"/>
        <path id="Path_15552" data-name="Path 15552" d="M675.445,233.5a9.727,9.727,0,0,1-1.179,3.9,9.73,9.73,0,0,1,1.179-3.9Z" transform="translate(16401.053 14940.767)" fill="#0d161d"/>
        <path id="Path_15553" data-name="Path 15553" d="M678.812,224.287a9.723,9.723,0,0,1-1.5,3.783,9.709,9.709,0,0,1,1.5-3.783Z" transform="translate(16400.527 14942.352)" fill="#0d161d"/>
        <path id="Path_15554" data-name="Path 15554" d="M683,215.437a9.716,9.716,0,0,1-1.852,3.62,4.958,4.958,0,0,1,.734-1.908c.513-1,1.014-1.769,1.119-1.711Z" transform="translate(16399.865 14943.875)" fill="#0d161d"/>
        <path id="Path_15555" data-name="Path 15555" d="M688.065,207.058a5.018,5.018,0,0,1-.954,1.809c-.6.948-1.167,1.667-1.268,1.6a4.992,4.992,0,0,1,.907-1.84c.627-.938,1.217-1.642,1.315-1.574Z" transform="translate(16399.057 14945.317)" fill="#0d161d"/>
        <path id="Path_15556" data-name="Path 15556" d="M694.043,199.319c.089.079-.419.841-1.134,1.7s-1.372,1.5-1.466,1.427.414-.835,1.135-1.7,1.377-1.507,1.465-1.427Z" transform="translate(16398.094 14946.649)" fill="#0d161d"/>
        <path id="Path_15557" data-name="Path 15557" d="M700.9,192.348c.079.089-.517.787-1.33,1.556s-1.541,1.326-1.625,1.243.51-.78,1.329-1.556,1.547-1.332,1.626-1.243Z" transform="translate(16396.973 14947.85)" fill="#0d161d"/>
        <path id="Path_15558" data-name="Path 15558" d="M708.568,186.289c.066.1-.611.714-1.514,1.376a5.024,5.024,0,0,1-1.769,1.029c-.073-.094.6-.71,1.514-1.377a4.967,4.967,0,0,1,1.769-1.028Z" transform="translate(16395.709 14948.893)" fill="#0d161d"/>
        <path id="Path_15559" data-name="Path 15559" d="M716.982,181.31c.051.108-.7.626-1.687,1.159a5.032,5.032,0,0,1-1.893.78c-.062-.1.693-.621,1.687-1.159a4.963,4.963,0,0,1,1.893-.78Z" transform="translate(16394.313 14949.75)" fill="#0d161d"/>
        <path id="Path_15560" data-name="Path 15560" d="M726.032,177.608A9.688,9.688,0,0,1,722.207,179a9.712,9.712,0,0,1,3.825-1.389Z" transform="translate(16392.797 14950.39)" fill="#0d161d"/>
        <path id="Path_15561" data-name="Path 15561" d="M735.563,175.373a5.055,5.055,0,0,1-1.966.55,4.984,4.984,0,0,1-2.031.209,4.964,4.964,0,0,1,1.951-.633,4.907,4.907,0,0,1,2.047-.127Z" transform="translate(16391.188 14950.779)" fill="#0d161d"/>
        <path id="Path_15562" data-name="Path 15562" d="M745.355,174.8a9.724,9.724,0,0,1-4.069.046,9.687,9.687,0,0,1,4.069-.046Z" transform="translate(16389.514 14950.899)" fill="#0d161d"/>
        <path id="Path_15563" data-name="Path 15563" d="M755.122,175.847a9.72,9.72,0,0,1-4.018-.649,9.708,9.708,0,0,1,4.018.649Z" transform="translate(16387.824 14950.81)" fill="#0d161d"/>
        <path id="Path_15564" data-name="Path 15564" d="M764.57,178.52a9.7,9.7,0,0,1-3.845-1.334,9.722,9.722,0,0,1,3.845,1.334Z" transform="translate(16386.17 14950.462)" fill="#0d161d"/>
        <path id="Path_15565" data-name="Path 15565" d="M773.384,182.842a5.054,5.054,0,0,1-1.874-.821c-.971-.554-1.715-1.089-1.661-1.2a4.945,4.945,0,0,1,1.874.821c.982.561,1.725,1.1,1.66,1.2Z" transform="translate(16384.6 14949.834)" fill="#0d161d"/>
        <path id="Path_15566" data-name="Path 15566" d="M781.185,188.788c-.084.084-.833-.444-1.672-1.18s-1.46-1.41-1.388-1.5.821.435,1.672,1.18,1.471,1.42,1.388,1.5Z" transform="translate(16383.176 14948.924)" fill="#0d161d"/>
        <path id="Path_15567" data-name="Path 15567" d="M786.412,194.6c-.1.07-.457-.238-.8-.686s-.555-.874-.462-.95.451.231.8.686.56.88.464.95Z" transform="translate(16381.971 14947.743)" fill="#0d161d"/>
        <path id="Path_15568" data-name="Path 15568" d="M832.143,254.831a10.055,10.055,0,0,1-3.755-1.744,10.018,10.018,0,0,1,3.755,1.744Z" transform="translate(16374.525 14937.399)" fill="#0d161d"/>
        <path id="Path_15569" data-name="Path 15569" d="M841.542,258.225a10.075,10.075,0,0,1-3.959-1.21,10.029,10.029,0,0,1,3.959,1.21Z" transform="translate(16372.943 14936.726)" fill="#0d161d"/>
        <path id="Path_15570" data-name="Path 15570" d="M851.371,259.944a10.054,10.054,0,0,1-4.114-.453,10.052,10.052,0,0,1,4.114.453Z" transform="translate(16371.278 14936.309)" fill="#0d161d"/>
        <path id="Path_15571" data-name="Path 15571" d="M861.351,259.722a10.025,10.025,0,0,1-4.127.311,10.031,10.031,0,0,1,4.127-.311Z" transform="translate(16369.563 14936.272)" fill="#0d161d"/>
        <path id="Path_15572" data-name="Path 15572" d="M871.191,257.9a5.14,5.14,0,0,1-1.966.7,4.983,4.983,0,0,1-2.074.2,5.334,5.334,0,0,1,1.982-.623,5.185,5.185,0,0,1,2.057-.281Z" transform="translate(16367.855 14936.575)" fill="#0d161d"/>
        <path id="Path_15573" data-name="Path 15573" d="M880.531,254.218a10.037,10.037,0,0,1-3.761,1.73,10.02,10.02,0,0,1,3.761-1.73Z" transform="translate(16366.2 14937.205)" fill="#0d161d"/>
        <path id="Path_15574" data-name="Path 15574" d="M888.909,248.649c.078.089-.567.772-1.487,1.464a4.582,4.582,0,0,1-1.816,1.029c-.066-.1.65-.688,1.557-1.373a5.907,5.907,0,0,1,1.746-1.12Z" transform="translate(16364.68 14938.161)" fill="#0d161d"/>
        <path id="Path_15575" data-name="Path 15575" d="M895.848,241.349a4.507,4.507,0,0,1-1.1,1.774c-.733.89-1.447,1.5-1.532,1.418s.478-.816,1.2-1.692,1.334-1.57,1.432-1.5Z" transform="translate(16363.371 14939.416)" fill="#0d161d"/>
        <path id="Path_15576" data-name="Path 15576" d="M900.728,232.55a7.5,7.5,0,0,1-1.684,3.779,6.157,6.157,0,0,1,.714-1.946,6.234,6.234,0,0,1,.97-1.832Z" transform="translate(16362.37 14940.93)" fill="#0d161d"/>
        <path id="Path_15577" data-name="Path 15577" d="M902.829,222.767a7.137,7.137,0,0,1-.422,4.115,6.532,6.532,0,0,1,.088-2.07,6.428,6.428,0,0,1,.334-2.045Z" transform="translate(16361.798 14942.613)" fill="#0d161d"/>
        <path id="Path_15578" data-name="Path 15578" d="M901.481,212.911a7.412,7.412,0,0,1,.918,4.033,15.666,15.666,0,0,1-.918-4.033Z" transform="translate(16361.953 14944.31)" fill="#0d161d"/>
        <path id="Path_15579" data-name="Path 15579" d="M897.137,203.944c.1-.069.716.64,1.3,1.638a4.413,4.413,0,0,1,.787,1.936c-.11.052-.587-.74-1.159-1.719a6.328,6.328,0,0,1-.923-1.855Z" transform="translate(16362.697 14945.853)" fill="#0d161d"/>
        <path id="Path_15580" data-name="Path 15580" d="M890.2,196.809a4.239,4.239,0,0,1,1.764,1.119c.875.757,1.446,1.507,1.361,1.585s-.787-.52-1.643-1.259-1.552-1.345-1.482-1.445Z" transform="translate(16363.89 14947.082)" fill="#0d161d"/>
        <path id="Path_15581" data-name="Path 15581" d="M881.134,192.741a6.711,6.711,0,0,1,3.928,1.292,6.835,6.835,0,0,1-2-.546,6.923,6.923,0,0,1-1.931-.746Z" transform="translate(16365.449 14947.788)" fill="#0d161d"/>
        <path id="Path_15582" data-name="Path 15582" d="M871.217,192.775a6.57,6.57,0,0,1,4.1-.539,6.982,6.982,0,0,1-2.037.366,7.1,7.1,0,0,1-2.062.173Z" transform="translate(16367.155 14947.891)" fill="#0d161d"/>
        <path id="Path_15583" data-name="Path 15583" d="M862.6,197.218c-.087-.075.483-.845,1.416-1.547a3.883,3.883,0,0,1,1.869-.952c.057.109-.714.616-1.609,1.3s-1.585,1.287-1.676,1.2Z" transform="translate(16368.641 14947.442)" fill="#0d161d"/>
        <path id="Path_15584" data-name="Path 15584" d="M858.624,205.882a3.787,3.787,0,0,1,.118-2.093,3.7,3.7,0,0,1,.869-1.908,8.616,8.616,0,0,1-.45,2.011,8.234,8.234,0,0,1-.537,1.99Z" transform="translate(16369.338 14946.208)" fill="#0d161d"/>
        <path id="Path_15585" data-name="Path 15585" d="M860.3,215.6a6.268,6.268,0,0,1-1.353-3.906A26.518,26.518,0,0,1,860.3,215.6Z" transform="translate(16369.274 14944.52)" fill="#0d161d"/>
        <path id="Path_15586" data-name="Path 15586" d="M866.485,223.276a4.125,4.125,0,0,1-1.767-1.121c-.871-.767-1.414-1.546-1.325-1.621s.763.552,1.61,1.3,1.551,1.343,1.481,1.444Z" transform="translate(16368.503 14942.999)" fill="#0d161d"/>
        <path id="Path_15587" data-name="Path 15587" d="M875.393,227.631a4.338,4.338,0,0,1-2.053-.383,4.283,4.283,0,0,1-1.858-.956,6.474,6.474,0,0,1,2,.549,6.4,6.4,0,0,1,1.914.79Z" transform="translate(16367.11 14942.011)" fill="#0d161d"/>
        <path id="Path_15588" data-name="Path 15588" d="M885.269,228.817a7.566,7.566,0,0,1-4.135-.088,15,15,0,0,1,4.135.088Z" transform="translate(16365.449 14941.606)" fill="#0d161d"/>
        <path id="Path_15589" data-name="Path 15589" d="M895.1,227.036a7.737,7.737,0,0,1-4.006,1.02,14.364,14.364,0,0,1,4.006-1.02Z" transform="translate(16363.736 14941.884)" fill="#0d161d"/>
        <path id="Path_15590" data-name="Path 15590" d="M904.237,222.884c.062.1-.711.62-1.729,1.158a5.073,5.073,0,0,1-1.93.776,10.048,10.048,0,0,1,3.659-1.934Z" transform="translate(16362.104 14942.596)" fill="#0d161d"/>
        <path id="Path_15591" data-name="Path 15591" d="M912.348,216.929c.081.088-.574.751-1.463,1.479s-1.666,1.243-1.736,1.147.585-.758,1.463-1.479a5.213,5.213,0,0,1,1.736-1.147Z" transform="translate(16360.629 14943.619)" fill="#0d161d"/>
        <path id="Path_15592" data-name="Path 15592" d="M919.264,209.621c.094.073-.435.84-1.181,1.713s-1.422,1.516-1.509,1.434a5.222,5.222,0,0,1,1.181-1.714c.739-.864,1.414-1.506,1.508-1.433Z" transform="translate(16359.352 14944.876)" fill="#0d161d"/>
        <path id="Path_15593" data-name="Path 15593" d="M924.876,201.277a5.13,5.13,0,0,1-.882,1.885c-.592.984-1.152,1.729-1.251,1.663a5.2,5.2,0,0,1,.882-1.886c.585-.974,1.147-1.719,1.251-1.662Z" transform="translate(16358.291 14946.312)" fill="#0d161d"/>
        <path id="Path_15594" data-name="Path 15594" d="M929.055,192.142a5.117,5.117,0,0,1-.555,2.007c-.41,1.072-.857,1.892-.974,1.84a5.879,5.879,0,0,1,.573-2,5.2,5.2,0,0,1,.955-1.847Z" transform="translate(16357.47 14947.884)" fill="#0d161d"/>
        <path id="Path_15595" data-name="Path 15595" d="M931.949,182.547a10.023,10.023,0,0,1-1.039,4.006,10.06,10.06,0,0,1,1.039-4.006Z" transform="translate(16356.891 14949.534)" fill="#0d161d"/>
        <path id="Path_15596" data-name="Path 15596" d="M933.779,172.7a10.04,10.04,0,0,1-.627,4.092,10.035,10.035,0,0,1,.627-4.092Z" transform="translate(16356.509 14951.228)" fill="#0d161d"/>
        <path id="Path_15597" data-name="Path 15597" d="M934.757,162.749a10.05,10.05,0,0,1-.307,4.128,10.087,10.087,0,0,1,.307-4.128Z" transform="translate(16356.293 14952.941)" fill="#0d161d"/>
        <path id="Path_15598" data-name="Path 15598" d="M935.107,152.758a5.1,5.1,0,0,1,.176,2.073,5.152,5.152,0,0,1-.255,2.066,10.056,10.056,0,0,1,.079-4.139Z" transform="translate(16356.206 14954.66)" fill="#0d161d"/>
        <path id="Path_15599" data-name="Path 15599" d="M935.05,142.758a10.021,10.021,0,0,1,.06,4.14,10.061,10.061,0,0,1-.06-4.14Z" transform="translate(16356.203 14956.381)" fill="#0d161d"/>
        <path id="Path_15600" data-name="Path 15600" d="M934.9,136.608c.118,0,.221.207.228.469s-.084.479-.2.482-.222-.207-.229-.47.084-.478.2-.481Z" transform="translate(16356.232 14957.439)" fill="#0d161d"/>
        <path id="Path_15601" data-name="Path 15601" d="M949.275,144.877,893,150.989l-4.12-37.933,56.278-6.112,4.119,37.933Z" transform="translate(16364.116 14962.544)" fill="#f9354b"/>
        <path id="Path_15602" data-name="Path 15602" d="M888.9,113.069l4.115,37.892,56.237-6.107-4.116-37.893L888.9,113.069Zm4.078,37.938,0-.021-4.121-37.954.02,0,56.3-6.114,0,.02,4.122,37.954-.021,0-56.3,6.114Z" transform="translate(16364.121 14962.549)" fill="#0d161d"/>
        <path id="Path_15603" data-name="Path 15603" d="M945.433,107.471a4.007,4.007,0,0,1-.469.562l-1.417,1.543-5.288,5.614-17.626,18.434-.145.152-.178-.113-.43-.273L898.1,119.474l-6.57-4.267-1.773-1.182a4.08,4.08,0,0,1-.6-.441,3.923,3.923,0,0,1,.655.354l1.824,1.1,6.657,4.129,21.864,13.79.429.273-.322.039L938,114.94l5.4-5.5,1.487-1.476a4,4,0,0,1,.543-.491Z" transform="translate(16364.068 14962.453)" fill="#0d161d"/>
        <path id="Path_15604" data-name="Path 15604" d="M894.13,155.476c-.118-.079,3.549-5.738,8.19-12.639s8.5-12.433,8.618-12.353-3.548,5.737-8.191,12.64-8.5,12.431-8.616,12.353Z" transform="translate(16363.213 14958.493)" fill="#0d161d"/>
        <path id="Path_15605" data-name="Path 15605" d="M936.965,127.457c.1-.1,4.844,4.609,10.591,10.514s10.326,10.774,10.224,10.873-4.843-4.608-10.592-10.515-10.324-10.773-10.222-10.872Z" transform="translate(16355.842 14959.015)" fill="#0d161d"/>
        <path id="Path_15606" data-name="Path 15606" d="M646.43,245.856c.118-.02.291.421.386.985s.078,1.038-.04,1.057-.29-.421-.385-.985-.078-1.037.039-1.057Z" transform="translate(16405.854 14938.641)" fill="#0d161d"/>
        <path id="Path_15607" data-name="Path 15607" d="M644.838,236.1a5.086,5.086,0,0,1,.538,1.986,5.031,5.031,0,0,1,.113,2.055,9.822,9.822,0,0,1-.651-4.041Z" transform="translate(16406.121 14940.319)" fill="#0d161d"/>
        <path id="Path_15608" data-name="Path 15608" d="M643.408,226.317a9.809,9.809,0,0,1,.566,4.053,9.852,9.852,0,0,1-.566-4.053Z" transform="translate(16406.369 14942.002)" fill="#0d161d"/>
        <path id="Path_15609" data-name="Path 15609" d="M642.281,216.494a9.82,9.82,0,0,1,.427,4.07,9.811,9.811,0,0,1-.427-4.07Z" transform="translate(16406.566 14943.692)" fill="#0d161d"/>
        <path id="Path_15610" data-name="Path 15610" d="M641.585,206.632a9.836,9.836,0,0,1,.231,4.087,9.806,9.806,0,0,1-.231-4.087Z" transform="translate(16406.693 14945.39)" fill="#0d161d"/>
        <path id="Path_15611" data-name="Path 15611" d="M641.459,196.743a9.832,9.832,0,0,1-.024,4.1,9.837,9.837,0,0,1,.024-4.1Z" transform="translate(16406.73 14947.092)" fill="#0d161d"/>
        <path id="Path_15612" data-name="Path 15612" d="M642.035,186.882a9.816,9.816,0,0,1-.34,4.078,9.819,9.819,0,0,1,.34-4.078Z" transform="translate(16406.67 14948.788)" fill="#0d161d"/>
        <path id="Path_15613" data-name="Path 15613" d="M643.455,177.11a9.839,9.839,0,0,1-.712,4.031,9.8,9.8,0,0,1,.712-4.031Z" transform="translate(16406.48 14950.47)" fill="#0d161d"/>
        <path id="Path_15614" data-name="Path 15614" d="M645.886,167.555a9.808,9.808,0,0,1-1.167,3.923,9.808,9.808,0,0,1,1.167-3.923Z" transform="translate(16406.137 14952.114)" fill="#0d161d"/>
        <path id="Path_15615" data-name="Path 15615" d="M649.483,158.391a9.809,9.809,0,0,1-1.648,3.745,9.844,9.844,0,0,1,1.648-3.745Z" transform="translate(16405.6 14953.691)" fill="#0d161d"/>
        <path id="Path_15616" data-name="Path 15616" d="M654.213,149.765a5.094,5.094,0,0,1-.871,1.864c-.581.965-1.137,1.7-1.24,1.643a5,5,0,0,1,.87-1.864c.586-.973,1.141-1.707,1.241-1.642Z" transform="translate(16404.863 14955.176)" fill="#0d161d"/>
        <path id="Path_15617" data-name="Path 15617" d="M660.047,141.86a5.077,5.077,0,0,1-1.115,1.728c-.707.877-1.357,1.529-1.452,1.459s.4-.844,1.115-1.73,1.364-1.537,1.452-1.457Z" transform="translate(16403.938 14956.537)" fill="#0d161d"/>
        <path id="Path_15618" data-name="Path 15618" d="M666.979,134.911c.075.092-.535.782-1.365,1.54s-1.571,1.306-1.655,1.222.527-.773,1.365-1.54,1.579-1.314,1.655-1.222Z" transform="translate(16402.822 14957.733)" fill="#0d161d"/>
        <path id="Path_15619" data-name="Path 15619" d="M674.97,129.23c.059.1-.661.678-1.609,1.282a5.087,5.087,0,0,1-1.84.919c-.069-.1.651-.671,1.609-1.282a5,5,0,0,1,1.84-.919Z" transform="translate(16401.52 14958.712)" fill="#0d161d"/>
        <path id="Path_15620" data-name="Path 15620" d="M683.9,125.173a9.786,9.786,0,0,1-3.812,1.491,9.855,9.855,0,0,1,3.812-1.491Z" transform="translate(16400.045 14959.412)" fill="#0d161d"/>
        <path id="Path_15621" data-name="Path 15621" d="M691.491,123.381c.018.118-.418.3-.974.4s-1.03.1-1.056-.018.41-.3.974-.4,1.037-.1,1.056.018Z" transform="translate(16398.432 14959.731)" fill="#0d161d"/>
        <path id="Path_15622" data-name="Path 15622" d="M678.056,146.747l-57.408-22.2,14.962-38.7,57.408,22.2-14.962,38.7Z" transform="translate(16410.273 14966.173)" fill="#f9354b"/>
        <path id="Path_15623" data-name="Path 15623" d="M620.669,124.531l57.369,22.184,14.948-38.657-57.37-22.184-14.947,38.657Zm57.393,22.237-.019-.007-57.428-22.206.008-.019,14.97-38.714.019.007,57.427,22.206-.007.019-14.97,38.714Z" transform="translate(16410.279 14966.179)" fill="#0d161d"/>
        <path id="Path_15624" data-name="Path 15624" d="M696.133,108.7a4.229,4.229,0,0,1-.734.309l-2.14.782-7.911,2.782-26.229,9-.216.074-.115-.2-.279-.478c-5.49-9.476-10.458-18.05-14.09-24.319l-4.215-7.4q-.7-1.263-1.121-2.026a4.309,4.309,0,0,1-.358-.726,4.461,4.461,0,0,1,.455.669c.3.5.708,1.153,1.212,1.974l4.368,7.313c3.668,6.247,8.686,14.793,14.231,24.236l.279.479-.331-.123,26.282-8.846,7.968-2.615,2.173-.683a4.261,4.261,0,0,1,.77-.2Z" transform="translate(16407.162 14966.062)" fill="#0d161d"/>
        <path id="Path_15625" data-name="Path 15625" d="M620.652,129.965c-.074-.136,6.294-3.77,14.221-8.118s14.417-7.764,14.492-7.628-6.292,3.77-14.223,8.119-14.417,7.763-14.49,7.628Z" transform="translate(16410.273 14961.293)" fill="#0d161d"/>
        <path id="Path_15626" data-name="Path 15626" d="M678.607,122.548c.147-.045,2.377,6.87,4.978,15.443s4.593,15.562,4.446,15.607-2.377-6.868-4.98-15.445-4.592-15.561-4.444-15.605Z" transform="translate(16400.301 14959.858)" fill="#0d161d"/>
        <path id="Path_15627" data-name="Path 15627" d="M617.264,256.8c.119.008.178.479.132,1.051s-.18,1.027-.3,1.015-.177-.481-.131-1.05.18-1.023.3-1.016Z" transform="translate(16410.91 14936.757)" fill="#0d161d"/>
        <path id="Path_15628" data-name="Path 15628" d="M617.537,246.632a10.368,10.368,0,0,1-.01,4.212,10.409,10.409,0,0,1,.01-4.212Z" transform="translate(16410.846 14938.507)" fill="#0d161d"/>
        <path id="Path_15629" data-name="Path 15629" d="M616.871,236.483a10.4,10.4,0,0,1,.388,4.194,10.372,10.372,0,0,1-.388-4.194Z" transform="translate(16410.939 14940.253)" fill="#0d161d"/>
        <path id="Path_15630" data-name="Path 15630" d="M615.184,226.452a10.418,10.418,0,0,1,.81,4.135,10.384,10.384,0,0,1-.81-4.135Z" transform="translate(16411.223 14941.979)" fill="#0d161d"/>
        <path id="Path_15631" data-name="Path 15631" d="M612.424,216.662a10.406,10.406,0,0,1,1.258,4.021,10.389,10.389,0,0,1-1.258-4.021Z" transform="translate(16411.693 14943.664)" fill="#0d161d"/>
        <path id="Path_15632" data-name="Path 15632" d="M608.538,207.268a10.4,10.4,0,0,1,1.729,3.841,10.382,10.382,0,0,1-1.729-3.841Z" transform="translate(16412.361 14945.28)" fill="#0d161d"/>
        <path id="Path_15633" data-name="Path 15633" d="M603.488,198.442c.1-.066.694.675,1.32,1.662a5.311,5.311,0,0,1,.893,1.926c-.1.058-.667-.7-1.26-1.7a5.417,5.417,0,0,1-.954-1.888Z" transform="translate(16413.229 14946.8)" fill="#0d161d"/>
        <path id="Path_15634" data-name="Path 15634" d="M597.258,190.4c.089-.08.767.582,1.515,1.479s1.277,1.683,1.183,1.756-.772-.59-1.514-1.48a5.391,5.391,0,0,1-1.184-1.755Z" transform="translate(16414.299 14948.184)" fill="#0d161d"/>
        <path id="Path_15635" data-name="Path 15635" d="M589.955,183.329c.076-.092.84.468,1.708,1.25s1.5,1.485,1.42,1.571a5.371,5.371,0,0,1-1.708-1.25c-.86-.776-1.5-1.479-1.42-1.571Z" transform="translate(16415.557 14949.401)" fill="#0d161d"/>
        <path id="Path_15636" data-name="Path 15636" d="M581.705,177.382a5.292,5.292,0,0,1,1.873.988c.973.648,1.7,1.251,1.633,1.347a5.366,5.366,0,0,1-1.873-.988c-.964-.642-1.695-1.244-1.633-1.347Z" transform="translate(16416.975 14950.426)" fill="#0d161d"/>
        <path id="Path_15637" data-name="Path 15637" d="M572.646,172.761a10.414,10.414,0,0,1,3.827,1.764,10.4,10.4,0,0,1-3.827-1.764Z" transform="translate(16418.533 14951.222)" fill="#0d161d"/>
        <path id="Path_15638" data-name="Path 15638" d="M562.953,169.692a10.428,10.428,0,0,1,4.067,1.1,10.39,10.39,0,0,1-4.067-1.1Z" transform="translate(16420.201 14951.753)" fill="#0d161d"/>
        <path id="Path_15639" data-name="Path 15639" d="M552.872,168.384a5.259,5.259,0,0,1,2.12-.1,5.313,5.313,0,0,1,2.077.434,5.315,5.315,0,0,1-2.112,0,5.425,5.425,0,0,1-2.086-.334Z" transform="translate(16421.936 14951.993)" fill="#0d161d"/>
        <path id="Path_15640" data-name="Path 15640" d="M542.733,168.989a10.42,10.42,0,0,1,4.183-.5,10.375,10.375,0,0,1-4.183.5Z" transform="translate(16423.682 14951.966)" fill="#0d161d"/>
        <path id="Path_15641" data-name="Path 15641" d="M532.911,171.452a10.4,10.4,0,0,1,4.015-1.273,10.413,10.413,0,0,1-4.015,1.273Z" transform="translate(16425.371 14951.668)" fill="#0d161d"/>
        <path id="Path_15642" data-name="Path 15642" d="M523.751,175.712c-.062-.1.721-.635,1.749-1.192a5.276,5.276,0,0,1,1.956-.813,10.388,10.388,0,0,1-3.7,2.005Z" transform="translate(16426.947 14951.059)" fill="#0d161d"/>
        <path id="Path_15643" data-name="Path 15643" d="M515.628,181.676c-.082-.086.579-.765,1.479-1.514s1.685-1.279,1.755-1.184-.591.774-1.479,1.515a5.394,5.394,0,0,1-1.755,1.183Z" transform="translate(16428.346 14950.15)" fill="#0d161d"/>
        <g id="Group_4606" data-name="Group 4606" transform="translate(16923.447 15245.237) rotate(13)">
          <path id="Path_15721" data-name="Path 15721" d="M1.423,4.858,4.547,3.616,2.288,0,0,1.669,1.423,4.858Z" transform="translate(0 0)" fill="#283d47"/>
          <path id="Path_15723" data-name="Path 15723" d="M.273,0,2.533,3.616l-.642.255L0,.2.273,0Z" transform="translate(2.014 0)" fill="#283d47"/>
        </g>
        <path id="Path_15644" data-name="Path 15644" d="M508.978,189.22a4.7,4.7,0,0,1,1.07-1.835c.715-.927,1.417-1.575,1.506-1.5a6.17,6.17,0,0,1-1.166,1.761c-.708.913-1.311,1.638-1.41,1.571Z" transform="translate(16429.492 14948.96)" fill="#0d161d"/>
        <path id="Path_15645" data-name="Path 15645" d="M505.261,196.13c-.109-.049.007-.508.257-1.026s.541-.893.647-.837-.011.514-.258,1.025-.537.886-.646.838Z" transform="translate(16430.137 14947.519)" fill="#0d161d"/>
        <path id="Path_15646" data-name="Path 15646" d="M441.731,255.455c-.008-.119.44-.271,1-.339s1.032-.028,1.053.089-.427.269-1,.339-1.046.029-1.053-.089Z" transform="translate(16441.061 14937.053)" fill="#0d161d"/>
        <path id="Path_15647" data-name="Path 15647" d="M431.826,254.4a17.932,17.932,0,0,1,4.057.849,7.072,7.072,0,0,1-4.057-.849Z" transform="translate(16442.766 14937.176)" fill="#0d161d"/>
        <path id="Path_15648" data-name="Path 15648" d="M422.874,249.979a6.209,6.209,0,0,1,1.854.941c.974.584,1.762,1.072,1.709,1.181a4.424,4.424,0,0,1-1.93-.811c-.993-.592-1.7-1.215-1.633-1.311Z" transform="translate(16444.307 14937.933)" fill="#0d161d"/>
        <path id="Path_15649" data-name="Path 15649" d="M415.43,243.3c.091-.079.771.554,1.572,1.363s1.427,1.5,1.347,1.585-.843-.46-1.653-1.282-1.354-1.59-1.266-1.667Z" transform="translate(16445.588 14939.081)" fill="#0d161d"/>
        <path id="Path_15650" data-name="Path 15650" d="M409.548,235.2c.1-.06.693.664,1.317,1.616a5.23,5.23,0,0,1,.956,1.853c-.1.071-.686-.652-1.317-1.616a5.145,5.145,0,0,1-.956-1.853Z" transform="translate(16446.602 14940.475)" fill="#0d161d"/>
        <path id="Path_15651" data-name="Path 15651" d="M405.226,226.168a10.112,10.112,0,0,1,1.627,3.817,10.056,10.056,0,0,1-1.627-3.817Z" transform="translate(16447.348 14942.028)" fill="#0d161d"/>
        <path id="Path_15652" data-name="Path 15652" d="M402.349,216.571a10.081,10.081,0,0,1,1.055,4.013,10.081,10.081,0,0,1-1.055-4.013Z" transform="translate(16447.846 14943.68)" fill="#0d161d"/>
        <path id="Path_15653" data-name="Path 15653" d="M400.6,206.7a10.093,10.093,0,0,1,.622,4.1,10.091,10.091,0,0,1-.622-4.1Z" transform="translate(16448.15 14945.378)" fill="#0d161d"/>
        <g id="Group_4604" data-name="Group 4604" transform="translate(16830.373 15210.636) rotate(-25)">
          <path id="Path_13142" data-name="Path 13142" d="M19.952,0A78.392,78.392,0,0,0,0,33.065,31.217,31.217,0,0,1,12.587,22.221c3.063-1.526,6.359-2.545,9.406-4.1s5.935-3.777,7.323-6.9A33.663,33.663,0,0,1,19.952,0Z" transform="matrix(-0.985, 0.174, -0.174, -0.985, 73.685, 46.009)" fill="#a32413"/>
          <path id="Path_13143" data-name="Path 13143" d="M0,22.443A81.464,81.464,0,0,1,16.429,4.689C15.976,3.1,15.45,1.593,15,0,9.2,6.721,4.3,14.678,0,22.443Z" transform="matrix(-0.985, 0.174, -0.174, -0.985, 68.806, 45.213)" fill="#e3d09a"/>
          <path id="Path_13144" data-name="Path 13144" d="M61.755,4.721c-2.782,6.219-3.2,9.2-7,14.878a32.48,32.48,0,0,1-2.719,3.842,25.927,25.927,0,0,1-4.165,3.107l-9.2,6.564c-1.963,1.4-3.9,3.162-5.933,4.408-1.875,1.15-4.809,1.3-6.952,1.13a16.993,16.993,0,0,1-8.76-3.506c-1.55-1.165-2.9-2.551-4.406-3.743a8.213,8.213,0,0,1-2.655-4.176,18.2,18.2,0,0,1-.1-8.367c.439-2.448,1.283-3.84-.383-5.852A119.035,119.035,0,0,1,0,.159L.223,0,22.8,8.607c4.56,1.739,9.2,3.5,14.065,3.866A28.128,28.128,0,0,0,58.113,4.5c4.011-3.868-.105,3.695,1.547-1.639.055.31,2.3-1.017,2.33-.7.3,3.523.279.266-1.165,3.493Z" transform="matrix(-0.985, 0.174, -0.174, -0.985, 67.922, 68.374)" fill="#ed2e13"/>
          <path id="Path_13145" data-name="Path 13145" d="M57.89,8.393a28.124,28.124,0,0,1-21.253,7.975c-4.866-.369-9.5-2.125-14.065-3.865L0,3.895,3.526,1.379A7.4,7.4,0,0,1,10.37.45l20.005,7.3C30.771,3.035,61.9,4.525,57.89,8.393Z" transform="matrix(-0.985, 0.174, -0.174, -0.985, 68.377, 72.248)" fill="#f4eabb"/>
          <path id="Path_13146" data-name="Path 13146" d="M.865,39.893A56.2,56.2,0,0,1,7.757,1.672a3.207,3.207,0,0,1,4.1-1.22,13.223,13.223,0,0,0,9.007.421A12.4,12.4,0,0,1,24.067,0a2.447,2.447,0,0,1,2.577,1.654,3.411,3.411,0,0,1-.6,2.208q-1.856,3.423-3.711,6.846a36.664,36.664,0,0,1-5.121,7.783c-2.172,2.322-4.935,4.062-6.928,6.539C6.635,29.563,4.888,35.691.865,39.893Z" transform="matrix(-0.985, 0.174, -0.174, -0.985, 52.731, 39.287)" fill="#ed2e13"/>
          <path id="Path_13147" data-name="Path 13147" d="M15.669,2.366a4.8,4.8,0,0,1-.28,3.856,15.878,15.878,0,0,1-2.3,3.236A90.531,90.531,0,0,0,.016,30.372,58.129,58.129,0,0,1,4.295,7.122C5.533,4.088,7.424.833,10.621.114a4.453,4.453,0,0,1,5.048,2.252Z" transform="matrix(-0.985, 0.174, -0.174, -0.985, 50.335, 36.907)" fill="#e3d09a"/>
          <path id="Path_13148" data-name="Path 13148" d="M5.587,5.187A4.013,4.013,0,0,1,.569,2.537L0,.7,1.672.179A4.015,4.015,0,0,1,6.691,2.83l.568,1.841-1.672.516Z" transform="matrix(-0.985, 0.174, -0.174, -0.985, 49.323, 56.203)" fill="#2e1416"/>
        </g>
        <path id="Path_15654" data-name="Path 15654" d="M399.634,196.725a10.091,10.091,0,0,1,.335,4.136,10.094,10.094,0,0,1-.335-4.136Z" transform="translate(16448.322 14947.095)" fill="#0d161d"/>
        <path id="Path_15655" data-name="Path 15655" d="M399.206,189.217c.118,0,.238.453.264,1.023s-.047,1.038-.166,1.045-.238-.452-.265-1.024.047-1.038.166-1.044Z" transform="translate(16448.408 14948.387)" fill="#0d161d"/>
        <path id="Path_15656" data-name="Path 15656" d="M424.771,174.991l-68.842,3.245-2.187-46.4,68.842-3.245,2.187,46.4Z" transform="translate(16456.203 14958.819)" fill="#f9354b"/>
        <path id="Path_15657" data-name="Path 15657" d="M353.759,131.849l2.186,46.36,68.8-3.243-2.186-46.36-68.8,3.243Zm2.146,46.4v-.022l-2.188-46.422h.021l68.862-3.245v.021l2.188,46.422h-.021L355.9,178.253Z" transform="translate(16456.207 14958.824)" fill="#0d161d"/>
        <path id="Path_15658" data-name="Path 15658" d="M422.881,129.25a4.856,4.856,0,0,1-.612.647l-1.838,1.77-6.842,6.43L390.8,159.188l-.187.174-.208-.151-.5-.363-25.436-18.531-7.667-5.673-2.066-1.568a5,5,0,0,1-.7-.581,4.782,4.782,0,0,1,.77.479l2.134,1.473,7.782,5.512,25.545,18.382.5.363-.395.023,22.914-20.954,6.977-6.285,1.916-1.683a4.781,4.781,0,0,1,.7-.556Z" transform="translate(16456.15 14958.706)" fill="#0d161d"/>
        <path id="Path_15659" data-name="Path 15659" d="M356.68,183.163c-.137-.105,4.741-6.709,10.892-14.75s11.252-14.476,11.39-14.371-4.739,6.708-10.893,14.751-11.251,14.475-11.389,14.37Z" transform="translate(16455.697 14954.439)" fill="#0d161d"/>
        <path id="Path_15660" data-name="Path 15660" d="M411.2,152.038c.132-.113,5.545,5.96,12.089,13.563s11.747,13.859,11.616,13.973-5.543-5.959-12.09-13.565S411.069,152.15,411.2,152.038Z" transform="translate(16446.314 14954.784)" fill="#0d161d"/>
        <g id="Group_4605" data-name="Group 4605" transform="matrix(0.94, 0.342, -0.342, 0.94, 16933.416, 15207.16)">
          <path id="Path_15661" data-name="Path 15661" d="M33.691,4.334a1.882,1.882,0,0,0-1.428-2.1l-1.845.127-6.6-2.3a1.975,1.975,0,0,0-2.5,1.8c-.037,1.9-.793,7.064-2.331,5.44l-.11-.106c-2.177-2.428-4.7-3.6-5.67-3.46a1.1,1.1,0,0,0-.473,1.951,1.17,1.17,0,0,0,.392.274l.22.118A16.336,16.336,0,0,1,15.87,8.334a8.637,8.637,0,0,1,1.661,2.511c.445,1.022.791,1.924,1.06,2.691l.1,6.069L16.058,47.978S.357,35.342.763,35.162L0,58.009l10.579,8.755A13.306,13.306,0,0,0,32.366,56.292L31.756,19.6l.431-4.813,1.5-10.458" transform="translate(0.001 45.739)" fill="#e3d09a"/>
          <path id="Path_15717" data-name="Path 15717" d="M0,27.974s5.415-1.627,12.608-9.652S22.7.135,23.656.112,28.605-2.14,37.753,14.4,44.1,35.156,42.526,35.24s-12.43-2.09-19.019-.84S8.634,39.748,8.634,39.748L0,27.974Z" transform="translate(15.738 0)" fill="#283d47"/>
          <path id="Path_15718" data-name="Path 15718" d="M.71,13.585l2.143,3.431.96,1.537a4.673,4.673,0,0,0,6.228,1.613l11.493-4.989L13.5,0,2.177,7.159A4.673,4.673,0,0,0,.71,13.585Z" transform="translate(4.028 24.596)" fill="#0d161d"/>
          <path id="Path_15719" data-name="Path 15719" d="M0,3.361l4.309,7.09,1.842-.662,13.022,9.075L22.1,11.891S14.615,9.3,13.081,6.816s-.028-3.19-.028-3.19L9.35,0,0,3.361Z" transform="translate(11.966 40.031)" fill="#0d161d"/>
          <path id="Path_15720" data-name="Path 15720" d="M13.1,14.412c4.881,8.967,7.239,17.107,5.269,18.179S10.846,27.263,5.966,18.3-1.275,1.189.7.117,8.22,5.445,13.1,14.412Z" transform="translate(39.777 0.35)" fill="#0d161d"/>
          <path id="Path_15722" data-name="Path 15722" d="M9.415,0,1.229,6.12,0,4.1,9.415,0Z" transform="translate(13.169 41.274)" fill="#283d47"/>
          <path id="Path_15724" data-name="Path 15724" d="M0,3.673A18.06,18.06,0,0,0,3.463,2.022,18.015,18.015,0,0,0,6.728.009,17.962,17.962,0,0,0,3.267,1.66,18,18,0,0,0,0,3.673Z" transform="translate(7.24 35.59)" fill="#283d47"/>
          <path id="Path_15725" data-name="Path 15725" d="M0,3.563a15.029,15.029,0,0,0,3.125-1.6A14.991,14.991,0,0,0,6.042.009a15.17,15.17,0,0,0-3.125,1.6A15.108,15.108,0,0,0,0,3.563Z" transform="translate(6.09 33.531)" fill="#283d47"/>
          <path id="Path_15726" data-name="Path 15726" d="M0,3.3c.021.054.394-.062.986-.295.3-.116.646-.261,1.032-.428s.777-.41,1.2-.641A13.625,13.625,0,0,0,6.136.01,16.573,16.573,0,0,0,3.022,1.577c-.421.23-.808.477-1.176.664s-.7.352-.979.5c-.553.3-.888.508-.867.56Z" transform="translate(8.656 38.219)" fill="#283d47"/>
          <path id="Path_15727" data-name="Path 15727" d="M0,.88S4.564-2.443,7.662,3.827s-1.857,7.707-1.857,7.707A43.2,43.2,0,0,1,0,.88Z" transform="translate(44.181 12.455)" fill="#283d47"/>
          <path id="Path_15728" data-name="Path 15728" d="M0,0a7.337,7.337,0,0,0,.28,1.221C.495,2,.793,3.13,1.2,4.516l.829,2.213L2.5,7.961c.08.211.161.426.244.643s.2.426.3.642l1.288,2.709.339.71c.111.239.26.462.39.7q.4.7.82,1.414T6.7,16.19c.14.229.26.469.413.685s.3.433.45.647l1.716,2.461c.139.194.267.392.411.575s.3.358.44.532q.435.524.842,1.017l1.514,1.817c1,1.041,1.83,1.858,2.4,2.426a7.153,7.153,0,0,0,.923.848A7.415,7.415,0,0,0,15,26.239L12.7,23.723l-1.464-1.836-.818-1.019-.429-.533c-.14-.183-.265-.383-.4-.577L7.9,17.3l-.443-.644c-.152-.215-.27-.453-.408-.681q-.4-.693-.815-1.4t-.815-1.4c-.13-.233-.278-.454-.39-.692l-.34-.7-1.3-2.681c-.1-.214-.212-.421-.3-.634l-.251-.637L2.352,6.6,1.481,4.421.439,1.178A7.273,7.273,0,0,0,0,0Z" transform="translate(38.514 6.009)" fill="#0d161d"/>
          <path id="Path_15729" data-name="Path 15729" d="M3.2.058a1.409,1.409,0,0,1,.969,1.7c-.356,1.407-.938,3.619-1.406,4.97a3.574,3.574,0,0,1-.62,1.226A1.3,1.3,0,0,1,.91,8.42,1.3,1.3,0,0,1,.033,7.354,3.675,3.675,0,0,1,.153,5.91C.444,4.6.978,2.627,1.444,1.018A1.408,1.408,0,0,1,3.2.058Z" transform="translate(23.018 43.618)" fill="#e3d09a"/>
          <path id="Path_15730" data-name="Path 15730" d="M3.2.058a1.409,1.409,0,0,1,.969,1.7c-.356,1.408-.938,3.62-1.406,4.97a3.57,3.57,0,0,1-.62,1.227,1.29,1.29,0,0,1-1.229.467A1.3,1.3,0,0,1,.033,7.354a3.669,3.669,0,0,1,.12-1.444C.444,4.6.978,2.626,1.444,1.018A1.408,1.408,0,0,1,3.2.058Z" transform="translate(25.259 45.905)" fill="#e3d09a"/>
          <path id="Path_15731" data-name="Path 15731" d="M2.767.05a1.22,1.22,0,0,1,.84,1.47c-.308,1.219-.811,3.133-1.217,4.3a3.1,3.1,0,0,1-.536,1.061,1.121,1.121,0,0,1-1.065.4,1.127,1.127,0,0,1-.76-.922,3.209,3.209,0,0,1,.1-1.251C.385,3.982.847,2.274,1.249.882A1.221,1.221,0,0,1,2.767.05Z" transform="translate(27.852 47.285)" fill="#e3d09a"/>
          <path id="Path_15732" data-name="Path 15732" d="M2.78.05a1.226,1.226,0,0,1,.844,1.477C3.314,2.753,2.807,4.676,2.4,5.852a3.13,3.13,0,0,1-.54,1.067,1.128,1.128,0,0,1-1.069.406A1.13,1.13,0,0,1,.029,6.4a3.21,3.21,0,0,1,.1-1.258C.386,4,.851,2.285,1.255.886A1.227,1.227,0,0,1,2.78.05Z" transform="translate(30.295 47.563)" fill="#e3d09a"/>
          <path id="Path_15733" data-name="Path 15733" d="M.026,5.169A8.7,8.7,0,0,1,.636,2.52,8.715,8.715,0,0,1,1.658,0a8.709,8.709,0,0,1-.61,2.649A8.7,8.7,0,0,1,.026,5.169Z" transform="translate(25.404 46.427)" fill="#c5b484"/>
          <path id="Path_15734" data-name="Path 15734" d="M.021,5.2A11.533,11.533,0,0,1,.689,2.571,11.478,11.478,0,0,1,1.568,0,7.07,7.07,0,0,1,1.1,2.694,7.071,7.071,0,0,1,.021,5.2Z" transform="translate(30.073 48.27)" fill="#c5b484"/>
          <path id="Path_15735" data-name="Path 15735" d="M.021,5.2A11.454,11.454,0,0,1,.689,2.571,11.434,11.434,0,0,1,1.569,0,7.082,7.082,0,0,1,1.1,2.694,7.1,7.1,0,0,1,.021,5.2Z" transform="translate(27.763 47.968)" fill="#c5b484"/>
        </g>
        <path id="Path_15662" data-name="Path 15662" d="M372.789,376.387l-19.11,43.751L338.553,451.7l-11.234,3.779s-8.891,2.581-8.89,4.421,2.345,1.421,2.345,1.421c.431,2.748,4.236,1.19,6.9-.044s8.581-1.479,8.581-1.479a2.411,2.411,0,0,0-.166,3.859c.941.661,2.584-.139,3.7-1.325s3.972-1.736,7.157-2.872,3.709-5.418,3.709-5.418l38.276-64.473-16.139-13.177Z" transform="translate(16462.279 14916.179)" fill="#e3d09a"/>
        <path id="Path_15663" data-name="Path 15663" d="M445.228,386.793l4.814,6.356,10.421-23.125s-10.116-12.345-13.816-17.523c-3.668-5.132-6.42-6.025-6.42-6.025a23.133,23.133,0,0,0-6.547-.936l-8.924,3.715-12.8-3.715L396.676,352.9a23.355,23.355,0,0,0-10.154,8.549L370.64,386.961l22.486,9.612,7.54,43.112c1.448,6.465,2.711,12.567,8.68,15.547l41.7-40.08-4.886-7.7-.936-20.663" transform="translate(16453.295 14921.657)" fill="#276475"/>
        <path id="Path_15664" data-name="Path 15664" d="M410.113,386.026c.1.066-2.471,4.062-5.74,8.923s-6,8.749-6.1,8.683,2.471-4.061,5.741-8.924,6-8.748,6.1-8.682" transform="translate(16448.539 14914.52)" fill="#0d161d"/>
        <path id="Path_15665" data-name="Path 15665" d="M448.642,435.457a7.48,7.48,0,0,1-1.109.661c-.726.4-1.786.965-3.1,1.648-2.634,1.366-6.3,3.2-10.4,5.126s-7.843,3.592-10.573,4.753c-1.365.581-2.474,1.04-3.246,1.344a7.265,7.265,0,0,1-1.215.434,7.542,7.542,0,0,1,1.148-.587l3.19-1.47c2.7-1.231,6.419-2.936,10.511-4.864s7.775-3.714,10.442-5.009l3.163-1.525a7.305,7.305,0,0,1,1.185-.512" transform="translate(16444.973 14906.014)" fill="#0d161d"/>
        <path id="Path_15666" data-name="Path 15666" d="M408.42,372.788a14.177,14.177,0,0,1-1.462-1.842,29.621,29.621,0,0,0-3.7-4.223,13.049,13.049,0,0,0-4.775-2.812c-1.369-.425-2.278-.414-2.274-.493a1.629,1.629,0,0,1,.636-.05,7.734,7.734,0,0,1,1.722.249,12.051,12.051,0,0,1,4.98,2.783,23.708,23.708,0,0,1,3.664,4.367,11.528,11.528,0,0,1,1.215,2.019Z" transform="translate(16448.895 14918.419)" fill="#0d161d"/>
        <path id="Path_15667" data-name="Path 15667" d="M446.957,400.123a1.822,1.822,0,0,1,.021.457c-.008.3,0,.743-.042,1.311a31.527,31.527,0,0,1-.664,4.78A34.246,34.246,0,0,1,427,430.7a31.562,31.562,0,0,1-4.521,1.686c-.545.168-.98.252-1.271.325a1.932,1.932,0,0,1-.451.08c-.009-.036.6-.21,1.672-.565a37.21,37.21,0,0,0,4.441-1.8A35.04,35.04,0,0,0,445.974,406.6a37.341,37.341,0,0,0,.795-4.727c.113-1.128.152-1.756.188-1.754Z" transform="translate(16444.67 14912.094)" fill="#0d161d"/>
        <path id="Path_15668" data-name="Path 15668" d="M400.732,424.156,397.9,407.987l2.828,16.167v0" transform="translate(16448.604 14910.74)" fill="#a4a199"/>
        <path id="Path_15669" data-name="Path 15669" d="M400.731,421.711,397.9,405.544l.605-.909c.8-1.035,3.12-4.365,5.8-8.35.581-.864,1.141-1.7,1.667-2.494-.738,3.823-5.292,27.451-5.245,27.92" transform="translate(16448.604 14913.184)" fill="#123944"/>
        <path id="Path_15670" data-name="Path 15670" d="M398.635,404.527l7.567-11.364s-.036.183-.1.52c-.526.792-1.085,1.629-1.667,2.494-2.68,3.986-5,7.316-5.8,8.35" transform="translate(16448.477 14913.292)" fill="#070c11"/>
        <path id="Path_15671" data-name="Path 15671" d="M459.434,363.079a2.069,2.069,0,0,1,.06.482c.023.363.051.822.087,1.385.064,1.261.151,2.987.257,5.094.211,4.356.5,10.272.815,16.811.312,6.567.559,12.515.688,16.821.065,2.154.106,3.9.12,5.1,0,.565,0,1.024.006,1.388a2.136,2.136,0,0,1-.027.484,2.034,2.034,0,0,1-.06-.482c-.023-.364-.051-.822-.087-1.385-.064-1.261-.151-2.986-.257-5.094-.211-4.355-.5-10.274-.815-16.813-.312-6.565-.559-12.512-.688-16.818-.065-2.153-.106-3.9-.119-5.1,0-.565,0-1.024-.007-1.388a2.038,2.038,0,0,1,.027-.484" transform="translate(16438.02 14918.469)" fill="#0d161d"/>
        <path id="Path_15672" data-name="Path 15672" d="M419.055,447.531l-.019-.017c.058-.019.129-.044.214-.075l-.2.091m-.07-.06c-1.253-1.133-.94-3.339.218-4.592a10.263,10.263,0,0,1,4.578-2.36c7.926-2.567,15.892-6.2,21.12-12.681a12.46,12.46,0,0,1,2.341-2.519,3.761,3.761,0,0,1,2.11-.718,2.455,2.455,0,0,1,1.142.267c1.6.832,1.662,3.153.989,4.828a9.28,9.28,0,0,1-2.988,3.9s.006-.008,0-.01l-.008,0a9.582,9.582,0,0,0-1.176.514l-3.163,1.525c-2.667,1.295-6.351,3.081-10.442,5.009s-7.816,3.633-10.511,4.864l-3.19,1.47c-.5.235-.85.406-1.023.5m27.277-12.608c.435-.233.814-.438,1.129-.612.512-.283.859-.482,1.015-.584a9.03,9.03,0,0,1-1.293.8l-.851.4" transform="translate(16445.113 14907.882)" fill="#123944"/>
        <path id="Path_15673" data-name="Path 15673" d="M419.2,449.382c-.017-.014-.034-.029-.05-.044.173-.1.522-.267,1.023-.5l3.19-1.47c2.7-1.231,6.419-2.936,10.511-4.864s7.775-3.714,10.442-5.009l3.163-1.525a9.576,9.576,0,0,1,1.176-.514l.008,0s0,.006,0,.01l-.089.067c-.156.1-.5.3-1.015.585-.315.174-.694.379-1.129.612l-27.012,12.577c-.085.031-.156.055-.214.075" transform="translate(16444.947 14906.014)" fill="#080e15"/>
        <path id="Path_15674" data-name="Path 15674" d="M461.3,396.326l-.19-.251h0l.19.25h0" transform="translate(16437.727 14912.79)" fill="#080e15"/>
        <path id="Path_15675" data-name="Path 15675" d="M461.516,396.611l-.177-.233h0l.177.234" transform="translate(16437.688 14912.738)" fill="#bfbcb3"/>
        <path id="Path_15676" data-name="Path 15676" d="M464.315,396.165l-3.052-4.028-.177-.234-.19-.25c-.052-1.157-.108-2.341-.165-3.546-.317-6.539-.6-12.455-.815-16.811-.016-.315-.031-.621-.046-.919l4.444,25.788" transform="translate(16437.939 14917.213)" fill="#123944"/>
        <path id="Path_15677" data-name="Path 15677" d="M460.859,391.431l-.187-.248-1.023-22.1.184,1.067c.016.3.031.6.046.919.211,4.356.5,10.272.815,16.811.057,1.2.113,2.389.165,3.546h0" transform="translate(16437.979 14917.435)" fill="#080e15"/>
        <path id="Path_15678" data-name="Path 15678" d="M511.207,454.3l-7.826,26.838,33.34,9.906c.751-3.242-14.6-14.762-14.6-14.762l5.719-16.99L511.207,454.3" transform="translate(16430.453 14902.771)" fill="#f9354b"/>
        <path id="Path_15679" data-name="Path 15679" d="M513.683,478.078h-.041a1.365,1.365,0,0,1-1.251-1.4,1.427,1.427,0,0,1,1.269-1.27.855.855,0,0,1,.166-.016,1.475,1.475,0,0,1,1.295,1.331,1.5,1.5,0,0,1-1.438,1.357" transform="translate(16428.902 14899.142)" fill="#fa9eae"/>
        <path id="Path_15680" data-name="Path 15680" d="M536.722,496.62l-33.34-9.906,33.34,9.906a2.752,2.752,0,0,0-.587-1.862c.347.368.935,1.139.587,1.862" transform="translate(16430.453 14897.193)" fill="#f1f0ec"/>
        <path id="Path_15681" data-name="Path 15681" d="M536.722,496.064l-33.34-9.906.894-2.674,31.632,10.5a3.136,3.136,0,0,1,.227.219,2.752,2.752,0,0,1,.587,1.862" transform="translate(16430.453 14897.749)" fill="#fa9eae"/>
        <path id="Path_15682" data-name="Path 15682" d="M525.989,480.755c-.054.161-.889-.007-1.846.278-.964.26-1.586.843-1.717.734-.14-.076.392-.977,1.556-1.3s2.087.151,2.008.291Z" transform="translate(16427.18 14898.289)" fill="#0d161d"/>
        <path id="Path_15683" data-name="Path 15683" d="M529.836,483.807c-.009.169-.8.236-1.555.76-.772.5-1.133,1.205-1.293,1.149-.161-.019.01-1.007.964-1.64s1.926-.426,1.884-.269Z" transform="translate(16426.398 14897.722)" fill="#0d161d"/>
        <path id="Path_15684" data-name="Path 15684" d="M531.319,489.1c-.158-.009-.143-.89.54-1.658s1.55-.9,1.578-.739c.052.161-.584.492-1.135,1.131s-.816,1.3-.983,1.266Z" transform="translate(16425.658 14897.206)" fill="#0d161d"/>
        <path id="Path_15685" data-name="Path 15685" d="M527.058,475.739c-.113.128-.792-.319-1.731-.53-.935-.229-1.743-.134-1.786-.3-.06-.147.819-.541,1.922-.277s1.713,1,1.6,1.105Z" transform="translate(16426.984 14899.287)" fill="#0d161d"/>
        <path id="Path_15686" data-name="Path 15686" d="M527.31,470.1a3.268,3.268,0,0,1-1.667-.505,7.843,7.843,0,0,1-1.588-1.056,8.347,8.347,0,0,1-.807-.793,2.164,2.164,0,0,1-.387-.543.741.741,0,0,1,.182-.888.933.933,0,0,1,.825-.16,2.274,2.274,0,0,1,.6.272,6.282,6.282,0,0,1,.932.665,6.146,6.146,0,0,1,1.239,1.468,2.9,2.9,0,0,1,.579,1.648c-.089.031-.315-.589-.926-1.415a6.924,6.924,0,0,0-1.24-1.281,6.453,6.453,0,0,0-.871-.581c-.325-.2-.625-.289-.763-.159-.05.051-.062.072-.018.2a1.7,1.7,0,0,0,.285.4,9.159,9.159,0,0,0,.733.767,9.6,9.6,0,0,0,1.431,1.1,11.974,11.974,0,0,1,1.461.869Z" transform="translate(16427.113 14900.737)" fill="#0d161d"/>
        <path id="Path_15687" data-name="Path 15687" d="M527.889,470.1a2.771,2.771,0,0,1,.038-1.744,5.639,5.639,0,0,1,1.5-2.648,1.44,1.44,0,0,1,1.316-.527.816.816,0,0,1,.56.674,2.358,2.358,0,0,1-.011.662,3.868,3.868,0,0,1-.334,1.125,4,4,0,0,1-1.224,1.513c-.909.671-1.646.663-1.643.6-.03-.1.631-.243,1.376-.926a3.994,3.994,0,0,0,.994-1.412,3.6,3.6,0,0,0,.257-.974c.052-.369.005-.695-.138-.7-.166-.052-.527.132-.747.373a5.783,5.783,0,0,0-.683.782,6.276,6.276,0,0,0-.818,1.571c-.337.965-.344,1.626-.44,1.624Z" transform="translate(16426.252 14900.901)" fill="#0d161d"/>
        <path id="Path_15688" data-name="Path 15688" d="M530.835,404.225c.844,6.192-1.275,13.175-3.515,19.008L512.7,457.612l-16.183-2.485a20.83,20.83,0,0,1-7.688,5.194c-1.93.643-8.278,1.891-13.5-1.869,0,0-7.394,10.3-19.027,13.415s-29.245,4.832-37.772-8.777l40.59-39.115c.837.2,34.961-22.813,53.394-28.051,0,0,16.772-3.085,18.324,8.3Z" transform="translate(16445.055 14912.882)" fill="#0d161d"/>
        <path id="Path_15689" data-name="Path 15689" d="M501.68,460.14a1.21,1.21,0,0,1,.219-.132l.662-.351c.582-.308,1.448-.75,2.542-1.354a42.022,42.022,0,0,0,3.87-2.387,20.192,20.192,0,0,0,4.382-4.062,14.082,14.082,0,0,0,2.841-6.571,22.054,22.054,0,0,0-.346-8.271,13.348,13.348,0,0,0-4.467-7.774,16.852,16.852,0,0,0-9.139-3.253,28.335,28.335,0,0,0-5.011.042,37.674,37.674,0,0,0-4.8.844,56.916,56.916,0,0,0-8.734,3.021c-5.412,2.362-10.107,4.915-14.232,6.677a50.9,50.9,0,0,1-10.059,3.358c-.612.137-1.162.224-1.639.3s-.881.133-1.21.161l-.747.073a1.241,1.241,0,0,1-.256.01,1.086,1.086,0,0,1,.251-.055l.74-.114c.326-.042.729-.105,1.2-.2s1.018-.185,1.625-.335a53.473,53.473,0,0,0,9.972-3.473c4.1-1.792,8.767-4.369,14.2-6.762a56.612,56.612,0,0,1,8.79-3.067,37.727,37.727,0,0,1,4.863-.86,28.526,28.526,0,0,1,5.091-.045,17.212,17.212,0,0,1,9.365,3.352,11.818,11.818,0,0,1,3.044,3.7,17.03,17.03,0,0,1,1.547,4.317,22.3,22.3,0,0,1,.311,8.417,14.336,14.336,0,0,1-2.954,6.7,20.181,20.181,0,0,1-4.485,4.073,38.988,38.988,0,0,1-3.928,2.336c-1.109.585-1.987,1-2.582,1.286l-.682.313a1.139,1.139,0,0,1-.238.093Z" transform="translate(16438.682 14907.733)" fill="#283d47"/>
        <path id="Path_15690" data-name="Path 15690" d="M522.044,412.863a97.791,97.791,0,0,1-7.143,10.83,97.273,97.273,0,0,1,7.143-10.83Z" transform="translate(16428.471 14909.901)" fill="#283d47"/>
        <path id="Path_15691" data-name="Path 15691" d="M505.382,464.047a30.089,30.089,0,0,1-2.941.758c-1.817.45-4.31,1.139-7,2.081s-5.073,1.96-6.775,2.741a29.824,29.824,0,0,1-2.772,1.241,2.978,2.978,0,0,1,.682-.455c.451-.271,1.119-.635,1.957-1.061a56.617,56.617,0,0,1,13.844-4.845c.921-.189,1.671-.321,2.192-.391a2.967,2.967,0,0,1,.816-.07Z" transform="translate(16433.463 14901.096)" fill="#283d47"/>
        <path id="Path_15692" data-name="Path 15692" d="M529.619,466.692c-.074.025-.269-.734-.955-1.746a7,7,0,0,0-8.331-2.7c-1.149.416-1.753.916-1.8.852-.017-.02.115-.166.392-.385a5.873,5.873,0,0,1,1.295-.751,6.9,6.9,0,0,1,8.7,2.823,5.884,5.884,0,0,1,.607,1.368c.1.34.117.536.091.542Z" transform="translate(16427.846 14901.551)" fill="#283d47"/>
        <path id="Path_15693" data-name="Path 15693" d="M445.264,452.3a2.606,2.606,0,0,1,.21.774,12.055,12.055,0,0,1,.186,2.178,13.417,13.417,0,0,1-1.908,6.914,10.557,10.557,0,0,1-5.545,4.506,7.865,7.865,0,0,1-2.154.413,2.344,2.344,0,0,1-.8-.038,15.556,15.556,0,0,0,2.854-.663,10.78,10.78,0,0,0,5.279-4.445,14.086,14.086,0,0,0,1.971-6.695c.074-1.814-.171-2.933-.092-2.945Z" transform="translate(16442.176 14903.116)" fill="#283d47"/>
        <path id="Path_15694" data-name="Path 15694" d="M424.983,474.307c-.092.074-.52-.3-.923-.864s-.619-1.095-.515-1.156.469.354.865.9.666,1.039.573,1.114Z" transform="translate(16444.195 14899.677)" fill="#283d47"/>
        <path id="Path_15695" data-name="Path 15695" d="M429.032,478.714c-.078.089-.545-.227-1.041-.707s-.829-.935-.742-1.017.553.235,1.042.707.819.927.741,1.017Z" transform="translate(16443.555 14898.869)" fill="#283d47"/>
        <path id="Path_15696" data-name="Path 15696" d="M433.824,482.3c-.059.1-.578-.118-1.158-.5s-1-.762-.925-.858.589.126,1.159.5.982.754.924.858Z" transform="translate(16442.781 14898.189)" fill="#283d47"/>
        <path id="Path_15697" data-name="Path 15697" d="M439.271,484.767c-.032.114-.588.017-1.241-.219s-1.143-.516-1.095-.625.6-.01,1.241.219,1.126.51,1.094.625Z" transform="translate(16441.887 14897.682)" fill="#283d47"/>
        <path id="Path_15698" data-name="Path 15698" d="M445.154,485.805c0,.118-.564.165-1.255.1s-1.236-.209-1.216-.328.582-.163,1.255-.1,1.218.209,1.216.328Z" transform="translate(16440.896 14897.411)" fill="#283d47"/>
        <path id="Path_15699" data-name="Path 15699" d="M451.138,485.523c.014.118-.536.253-1.229.3a5.134,5.134,0,0,1-.929-.01H449c-.2-.017-.328-.054-.334-.109s.108-.117.3-.176h.017a5.213,5.213,0,0,1,.908-.134c.674-.045,1.232.014,1.247.132Z" transform="translate(16439.867 14897.424)" fill="#283d47"/>
        <path id="Path_15700" data-name="Path 15700" d="M457.041,484.474c.029.116-.493.326-1.167.47s-1.237.166-1.258.049.5-.329,1.167-.47,1.229-.165,1.258-.049Z" transform="translate(16438.844 14897.592)" fill="#283d47"/>
        <path id="Path_15701" data-name="Path 15701" d="M462.786,482.733c.041.112-.455.38-1.109.6s-1.211.3-1.245.19.462-.383,1.109-.6,1.2-.3,1.245-.189Z" transform="translate(16437.844 14897.887)" fill="#283d47"/>
        <path id="Path_15702" data-name="Path 15702" d="M468.322,480.395c.052.107-.413.425-1.041.71s-1.173.428-1.219.318.42-.427,1.041-.71,1.166-.425,1.219-.318Z" transform="translate(16436.875 14898.287)" fill="#283d47"/>
        <path id="Path_15703" data-name="Path 15703" d="M473.6,477.513c.062.1-.369.464-.965.81s-1.124.541-1.181.437.374-.467.964-.81,1.119-.538,1.181-.437Z" transform="translate(16435.947 14898.781)" fill="#283d47"/>
        <path id="Path_15704" data-name="Path 15704" d="M478.579,474.135c.072.1-.323.5-.883.9s-1.067.647-1.134.548.329-.5.883-.9,1.062-.643,1.134-.549Z" transform="translate(16435.068 14899.361)" fill="#283d47"/>
        <path id="Path_15705" data-name="Path 15705" d="M483.226,470.318c.081.088-.277.525-.8.975s-1,.741-1.08.649.281-.529.8-.975,1-.737,1.08-.649Z" transform="translate(16434.246 14900.018)" fill="#283d47"/>
        <path id="Path_15706" data-name="Path 15706" d="M487.6,466.2c.079.089-.261.541-.758,1.008s-.971.777-1.052.7.253-.536.757-1.009.974-.785,1.053-.695Z" transform="translate(16433.48 14900.726)" fill="#283d47"/>
        <path id="Path_15707" data-name="Path 15707" d="M492.3,462.511c.066.1-.329.5-.881.9s-1.06.648-1.133.555.32-.5.881-.9,1.068-.654,1.133-.555Z" transform="translate(16432.707 14901.362)" fill="#283d47"/>
        <path id="Path_15708" data-name="Path 15708" d="M497.516,459.609c.046.11-.41.444-1.019.745s-1.152.462-1.21.358.4-.437,1.019-.745,1.164-.468,1.21-.358Z" transform="translate(16431.846 14901.863)" fill="#283d47"/>
        <path id="Path_15709" data-name="Path 15709" d="M503.2,457.822c.021.117-.5.346-1.153.51s-1.22.205-1.257.092.479-.342,1.153-.51,1.236-.209,1.257-.092Z" transform="translate(16430.898 14902.177)" fill="#283d47"/>
        <path id="Path_15710" data-name="Path 15710" d="M509.162,457.473c-.013.119-.569.159-1.244.149s-1.231-.074-1.239-.194.55-.251,1.246-.238,1.249.165,1.237.282Z" transform="translate(16429.885 14902.273)" fill="#283d47"/>
        <path id="Path_15711" data-name="Path 15711" d="M514.972,458.861c-.055.105-.584-.053-1.22-.275s-1.147-.447-1.118-.564.6-.078,1.262.156,1.131.577,1.076.682Z" transform="translate(16428.859 14902.142)" fill="#283d47"/>
        <path id="Path_15712" data-name="Path 15712" d="M514.192,463.013c-.075-.1.3-.5.737-1s.8-.912.9-.851-.107.607-.582,1.138-.988.8-1.058.714Z" transform="translate(16428.594 14901.592)" fill="#283d47"/>
        <path id="Path_15713" data-name="Path 15713" d="M508.9,465.944c-.036-.113.44-.415,1.064-.672s1.176-.38,1.231-.275-.421.407-1.064.672-1.194.388-1.231.275Z" transform="translate(16429.504 14900.937)" fill="#283d47"/>
        <path id="Path_15714" data-name="Path 15714" d="M503.183,467.808c-.041-.112.456-.38,1.109-.6s1.21-.3,1.246-.19-.462.382-1.109.6-1.205.3-1.245.19Z" transform="translate(16430.486 14900.591)" fill="#283d47"/>
        <path id="Path_15715" data-name="Path 15715" d="M497.574,469.925c-.045-.111.438-.4,1.078-.656s1.192-.367,1.234-.256-.44.4-1.077.657-1.19.365-1.235.255Z" transform="translate(16431.451 14900.246)" fill="#283d47"/>
        <path id="Path_15716" data-name="Path 15716" d="M492.045,472.245c-.048-.109.424-.418,1.056-.69s1.181-.4,1.227-.295-.427.419-1.056.69-1.178.4-1.226.295Z" transform="translate(16432.404 14899.859)" fill="#283d47"/>
        <path id="Path_15736" data-name="Path 15736" d="M543,246.854c.094.072-3.3,4.682-7.581,10.3s-7.83,10.108-7.925,10.035,3.3-4.681,7.582-10.3,7.83-10.107,7.924-10.034Z" transform="translate(16452.797 14958.339)" fill="#0d161d"/>
        <path id="Path_15737" data-name="Path 15737" d="M566.4,262.723c.051.108-7.089,3.528-15.943,7.638s-16.077,7.355-16.127,7.247,7.088-3.527,15.946-7.638,16.075-7.354,16.125-7.246Z" transform="translate(16445.826 14960.575)" fill="#0d161d"/>
        <path id="Path_15738" data-name="Path 15738" d="M564.348,295.289c-.011.118-5.1-.275-11.363-.879s-11.334-1.19-11.323-1.309,5.1.275,11.365.88,11.333,1.19,11.322,1.308Z" transform="translate(16441.252 14959.491)" fill="#0d161d"/>
        <path id="Path_15752" data-name="Path 15752" d="M397.5,365.344a.991.991,0,0,1,.473-.075,1.852,1.852,0,0,1,1.224.609,2.67,2.67,0,0,1,.715,2.036,11.689,11.689,0,0,1-.63,2.786,3.821,3.821,0,0,0,.187,3.188c.59,1.024,1.791,1.812,2.283,3.241a3.828,3.828,0,0,1-1.2,4.16,3.909,3.909,0,0,1-2.236.869,8.379,8.379,0,0,1-2.4-.389,4.312,4.312,0,0,0-2.229-.143,3.248,3.248,0,0,0-1.648,1.343,11.652,11.652,0,0,1-1.413,1.765,2.808,2.808,0,0,1-2.091.768,4.17,4.17,0,0,1-3.3-2.194,8,8,0,0,1-.842-3.377c-.062-1.059-.026-2.01-.048-2.84a13.4,13.4,0,0,0-.182-2.114,11.293,11.293,0,0,0-.5-1.739,1.56,1.56,0,0,1,.237.411,6.177,6.177,0,0,1,.431,1.294,12.48,12.48,0,0,1,.258,2.138c.045.837.031,1.789.111,2.827a7.778,7.778,0,0,0,.85,3.225,3.818,3.818,0,0,0,3.01,1.97,2.4,2.4,0,0,0,1.8-.676,11.529,11.529,0,0,0,1.35-1.713,3.652,3.652,0,0,1,1.868-1.5,4.684,4.684,0,0,1,2.453.136,8.1,8.1,0,0,0,2.269.379,3.5,3.5,0,0,0,1.993-.769,3.428,3.428,0,0,0,1.089-3.708c-.406-1.265-1.568-2.07-2.212-3.182a3.287,3.287,0,0,1-.472-1.795,6.424,6.424,0,0,1,.3-1.659,11.943,11.943,0,0,0,.682-2.713,2.512,2.512,0,0,0-.6-1.912,1.835,1.835,0,0,0-1.109-.636c-.3-.036-.46.012-.464-.012Z" transform="translate(16451.055 14918.092)" fill="#fafaf8"/>
        <path id="Path_15753" data-name="Path 15753" d="M403.133,430.635c.025-.007.052.2.246.512a2.174,2.174,0,0,0,1.287.893,2.575,2.575,0,0,0,2.362-.5,4.933,4.933,0,0,0,1.584-2.893c.264-1.234.218-2.644.455-4.159a6.766,6.766,0,0,1,.764-2.262,3.778,3.778,0,0,1,1.9-1.7,5.426,5.426,0,0,1,2.66-.243c.9.1,1.783.3,2.684.416a6.371,6.371,0,0,0,2.7-.129,6.12,6.12,0,0,0,2.421-1.345,5.24,5.24,0,0,0,1.488-2.309,4.394,4.394,0,0,0-.049-2.639,4.549,4.549,0,0,0-3.6-3.2c-1.624-.183-3.15.619-4.713.652a4.507,4.507,0,0,1-2.185-.493,11.01,11.01,0,0,1-1.716-1.1,10.468,10.468,0,0,0-2.9-1.773,2.965,2.965,0,0,0-2.446.161,2.227,2.227,0,0,0-1.062,1.154c-.123.348-.106.554-.131.551a1.237,1.237,0,0,1,.049-.579A2.246,2.246,0,0,1,406,408.372a3.07,3.07,0,0,1,1.156-.4,3.57,3.57,0,0,1,1.446.153,10.444,10.444,0,0,1,3.008,1.756,5.885,5.885,0,0,0,3.707,1.481,11.683,11.683,0,0,0,2.257-.416,7.078,7.078,0,0,1,2.514-.272,4.941,4.941,0,0,1,3.954,3.465,4.81,4.81,0,0,1,.058,2.894,5.658,5.658,0,0,1-1.608,2.5,6.513,6.513,0,0,1-2.595,1.439,6.791,6.791,0,0,1-2.872.136c-.926-.123-1.81-.326-2.676-.425a5.03,5.03,0,0,0-2.467.2,3.393,3.393,0,0,0-1.72,1.524,6.446,6.446,0,0,0-.74,2.132c-.245,1.46-.218,2.886-.508,4.162a5.148,5.148,0,0,1-1.734,3.019,2.752,2.752,0,0,1-2.557.469,2.208,2.208,0,0,1-1.314-1.01,1.254,1.254,0,0,1-.171-.556Z" transform="translate(16447.703 14910.746)" fill="#fafaf8"/>
        <path id="Path_15754" data-name="Path 15754" d="M433.756,374.331a2.94,2.94,0,0,1,.575-.773,4.413,4.413,0,0,1,2.45-1.244,4.275,4.275,0,0,1,3.958,1.576,4.577,4.577,0,0,1,1,2.562,6.784,6.784,0,0,0,.627,2.88,2.265,2.265,0,0,0,1.21.9,6.143,6.143,0,0,0,1.643.255c.577.03,1.175.026,1.792.09a3.392,3.392,0,0,1,1.814.638,2.264,2.264,0,0,1,.632.808,2.223,2.223,0,0,1,.166,1.033,3.456,3.456,0,0,1-.862,1.87,5.235,5.235,0,0,1-1.647,1.3c-.625.318-1.278.573-1.912.867a6.768,6.768,0,0,0-1.766,1.086,3.46,3.46,0,0,0-1.033,1.763c-.34,1.4-.026,2.9-.1,4.477a5.791,5.791,0,0,1-.629,2.315,2.73,2.73,0,0,1-1.971,1.479,3.031,3.031,0,0,1-2.373-.784,7.314,7.314,0,0,1-1.581-1.927,19.524,19.524,0,0,0-1.279-2.034,3.729,3.729,0,0,0-1.762-1.372,3.17,3.17,0,0,0-2.168.138,13.123,13.123,0,0,0-2.015,1.077,11.594,11.594,0,0,1-2.059,1.072,6.243,6.243,0,0,1-2.273.376,7.12,7.12,0,0,1-4.146-1.455,5.909,5.909,0,0,1-2.272-3.5,4.04,4.04,0,0,1,.989-3.779,3.865,3.865,0,0,1,1.7-.882,14.383,14.383,0,0,1,1.778-.309,5.725,5.725,0,0,0,3.049-1.032,6.039,6.039,0,0,0,1.624-2.456c.351-.884.589-1.765.89-2.564a7.557,7.557,0,0,1,1.118-2.114,9.345,9.345,0,0,1,1.446-1.392,5.039,5.039,0,0,1,2.475-1.2,1.1,1.1,0,0,1,.916.257,1.423,1.423,0,0,0-.907-.171,5.127,5.127,0,0,0-2.379,1.244,9.418,9.418,0,0,0-1.39,1.387,7.5,7.5,0,0,0-1.053,2.07c-.286.792-.512,1.672-.861,2.582a6.3,6.3,0,0,1-1.683,2.59,6.011,6.011,0,0,1-3.2,1.128A5.786,5.786,0,0,0,419,386.282a3.683,3.683,0,0,0-.861,3.443,5.532,5.532,0,0,0,2.141,3.262,6.725,6.725,0,0,0,3.913,1.359,5.879,5.879,0,0,0,2.121-.355,11.278,11.278,0,0,0,1.984-1.042,13.442,13.442,0,0,1,2.082-1.114,3.6,3.6,0,0,1,2.452-.15A4.152,4.152,0,0,1,434.8,393.2a19.745,19.745,0,0,1,1.31,2.078A6.913,6.913,0,0,0,437.6,397.1a2.6,2.6,0,0,0,2.035.691,2.3,2.3,0,0,0,1.661-1.259,5.37,5.37,0,0,0,.582-2.141c.082-1.482-.243-3.031.123-4.545a3.88,3.88,0,0,1,1.16-1.962,7.155,7.155,0,0,1,1.874-1.149c.65-.3,1.3-.547,1.9-.852a4.862,4.862,0,0,0,1.533-1.2,3.1,3.1,0,0,0,.783-1.657,1.874,1.874,0,0,0-.131-.856,1.9,1.9,0,0,0-.525-.676,3.056,3.056,0,0,0-1.626-.571c-.589-.065-1.184-.067-1.771-.1a6.418,6.418,0,0,1-1.729-.286,2.569,2.569,0,0,1-1.361-1.032,6.947,6.947,0,0,1-.645-3.018,4.325,4.325,0,0,0-.912-2.44,4.1,4.1,0,0,0-3.747-1.561,4.432,4.432,0,0,0-2.413,1.141,8.983,8.983,0,0,0-.635.711Z" transform="translate(16445.203 14916.889)" fill="#fafaf8"/>
        <path id="Path_15755" data-name="Path 15755" d="M418.83,356.49a2.923,2.923,0,0,1-1.717.843,5.547,5.547,0,0,1-2.108.016,3.656,3.656,0,0,1-2.26-1.3,4.931,4.931,0,0,1-.815-2.465,6.714,6.714,0,0,1,.149-2.093,2.793,2.793,0,0,1,.88-1.695,7.651,7.651,0,0,0-.581,1.756,7.214,7.214,0,0,0-.052,1.993,4.794,4.794,0,0,0,.765,2.246,3.377,3.377,0,0,0,2,1.166,5.761,5.761,0,0,0,1.974.073,8.784,8.784,0,0,0,1.77-.542Z" transform="translate(16446.193 14920.754)" fill="#fafaf8"/>
        <path id="Path_15756" data-name="Path 15756" d="M459.621,355.272c.013.006-.007.083-.059.228a2.331,2.331,0,0,1-.325.594,3.677,3.677,0,0,1-2.058,1.373,3.734,3.734,0,0,1-1.749.039,4.606,4.606,0,0,1-1.76-.941,5.855,5.855,0,0,0-1.745-1.068,1.577,1.577,0,0,0-1.764.7,16.063,16.063,0,0,0-1.019,2.016,4.078,4.078,0,0,1-1.461,1.667,3.924,3.924,0,0,1-5.526-1.192,1.845,1.845,0,0,1-.339-.84c.036-.015.142.292.479.747a4.034,4.034,0,0,0,1.87,1.4,3.674,3.674,0,0,0,3.3-.44,3.736,3.736,0,0,0,1.3-1.527,15.093,15.093,0,0,1,1.047-2.079,2.231,2.231,0,0,1,.983-.8,1.964,1.964,0,0,1,1.244-.048,5.978,5.978,0,0,1,1.874,1.16,4.351,4.351,0,0,0,1.6.908,3.494,3.494,0,0,0,1.591.012,3.689,3.689,0,0,0,2-1.181c.363-.43.477-.736.516-.719Z" transform="translate(16441.047 14919.856)" fill="#fafaf8"/>
        <path id="Path_15757" data-name="Path 15757" d="M469.334,390.247a4.543,4.543,0,0,1-.918-.6,19.068,19.068,0,0,1-2.259-1.964,10.621,10.621,0,0,1-1.313-1.622,5.537,5.537,0,0,1-.825-2.278,4.489,4.489,0,0,1,.42-2.658,3.467,3.467,0,0,1,.936-1.116,10.123,10.123,0,0,1,1.222-.778,5.109,5.109,0,0,0,1.1-.795,2.571,2.571,0,0,0,.634-1.092,6.311,6.311,0,0,0,.083-2.5,12.874,12.874,0,0,1-.171-2.384,2.878,2.878,0,0,1,.768-1.98,4.383,4.383,0,0,1,2.789-1.12c.754,0,1.054.386,1.024.384a1.817,1.817,0,0,0-1.019-.217,4.411,4.411,0,0,0-2.581,1.17,2.6,2.6,0,0,0-.625,1.782,13.306,13.306,0,0,0,.207,2.314,6.558,6.558,0,0,1-.071,2.674,2.97,2.97,0,0,1-.732,1.272,5.476,5.476,0,0,1-1.191.868,4.464,4.464,0,0,0-2,1.72,4.127,4.127,0,0,0-.4,2.412,6.667,6.667,0,0,0,1.965,3.739c1.711,1.818,3.01,2.706,2.956,2.772Z" transform="translate(16437.232 14917.388)" fill="#fafaf8"/>
        <path id="Path_15758" data-name="Path 15758" d="M447.808,414.423a1.33,1.33,0,0,1,.387-.026c.253,0,.628.012,1.108.064a10.788,10.788,0,0,1,3.921,1.143,7.144,7.144,0,0,1,3.712,4.7,4.987,4.987,0,0,1-.516,3.586,4.845,4.845,0,0,1-3.112,2.326,4.362,4.362,0,0,1-2.009-.11,2.713,2.713,0,0,0-1.725-.031,3.307,3.307,0,0,0-1.337,1.031,9.657,9.657,0,0,0-.923,1.431A5.59,5.59,0,0,1,445.156,431a4.069,4.069,0,0,1-2.844.335,3.59,3.59,0,0,1-1.976-1.288,3.973,3.973,0,0,1-.76-1.609,3.289,3.289,0,0,1-.061-1.118,1.055,1.055,0,0,1,.086-.379,5.565,5.565,0,0,0,.138,1.457,3.923,3.923,0,0,0,.783,1.5,3.374,3.374,0,0,0,1.862,1.145,3.78,3.78,0,0,0,2.6-.356,5.272,5.272,0,0,0,1.979-2.343,5.313,5.313,0,0,1,2.458-2.663,3.127,3.127,0,0,1,1.973.009,3.962,3.962,0,0,0,1.825.105,4.451,4.451,0,0,0,2.833-2.117,4.607,4.607,0,0,0,.493-3.292,6.9,6.9,0,0,0-3.469-4.512,11.431,11.431,0,0,0-3.8-1.244c-.943-.148-1.475-.167-1.474-.2Z" transform="translate(16441.447 14909.638)" fill="#fafaf8"/>
        <path id="Path_15759" data-name="Path 15759" d="M429.231,446.681a5.734,5.734,0,0,0-.777-1.707,4.135,4.135,0,0,0-1.547-1.251,3.269,3.269,0,0,0-4.269,1.147,4.129,4.129,0,0,0-.713,1.857,5.739,5.739,0,0,0,.182,1.866c-.021.012-.137-.14-.271-.456a3.3,3.3,0,0,1-.215-1.437,4.18,4.18,0,0,1,.688-2.052,3.571,3.571,0,0,1,4.771-1.281A4.178,4.178,0,0,1,428.7,444.8a3.311,3.311,0,0,1,.533,1.351c.043.341.018.531-.006.532Z" transform="translate(16444.523 14904.727)" fill="#fafaf8"/>
        <path id="Path_15760" data-name="Path 15760" d="M429.629,461.219c-.041.008-.076-.389-.373-1.017a4.36,4.36,0,0,0-1.985-2.038,4.1,4.1,0,0,0-4.037.3,6.454,6.454,0,0,0-1.672,1.888,5.528,5.528,0,0,1-.946,1.076,2.212,2.212,0,0,1-1.444.536,3.588,3.588,0,0,1-2.485-1.493,8.245,8.245,0,0,0-1.754-1.834,3.1,3.1,0,0,0-2.145-.386,4.269,4.269,0,0,0-1.812.755,7.328,7.328,0,0,0-1.91,2.195,8.989,8.989,0,0,1-.565.936,3.851,3.851,0,0,1,.418-1.018,6.884,6.884,0,0,1,1.875-2.357,4.484,4.484,0,0,1,1.935-.863,3.441,3.441,0,0,1,2.413.4,8.348,8.348,0,0,1,1.868,1.9,3.214,3.214,0,0,0,2.169,1.335c.885.026,1.533-.715,2.04-1.428a6.693,6.693,0,0,1,1.795-1.971,4.282,4.282,0,0,1,6.394,2,3.567,3.567,0,0,1,.213.8c.018.187.021.286.006.287Z" transform="translate(16446.779 14902.235)" fill="#fafaf8"/>
        <path id="Path_15761" data-name="Path 15761" d="M439.406,425.387a9.68,9.68,0,0,0-2.381-1.048,7.405,7.405,0,0,0-2.786-.15,6.648,6.648,0,0,0-3.144,1.224,5.731,5.731,0,0,0-1.988,2.691,5.971,5.971,0,0,0-.3,2.746,7.746,7.746,0,0,0,.879,2.434,1.785,1.785,0,0,1-.464-.551,4.892,4.892,0,0,1-.715-1.836,6.009,6.009,0,0,1,2.332-5.831,6.829,6.829,0,0,1,3.353-1.272,7.287,7.287,0,0,1,2.913.25,5.787,5.787,0,0,1,1.773.854c.372.279.543.473.527.489Z" transform="translate(16443.352 14908.029)" fill="#fafaf8"/>
      </g>
    </g>
    <g id="Group_4610" data-name="Group 4610" transform="translate(16038.781 14249.552) rotate(68)">
      <path id="Path_11288" data-name="Path 11288" d="M12.384,10.646Q14.262,5.323,16.139,0l.548,1.193C16.1,9.134,15.574,17.235,12.454,24.55,10.007,30.287,5.572,35.514,0,38.016A23.047,23.047,0,0,0,3.469,31.68c3.116-8.419,2.815-17.646,2.9-26.749q1-1.926,2-3.851l4.019,9.566Z" transform="translate(23.028 36.097)" fill="#a32413"/>
      <path id="Path_11289" data-name="Path 11289" d="M32.178,27.616C35.3,20.3,35.828,12.2,36.41,4.259q.651,1.414,1.3,2.83L41.87.948q2.341,5.883,4.684,11.765Q49.7,6.356,52.851,0q1.182,5.127,2.363,10.254l2.149-4.738a105.29,105.29,0,0,0-1.112,19.093C56.6,35.03,58.367,46.1,53.634,55.393A26.51,26.51,0,0,1,34.057,69.06a31.988,31.988,0,0,1-23.364-6.185A38.6,38.6,0,0,1,0,50.43a18.669,18.669,0,0,0,9.217-4.524,10.532,10.532,0,0,0,5.127-.627,13.445,13.445,0,0,0,5.38-4.2c5.572-2.5,10.007-7.729,12.454-13.466Z" transform="translate(3.304 33.031)" fill="#ed2e13"/>
      <path id="Path_11290" data-name="Path 11290" d="M0,1.947C1.828,1.205,3.624.742,5.453,0c.9,2.907,3.887,4.6,7.069,4.973A18.672,18.672,0,0,1,3.305,9.5,43.836,43.836,0,0,1,0,1.947Z" transform="translate(0 73.964)" fill="#a32413"/>
      <path id="Path_11291" data-name="Path 11291" d="M15.8,12.549c-3.927,7.226-4.807,15.671-5.416,23.874l-.06.818-.549-1.193L6.019,46.694,2,37.128q-1,1.925-2,3.851C.073,32.84.451,24.8,3.851,17.531A31.247,31.247,0,0,1,23.172.99,26.7,26.7,0,0,1,29.092,0,30.523,30.523,0,0,0,15.8,12.549Z" transform="translate(29.394 0.05)" fill="#e3d09a"/>
      <path id="Path_11292" data-name="Path 11292" d="M38.323,5.276A8.653,8.653,0,0,0,31.147,8.3,22.014,22.014,0,0,0,27.2,15.307a105.5,105.5,0,0,0-6.247,23.24L18.8,43.285q-1.182-5.127-2.364-10.254-3.15,6.355-6.3,12.713Q7.8,39.86,5.46,33.978L1.3,40.119Q.65,38.7,0,37.29l.06-.818C.669,28.27,1.549,19.824,5.476,12.6A30.525,30.525,0,0,1,18.77.049,33.514,33.514,0,0,1,38.323,5.276Z" transform="translate(39.716 0)" fill="#f4eabb"/>
    </g>
  </g>
</svg>
