<svg xmlns="http://www.w3.org/2000/svg" width="126.287" height="108" viewBox="0 0 126.287 108">
  <g id="Group_9744" data-name="Group 9744" transform="translate(1698 -2716)">
    <path id="Path_23127" data-name="Path 23127" d="M22.97,108.113a7.369,7.369,0,0,1-7.36-7.36V34.083a7.369,7.369,0,0,1,7.36-7.36H126.35a7.369,7.369,0,0,1,7.36,7.36v66.67a7.369,7.369,0,0,1-7.36,7.36H22.97Z" transform="translate(-1709.517 2690.066)" fill="#103857"/>
    <path id="Path_23128" data-name="Path 23128" d="M133.273,98.381a2.839,2.839,0,0,1-2.831,2.831H27.062a2.839,2.839,0,0,1-2.831-2.831V38.174a2.839,2.839,0,0,1,2.831-2.831h103.38a2.839,2.839,0,0,1,2.831,2.831Z" transform="translate(-1713.609 2685.975)" fill="#658ea1"/>
    <path id="Path_23129" data-name="Path 23129" d="M29.359,98.381V38.174a2.839,2.839,0,0,1,2.831-2.831H27.062a2.839,2.839,0,0,0-2.831,2.831V98.38a2.839,2.839,0,0,0,2.831,2.831H32.19A2.838,2.838,0,0,1,29.359,98.381Z" transform="translate(-1713.609 2685.975)" fill="#6377e7"/>
    <path id="Path_23130" data-name="Path 23130" d="M219.452,98.381V38.174a2.839,2.839,0,0,0-2.831-2.831h5.128a2.839,2.839,0,0,1,2.831,2.831V98.38a2.839,2.839,0,0,1-2.831,2.831h-5.128A2.838,2.838,0,0,0,219.452,98.381Z" transform="translate(-1804.916 2685.975)" fill="#63e2e7"/>
    <path id="Path_23131" data-name="Path 23131" d="M88.847,204.348h41.142V209.3H88.847Z" transform="translate(-1744.275 2605.766)" fill="#fb5124"/>
    <path id="Path_23132" data-name="Path 23132" d="M99.983,181.632h29.441v11.935H99.983Z" transform="translate(-1749.56 2616.547)" fill="#9e9e9e"/>
    <path id="Path_23133" data-name="Path 23133" d="M88.847,204.348h5.128V209.3H88.847Z" transform="translate(-1744.275 2605.766)" fill="#f43075"/>
    <path id="Path_23134" data-name="Path 23134" d="M99.983,181.632h5.128v11.935H99.983Z" transform="translate(-1749.56 2616.547)" fill="#707070"/>
    <circle id="Ellipse_99" data-name="Ellipse 99" cx="2.424" cy="2.424" r="2.424" transform="translate(-1637.28 2790.259)" fill="#f8af23"/>
    <path id="Path_23135" data-name="Path 23135" d="M166.8,95.965H139.918a6.323,6.323,0,0,1-6.3-6.3v-.189a6.323,6.323,0,0,1,6.3-6.3H166.8a6.323,6.323,0,0,1,6.3,6.3v.189A6.323,6.323,0,0,1,166.8,95.965Z" transform="translate(-1765.521 2663.278)" fill="#274e6c"/>
    <g id="Group_9738" data-name="Group 9738" transform="translate(-1624.343 2750.244)">
      <g id="Group_9736" data-name="Group 9736" transform="translate(0 0)">
        <path id="Path_23136" data-name="Path 23136" d="M156.143,131.913l-7.787-16.405a3.571,3.571,0,1,1,6.453-3.063l1.656,3.488V93.969a3.571,3.571,0,0,1,7.142,0v14.418a3.571,3.571,0,1,1,7.142,0v1.291a3.571,3.571,0,0,1,7.142,0v1.412a3.571,3.571,0,1,1,7.142,0v27.242H156.463v-5.746Z" transform="translate(-148.011 -90.398)" fill="#eaedc5"/>
      </g>
      <g id="Group_9737" data-name="Group 9737" transform="translate(30.889 17.122)">
        <path id="Path_23137" data-name="Path 23137" d="M209.366,122.986a3.56,3.56,0,0,0-2.564,1.088,3.558,3.558,0,0,1,1.008,2.483V153.8h5.128V126.557a3.572,3.572,0,0,0-3.572-3.571Z" transform="translate(-206.802 -122.986)" fill="#d4d6b1"/>
      </g>
    </g>
    <g id="Group_9740" data-name="Group 9740" transform="translate(-1698 2716)">
      <circle id="Ellipse_100" data-name="Ellipse 100" cx="3.289" cy="3.289" r="3.289" transform="translate(47.758 57.042)" fill="#9e9e9e"/>
      <path id="Path_23138" data-name="Path 23138" d="M52.417,61.657H74.059V77.7H52.417Z" transform="translate(-28.985 -42.514)" fill="#ffffb0"/>
      <path id="Path_23139" data-name="Path 23139" d="M70.616,61.657H65.009v8.755l1.433-1.682,1.371,1.682,1.433-1.682,1.37,1.682,1.433-1.682,1.371,1.682V61.657Z" transform="translate(-34.962 -42.514)" fill="#ffffb0"/>
      <path id="Path_23140" data-name="Path 23140" d="M86.47,69.089l2.963,13.155h9.261l2.963-13.155Z" transform="translate(-45.147 -46.041)" fill="#5e9b89"/>
      <path id="Path_23141" data-name="Path 23141" d="M50,88.822H85.064V100.74l-29.542,5.287Z" transform="translate(-27.836 -55.406)" fill="#9e9e9e"/>
      <circle id="Ellipse_101" data-name="Ellipse 101" cx="3.289" cy="3.289" r="3.289" transform="translate(27.592 57.042)" fill="#9e9e9e"/>
      <g id="Group_9739" data-name="Group 9739" transform="translate(0 0)">
        <path id="Path_23142" data-name="Path 23142" d="M125.1,171.482a3.212,3.212,0,1,0-3.212-3.212A3.215,3.215,0,0,0,125.1,171.482Zm0-4.847a1.636,1.636,0,1,1-1.636,1.636A1.637,1.637,0,0,1,125.1,166.634Z" transform="translate(-61.955 -91.587)" fill="#103857"/>
        <path id="Path_23143" data-name="Path 23143" d="M34.8,40.592a2.3,2.3,0,1,0,2.3,2.3A2.3,2.3,0,0,0,34.8,40.592Zm0,3.021a.722.722,0,1,1,.722-.722A.723.723,0,0,1,34.8,43.613Z" transform="translate(-19.533 -32.516)" fill="#103857"/>
        <path id="Path_23144" data-name="Path 23144" d="M50.133,45.189a2.3,2.3,0,1,0-2.3-2.3A2.3,2.3,0,0,0,50.133,45.189Zm0-3.021a.722.722,0,1,1-.722.722A.723.723,0,0,1,50.133,42.168Z" transform="translate(-26.81 -32.516)" fill="#103857"/>
        <path id="Path_23145" data-name="Path 23145" d="M65.467,45.189a2.3,2.3,0,1,0-2.3-2.3A2.3,2.3,0,0,0,65.467,45.189Zm0-3.021a.722.722,0,1,1-.722.722A.723.723,0,0,1,65.467,42.168Z" transform="translate(-34.088 -32.516)" fill="#103857"/>
        <path id="Path_23146" data-name="Path 23146" d="M141.417,43.467H79.288a.788.788,0,0,0,0,1.576h62.129a.788.788,0,0,0,0-1.576Z" transform="translate(-41.364 -33.881)" fill="#103857"/>
        <path id="Path_23147" data-name="Path 23147" d="M18.067,227.777H8.608a.788.788,0,1,0,0,1.576h9.459a.788.788,0,1,0,0-1.576Z" transform="translate(-7.82 -121.353)" fill="#103857"/>
        <path id="Path_23148" data-name="Path 23148" d="M237.424,227.777h-9.459a.788.788,0,0,0,0,1.576h9.459a.788.788,0,1,0,0-1.576Z" transform="translate(-111.925 -121.353)" fill="#103857"/>
        <path id="Path_23149" data-name="Path 23149" d="M131.886,227.777H36.809a.788.788,0,1,0,0,1.576h95.077a.788.788,0,1,0,0-1.576Z" transform="translate(-21.204 -121.353)" fill="#103857"/>
        <path id="Path_23150" data-name="Path 23150" d="M8.608,125.078h124.71a.788.788,0,1,0,0-1.576h-41v-4.166a.788.788,0,0,0-.788-.788H86.472V108.189h36.181a8.158,8.158,0,0,0,8.149-8.149V33.371a8.158,8.158,0,0,0-8.149-8.149H19.273a8.158,8.158,0,0,0-8.149,8.149v66.67a8.158,8.158,0,0,0,8.149,8.149H55.454v10.359H50.392a.788.788,0,0,0-.788.788V123.5h-41a.788.788,0,1,0,0,1.576ZM114.931,75.8a4.344,4.344,0,0,0-3.105,1.3,4.358,4.358,0,0,0-7.179-1.376A4.356,4.356,0,0,0,97.862,74.1V69.253H107.1a7.1,7.1,0,0,0,7.093-7.093v-.189a7.1,7.1,0,0,0-7.093-7.093H80.217a7.1,7.1,0,0,0-7.093,7.093v.189a7.1,7.1,0,0,0,7.093,7.093h8.925V81.5l-.156-.328a4.36,4.36,0,0,0-7.877,3.739L86.192,95.62H19.273a2.045,2.045,0,0,1-2.043-2.043V33.371a2.045,2.045,0,0,1,2.043-2.043h103.38a2.045,2.045,0,0,1,2.043,2.043V93.577a2.045,2.045,0,0,1-2.043,2.043H119.29V80.159a4.365,4.365,0,0,0-4.359-4.36ZM89.143,63.037v4.64H80.218A5.523,5.523,0,0,1,74.7,62.16v-.189a5.523,5.523,0,0,1,5.517-5.517H107.1a5.523,5.523,0,0,1,5.517,5.517v.189a5.523,5.523,0,0,1-5.517,5.517H97.862v-4.64a4.36,4.36,0,1,0-8.719,0Zm-6.609,21.2a2.783,2.783,0,1,1,5.029-2.387l1.656,3.489a.789.789,0,0,0,1.5-.338V63.037a2.783,2.783,0,1,1,5.567,0V77.455a.788.788,0,0,0,1.576,0,2.783,2.783,0,0,1,5.567,0v1.291a.788.788,0,0,0,1.576,0,2.783,2.783,0,1,1,5.567,0v1.412a.788.788,0,0,0,1.576,0,2.783,2.783,0,1,1,5.567,0v26.453H90.72v-4.958a.79.79,0,0,0-.077-.339ZM12.7,100.041V33.371A6.58,6.58,0,0,1,19.273,26.8h103.38a6.58,6.58,0,0,1,6.572,6.572v66.67a6.58,6.58,0,0,1-6.572,6.572H119.29V97.2h3.363a3.623,3.623,0,0,0,3.619-3.62V33.371a3.623,3.623,0,0,0-3.619-3.619H19.273a3.623,3.623,0,0,0-3.619,3.619V93.577a3.623,3.623,0,0,0,3.619,3.62H86.94l1.957,4.123v0l.245.513v4.78H19.273a6.581,6.581,0,0,1-6.572-6.573Zm44.33,8.149H84.9v10.359H57.031Zm-5.85,11.935H90.746V123.5H51.181Z" transform="translate(-7.82 -25.222)" fill="#103857"/>
        <path id="Path_23151" data-name="Path 23151" d="M80.627,73.059H78.56l2.119-9.406a.787.787,0,0,0-.769-.961H76.95V61.9a4.628,4.628,0,0,0-8.13-3.032.781.781,0,0,0-.347-.084H46.831a.788.788,0,0,0-.788.788v13.2l-1.593-4.96a.788.788,0,0,0-.75-.547H41.435a.788.788,0,0,0,0,1.576h1.69l1.684,5.243h0l1.048,3.263,4.267,13.288A5.987,5.987,0,0,0,46.939,96v1.47a.788.788,0,0,0,.788.788h3.34a4.077,4.077,0,1,0,6.426,0h13.74a4.077,4.077,0,1,0,6.426,0h2.968a.788.788,0,0,0,0-1.576H48.516V96A4.528,4.528,0,0,1,51.3,91.814L80.766,86.54a.788.788,0,0,0,.649-.776V73.847a.788.788,0,0,0-.788-.788Zm-23.846,27.7a2.5,2.5,0,1,1-2.5-2.5A2.5,2.5,0,0,1,56.781,100.762Zm20.166,0a2.5,2.5,0,1,1-2.5-2.5A2.5,2.5,0,0,1,76.947,100.762Zm0-27.7H67.689l-1.98-8.792H78.924Zm-25.319,17.1L46.64,74.635h9.174V89.4Zm5.766-15.519H64.4V87.869l-7.006,1.254Zm8.583,0h7.006v11.7l-7.006,1.254Zm6.344-15.791A3.061,3.061,0,0,1,75.374,61.9v.789H69.261v-.83A3.06,3.06,0,0,1,72.317,58.844ZM61.069,60.362v5.754a.788.788,0,0,0-1.182.02l-.82.961-.773-.948a.788.788,0,0,0-1.211-.014l-.82.962-.773-.949a.787.787,0,0,0-.6-.291H54.88a.789.789,0,0,0-.6.277l-.045.053V60.361h6.834Zm-8.41,0v7.967a.788.788,0,0,0,1.388.511l.82-.961.773.948a.787.787,0,0,0,.6.291.743.743,0,0,0,.608-.277l.82-.962.773.949a.787.787,0,0,0,.6.291.739.739,0,0,0,.608-.277l.82-.961.773.948a.788.788,0,0,0,1.4-.5V60.362h5.04v1.5c0,.014,0,.027,0,.04v.789h-2.96a.787.787,0,0,0-.769.961l2.119,9.406H47.619v-12.7ZM79.839,85.105l-5.283.946V74.635h5.283Z" transform="translate(-23.399 -40.431)" fill="#103857"/>
      </g>
    </g>
  </g>
</svg>
