<svg xmlns="http://www.w3.org/2000/svg" width="107.606" height="109" viewBox="0 0 107.606 109">
  <g id="search-engine-optimization" transform="translate(-7.82 -6.264)">
    <path id="Path_23074" data-name="Path 23074" d="M21.882,115.033a6.279,6.279,0,0,1-6.272-6.272V51.953a6.279,6.279,0,0,1,6.272-6.272H109.97a6.279,6.279,0,0,1,6.272,6.272v56.808a6.279,6.279,0,0,1-6.272,6.272Z" transform="translate(-4.302 -21.77)" fill="#5e6f7c"/>
    <path id="Path_23075" data-name="Path 23075" d="M117.144,108.015a2.419,2.419,0,0,1-2.412,2.412H26.643a2.419,2.419,0,0,1-2.412-2.412v-51.3A2.419,2.419,0,0,1,26.643,54.3h88.088a2.419,2.419,0,0,1,2.412,2.412Z" transform="translate(-9.064 -26.532)" fill="#658ea1"/>
    <path id="Path_23076" data-name="Path 23076" d="M28.6,108.015v-51.3A2.419,2.419,0,0,1,31.013,54.3H26.643a2.419,2.419,0,0,0-2.412,2.412v51.3a2.419,2.419,0,0,0,2.412,2.412h4.369A2.419,2.419,0,0,1,28.6,108.015Z" transform="translate(-9.064 -26.532)" fill="#6377e7"/>
    <path id="Path_23077" data-name="Path 23077" d="M219.034,108.015v-51.3a2.419,2.419,0,0,0-2.412-2.412h4.369a2.419,2.419,0,0,1,2.412,2.412v51.3a2.419,2.419,0,0,1-2.412,2.412h-4.369A2.419,2.419,0,0,0,219.034,108.015Z" transform="translate(-115.323 -26.532)" fill="#63e2e7"/>
    <path id="Path_23078" data-name="Path 23078" d="M88.848,223.307H123.9v4.221H88.848Z" transform="translate(-44.753 -119.875)" fill="#fb5124"/>
    <path id="Path_23079" data-name="Path 23079" d="M99.983,200.591h25.086v10.17H99.983Z" transform="translate(-50.903 -107.329)" fill="#9e9e9e"/>
    <path id="Path_23080" data-name="Path 23080" d="M88.848,223.307h4.369v4.221H88.848Z" transform="translate(-44.753 -119.875)" fill="#f43075"/>
    <path id="Path_23081" data-name="Path 23081" d="M99.983,200.591h4.369v10.17H99.983Z" transform="translate(-50.903 -107.329)" fill="#707070"/>
    <circle id="Ellipse_93" data-name="Ellipse 93" cx="2.065" cy="2.065" r="2.065" transform="translate(59.558 86.514)" fill="#f8af23"/>
    <path id="Path_23082" data-name="Path 23082" d="M39.379,83.209H84.034V99.326H39.379Z" transform="translate(-17.43 -42.497)" fill="#ffffb0"/>
    <path id="Path_23083" data-name="Path 23083" d="M84.952,100.11l3.17-3.17a.674.674,0,0,0,0-.954l-3.17-3.17a.674.674,0,0,0-1.151.477v6.34A.674.674,0,0,0,84.952,100.11Z" transform="translate(-41.965 -47.694)" fill="#f46275"/>
    <circle id="Ellipse_94" data-name="Ellipse 94" cx="25.159" cy="25.159" r="25.159" transform="translate(55.926 6.936)" fill="#eaedc5"/>
    <g id="Group_9733" data-name="Group 9733" transform="translate(78.9 6.936)">
      <path id="Path_23084" data-name="Path 23084" d="M168.776,7.764c-.736,0-1.464.039-2.185.1a25.153,25.153,0,0,1,0,50.118c.721.062,1.448.1,2.185.1a25.159,25.159,0,1,0,0-50.318Z" transform="translate(-166.591 -7.764)" fill="#cbce9d"/>
    </g>
    <path id="Path_23085" data-name="Path 23085" d="M169.851,176.24a6.926,6.926,0,0,1-13.852,0V149.912a6.926,6.926,0,0,1,13.852,0Z" transform="translate(-81.841 -75.513)" fill="#9e9e9e"/>
    <path id="Path_23086" data-name="Path 23086" d="M168.776,142.986a6.9,6.9,0,0,0-2.185.357,6.925,6.925,0,0,1,4.742,6.569V176.24a6.925,6.925,0,0,1-4.742,6.569,6.917,6.917,0,0,0,9.111-6.569V149.912a6.927,6.927,0,0,0-6.926-6.926Z" transform="translate(-87.691 -75.513)" fill="#cecece"/>
    <circle id="Ellipse_95" data-name="Ellipse 95" cx="15.347" cy="15.347" r="15.347" transform="translate(65.738 16.748)" fill="#ffffb0"/>
    <path id="Path_23087" data-name="Path 23087" d="M167.162,53.551c-.034,0-.066,0-.1,0h-29.15a15.388,15.388,0,0,0,0,9.327h29.15c.034,0,.066,0,.1,0a15.384,15.384,0,0,0,0-9.317Z" transform="translate(-71.452 -26.114)" fill="#63bce7"/>
    <g id="Group_9734" data-name="Group 9734" transform="translate(7.82 6.264)">
      <path id="Path_23088" data-name="Path 23088" d="M124.624,189.49a2.737,2.737,0,1,0-2.737-2.737A2.74,2.74,0,0,0,124.624,189.49Zm0-4.131a1.394,1.394,0,1,1-1.394,1.394A1.395,1.395,0,0,1,124.624,185.36Z" transform="translate(-70.82 -104.439)" fill="#321f7a"/>
      <path id="Path_23089" data-name="Path 23089" d="M34.459,63.468A1.959,1.959,0,1,0,32.5,61.51,1.961,1.961,0,0,0,34.459,63.468Zm0-2.574a.616.616,0,1,1-.616.616A.616.616,0,0,1,34.459,60.894Z" transform="translate(-21.451 -35.695)" fill="#321f7a"/>
      <path id="Path_23090" data-name="Path 23090" d="M49.793,63.468a1.959,1.959,0,1,0-1.959-1.959A1.961,1.961,0,0,0,49.793,63.468Zm0-2.574a.616.616,0,1,1-.616.616A.616.616,0,0,1,49.793,60.894Z" transform="translate(-29.92 -35.695)" fill="#321f7a"/>
      <path id="Path_23091" data-name="Path 23091" d="M65.127,63.468a1.959,1.959,0,1,0-1.959-1.959A1.961,1.961,0,0,0,65.127,63.468Zm0-2.574a.616.616,0,1,1-.616.616A.616.616,0,0,1,65.127,60.894Z" transform="translate(-38.389 -35.695)" fill="#321f7a"/>
      <path id="Path_23092" data-name="Path 23092" d="M16.551,246.736H8.492a.672.672,0,1,0,0,1.343h8.06a.672.672,0,1,0,0-1.343Z" transform="translate(-7.82 -139.079)" fill="#321f7a"/>
      <path id="Path_23093" data-name="Path 23093" d="M235.908,246.736h-8.06a.672.672,0,1,0,0,1.343h8.06a.672.672,0,0,0,0-1.343Z" transform="translate(-128.973 -139.079)" fill="#321f7a"/>
      <path id="Path_23094" data-name="Path 23094" d="M117.706,246.736H36.693a.672.672,0,1,0,0,1.343h81.014a.672.672,0,1,0,0-1.343Z" transform="translate(-23.396 -139.079)" fill="#321f7a"/>
      <path id="Path_23095" data-name="Path 23095" d="M8.492,108.325H114.755a.672.672,0,0,0,0-1.343H85.388a7.592,7.592,0,0,0,3.294-6.255V93.934h16.985a6.951,6.951,0,0,0,6.943-6.943V30.182a6.951,6.951,0,0,0-6.943-6.943h-.317a25.832,25.832,0,0,0-48.532,0H17.579a6.951,6.951,0,0,0-6.943,6.943V86.991a6.951,6.951,0,0,0,6.943,6.943h30.83v8.827H44.1a.671.671,0,0,0-.672.672v3.55H8.492a.672.672,0,0,0,0,1.343Zm78.848-7.6a6.252,6.252,0,0,1-12.5.155v-7.62a.627.627,0,0,0-.008-.078V74.4a6.255,6.255,0,0,1,12.509,0ZM55.272,31.407H40.134a.672.672,0,0,0,0,1.343H55.271a25.706,25.706,0,0,0,1.239,7.29H21.949a.671.671,0,0,0-.672.672V56.828a.671.671,0,0,0,.672.672H66.6a.671.671,0,0,0,.672-.672v-2.92a25.666,25.666,0,0,0,13.138,4v8.927A7.605,7.605,0,0,0,73.488,74.4v8.824H17.579a1.743,1.743,0,0,1-1.741-1.741v-51.3a1.743,1.743,0,0,1,1.741-1.741H55.517A25.976,25.976,0,0,0,55.272,31.407ZM65.932,53v3.161H22.62V41.383H56.988A25.953,25.953,0,0,0,65.932,53Zm40.983-20.9a26,26,0,0,0-.219-3.312,1.736,1.736,0,0,1,.712,1.4v51.3a1.743,1.743,0,0,1-1.741,1.741H88.683V74.4a7.6,7.6,0,0,0-6.926-7.564V57.908a25.855,25.855,0,0,0,25.159-25.813Zm4.352-1.913V86.991a5.606,5.606,0,0,1-5.6,5.6H88.683V84.567h16.985a3.087,3.087,0,0,0,3.084-3.084v-51.3a3.084,3.084,0,0,0-2.307-2.981,25.6,25.6,0,0,0-.645-2.612,5.6,5.6,0,0,1,5.468,5.593ZM81.085,7.607A24.488,24.488,0,1,1,56.6,32.095,24.515,24.515,0,0,1,81.085,7.607ZM11.979,86.991V30.182a5.606,5.606,0,0,1,5.6-5.6H56.372a25.577,25.577,0,0,0-.628,2.516H17.579A3.087,3.087,0,0,0,14.5,30.182v51.3a3.087,3.087,0,0,0,3.084,3.084H73.487v8.024H17.579a5.606,5.606,0,0,1-5.6-5.6Zm37.773,6.943H73.487v6.793c0,.052.007.1.008.155v1.878H49.752ZM44.767,104.1H74.289a7.636,7.636,0,0,0,2.493,2.878H44.767Z" transform="translate(-7.82 -6.264)" fill="#103857"/>
      <path id="Path_23096" data-name="Path 23096" d="M38.551,129.843H83.206a.672.672,0,1,0,0-1.343H38.551a.672.672,0,0,0,0,1.343Z" transform="translate(-24.422 -73.776)" fill="#321f7a"/>
      <path id="Path_23097" data-name="Path 23097" d="M83.206,137.5H38.551a.672.672,0,1,0,0,1.343H83.206a.672.672,0,1,0,0-1.343Z" transform="translate(-24.422 -78.747)" fill="#321f7a"/>
      <path id="Path_23098" data-name="Path 23098" d="M83.206,146.5H38.551a.672.672,0,0,0,0,1.343H83.206a.672.672,0,1,0,0-1.343Z" transform="translate(-24.422 -83.718)" fill="#321f7a"/>
      <path id="Path_23099" data-name="Path 23099" d="M83.206,155.5H38.551a.672.672,0,1,0,0,1.343H83.206a.672.672,0,1,0,0-1.343Z" transform="translate(-24.422 -88.689)" fill="#321f7a"/>
      <path id="Path_23100" data-name="Path 23100" d="M83.206,164.5H38.551a.672.672,0,0,0,0,1.343H83.206a.672.672,0,1,0,0-1.343Z" transform="translate(-24.422 -93.659)" fill="#321f7a"/>
      <path id="Path_23101" data-name="Path 23101" d="M83.131,100.05a1.343,1.343,0,0,0,1.467-.292l3.17-3.17a1.345,1.345,0,0,0,0-1.9l-3.17-3.17a1.346,1.346,0,0,0-2.3.952v6.34A1.343,1.343,0,0,0,83.131,100.05Zm.512-1.243,0-6.342,3.17,3.174-3.17,3.17" transform="translate(-48.956 -53.131)" fill="#321f7a"/>
      <path id="Path_23102" data-name="Path 23102" d="M151.709,60.219A16.019,16.019,0,1,0,135.69,44.2a16.037,16.037,0,0,0,16.019,16.019Zm0-1.343a14.7,14.7,0,0,1-13.668-9.341h27.335a14.7,14.7,0,0,1-13.668,9.341ZM166.385,44.2a14.617,14.617,0,0,1-.556,3.992H137.589a14.6,14.6,0,0,1,0-7.984h28.239A14.62,14.62,0,0,1,166.385,44.2ZM151.709,29.524a14.7,14.7,0,0,1,13.668,9.341H138.041A14.7,14.7,0,0,1,151.709,29.524Z" transform="translate(-78.444 -18.369)" fill="#321f7a"/>
    </g>
  </g>
</svg>
