<svg xmlns="http://www.w3.org/2000/svg" width="107.213" height="109" viewBox="0 0 107.213 109">
  <g id="facebook" transform="translate(-2 -1)">
    <path id="Path_23103" data-name="Path 23103" d="M3,55H63.754v3.574a7.148,7.148,0,0,1-7.148,7.148H10.148A7.148,7.148,0,0,1,3,58.574Z" transform="translate(0.787 42.492)" fill="#5e6f7c"/>
    <path id="Path_23104" data-name="Path 23104" d="M13.148,47.3V33H6V72.311H56.033V65.164H31.016A17.869,17.869,0,0,1,13.148,47.3Z" transform="translate(3.148 25.18)" fill="#ffffb0"/>
    <rect id="Rectangle_2643" data-name="Rectangle 2643" width="28.252" height="29.226" rx="2" transform="translate(78.962 59.452)" fill="#ffffb0"/>
    <ellipse id="Ellipse_96" data-name="Ellipse 96" cx="5.358" cy="5.845" rx="5.358" ry="5.845" transform="translate(87.73 68.22)" fill="#79bd9a"/>
    <ellipse id="Ellipse_97" data-name="Ellipse 97" cx="1.948" cy="1.461" rx="1.948" ry="1.461" transform="translate(92.601 71.143)" fill="#aae1f9"/>
    <ellipse id="Ellipse_98" data-name="Ellipse 98" cx="14.126" cy="14.613" rx="14.126" ry="14.613" transform="translate(32.2 1.974)" fill="#607d8b"/>
    <path id="Path_23105" data-name="Path 23105" d="M25,17.721V7l10.721,5.361Z" transform="translate(18.098 4.721)" fill="#cff09e"/>
    <path id="Path_23106" data-name="Path 23106" d="M50.361,11.934V3H48.574A3.574,3.574,0,0,0,45,6.574V28.016a3.574,3.574,0,0,0,3.574,3.574H70.016a3.574,3.574,0,0,0,3.574-3.574V26.23H64.656a14.3,14.3,0,0,1-14.3-14.3Z" transform="translate(33.836 1.574)" fill="#ffffb0"/>
    <path id="Path_23107" data-name="Path 23107" d="M8.361,24.508V12H3V40.59H24.443V35.23H19.082A10.721,10.721,0,0,1,8.361,24.508Z" transform="translate(0.787 8.656)" fill="#ffffb0"/>
    <path id="Path_23108" data-name="Path 23108" d="M0,0H7.148V14.3A3.574,3.574,0,1,1,0,14.3Z" transform="matrix(0.866, -0.5, 0.5, 0.866, 32.488, 76.345)" fill="#607d8b"/>
    <path id="Path_23109" data-name="Path 23109" d="M57.632,48.766,27.094,60.2,18.16,44.728,43.337,24Z" transform="translate(12.716 18.098)" fill="#ffffb0"/>
    <path id="Path_23110" data-name="Path 23110" d="M5.361,0H14.3V17.869H5.361A5.361,5.361,0,0,1,0,12.508V5.361A5.361,5.361,0,0,1,5.361,0Z" transform="matrix(0.866, -0.5, 0.5, 0.866, 18.504, 69.976)" fill="#607d8b"/>
    <path id="Path_23111" data-name="Path 23111" d="M3.574,0H7.148V7.148H3.574A3.574,3.574,0,0,1,3.574,0Z" transform="matrix(0.866, -0.5, 0.5, 0.866, 14.982, 78.189)" fill="#79bd9a"/>
    <g id="Group_9735" data-name="Group 9735" transform="translate(2 1)">
      <path id="Path_23112" data-name="Path 23112" d="M61.508,6H57.934a5.361,5.361,0,0,0-5.361,5.361v1.787H50.787a1.787,1.787,0,0,0,0,3.574h1.787v5.361a1.787,1.787,0,1,0,3.574,0V16.721h1.787a1.787,1.787,0,1,0,0-3.574H56.148V11.361a1.787,1.787,0,0,1,1.787-1.787h3.574a1.787,1.787,0,0,0,0-3.574Z" transform="translate(34.984 2.934)" fill="#103857"/>
      <path id="Path_23113" data-name="Path 23113" d="M70.8,2H49.361A5.361,5.361,0,0,0,44,7.361V28.8a5.361,5.361,0,0,0,5.361,5.361H70.8A5.361,5.361,0,0,0,76.164,28.8V7.361A5.361,5.361,0,0,0,70.8,2ZM72.59,28.8A1.787,1.787,0,0,1,70.8,30.59H49.361A1.787,1.787,0,0,1,47.574,28.8V7.361a1.787,1.787,0,0,1,1.787-1.787H70.8A1.787,1.787,0,0,1,72.59,7.361Z" transform="translate(31.049 -0.213)" fill="#103857"/>
      <path id="Path_23114" data-name="Path 23114" d="M70.8,33H49.361A5.361,5.361,0,0,0,44,38.361V59.8a5.361,5.361,0,0,0,5.361,5.361H70.8A5.361,5.361,0,0,0,76.164,59.8V38.361A5.361,5.361,0,0,0,70.8,33ZM72.59,59.8A1.787,1.787,0,0,1,70.8,61.59H49.361A1.787,1.787,0,0,1,47.574,59.8V38.361a1.787,1.787,0,0,1,1.787-1.787H70.8a1.787,1.787,0,0,1,1.787,1.787Z" transform="translate(31.049 24.18)" fill="#103857"/>
      <path id="Path_23115" data-name="Path 23115" d="M56.148,38A7.148,7.148,0,1,0,63.3,45.148,7.148,7.148,0,0,0,56.148,38Zm0,10.721a3.574,3.574,0,1,1,3.574-3.574A3.574,3.574,0,0,1,56.148,48.721Z" transform="translate(34.984 28.115)" fill="#103857"/>
      <path id="Path_23116" data-name="Path 23116" d="M24.84,20.025a1.777,1.777,0,0,0,1.751.071l10.721-5.361a1.787,1.787,0,0,0,0-3.181L26.591,6.194A1.787,1.787,0,0,0,24,7.785V18.506A1.787,1.787,0,0,0,24.84,20.025Zm2.734-9.345,4.932,2.466-4.932,2.466Z" transform="translate(15.311 2.937)" fill="#103857"/>
      <path id="Path_23117" data-name="Path 23117" d="M34.082,33.164A16.082,16.082,0,1,0,18,17.082,16.082,16.082,0,0,0,34.082,33.164Zm0-28.59A12.508,12.508,0,1,1,21.574,17.082,12.508,12.508,0,0,1,34.082,4.574Z" transform="translate(10.59 -1)" fill="#103857"/>
      <path id="Path_23118" data-name="Path 23118" d="M37.787,27.721a1.787,1.787,0,0,0,1.43-.715l5.361-7.148a1.787,1.787,0,0,0-2.859-2.144l-5.361,7.148a1.787,1.787,0,0,0,1.43,2.859Z" transform="translate(24.754 11.59)" fill="#103857"/>
      <path id="Path_23119" data-name="Path 23119" d="M39.357,30.22a1.787,1.787,0,0,0,2.5.357l7.148-5.361a1.787,1.787,0,1,0-2.144-2.859l-7.148,5.361a1.787,1.787,0,0,0-.357,2.5Z" transform="translate(27.115 15.525)" fill="#103857"/>
      <path id="Path_23120" data-name="Path 23120" d="M54.591,29.448a1.787,1.787,0,0,0-2.144-1.43l-8.934,1.787a1.8,1.8,0,1,0,.357,3.574h.357l8.934-1.787a1.787,1.787,0,0,0,1.43-2.144Z" transform="translate(29.393 20.227)" fill="#103857"/>
      <path id="Path_23121" data-name="Path 23121" d="M3.787,43.164H25.23a1.787,1.787,0,0,0,1.787-1.787V12.787A1.787,1.787,0,0,0,25.23,11H3.787A1.787,1.787,0,0,0,2,12.787v28.59A1.787,1.787,0,0,0,3.787,43.164Zm1.787-28.59H23.443V39.59H5.574Z" transform="translate(-2 6.869)" fill="#103857"/>
      <path id="Path_23122" data-name="Path 23122" d="M13.361,15H9.787a1.787,1.787,0,1,0,0,3.574h3.574a1.787,1.787,0,1,0,0-3.574Z" transform="translate(2.721 10.016)" fill="#103857"/>
      <path id="Path_23123" data-name="Path 23123" d="M14.934,19H7.787a1.787,1.787,0,1,0,0,3.574h7.148a1.787,1.787,0,1,0,0-3.574Z" transform="translate(1.148 13.164)" fill="#103857"/>
      <path id="Path_23124" data-name="Path 23124" d="M14.934,23H7.787a1.787,1.787,0,1,0,0,3.574h7.148a1.787,1.787,0,0,0,0-3.574Z" transform="translate(1.148 16.311)" fill="#103857"/>
      <path id="Path_23125" data-name="Path 23125" d="M57.608,23.891a1.811,1.811,0,0,0-2.7-.482L35.951,39.08H9.148a1.787,1.787,0,0,0-1.787,1.787V78.391H3.787A1.787,1.787,0,0,0,2,80.178v3.574a8.934,8.934,0,0,0,8.934,8.934H57.393a8.934,8.934,0,0,0,8.934-8.934V80.178a1.787,1.787,0,0,0-1.787-1.787H60.967V54.965l10.007-3.752a1.792,1.792,0,0,0,.929-2.555ZM40.579,62.613h.143L44.3,68.778A1.785,1.785,0,0,1,41.2,70.565l-3.574-6.2Zm-3.216-2.287L31.18,63.9A3.568,3.568,0,0,1,26.3,62.6l-3.574-6.183a3.574,3.574,0,0,1,1.3-4.825l6.183-3.574,3.574,6.2Zm-16.832-.59,1.787,3.091-1.555.893a1.785,1.785,0,1,1-1.787-3.091ZM62.754,83.752a5.361,5.361,0,0,1-5.361,5.361H53.82V87.326a1.787,1.787,0,0,0-3.574,0v1.787H18.082V87.326a1.787,1.787,0,0,0-3.574,0v1.787H10.934a5.361,5.361,0,0,1-5.361-5.361V81.965h57.18Zm-5.361-5.361H10.934V42.654h20.6l-1.68,1.376-7.612,4.4a7.148,7.148,0,0,0-3.288,8.095l-1.787,1.019a5.357,5.357,0,0,0,2.68,10.007,5.468,5.468,0,0,0,2.68-.715l1.787-1.019a6.933,6.933,0,0,0,3.216,1.858,6.772,6.772,0,0,0,1.876.25,7.04,7.04,0,0,0,3.574-.965l1.555-.893,3.574,6.2A5.356,5.356,0,1,0,47.387,66.9l-3.252-5.664,13.259-4.932ZM40.6,58.736l-3.7-6.415-3.717-6.433L55.607,27.5,67.793,48.6Z" transform="translate(-2 16.314)" fill="#103857"/>
    </g>
  </g>
</svg>
