<svg xmlns="http://www.w3.org/2000/svg" width="116.974" height="109" viewBox="0 0 116.974 109">
  <g id="development" transform="translate(-3.5 -7.625)">
    <path id="Path_23153" data-name="Path 23153" d="M112.874,11.625H15.234A7.743,7.743,0,0,0,7.5,19.359v68.2A7.743,7.743,0,0,0,15.234,95.3h36.5l-5,12.124H36.26a4.839,4.839,0,0,0-4.834,4.834v3.538a.967.967,0,0,0,.967.967H95.714a.967.967,0,0,0,.967-.967v-3.538a4.839,4.839,0,0,0-4.834-4.834H81.377l-5-12.124h36.5a7.743,7.743,0,0,0,7.734-7.734v-68.2A7.743,7.743,0,0,0,112.874,11.625Z" transform="translate(-0.133 -0.133)" fill="#e6e7e8"/>
    <g id="Group_9748" data-name="Group 9748" transform="translate(3.5 7.625)">
      <path id="Path_23154" data-name="Path 23154" d="M11.267,90.362h97.64a6.767,6.767,0,0,0,6.767-6.767v-68.2a6.767,6.767,0,0,0-6.767-6.767H11.267A6.767,6.767,0,0,0,4.5,15.392v68.2A6.767,6.767,0,0,0,11.267,90.362Z" transform="translate(-3.533 -7.658)" fill="#103857"/>
      <path id="Path_23155" data-name="Path 23155" d="M50.55,93.175H72.3l5.8,14.056H44.75Z" transform="translate(-4.872 -10.471)" fill="#9e9e9e"/>
      <path id="Path_23156" data-name="Path 23156" d="M29.25,115.12H92.571v-3.538a3.867,3.867,0,0,0-3.867-3.867H33.117a3.867,3.867,0,0,0-3.867,3.867Z" transform="translate(-4.357 -10.955)" fill="#fb5124"/>
      <path id="Path_23157" data-name="Path 23157" d="M16.617,78.534h87.424a4.834,4.834,0,0,0,4.834-4.834V20.743a4.834,4.834,0,0,0-4.834-4.834H16.617a4.834,4.834,0,0,0-4.834,4.834V73.7a4.834,4.834,0,0,0,4.834,4.834Z" transform="translate(-3.776 -7.901)" fill="#d4fbff"/>
      <g id="Group_9745" data-name="Group 9745" transform="translate(29.715 14.63)">
        <path id="Path_23158" data-name="Path 23158" d="M53.7,44.735v.043a2.465,2.465,0,0,1-3.444,2.261L36.368,41.021a3.535,3.535,0,0,1-2.13-3.244v-.038a3.537,3.537,0,0,1,2.13-3.244l13.885-6.018A2.465,2.465,0,0,1,53.7,30.738V30.8a2.465,2.465,0,0,1-1.579,2.3L40.138,37.72l12,4.723A2.462,2.462,0,0,1,53.7,44.735Z" transform="translate(-34.238 -22.941)" fill="#e7b36e"/>
        <path id="Path_23159" data-name="Path 23159" d="M66.478,26.684l-5.417,22.3c-.181.735-.337,1.315-.474,1.741a2.129,2.129,0,0,1-.619,1,1.8,1.8,0,0,1-1.209.358q-1.972,0-1.973-1.7a15.148,15.148,0,0,1,.387-2.224l5.4-22.3a9.964,9.964,0,0,1,.813-2.437,1.6,1.6,0,0,1,1.508-.657,2.134,2.134,0,0,1,1.48.464,1.637,1.637,0,0,1,.512,1.277,10.59,10.59,0,0,1-.405,2.185Z" transform="translate(-34.988 -22.758)" fill="#e7b36e"/>
        <path id="Path_23160" data-name="Path 23160" d="M86.968,41.026,73.081,47.072a2.464,2.464,0,0,1-3.447-2.259v-.034A2.465,2.465,0,0,1,71.2,42.484L83.232,37.76,71.209,33.108a2.464,2.464,0,1,1,1.866-4.56l13.883,5.99a3.535,3.535,0,0,1,.011,6.488Z" transform="translate(-35.416 -22.944)" fill="#e7b36e"/>
      </g>
      <g id="Group_9746" data-name="Group 9746" transform="translate(20.85 49.141)">
        <path id="Path_23161" data-name="Path 23161" d="M97.4,65.166A4.167,4.167,0,0,1,93.5,69.325L52.98,71.875V58.458L93.5,61.007A4.167,4.167,0,0,1,97.4,65.166Z" transform="translate(-25.997 -58.457)" fill="#274e6c"/>
        <path id="Path_23162" data-name="Path 23162" d="M41.949,69.345l10.664,2.53V58.457l-10.664,2.53Z" transform="translate(-25.63 -58.457)" fill="#7693a9"/>
        <path id="Path_23163" data-name="Path 23163" d="M41.388,61.021c-.713-.554-3.284-2.33-6.147-1.625-4.854,1.195-10.173,6.72-10.173,6.72s3.452-.466,5.3.555,2.836,3.76,5.425,4.438c2.209.578,4.86-1.165,5.593-1.691Z" transform="translate(-25.068 -58.483)" fill="#ffffb0"/>
      </g>
      <path id="Path_23164" data-name="Path 23164" d="M104.042,15.908H16.617a4.834,4.834,0,0,0-4.834,4.834v2.9a4.834,4.834,0,0,1,4.834-4.834h87.424a4.834,4.834,0,0,1,4.834,4.834v-2.9A4.833,4.833,0,0,0,104.042,15.908Z" transform="translate(-3.776 -7.901)" fill="#fff"/>
      <circle id="Ellipse_102" data-name="Ellipse 102" cx="3.017" cy="3.017" r="3.017" transform="translate(53.537 73.429)" fill="#6dc9f7"/>
      <g id="Group_9747" data-name="Group 9747">
        <path id="Path_23165" data-name="Path 23165" d="M54.63,30.7a3.432,3.432,0,0,0-4.795-3.149L35.95,33.574a4.531,4.531,0,0,0,0,8.3l13.885,6.019a3.432,3.432,0,0,0,4.795-3.149V44.7a3.413,3.413,0,0,0-2.174-3.193L42.768,37.7l9.663-3.723a3.472,3.472,0,0,0,2.2-3.269Zm-2.892,1.465L39.757,36.784a.967.967,0,0,0-.007,1.8l12,4.723A1.489,1.489,0,0,1,52.7,44.7v.043A1.5,1.5,0,0,1,50.6,46.119L36.718,40.1a2.6,2.6,0,0,1,0-4.753L50.6,29.329a1.5,1.5,0,0,1,.6-.127,1.48,1.48,0,0,1,.817.248A1.509,1.509,0,0,1,52.7,30.77,1.484,1.484,0,0,1,51.737,32.168Z" transform="translate(-4.489 -8.279)" fill="#3a2c60"/>
        <path id="Path_23166" data-name="Path 23166" d="M60.567,52.424a3.064,3.064,0,0,0,.908-1.435q.212-.661.493-1.806l5.417-22.3a10.274,10.274,0,0,0,.434-2.42,2.606,2.606,0,0,0-.829-1.993,3.063,3.063,0,0,0-2.13-.714,2.488,2.488,0,0,0-2.34,1.132,10.42,10.42,0,0,0-.919,2.7L56.2,47.917a13.3,13.3,0,0,0-.409,2.429c0,1.671,1.1,2.669,2.94,2.669a2.734,2.734,0,0,0,1.84-.592ZM57.72,50.346a13.837,13.837,0,0,1,.36-2l5.4-22.305a8.8,8.8,0,0,1,.706-2.173c.066-.112.318-.18.674-.18a1.316,1.316,0,0,1,.829.214.673.673,0,0,1,.2.561,9.555,9.555,0,0,1-.376,1.946l0,.012-5.418,22.3c-.174.709-.325,1.267-.456,1.679a1.193,1.193,0,0,1-.328.555.913.913,0,0,1-.579.124C57.72,51.082,57.72,50.741,57.72,50.346Z" transform="translate(-5.239 -8.095)" fill="#3a2c60"/>
        <path id="Path_23167" data-name="Path 23167" d="M68.634,44.78a3.429,3.429,0,0,0,4.8,3.146l13.886-6.047a4.5,4.5,0,0,0-.013-8.263l-13.884-5.99a3.431,3.431,0,1,0-2.6,6.35l9.711,3.758-9.726,3.819A3.419,3.419,0,0,0,68.634,44.78Zm2.883-1.429,12.035-4.725a.967.967,0,0,0,0-1.8L71.524,32.172a1.506,1.506,0,0,1-.957-1.4,1.507,1.507,0,0,1,1.494-1.5,1.5,1.5,0,0,1,.6.126l13.884,5.99a2.569,2.569,0,0,1,.006,4.715L72.663,46.153a1.5,1.5,0,0,1-2.1-1.407A1.491,1.491,0,0,1,71.517,43.351Z" transform="translate(-5.667 -8.281)" fill="#3a2c60"/>
        <path id="Path_23168" data-name="Path 23168" d="M97.409,65.134A5.144,5.144,0,0,0,92.6,60.009l-40.518-2.55a1.037,1.037,0,0,0-.283.024L41.558,59.912A8.38,8.38,0,0,0,34.975,58.4c-5.067,1.246-10.413,6.754-10.638,6.989a.967.967,0,0,0,.825,1.629c.876-.115,3.426-.263,4.706.444a7.347,7.347,0,0,1,1.747,1.647,7.852,7.852,0,0,0,3.9,2.88,4.623,4.623,0,0,0,1.171.144A9.65,9.65,0,0,0,41.6,70.364l10.2,2.419a.9.9,0,0,0,.222.026l.06,0L92.6,70.257a5.142,5.142,0,0,0,4.813-5.123ZM42.524,61.67l8.528-2.022V70.619L42.524,68.6Zm-6.517,8.445a6.153,6.153,0,0,1-2.931-2.276A8.781,8.781,0,0,0,30.8,65.765,7.733,7.733,0,0,0,27.582,65c1.908-1.662,5-4.021,7.856-4.723a6.479,6.479,0,0,1,4.95,1.183v7.39C39.319,69.541,37.433,70.493,36.007,70.115Zm56.469-1.788L52.985,70.811V59.453l39.491,2.484a3.2,3.2,0,0,1,0,6.389Z" transform="translate(-4.184 -9.283)" fill="#3a2c60"/>
        <path id="Path_23169" data-name="Path 23169" d="M104.009,14.908H16.583a5.806,5.806,0,0,0-5.8,5.8V73.666a5.806,5.806,0,0,0,5.8,5.8H76.569a.967.967,0,0,0,0-1.933H16.583a3.871,3.871,0,0,1-3.867-3.867V20.708a3.871,3.871,0,0,1,3.867-3.867h87.425a3.871,3.871,0,0,1,3.867,3.867V73.666a3.871,3.871,0,0,1-3.867,3.867H95.034a.967.967,0,1,0,0,1.933h8.975a5.806,5.806,0,0,0,5.8-5.8V20.708a5.807,5.807,0,0,0-5.8-5.8Z" transform="translate(-3.742 -7.867)" fill="#3a2c60"/>
        <path id="Path_23170" data-name="Path 23170" d="M93.126,79.689H83.217a.967.967,0,1,0,0,1.933h9.909a.967.967,0,1,0,0-1.933Z" transform="translate(-6.12 -10.022)" fill="#3a2c60"/>
        <path id="Path_23171" data-name="Path 23171" d="M108.874,7.625H11.234A7.743,7.743,0,0,0,3.5,15.359v68.2A7.743,7.743,0,0,0,11.234,91.3h36.5l-5,12.123H32.26a4.839,4.839,0,0,0-4.834,4.834v3.538a.966.966,0,0,0,.967.967H91.714a.966.966,0,0,0,.967-.967v-3.538a4.839,4.839,0,0,0-4.834-4.834H77.378l-5-12.123h36.5a7.743,7.743,0,0,0,7.734-7.734v-68.2A7.743,7.743,0,0,0,108.874,7.625ZM90.748,108.252v2.572H29.36v-2.572a2.9,2.9,0,0,1,2.9-2.9H87.847A2.9,2.9,0,0,1,90.748,108.252Zm-15.462-4.834H44.822l5-12.123H70.283Zm39.389-19.857a5.806,5.806,0,0,1-5.8,5.8H11.234a5.806,5.806,0,0,1-5.8-5.8v-68.2a5.806,5.806,0,0,1,5.8-5.8h97.64a5.806,5.806,0,0,1,5.8,5.8Z" transform="translate(-3.5 -7.625)" fill="#3a2c60"/>
      </g>
    </g>
  </g>
</svg>
